  0
SECTION
  2
HEADER
  9
$ACADVER
  1
AC1024
  9
$ACADMAINTVER
 70
6
  9
$DWGCODEPAGE
  3
ANSI_1252
  9
$LASTSAVEDBY
  1
ezdxf
  9
$INSBASE
 10
0.0
 20
0.0
 30
0.0
  9
$EXTMIN
 10
1e+20
 20
1e+20
 30
1e+20
  9
$EXTMAX
 10
-1e+20
 20
-1e+20
 30
-1e+20
  9
$LIMMIN
 10
0.0
 20
0.0
  9
$LIMMAX
 10
420.0
 20
297.0
  9
$ORTHOMODE
 70
0
  9
$REGENMODE
 70
1
  9
$FILLMODE
 70
1
  9
$QTEXTMODE
 70
0
  9
$MIRRTEXT
 70
1
  9
$LTSCALE
 40
1.0
  9
$ATTMODE
 70
1
  9
$TEXTSIZE
 40
2.5
  9
$TRACEWID
 40
1.0
  9
$TEXTSTYLE
  7
Standard
  9
$CLAYER
  8
0
  9
$CELTYPE
  6
ByLayer
  9
$CECOLOR
 62
256
  9
$CELTSCALE
 40
1.0
  9
$DISPSILH
 70
0
  9
$DIMSCALE
 40
1.0
  9
$DIMASZ
 40
2.5
  9
$DIMEXO
 40
0.625
  9
$DIMDLI
 40
3.75
  9
$DIMRND
 40
0.0
  9
$DIMDLE
 40
0.0
  9
$DIMEXE
 40
1.25
  9
$DIMTP
 40
0.0
  9
$DIMTM
 40
0.0
  9
$DIMTXT
 40
2.5
  9
$DIMCEN
 40
2.5
  9
$DIMTSZ
 40
0.0
  9
$DIMTOL
 70
0
  9
$DIMLIM
 70
0
  9
$DIMTIH
 70
0
  9
$DIMTOH
 70
0
  9
$DIMSE1
 70
0
  9
$DIMSE2
 70
0
  9
$DIMTAD
 70
1
  9
$DIMZIN
 70
8
  9
$DIMBLK
  1

  9
$DIMASO
 70
1
  9
$DIMSHO
 70
1
  9
$DIMPOST
  1

  9
$DIMAPOST
  1

  9
$DIMALT
 70
0
  9
$DIMALTD
 70
3
  9
$DIMALTF
 40
0.03937007874
  9
$DIMLFAC
 40
1.0
  9
$DIMTOFL
 70
1
  9
$DIMTVP
 40
0.0
  9
$DIMTIX
 70
0
  9
$DIMSOXD
 70
0
  9
$DIMSAH
 70
0
  9
$DIMBLK1
  1

  9
$DIMBLK2
  1

  9
$DIMSTYLE
  2
ISO-25
  9
$DIMCLRD
 70
0
  9
$DIMCLRE
 70
0
  9
$DIMCLRT
 70
0
  9
$DIMTFAC
 40
1.0
  9
$DIMGAP
 40
0.625
  9
$DIMJUST
 70
0
  9
$DIMSD1
 70
0
  9
$DIMSD2
 70
0
  9
$DIMTOLJ
 70
0
  9
$DIMTZIN
 70
8
  9
$DIMALTZ
 70
0
  9
$DIMALTTZ
 70
0
  9
$DIMUPT
 70
0
  9
$DIMDEC
 70
2
  9
$DIMTDEC
 70
2
  9
$DIMALTU
 70
2
  9
$DIMALTTD
 70
3
  9
$DIMTXSTY
  7
Standard
  9
$DIMAUNIT
 70
0
  9
$DIMADEC
 70
0
  9
$DIMALTRND
 40
0.0
  9
$DIMAZIN
 70
0
  9
$DIMDSEP
 70
44
  9
$DIMATFIT
 70
3
  9
$DIMFRAC
 70
0
  9
$DIMLDRBLK
  1

  9
$DIMLUNIT
 70
2
  9
$DIMLWD
 70
-2
  9
$DIMLWE
 70
-2
  9
$DIMTMOVE
 70
0
  9
$DIMFXL
 40
1.0
  9
$DIMFXLON
 70
0
  9
$DIMJOGANG
 40
0.785398163397
  9
$DIMTFILL
 70
0
  9
$DIMTFILLCLR
 70
0
  9
$DIMARCSYM
 70
0
  9
$DIMLTYPE
  6

  9
$DIMLTEX1
  6

  9
$DIMLTEX2
  6

  9
$DIMTXTDIRECTION
 70
0
  9
$LUNITS
 70
2
  9
$LUPREC
 70
4
  9
$SKETCHINC
 40
1.0
  9
$FILLETRAD
 40
10.0
  9
$AUNITS
 70
0
  9
$AUPREC
 70
2
  9
$MENU
  1
.
  9
$ELEVATION
 40
0.0
  9
$PELEVATION
 40
0.0
  9
$THICKNESS
 40
0.0
  9
$LIMCHECK
 70
0
  9
$CHAMFERA
 40
0.0
  9
$CHAMFERB
 40
0.0
  9
$CHAMFERC
 40
0.0
  9
$CHAMFERD
 40
0.0
  9
$SKPOLY
 70
0
  9
$TDCREATE
 40
2461323.668125
  9
$TDUCREATE
 40
2458532.153996898
  9
$TDUPDATE
 40
2461323.668125
  9
$TDUUPDATE
 40
2458532.1544311
  9
$TDINDWG
 40
0.0
  9
$TDUSRTIMER
 40
0.0
  9
$USRTIMER
 70
1
  9
$ANGBASE
 50
0.0
  9
$ANGDIR
 70
0
  9
$PDMODE
 70
0
  9
$PDSIZE
 40
0.0
  9
$PLINEWID
 40
0.0
  9
$SPLFRAME
 70
0
  9
$SPLINETYPE
 70
6
  9
$SPLINESEGS
 70
8
  9
$HANDSEED
  5
36D
  9
$SURFTAB1
 70
6
  9
$SURFTAB2
 70
6
  9
$SURFTYPE
 70
6
  9
$SURFU
 70
6
  9
$SURFV
 70
6
  9
$UCSBASE
  2

  9
$UCSNAME
  2

  9
$UCSORG
 10
0.0
 20
0.0
 30
0.0
  9
$UCSXDIR
 10
1.0
 20
0.0
 30
0.0
  9
$UCSYDIR
 10
0.0
 20
1.0
 30
0.0
  9
$UCSORTHOREF
  2

  9
$UCSORTHOVIEW
 70
0
  9
$UCSORGTOP
 10
0.0
 20
0.0
 30
0.0
  9
$UCSORGBOTTOM
 10
0.0
 20
0.0
 30
0.0
  9
$UCSORGLEFT
 10
0.0
 20
0.0
 30
0.0
  9
$UCSORGRIGHT
 10
0.0
 20
0.0
 30
0.0
  9
$UCSORGFRONT
 10
0.0
 20
0.0
 30
0.0
  9
$UCSORGBACK
 10
0.0
 20
0.0
 30
0.0
  9
$PUCSBASE
  2

  9
$PUCSNAME
  2

  9
$PUCSORG
 10
0.0
 20
0.0
 30
0.0
  9
$PUCSXDIR
 10
1.0
 20
0.0
 30
0.0
  9
$PUCSYDIR
 10
0.0
 20
1.0
 30
0.0
  9
$PUCSORTHOREF
  2

  9
$PUCSORTHOVIEW
 70
0
  9
$PUCSORGTOP
 10
0.0
 20
0.0
 30
0.0
  9
$PUCSORGBOTTOM
 10
0.0
 20
0.0
 30
0.0
  9
$PUCSORGLEFT
 10
0.0
 20
0.0
 30
0.0
  9
$PUCSORGRIGHT
 10
0.0
 20
0.0
 30
0.0
  9
$PUCSORGFRONT
 10
0.0
 20
0.0
 30
0.0
  9
$PUCSORGBACK
 10
0.0
 20
0.0
 30
0.0
  9
$USERI1
 70
0
  9
$USERI2
 70
0
  9
$USERI3
 70
0
  9
$USERI4
 70
0
  9
$USERI5
 70
0
  9
$USERR1
 40
0.0
  9
$USERR2
 40
0.0
  9
$USERR3
 40
0.0
  9
$USERR4
 40
0.0
  9
$USERR5
 40
0.0
  9
$WORLDVIEW
 70
1
  9
$SHADEDGE
 70
3
  9
$SHADEDIF
 70
70
  9
$TILEMODE
 70
1
  9
$MAXACTVP
 70
64
  9
$PINSBASE
 10
0.0
 20
0.0
 30
0.0
  9
$PLIMCHECK
 70
0
  9
$PEXTMIN
 10
1e+20
 20
1e+20
 30
1e+20
  9
$PEXTMAX
 10
-1e+20
 20
-1e+20
 30
-1e+20
  9
$PLIMMIN
 10
0.0
 20
0.0
  9
$PLIMMAX
 10
420.0
 20
297.0
  9
$UNITMODE
 70
0
  9
$VISRETAIN
 70
1
  9
$PLINEGEN
 70
0
  9
$PSLTSCALE
 70
1
  9
$TREEDEPTH
 70
3020
  9
$CMLSTYLE
  2
Standard
  9
$CMLJUST
 70
0
  9
$CMLSCALE
 40
20.0
  9
$PROXYGRAPHICS
 70
1
  9
$MEASUREMENT
 70
1
  9
$CELWEIGHT
370
-1
  9
$ENDCAPS
280
0
  9
$JOINSTYLE
280
0
  9
$LWDISPLAY
290
0
  9
$INSUNITS
 70
6
  9
$HYPERLINKBASE
  1

  9
$STYLESHEET
  1

  9
$XEDIT
290
1
  9
$CEPSNTYPE
380
0
  9
$PSTYLEMODE
290
1
  9
$FINGERPRINTGUID
  2
{4EC76046-34B4-4474-8340-A8790CB1C9C9}
  9
$VERSIONGUID
  2
{002A07B0-7FD3-4112-8D3C-CCC4C57953C9}
  9
$EXTNAMES
290
1
  9
$PSVPSCALE
 40
0.0
  9
$OLESTARTUP
290
0
  9
$SORTENTS
280
127
  9
$INDEXCTL
280
0
  9
$HIDETEXT
280
1
  9
$XCLIPFRAME
280
1
  9
$HALOGAP
280
0
  9
$OBSCOLOR
 70
257
  9
$OBSLTYPE
280
0
  9
$INTERSECTIONDISPLAY
280
0
  9
$INTERSECTIONCOLOR
 70
257
  9
$DIMASSOC
280
2
  9
$PROJECTNAME
  1

  9
$CAMERADISPLAY
290
0
  9
$LENSLENGTH
 40
50.0
  9
$CAMERAHEIGHT
 40
0.0
  9
$STEPSPERSEC
 40
24.0
  9
$STEPSIZE
 40
100.0
  9
$3DDWFPREC
 40
2.0
  9
$PSOLWIDTH
 40
0.005
  9
$PSOLHEIGHT
 40
0.08
  9
$LOFTANG1
 40
1.570796326795
  9
$LOFTANG2
 40
1.570796326795
  9
$LOFTMAG1
 40
0.0
  9
$LOFTMAG2
 40
0.0
  9
$LOFTPARAM
 70
7
  9
$LOFTNORMALS
280
1
  9
$LATITUDE
 40
37.795
  9
$LONGITUDE
 40
-122.394
  9
$NORTHDIRECTION
 40
0.0
  9
$TIMEZONE
 70
-8000
  9
$LIGHTGLYPHDISPLAY
280
1
  9
$TILEMODELIGHTSYNCH
280
1
  9
$CMATERIAL
347
20
  9
$SOLIDHIST
280
0
  9
$SHOWHIST
280
1
  9
$DWFFRAME
280
2
  9
$DGNFRAME
280
2
  9
$REALWORLDSCALE
290
1
  9
$INTERFERECOLOR
 62
256
  9
$CSHADOW
280
0
  9
$SHADOWPLANELOCATION
 40
0.0
  0
ENDSEC
  0
SECTION
  2
CLASSES
  0
CLASS
  1
ACDBDICTIONARYWDFLT
  2
AcDbDictionaryWithDefault
  3
ObjectDBX Classes
 90
0
 91
0
280
0
281
0
  0
CLASS
  1
SUN
  2
AcDbSun
  3
SCENEOE
 90
1153
 91
0
280
0
281
0
  0
CLASS
  1
VISUALSTYLE
  2
AcDbVisualStyle
  3
ObjectDBX Classes
 90
4095
 91
0
280
0
281
0
  0
CLASS
  1
MATERIAL
  2
AcDbMaterial
  3
ObjectDBX Classes
 90
1153
 91
0
280
0
281
0
  0
CLASS
  1
SCALE
  2
AcDbScale
  3
ObjectDBX Classes
 90
1153
 91
0
280
0
281
0
  0
CLASS
  1
TABLESTYLE
  2
AcDbTableStyle
  3
ObjectDBX Classes
 90
4095
 91
0
280
0
281
0
  0
CLASS
  1
MLEADERSTYLE
  2
AcDbMLeaderStyle
  3
ACDB_MLEADERSTYLE_CLASS
 90
4095
 91
0
280
0
281
0
  0
CLASS
  1
DICTIONARYVAR
  2
AcDbDictionaryVar
  3
ObjectDBX Classes
 90
0
 91
0
280
0
281
0
  0
CLASS
  1
CELLSTYLEMAP
  2
AcDbCellStyleMap
  3
ObjectDBX Classes
 90
1152
 91
0
280
0
281
0
  0
CLASS
  1
MENTALRAYRENDERSETTINGS
  2
AcDbMentalRayRenderSettings
  3
SCENEOE
 90
1024
 91
0
280
0
281
0
  0
CLASS
  1
ACDBDETAILVIEWSTYLE
  2
AcDbDetailViewStyle
  3
ObjectDBX Classes
 90
1025
 91
0
280
0
281
0
  0
CLASS
  1
ACDBSECTIONVIEWSTYLE
  2
AcDbSectionViewStyle
  3
ObjectDBX Classes
 90
1025
 91
0
280
0
281
0
  0
CLASS
  1
RASTERVARIABLES
  2
AcDbRasterVariables
  3
ISM
 90
0
 91
0
280
0
281
0
  0
CLASS
  1
ACDBPLACEHOLDER
  2
AcDbPlaceHolder
  3
ObjectDBX Classes
 90
0
 91
0
280
0
281
0
  0
CLASS
  1
LAYOUT
  2
AcDbLayout
  3
ObjectDBX Classes
 90
0
 91
0
280
0
281
0
  0
ENDSEC
  0
SECTION
  2
TABLES
  0
TABLE
  2
VPORT
  5
8
330
0
100
AcDbSymbolTable
 70
1
  0
VPORT
  5
23
330
8
100
AcDbSymbolTableRecord
100
AcDbViewportTableRecord
  2
*Active
 70
0
 10
0.0
 20
0.0
 11
1.0
 21
1.0
 12
0.0
 22
0.0
 13
0.0
 23
0.0
 14
0.5
 24
0.5
 15
0.5
 25
0.5
 16
0.0
 26
0.0
 36
1.0
 17
0.0
 27
0.0
 37
0.0
 40
1000.0
 41
1.34
 42
50.0
 43
0.0
 44
0.0
 50
0.0
 51
0.0
 71
0
 72
1000
 73
1
 74
3
 75
0
 76
0
 77
0
 78
0
281
0
 65
0
146
0.0
  0
ENDTAB
  0
TABLE
  2
LTYPE
  5
2
330
0
100
AcDbSymbolTable
 70
3
  0
LTYPE
  5
24
330
2
100
AcDbSymbolTableRecord
100
AcDbLinetypeTableRecord
  2
ByBlock
 70
0
  3

 72
65
 73
0
 40
0.0
  0
LTYPE
  5
25
330
2
100
AcDbSymbolTableRecord
100
AcDbLinetypeTableRecord
  2
ByLayer
 70
0
  3

 72
65
 73
0
 40
0.0
  0
LTYPE
  5
26
330
2
100
AcDbSymbolTableRecord
100
AcDbLinetypeTableRecord
  2
Continuous
 70
0
  3

 72
65
 73
0
 40
0.0
  0
ENDTAB
  0
TABLE
  2
LAYER
  5
1
330
0
100
AcDbSymbolTable
 70
11
  0
LAYER
  5
27
330
1
100
AcDbSymbolTableRecord
100
AcDbLayerTableRecord
  2
0
 70
0
 62
7
  6
Continuous
370
-3
390
13
347
21
  0
LAYER
  5
28
330
1
100
AcDbSymbolTableRecord
100
AcDbLayerTableRecord
  2
Defpoints
 70
0
 62
7
  6
Continuous
290
0
370
-3
390
13
347
21
  0
LAYER
  5
2F
330
1
100
AcDbSymbolTableRecord
100
AcDbLayerTableRecord
  2
0.500-1.000
 70
0
 62
4
  6
Continuous
370
-3
390
13
347
21
  0
LAYER
  5
30
330
1
100
AcDbSymbolTableRecord
100
AcDbLayerTableRecord
  2
1.000-1.500
 70
0
 62
5
  6
Continuous
370
-3
390
13
347
21
  0
LAYER
  5
31
330
1
100
AcDbSymbolTableRecord
100
AcDbLayerTableRecord
  2
1.500-3.000
 70
0
 62
1
  6
Continuous
370
-3
390
13
347
21
  0
LAYER
  5
32
330
1
100
AcDbSymbolTableRecord
100
AcDbLayerTableRecord
  2
3.000-999.000
 70
0
 62
2
  6
Continuous
370
-3
390
13
347
21
  0
LAYER
  5
33
330
1
100
AcDbSymbolTableRecord
100
AcDbLayerTableRecord
  2
爆区方格网
 70
0
 62
7
  6
Continuous
370
-3
390
13
347
21
  0
LAYER
  5
34
330
1
100
AcDbSymbolTableRecord
100
AcDbLayerTableRecord
  2
钻孔
 70
0
 62
7
  6
Continuous
370
-3
390
13
347
21
  0
LAYER
  5
35
330
1
100
AcDbSymbolTableRecord
100
AcDbLayerTableRecord
  2
线条
 70
0
 62
7
  6
Continuous
370
-3
390
13
347
21
  0
LAYER
  5
36
330
1
100
AcDbSymbolTableRecord
100
AcDbLayerTableRecord
  2
点
 70
0
 62
7
  6
Continuous
370
-3
390
13
347
21
  0
LAYER
  5
37
330
1
100
AcDbSymbolTableRecord
100
AcDbLayerTableRecord
  2
报告
 70
0
 62
7
  6
Continuous
370
-3
390
13
347
21
  0
ENDTAB
  0
TABLE
  2
STYLE
  5
5
330
0
100
AcDbSymbolTable
 70
3
  0
STYLE
  5
29
330
5
100
AcDbSymbolTableRecord
100
AcDbTextStyleTableRecord
  2
Standard
 70
0
 40
0.0
 41
1.0
 50
0.0
 71
0
 42
2.5
  3
txt
  4

  0
STYLE
  5
38
330
5
100
AcDbSymbolTableRecord
100
AcDbTextStyleTableRecord
  2
CN_SHX
 70
0
 40
0.0
 41
1.0
 50
0.0
 71
0
 42
2.5
  3
txt.shx
  4
gbcbig.shx
  0
STYLE
  5
39
330
5
100
AcDbSymbolTableRecord
100
AcDbTextStyleTableRecord
  2
CN_TTF
 70
0
 40
0.0
 41
1.0
 50
0.0
 71
0
 42
2.5
  3
simsunb.ttf
  4

  0
ENDTAB
  0
TABLE
  2
VIEW
  5
7
330
0
100
AcDbSymbolTable
 70
0
  0
ENDTAB
  0
TABLE
  2
UCS
  5
6
330
0
100
AcDbSymbolTable
 70
0
  0
ENDTAB
  0
TABLE
  2
APPID
  5
3
330
0
100
AcDbSymbolTable
 70
3
  0
APPID
  5
2A
330
3
100
AcDbSymbolTableRecord
100
AcDbRegAppTableRecord
  2
ACAD
 70
0
  0
APPID
  5
36A
330
3
100
AcDbSymbolTableRecord
100
AcDbRegAppTableRecord
  2
HATCHBACKGROUNDCOLOR
 70
0
  0
APPID
  5
36B
330
3
100
AcDbSymbolTableRecord
100
AcDbRegAppTableRecord
  2
EZDXF
 70
0
  0
ENDTAB
  0
TABLE
  2
DIMSTYLE
  5
4
330
0
100
AcDbSymbolTable
 70
1
100
AcDbDimStyleTable
  0
DIMSTYLE
105
2B
330
4
100
AcDbSymbolTableRecord
100
AcDbDimStyleTableRecord
  2
Standard
 70
0
 40
1.0
 41
2.5
 42
0.625
 43
3.75
 44
1.25
 45
0.0
 46
0.0
 47
0.0
 48
0.0
 49
2.5
140
2.5
141
2.5
142
0.0
143
0.03937007874
144
1.0
145
0.0
146
1.0
147
0.625
148
0.0
 69
0
 70
0
 71
0
 72
0
 73
0
 74
0
 75
0
 76
0
 77
1
 78
8
 79
3
170
0
171
3
172
1
173
0
174
0
175
0
176
0
177
0
178
0
179
2
271
2
272
2
273
2
274
3
275
0
276
0
277
2
278
44
279
0
280
0
281
0
282
0
283
0
284
8
285
0
286
0
288
0
289
3
290
0
371
-2
372
-2
  0
ENDTAB
  0
TABLE
  2
BLOCK_RECORD
  5
9
330
0
100
AcDbSymbolTable
 70
2
  0
BLOCK_RECORD
  5
17
330
9
100
AcDbSymbolTableRecord
100
AcDbBlockTableRecord
  2
*Model_Space
340
1A
 70
0
280
1
281
0
  0
BLOCK_RECORD
  5
1B
330
9
100
AcDbSymbolTableRecord
100
AcDbBlockTableRecord
  2
*Paper_Space
340
1E
 70
0
280
1
281
0
  0
ENDTAB
  0
ENDSEC
  0
SECTION
  2
BLOCKS
  0
BLOCK
  5
18
330
17
100
AcDbEntity
  8
0
100
AcDbBlockBegin
  2
*Model_Space
 70
0
 10
0.0
 20
0.0
 30
0.0
  3
*Model_Space
  1

  0
ENDBLK
  5
19
330
17
100
AcDbEntity
  8
0
100
AcDbBlockEnd
  0
BLOCK
  5
1C
330
1B
100
AcDbEntity
  8
0
100
AcDbBlockBegin
  2
*Paper_Space
 70
0
 10
0.0
 20
0.0
 30
0.0
  3
*Paper_Space
  1

  0
ENDBLK
  5
1D
330
1B
100
AcDbEntity
  8
0
100
AcDbBlockEnd
  0
ENDSEC
  0
SECTION
  2
ENTITIES
  0
LWPOLYLINE
  5
3A
330
17
100
AcDbEntity
  8
1.000-1.500
 62
5
370
30
100
AcDbPolyline
 90
26
 70
1
 10
470101.7697235988
 20
4349731.7
 10
470100.3214591123
 20
4349737.158
 10
470098.71
 20
4349737.158
 10
470098.71
 20
4349742.158
 10
470098.9947235987
 20
4349742.158
 10
470098.64905174746
 20
4349743.460715755
 10
470099.3045019632
 20
4349743.738
 10
470096.941
 20
4349743.738
 10
470096.941
 20
4349748.738
 10
470101.941
 20
4349748.738
 10
470101.941
 20
4349743.738
 10
470100.50842404034
 20
4349743.738
 10
470101.4577908552
 20
4349742.158
 10
470103.71
 20
4349742.158
 10
470103.71
 20
4349738.409722312
 10
470106.45879085496
 20
4349733.835
 10
470108.711
 20
4349733.835
 10
470108.711
 20
4349728.835
 10
470106.485
 20
4349728.835
 10
470106.485
 20
4349726.7
 10
470103.5454430583
 20
4349726.7
 10
470103.187544217
 20
4349726.356732244
 10
470103.09645911236
 20
4349726.7
 10
470101.485
 20
4349726.7
 10
470101.485
 20
4349731.7
 10
470101.7697235988
 20
4349731.7
  0
LWPOLYLINE
  5
3B
330
17
100
AcDbEntity
  8
1.000-1.500
 62
5
370
30
100
AcDbPolyline
 90
5
 70
1
 10
470094.92
 20
4349751.31
 10
470094.92
 20
4349756.31
 10
470099.92
 20
4349756.31
 10
470099.92
 20
4349751.31
 10
470094.92
 20
4349751.31
  0
LWPOLYLINE
  5
3C
330
17
100
AcDbEntity
  8
0.500-1.000
 62
4
370
30
100
AcDbPolyline
 90
34
 70
1
 10
470101.941
 20
4349743.738
 10
470101.941
 20
4349748.738
 10
470099.8957740253
 20
4349748.738
 10
470098.61167381617
 20
4349751.31
 10
470099.92
 20
4349751.31
 10
470099.92
 20
4349756.31
 10
470096.1153670329
 20
4349756.31
 10
470095.2835976126
 20
4349757.976
 10
470093.212
 20
4349757.976
 10
470093.212
 20
4349762.976
 10
470093.6094116722
 20
4349762.976
 10
470093.2569848429
 20
4349764.536
 10
470091.73
 20
4349764.536
 10
470091.73
 20
4349769.536
 10
470092.1274116722
 20
4349769.536
 10
470091.8225692352
 20
4349770.885370032
 10
470092.92056158953
 20
4349771.383268519
 10
470094.26538094087
 20
4349769.536
 10
470096.73
 20
4349769.536
 10
470096.73
 20
4349766.15055407
 10
470106.5693809409
 20
4349752.635
 10
470109.034
 20
4349752.635
 10
470109.034
 20
4349747.635
 10
470107.63678359747
 20
4349747.635
 10
470106.19486962847
 20
4349739.012
 10
470106.756
 20
4349739.012
 10
470106.756
 20
4349734.012
 10
470106.352437737
 20
4349734.012
 10
470103.71
 20
4349738.409722312
 10
470103.71
 20
4349742.158
 10
470101.4577908552
 20
4349742.158
 10
470101.323
 20
4349742.382327992
 10
470101.323
 20
4349743.738
 10
470101.941
 20
4349743.738
  0
LWPOLYLINE
  5
3D
330
17
100
AcDbEntity
  8
0.500-1.000
 62
4
370
30
100
AcDbPolyline
 90
17
 70
1
 10
470086.7788043701
 20
4349790.242
 10
470085.0119846358
 20
4349798.944
 10
470083.535
 20
4349798.944
 10
470083.535
 20
4349803.944
 10
470083.9968043702
 20
4349803.944
 10
470083.6698343865
 20
4349805.554403565
 10
470086.60246276605
 20
4349806.152228101
 10
470087.05442043283
 20
4349803.944
 10
470088.535
 20
4349803.944
 10
470088.535
 20
4349798.944
 10
470088.0777695755
 20
4349798.944
 10
470089.85880642355
 20
4349790.242
 10
470091.34
 20
4349790.239
 10
470091.34
 20
4349785.239
 10
470086.317
 20
4349785.242
 10
470086.317
 20
4349790.242
 10
470086.7788043701
 20
4349790.242
  0
LINE
  5
3E
330
17
100
AcDbEntity
  8
爆区方格网
 62
5
100
AcDbLine
 10
470097.0
 20
4349743.738
 30
0.0
 11
470097.0
 21
4349748.738
 31
0.0
  0
LINE
  5
3F
330
17
100
AcDbEntity
  8
爆区方格网
 62
5
100
AcDbLine
 10
470098.0
 20
4349743.738
 30
0.0
 11
470098.0
 21
4349748.738
 31
0.0
  0
LINE
  5
40
330
17
100
AcDbEntity
  8
爆区方格网
 62
5
100
AcDbLine
 10
470099.0
 20
4349737.158
 30
0.0
 11
470099.0
 21
4349743.609182288
 31
0.0
  0
LINE
  5
41
330
17
100
AcDbEntity
  8
爆区方格网
 62
5
100
AcDbLine
 10
470099.0
 20
4349743.738
 30
0.0
 11
470099.0
 21
4349748.738
 31
0.0
  0
LINE
  5
42
330
17
100
AcDbEntity
  8
爆区方格网
 62
5
100
AcDbLine
 10
470100.0
 20
4349737.158
 30
0.0
 11
470100.0
 21
4349748.738
 31
0.0
  0
LINE
  5
43
330
17
100
AcDbEntity
  8
爆区方格网
 62
5
100
AcDbLine
 10
470101.0
 20
4349734.6008178005
 30
0.0
 11
470101.0
 21
4349742.91988628
 31
0.0
  0
LINE
  5
44
330
17
100
AcDbEntity
  8
爆区方格网
 62
5
100
AcDbLine
 10
470101.0
 20
4349743.738
 30
0.0
 11
470101.0
 21
4349748.738
 31
0.0
  0
LINE
  5
45
330
17
100
AcDbEntity
  8
爆区方格网
 62
5
100
AcDbLine
 10
470102.0
 20
4349726.7
 30
0.0
 11
470102.0
 21
4349742.158
 31
0.0
  0
LINE
  5
46
330
17
100
AcDbEntity
  8
爆区方格网
 62
5
100
AcDbLine
 10
470103.0
 20
4349726.7
 30
0.0
 11
470103.0
 21
4349742.158
 31
0.0
  0
LINE
  5
47
330
17
100
AcDbEntity
  8
爆区方格网
 62
5
100
AcDbLine
 10
470104.0
 20
4349726.7
 30
0.0
 11
470104.0
 21
4349737.92708484
 31
0.0
  0
LINE
  5
48
330
17
100
AcDbEntity
  8
爆区方格网
 62
5
100
AcDbLine
 10
470105.0
 20
4349726.7
 30
0.0
 11
470105.0
 21
4349736.262817694
 31
0.0
  0
LINE
  5
49
330
17
100
AcDbEntity
  8
爆区方格网
 62
5
100
AcDbLine
 10
470106.0
 20
4349726.7
 30
0.0
 11
470106.0
 21
4349734.598550547
 31
0.0
  0
LINE
  5
4A
330
17
100
AcDbEntity
  8
爆区方格网
 62
5
100
AcDbLine
 10
470107.0
 20
4349728.835
 30
0.0
 11
470107.0
 21
4349733.835
 31
0.0
  0
LINE
  5
4B
330
17
100
AcDbEntity
  8
爆区方格网
 62
5
100
AcDbLine
 10
470108.0
 20
4349728.835
 30
0.0
 11
470108.0
 21
4349733.835
 31
0.0
  0
LINE
  5
4C
330
17
100
AcDbEntity
  8
爆区方格网
 62
5
100
AcDbLine
 10
470101.485
 20
4349727.0
 30
0.0
 11
470106.485
 21
4349727.0
 31
0.0
  0
LINE
  5
4D
330
17
100
AcDbEntity
  8
爆区方格网
 62
5
100
AcDbLine
 10
470101.485
 20
4349728.0
 30
0.0
 11
470106.485
 21
4349728.0
 31
0.0
  0
LINE
  5
4E
330
17
100
AcDbEntity
  8
爆区方格网
 62
5
100
AcDbLine
 10
470101.485
 20
4349729.0
 30
0.0
 11
470108.711
 21
4349729.0
 31
0.0
  0
LINE
  5
4F
330
17
100
AcDbEntity
  8
爆区方格网
 62
5
100
AcDbLine
 10
470101.485
 20
4349730.0
 30
0.0
 11
470108.711
 21
4349730.0
 31
0.0
  0
LINE
  5
50
330
17
100
AcDbEntity
  8
爆区方格网
 62
5
100
AcDbLine
 10
470101.485
 20
4349731.0
 30
0.0
 11
470108.711
 21
4349731.0
 31
0.0
  0
LINE
  5
51
330
17
100
AcDbEntity
  8
爆区方格网
 62
5
100
AcDbLine
 10
470101.690119468
 20
4349732.0
 30
0.0
 11
470108.711
 21
4349732.0
 31
0.0
  0
LINE
  5
52
330
17
100
AcDbEntity
  8
爆区方格网
 62
5
100
AcDbLine
 10
470101.4247723653
 20
4349733.0
 30
0.0
 11
470108.711
 21
4349733.0
 31
0.0
  0
LINE
  5
53
330
17
100
AcDbEntity
  8
爆区方格网
 62
5
100
AcDbLine
 10
470101.1594252626
 20
4349734.0
 30
0.0
 11
470106.3596481179
 21
4349734.0
 31
0.0
  0
LINE
  5
54
330
17
100
AcDbEntity
  8
爆区方格网
 62
5
100
AcDbLine
 10
470100.8940781599
 20
4349735.0
 30
0.0
 11
470105.7587830452
 21
4349735.0
 31
0.0
  0
LINE
  5
55
330
17
100
AcDbEntity
  8
爆区方格网
 62
5
100
AcDbLine
 10
470100.62873105716
 20
4349736.0
 30
0.0
 11
470105.1579179725
 21
4349736.0
 31
0.0
  0
LINE
  5
56
330
17
100
AcDbEntity
  8
爆区方格网
 62
5
100
AcDbLine
 10
470100.36338395445
 20
4349737.0
 30
0.0
 11
470104.55705289973
 21
4349737.0
 31
0.0
  0
LINE
  5
57
330
17
100
AcDbEntity
  8
爆区方格网
 62
5
100
AcDbLine
 10
470098.71
 20
4349738.0
 30
0.0
 11
470103.95618782705
 21
4349738.0
 31
0.0
  0
LINE
  5
58
330
17
100
AcDbEntity
  8
爆区方格网
 62
5
100
AcDbLine
 10
470098.71
 20
4349739.0
 30
0.0
 11
470103.71
 21
4349739.0
 31
0.0
  0
LINE
  5
59
330
17
100
AcDbEntity
  8
爆区方格网
 62
5
100
AcDbLine
 10
470098.71
 20
4349740.0
 30
0.0
 11
470103.71
 21
4349740.0
 31
0.0
  0
LINE
  5
5A
330
17
100
AcDbEntity
  8
爆区方格网
 62
5
100
AcDbLine
 10
470098.71
 20
4349741.0
 30
0.0
 11
470103.71
 21
4349741.0
 31
0.0
  0
LINE
  5
5B
330
17
100
AcDbEntity
  8
爆区方格网
 62
5
100
AcDbLine
 10
470098.71
 20
4349742.0
 30
0.0
 11
470103.71
 21
4349742.0
 31
0.0
  0
LINE
  5
5C
330
17
100
AcDbEntity
  8
爆区方格网
 62
5
100
AcDbLine
 10
470098.77130133816
 20
4349743.0
 30
0.0
 11
470100.9518624639
 21
4349743.0
 31
0.0
  0
LINE
  5
5D
330
17
100
AcDbEntity
  8
爆区方格网
 62
5
100
AcDbLine
 10
470096.941
 20
4349744.0
 30
0.0
 11
470101.941
 21
4349744.0
 31
0.0
  0
LINE
  5
5E
330
17
100
AcDbEntity
  8
爆区方格网
 62
5
100
AcDbLine
 10
470096.941
 20
4349745.0
 30
0.0
 11
470101.941
 21
4349745.0
 31
0.0
  0
LINE
  5
5F
330
17
100
AcDbEntity
  8
爆区方格网
 62
5
100
AcDbLine
 10
470096.941
 20
4349746.0
 30
0.0
 11
470101.941
 21
4349746.0
 31
0.0
  0
LINE
  5
60
330
17
100
AcDbEntity
  8
爆区方格网
 62
5
100
AcDbLine
 10
470096.941
 20
4349747.0
 30
0.0
 11
470101.941
 21
4349747.0
 31
0.0
  0
LINE
  5
61
330
17
100
AcDbEntity
  8
爆区方格网
 62
5
100
AcDbLine
 10
470096.941
 20
4349748.0
 30
0.0
 11
470101.941
 21
4349748.0
 31
0.0
  0
LINE
  5
62
330
17
100
AcDbEntity
  8
爆区方格网
 62
5
100
AcDbLine
 10
470095.0
 20
4349751.31
 30
0.0
 11
470095.0
 21
4349756.31
 31
0.0
  0
LINE
  5
63
330
17
100
AcDbEntity
  8
爆区方格网
 62
5
100
AcDbLine
 10
470096.0
 20
4349751.31
 30
0.0
 11
470096.0
 21
4349756.31
 31
0.0
  0
LINE
  5
64
330
17
100
AcDbEntity
  8
爆区方格网
 62
5
100
AcDbLine
 10
470097.0
 20
4349751.31
 30
0.0
 11
470097.0
 21
4349756.31
 31
0.0
  0
LINE
  5
65
330
17
100
AcDbEntity
  8
爆区方格网
 62
5
100
AcDbLine
 10
470098.0
 20
4349751.31
 30
0.0
 11
470098.0
 21
4349756.31
 31
0.0
  0
LINE
  5
66
330
17
100
AcDbEntity
  8
爆区方格网
 62
5
100
AcDbLine
 10
470099.0
 20
4349751.31
 30
0.0
 11
470099.0
 21
4349756.31
 31
0.0
  0
LINE
  5
67
330
17
100
AcDbEntity
  8
爆区方格网
 62
5
100
AcDbLine
 10
470094.92
 20
4349752.0
 30
0.0
 11
470099.92
 21
4349752.0
 31
0.0
  0
LINE
  5
68
330
17
100
AcDbEntity
  8
爆区方格网
 62
5
100
AcDbLine
 10
470094.92
 20
4349753.0
 30
0.0
 11
470099.92
 21
4349753.0
 31
0.0
  0
LINE
  5
69
330
17
100
AcDbEntity
  8
爆区方格网
 62
5
100
AcDbLine
 10
470094.92
 20
4349754.0
 30
0.0
 11
470099.92
 21
4349754.0
 31
0.0
  0
LINE
  5
6A
330
17
100
AcDbEntity
  8
爆区方格网
 62
5
100
AcDbLine
 10
470094.92
 20
4349755.0
 30
0.0
 11
470099.92
 21
4349755.0
 31
0.0
  0
LINE
  5
6B
330
17
100
AcDbEntity
  8
爆区方格网
 62
5
100
AcDbLine
 10
470094.92
 20
4349756.0
 30
0.0
 11
470099.92
 21
4349756.0
 31
0.0
  0
LINE
  5
6C
330
17
100
AcDbEntity
  8
爆区方格网
 62
4
100
AcDbLine
 10
470092.0
 20
4349764.536
 30
0.0
 11
470092.0
 21
4349769.536
 31
0.0
  0
LINE
  5
6D
330
17
100
AcDbEntity
  8
爆区方格网
 62
4
100
AcDbLine
 10
470092.0
 20
4349770.099981491
 30
0.0
 11
470092.0
 21
4349770.965828251
 31
0.0
  0
LINE
  5
6E
330
17
100
AcDbEntity
  8
爆区方格网
 62
4
100
AcDbLine
 10
470093.0
 20
4349764.536
 30
0.0
 11
470093.0
 21
4349771.274150462
 31
0.0
  0
LINE
  5
6F
330
17
100
AcDbEntity
  8
爆区方格网
 62
4
100
AcDbLine
 10
470094.0
 20
4349757.976
 30
0.0
 11
470094.0
 21
4349769.900532126
 31
0.0
  0
LINE
  5
70
330
17
100
AcDbEntity
  8
爆区方格网
 62
4
100
AcDbLine
 10
470095.0
 20
4349757.976
 30
0.0
 11
470095.0
 21
4349769.536
 31
0.0
  0
LINE
  5
71
330
17
100
AcDbEntity
  8
爆区方格网
 62
4
100
AcDbLine
 10
470096.0
 20
4349756.54107543
 30
0.0
 11
470096.0
 21
4349769.536
 31
0.0
  0
LINE
  5
72
330
17
100
AcDbEntity
  8
爆区方格网
 62
4
100
AcDbLine
 10
470097.0
 20
4349756.31
 30
0.0
 11
470097.0
 21
4349765.77967712
 31
0.0
  0
LINE
  5
73
330
17
100
AcDbEntity
  8
爆区方格网
 62
4
100
AcDbLine
 10
470098.0
 20
4349756.31
 30
0.0
 11
470098.0
 21
4349764.406058785
 31
0.0
  0
LINE
  5
74
330
17
100
AcDbEntity
  8
爆区方格网
 62
4
100
AcDbLine
 10
470099.0
 20
4349750.532198596
 30
0.0
 11
470099.0
 21
4349751.31
 31
0.0
  0
LINE
  5
75
330
17
100
AcDbEntity
  8
爆区方格网
 62
4
100
AcDbLine
 10
470099.0
 20
4349756.31
 30
0.0
 11
470099.0
 21
4349763.032440448
 31
0.0
  0
LINE
  5
76
330
17
100
AcDbEntity
  8
爆区方格网
 62
4
100
AcDbLine
 10
470100.0
 20
4349748.738
 30
0.0
 11
470100.0
 21
4349761.658822113
 31
0.0
  0
LINE
  5
77
330
17
100
AcDbEntity
  8
爆区方格网
 62
4
100
AcDbLine
 10
470101.0
 20
4349748.738
 30
0.0
 11
470101.0
 21
4349760.285203777
 31
0.0
  0
LINE
  5
78
330
17
100
AcDbEntity
  8
爆区方格网
 62
4
100
AcDbLine
 10
470102.0
 20
4349742.158
 30
0.0
 11
470102.0
 21
4349758.911585442
 31
0.0
  0
LINE
  5
79
330
17
100
AcDbEntity
  8
爆区方格网
 62
4
100
AcDbLine
 10
470103.0
 20
4349742.158
 30
0.0
 11
470103.0
 21
4349757.537967106
 31
0.0
  0
LINE
  5
7A
330
17
100
AcDbEntity
  8
爆区方格网
 62
4
100
AcDbLine
 10
470104.0
 20
4349737.92708484
 30
0.0
 11
470104.0
 21
4349756.164348771
 31
0.0
  0
LINE
  5
7B
330
17
100
AcDbEntity
  8
爆区方格网
 62
4
100
AcDbLine
 10
470105.0
 20
4349736.262817694
 30
0.0
 11
470105.0
 21
4349754.790730435
 31
0.0
  0
LINE
  5
7C
330
17
100
AcDbEntity
  8
爆区方格网
 62
4
100
AcDbLine
 10
470106.0
 20
4349734.598550547
 30
0.0
 11
470106.0
 21
4349753.4171121
 31
0.0
  0
LINE
  5
7D
330
17
100
AcDbEntity
  8
爆区方格网
 62
4
100
AcDbLine
 10
470107.0
 20
4349743.8268775465
 30
0.0
 11
470107.0
 21
4349752.635
 31
0.0
  0
LINE
  5
7E
330
17
100
AcDbEntity
  8
爆区方格网
 62
4
100
AcDbLine
 10
470108.0
 20
4349747.635
 30
0.0
 11
470108.0
 21
4349752.635
 31
0.0
  0
LINE
  5
7F
330
17
100
AcDbEntity
  8
爆区方格网
 62
4
100
AcDbLine
 10
470109.0
 20
4349747.635
 30
0.0
 11
470109.0
 21
4349752.635
 31
0.0
  0
LINE
  5
80
330
17
100
AcDbEntity
  8
爆区方格网
 62
4
100
AcDbLine
 10
470105.7587830452
 20
4349735.0
 30
0.0
 11
470106.756
 21
4349735.0
 31
0.0
  0
LINE
  5
81
330
17
100
AcDbEntity
  8
爆区方格网
 62
4
100
AcDbLine
 10
470105.1579179725
 20
4349736.0
 30
0.0
 11
470106.756
 21
4349736.0
 31
0.0
  0
LINE
  5
82
330
17
100
AcDbEntity
  8
爆区方格网
 62
4
100
AcDbLine
 10
470104.55705289973
 20
4349737.0
 30
0.0
 11
470106.756
 21
4349737.0
 31
0.0
  0
LINE
  5
83
330
17
100
AcDbEntity
  8
爆区方格网
 62
4
100
AcDbLine
 10
470103.95618782705
 20
4349738.0
 30
0.0
 11
470106.756
 21
4349738.0
 31
0.0
  0
LINE
  5
84
330
17
100
AcDbEntity
  8
爆区方格网
 62
4
100
AcDbLine
 10
470103.71
 20
4349739.0
 30
0.0
 11
470106.756
 21
4349739.0
 31
0.0
  0
LINE
  5
85
330
17
100
AcDbEntity
  8
爆区方格网
 62
4
100
AcDbLine
 10
470103.71
 20
4349740.0
 30
0.0
 11
470106.3600802282
 21
4349740.0
 31
0.0
  0
LINE
  5
86
330
17
100
AcDbEntity
  8
爆区方格网
 62
4
100
AcDbLine
 10
470103.71
 20
4349741.0
 30
0.0
 11
470106.5272974344
 21
4349741.0
 31
0.0
  0
LINE
  5
87
330
17
100
AcDbEntity
  8
爆区方格网
 62
4
100
AcDbLine
 10
470103.71
 20
4349742.0
 30
0.0
 11
470106.69451464055
 21
4349742.0
 31
0.0
  0
LINE
  5
88
330
17
100
AcDbEntity
  8
爆区方格网
 62
4
100
AcDbLine
 10
470101.323
 20
4349743.0
 30
0.0
 11
470106.86173184676
 21
4349743.0
 31
0.0
  0
LINE
  5
89
330
17
100
AcDbEntity
  8
爆区方格网
 62
4
100
AcDbLine
 10
470101.941
 20
4349744.0
 30
0.0
 11
470107.02894905297
 21
4349744.0
 31
0.0
  0
LINE
  5
8A
330
17
100
AcDbEntity
  8
爆区方格网
 62
4
100
AcDbLine
 10
470101.941
 20
4349745.0
 30
0.0
 11
470107.1961662592
 21
4349745.0
 31
0.0
  0
LINE
  5
8B
330
17
100
AcDbEntity
  8
爆区方格网
 62
4
100
AcDbLine
 10
470101.941
 20
4349746.0
 30
0.0
 11
470107.3633834654
 21
4349746.0
 31
0.0
  0
LINE
  5
8C
330
17
100
AcDbEntity
  8
爆区方格网
 62
4
100
AcDbLine
 10
470101.941
 20
4349747.0
 30
0.0
 11
470107.53060067154
 21
4349747.0
 31
0.0
  0
LINE
  5
8D
330
17
100
AcDbEntity
  8
爆区方格网
 62
4
100
AcDbLine
 10
470101.941
 20
4349748.0
 30
0.0
 11
470109.034
 21
4349748.0
 31
0.0
  0
LINE
  5
8E
330
17
100
AcDbEntity
  8
爆区方格网
 62
4
100
AcDbLine
 10
470099.7649675498
 20
4349749.0
 30
0.0
 11
470109.034
 21
4349749.0
 31
0.0
  0
LINE
  5
8F
330
17
100
AcDbEntity
  8
爆区方格网
 62
4
100
AcDbLine
 10
470099.26570619317
 20
4349750.0
 30
0.0
 11
470109.034
 21
4349750.0
 31
0.0
  0
LINE
  5
90
330
17
100
AcDbEntity
  8
爆区方格网
 62
4
100
AcDbLine
 10
470098.7664448365
 20
4349751.0
 30
0.0
 11
470109.034
 21
4349751.0
 31
0.0
  0
LINE
  5
91
330
17
100
AcDbEntity
  8
爆区方格网
 62
4
100
AcDbLine
 10
470099.92
 20
4349752.0
 30
0.0
 11
470109.034
 21
4349752.0
 31
0.0
  0
LINE
  5
92
330
17
100
AcDbEntity
  8
爆区方格网
 62
4
100
AcDbLine
 10
470099.92
 20
4349753.0
 30
0.0
 11
470106.3036593858
 21
4349753.0
 31
0.0
  0
LINE
  5
93
330
17
100
AcDbEntity
  8
爆区方格网
 62
4
100
AcDbLine
 10
470099.92
 20
4349754.0
 30
0.0
 11
470105.5756551257
 21
4349754.0
 31
0.0
  0
LINE
  5
94
330
17
100
AcDbEntity
  8
爆区方格网
 62
4
100
AcDbLine
 10
470099.92
 20
4349755.0
 30
0.0
 11
470104.8476508656
 21
4349755.0
 31
0.0
  0
LINE
  5
95
330
17
100
AcDbEntity
  8
爆区方格网
 62
4
100
AcDbLine
 10
470099.92
 20
4349756.0
 30
0.0
 11
470104.1196466055
 21
4349756.0
 31
0.0
  0
LINE
  5
96
330
17
100
AcDbEntity
  8
爆区方格网
 62
4
100
AcDbLine
 10
470095.77087669657
 20
4349757.0
 30
0.0
 11
470103.3916423454
 21
4349757.0
 31
0.0
  0
LINE
  5
97
330
17
100
AcDbEntity
  8
爆区方格网
 62
4
100
AcDbLine
 10
470093.212
 20
4349758.0
 30
0.0
 11
470102.6636380853
 21
4349758.0
 31
0.0
  0
LINE
  5
98
330
17
100
AcDbEntity
  8
爆区方格网
 62
4
100
AcDbLine
 10
470093.212
 20
4349759.0
 30
0.0
 11
470101.9356338252
 21
4349759.0
 31
0.0
  0
LINE
  5
99
330
17
100
AcDbEntity
  8
爆区方格网
 62
4
100
AcDbLine
 10
470093.212
 20
4349760.0
 30
0.0
 11
470101.2076295651
 21
4349760.0
 31
0.0
  0
LINE
  5
9A
330
17
100
AcDbEntity
  8
爆区方格网
 62
4
100
AcDbLine
 10
470093.212
 20
4349761.0
 30
0.0
 11
470100.479625305
 21
4349761.0
 31
0.0
  0
LINE
  5
9B
330
17
100
AcDbEntity
  8
爆区方格网
 62
4
100
AcDbLine
 10
470093.212
 20
4349762.0
 30
0.0
 11
470099.7516210449
 21
4349762.0
 31
0.0
  0
LINE
  5
9C
330
17
100
AcDbEntity
  8
爆区方格网
 62
4
100
AcDbLine
 10
470093.603989721
 20
4349763.0
 30
0.0
 11
470099.02361678483
 21
4349763.0
 31
0.0
  0
LINE
  5
9D
330
17
100
AcDbEntity
  8
爆区方格网
 62
4
100
AcDbLine
 10
470093.37807508686
 20
4349764.0
 30
0.0
 11
470098.29561252473
 21
4349764.0
 31
0.0
  0
LINE
  5
9E
330
17
100
AcDbEntity
  8
爆区方格网
 62
4
100
AcDbLine
 10
470091.73
 20
4349765.0
 30
0.0
 11
470097.5676082646
 21
4349765.0
 31
0.0
  0
LINE
  5
9F
330
17
100
AcDbEntity
  8
爆区方格网
 62
4
100
AcDbLine
 10
470091.73
 20
4349766.0
 30
0.0
 11
470096.8396040045
 21
4349766.0
 31
0.0
  0
LINE
  5
A0
330
17
100
AcDbEntity
  8
爆区方格网
 62
4
100
AcDbLine
 10
470091.73
 20
4349767.0
 30
0.0
 11
470096.73
 21
4349767.0
 31
0.0
  0
LINE
  5
A1
330
17
100
AcDbEntity
  8
爆区方格网
 62
4
100
AcDbLine
 10
470091.73
 20
4349768.0
 30
0.0
 11
470096.73
 21
4349768.0
 31
0.0
  0
LINE
  5
A2
330
17
100
AcDbEntity
  8
爆区方格网
 62
4
100
AcDbLine
 10
470091.73
 20
4349769.0
 30
0.0
 11
470096.73
 21
4349769.0
 31
0.0
  0
LINE
  5
A3
330
17
100
AcDbEntity
  8
爆区方格网
 62
4
100
AcDbLine
 10
470092.02258728206
 20
4349770.0
 30
0.0
 11
470093.9275869644
 21
4349770.0
 31
0.0
  0
LINE
  5
A4
330
17
100
AcDbEntity
  8
爆区方格网
 62
4
100
AcDbLine
 10
470092.07535736717
 20
4349771.0
 30
0.0
 11
470093.19958270434
 21
4349771.0
 31
0.0
  0
LINE
  5
A5
330
17
100
AcDbEntity
  8
爆区方格网
 62
4
100
AcDbLine
 10
470084.0
 20
4349798.944
 30
0.0
 11
470084.0
 21
4349805.621708753
 31
0.0
  0
LINE
  5
A6
330
17
100
AcDbEntity
  8
爆区方格网
 62
4
100
AcDbLine
 10
470085.0
 20
4349798.944
 30
0.0
 11
470085.0
 21
4349805.8255615635
 31
0.0
  0
LINE
  5
A7
330
17
100
AcDbEntity
  8
爆区方格网
 62
4
100
AcDbLine
 10
470086.0
 20
4349794.077793486
 30
0.0
 11
470086.0
 21
4349806.029414373
 31
0.0
  0
LINE
  5
A8
330
17
100
AcDbEntity
  8
爆区方格网
 62
4
100
AcDbLine
 10
470087.0
 20
4349785.241592076
 30
0.0
 11
470087.0
 21
4349804.209893772
 31
0.0
  0
LINE
  5
A9
330
17
100
AcDbEntity
  8
爆区方格网
 62
4
100
AcDbLine
 10
470088.0
 20
4349785.240994823
 30
0.0
 11
470088.0
 21
4349803.944
 31
0.0
  0
LINE
  5
AA
330
17
100
AcDbEntity
  8
爆区方格网
 62
4
100
AcDbLine
 10
470089.0
 20
4349785.240397571
 30
0.0
 11
470089.0
 21
4349794.438057766
 31
0.0
  0
LINE
  5
AB
330
17
100
AcDbEntity
  8
爆区方格网
 62
4
100
AcDbLine
 10
470090.0
 20
4349785.239800318
 30
0.0
 11
470090.0
 21
4349790.241714027
 31
0.0
  0
LINE
  5
AC
330
17
100
AcDbEntity
  8
爆区方格网
 62
4
100
AcDbLine
 10
470091.0
 20
4349785.239203066
 30
0.0
 11
470091.0
 21
4349790.239688634
 31
0.0
  0
LINE
  5
AD
330
17
100
AcDbEntity
  8
爆区方格网
 62
4
100
AcDbLine
 10
470086.317
 20
4349786.0
 30
0.0
 11
470091.34
 21
4349786.0
 31
0.0
  0
LINE
  5
AE
330
17
100
AcDbEntity
  8
爆区方格网
 62
4
100
AcDbLine
 10
470086.317
 20
4349787.0
 30
0.0
 11
470091.34
 21
4349787.0
 31
0.0
  0
LINE
  5
AF
330
17
100
AcDbEntity
  8
爆区方格网
 62
4
100
AcDbLine
 10
470086.317
 20
4349788.0
 30
0.0
 11
470091.34
 21
4349788.0
 31
0.0
  0
LINE
  5
B0
330
17
100
AcDbEntity
  8
爆区方格网
 62
4
100
AcDbLine
 10
470086.317
 20
4349789.0
 30
0.0
 11
470091.34
 21
4349789.0
 31
0.0
  0
LINE
  5
B1
330
17
100
AcDbEntity
  8
爆区方格网
 62
4
100
AcDbLine
 10
470086.317
 20
4349790.0
 30
0.0
 11
470091.34
 21
4349790.0
 31
0.0
  0
LINE
  5
B2
330
17
100
AcDbEntity
  8
爆区方格网
 62
4
100
AcDbLine
 10
470086.62490304175
 20
4349791.0
 30
0.0
 11
470089.7036666934
 21
4349791.0
 31
0.0
  0
LINE
  5
B3
330
17
100
AcDbEntity
  8
爆区方格网
 62
4
100
AcDbLine
 10
470086.42186698865
 20
4349792.0
 30
0.0
 11
470089.4989968649
 21
4349792.0
 31
0.0
  0
LINE
  5
B4
330
17
100
AcDbEntity
  8
爆区方格网
 62
4
100
AcDbLine
 10
470086.21883093554
 20
4349793.0
 30
0.0
 11
470089.29432703636
 21
4349793.0
 31
0.0
  0
LINE
  5
B5
330
17
100
AcDbEntity
  8
爆区方格网
 62
4
100
AcDbLine
 10
470086.01579488243
 20
4349794.0
 30
0.0
 11
470089.08965720783
 21
4349794.0
 31
0.0
  0
LINE
  5
B6
330
17
100
AcDbEntity
  8
爆区方格网
 62
4
100
AcDbLine
 10
470085.81275882927
 20
4349795.0
 30
0.0
 11
470088.8849873793
 21
4349795.0
 31
0.0
  0
LINE
  5
B7
330
17
100
AcDbEntity
  8
爆区方格网
 62
4
100
AcDbLine
 10
470085.60972277616
 20
4349796.0
 30
0.0
 11
470088.6803175508
 21
4349796.0
 31
0.0
  0
LINE
  5
B8
330
17
100
AcDbEntity
  8
爆区方格网
 62
4
100
AcDbLine
 10
470085.40668672306
 20
4349797.0
 30
0.0
 11
470088.47564772225
 21
4349797.0
 31
0.0
  0
LINE
  5
B9
330
17
100
AcDbEntity
  8
爆区方格网
 62
4
100
AcDbLine
 10
470085.20365066995
 20
4349798.0
 30
0.0
 11
470088.27097789367
 21
4349798.0
 31
0.0
  0
LINE
  5
BA
330
17
100
AcDbEntity
  8
爆区方格网
 62
4
100
AcDbLine
 10
470083.535
 20
4349799.0
 30
0.0
 11
470088.535
 21
4349799.0
 31
0.0
  0
LINE
  5
BB
330
17
100
AcDbEntity
  8
爆区方格网
 62
4
100
AcDbLine
 10
470083.535
 20
4349800.0
 30
0.0
 11
470088.535
 21
4349800.0
 31
0.0
  0
LINE
  5
BC
330
17
100
AcDbEntity
  8
爆区方格网
 62
4
100
AcDbLine
 10
470083.535
 20
4349801.0
 30
0.0
 11
470088.535
 21
4349801.0
 31
0.0
  0
LINE
  5
BD
330
17
100
AcDbEntity
  8
爆区方格网
 62
4
100
AcDbLine
 10
470083.535
 20
4349802.0
 30
0.0
 11
470088.535
 21
4349802.0
 31
0.0
  0
LINE
  5
BE
330
17
100
AcDbEntity
  8
爆区方格网
 62
4
100
AcDbLine
 10
470083.535
 20
4349803.0
 30
0.0
 11
470088.535
 21
4349803.0
 31
0.0
  0
LINE
  5
BF
330
17
100
AcDbEntity
  8
爆区方格网
 62
4
100
AcDbLine
 10
470083.98543435126
 20
4349804.0
 30
0.0
 11
470087.04295892245
 21
4349804.0
 31
0.0
  0
LINE
  5
C0
330
17
100
AcDbEntity
  8
爆区方格网
 62
4
100
AcDbLine
 10
470083.78239829815
 20
4349805.0
 30
0.0
 11
470086.8382890939
 21
4349805.0
 31
0.0
  0
LINE
  5
C1
330
17
100
AcDbEntity
  8
爆区方格网
 62
4
100
AcDbLine
 10
470085.85570778605
 20
4349806.0
 30
0.0
 11
470086.6336192654
 21
4349806.0
 31
0.0
  0
TEXT
  5
C2
330
17
100
AcDbEntity
  8
点
 62
5
100
AcDbText
 10
470095.5
 20
4349751.5
 30
0.0
 40
0.3
  1
1.16
  7
CN_TTF
 11
470095.5
 21
4349751.5
 31
0.0
100
AcDbText
  0
TEXT
  5
C3
330
17
100
AcDbEntity
  8
点
 62
5
100
AcDbText
 10
470095.5
 20
4349752.5
 30
0.0
 40
0.3
  1
1.16
  7
CN_TTF
 11
470095.5
 21
4349752.5
 31
0.0
100
AcDbText
  0
TEXT
  5
C4
330
17
100
AcDbEntity
  8
点
 62
5
100
AcDbText
 10
470095.5
 20
4349753.5
 30
0.0
 40
0.3
  1
1.16
  7
CN_TTF
 11
470095.5
 21
4349753.5
 31
0.0
100
AcDbText
  0
TEXT
  5
C5
330
17
100
AcDbEntity
  8
点
 62
5
100
AcDbText
 10
470095.5
 20
4349754.5
 30
0.0
 40
0.3
  1
1.16
  7
CN_TTF
 11
470095.5
 21
4349754.5
 31
0.0
100
AcDbText
  0
TEXT
  5
C6
330
17
100
AcDbEntity
  8
点
 62
5
100
AcDbText
 10
470095.5
 20
4349755.5
 30
0.0
 40
0.3
  1
1.16
  7
CN_TTF
 11
470095.5
 21
4349755.5
 31
0.0
100
AcDbText
  0
TEXT
  5
C7
330
17
100
AcDbEntity
  8
点
 62
5
100
AcDbText
 10
470096.5
 20
4349751.5
 30
0.0
 40
0.3
  1
1.16
  7
CN_TTF
 11
470096.5
 21
4349751.5
 31
0.0
100
AcDbText
  0
TEXT
  5
C8
330
17
100
AcDbEntity
  8
点
 62
5
100
AcDbText
 10
470096.5
 20
4349752.5
 30
0.0
 40
0.3
  1
1.16
  7
CN_TTF
 11
470096.5
 21
4349752.5
 31
0.0
100
AcDbText
  0
TEXT
  5
C9
330
17
100
AcDbEntity
  8
点
 62
5
100
AcDbText
 10
470096.5
 20
4349753.5
 30
0.0
 40
0.3
  1
1.16
  7
CN_TTF
 11
470096.5
 21
4349753.5
 31
0.0
100
AcDbText
  0
TEXT
  5
CA
330
17
100
AcDbEntity
  8
点
 62
5
100
AcDbText
 10
470096.5
 20
4349754.5
 30
0.0
 40
0.3
  1
1.16
  7
CN_TTF
 11
470096.5
 21
4349754.5
 31
0.0
100
AcDbText
  0
TEXT
  5
CB
330
17
100
AcDbEntity
  8
点
 62
5
100
AcDbText
 10
470096.5
 20
4349755.5
 30
0.0
 40
0.3
  1
1.16
  7
CN_TTF
 11
470096.5
 21
4349755.5
 31
0.0
100
AcDbText
  0
TEXT
  5
CC
330
17
100
AcDbEntity
  8
点
 62
5
100
AcDbText
 10
470097.5
 20
4349744.5
 30
0.0
 40
0.3
  1
1.04
  7
CN_TTF
 11
470097.5
 21
4349744.5
 31
0.0
100
AcDbText
  0
TEXT
  5
CD
330
17
100
AcDbEntity
  8
点
 62
5
100
AcDbText
 10
470097.5
 20
4349745.5
 30
0.0
 40
0.3
  1
1.04
  7
CN_TTF
 11
470097.5
 21
4349745.5
 31
0.0
100
AcDbText
  0
TEXT
  5
CE
330
17
100
AcDbEntity
  8
点
 62
5
100
AcDbText
 10
470097.5
 20
4349746.5
 30
0.0
 40
0.3
  1
1.04
  7
CN_TTF
 11
470097.5
 21
4349746.5
 31
0.0
100
AcDbText
  0
TEXT
  5
CF
330
17
100
AcDbEntity
  8
点
 62
5
100
AcDbText
 10
470097.5
 20
4349747.5
 30
0.0
 40
0.3
  1
1.04
  7
CN_TTF
 11
470097.5
 21
4349747.5
 31
0.0
100
AcDbText
  0
TEXT
  5
D0
330
17
100
AcDbEntity
  8
点
 62
5
100
AcDbText
 10
470097.5
 20
4349748.5
 30
0.0
 40
0.3
  1
1.04
  7
CN_TTF
 11
470097.5
 21
4349748.5
 31
0.0
100
AcDbText
  0
TEXT
  5
D1
330
17
100
AcDbEntity
  8
点
 62
5
100
AcDbText
 10
470097.5
 20
4349751.5
 30
0.0
 40
0.3
  1
1.16
  7
CN_TTF
 11
470097.5
 21
4349751.5
 31
0.0
100
AcDbText
  0
TEXT
  5
D2
330
17
100
AcDbEntity
  8
点
 62
5
100
AcDbText
 10
470097.5
 20
4349752.5
 30
0.0
 40
0.3
  1
1.16
  7
CN_TTF
 11
470097.5
 21
4349752.5
 31
0.0
100
AcDbText
  0
TEXT
  5
D3
330
17
100
AcDbEntity
  8
点
 62
5
100
AcDbText
 10
470097.5
 20
4349753.5
 30
0.0
 40
0.3
  1
1.16
  7
CN_TTF
 11
470097.5
 21
4349753.5
 31
0.0
100
AcDbText
  0
TEXT
  5
D4
330
17
100
AcDbEntity
  8
点
 62
5
100
AcDbText
 10
470097.5
 20
4349754.5
 30
0.0
 40
0.3
  1
1.16
  7
CN_TTF
 11
470097.5
 21
4349754.5
 31
0.0
100
AcDbText
  0
TEXT
  5
D5
330
17
100
AcDbEntity
  8
点
 62
5
100
AcDbText
 10
470097.5
 20
4349755.5
 30
0.0
 40
0.3
  1
1.16
  7
CN_TTF
 11
470097.5
 21
4349755.5
 31
0.0
100
AcDbText
  0
TEXT
  5
D6
330
17
100
AcDbEntity
  8
点
 62
5
100
AcDbText
 10
470098.5
 20
4349744.5
 30
0.0
 40
0.3
  1
1.04
  7
CN_TTF
 11
470098.5
 21
4349744.5
 31
0.0
100
AcDbText
  0
TEXT
  5
D7
330
17
100
AcDbEntity
  8
点
 62
5
100
AcDbText
 10
470098.5
 20
4349745.5
 30
0.0
 40
0.3
  1
1.04
  7
CN_TTF
 11
470098.5
 21
4349745.5
 31
0.0
100
AcDbText
  0
TEXT
  5
D8
330
17
100
AcDbEntity
  8
点
 62
5
100
AcDbText
 10
470098.5
 20
4349746.5
 30
0.0
 40
0.3
  1
1.04
  7
CN_TTF
 11
470098.5
 21
4349746.5
 31
0.0
100
AcDbText
  0
TEXT
  5
D9
330
17
100
AcDbEntity
  8
点
 62
5
100
AcDbText
 10
470098.5
 20
4349747.5
 30
0.0
 40
0.3
  1
1.04
  7
CN_TTF
 11
470098.5
 21
4349747.5
 31
0.0
100
AcDbText
  0
TEXT
  5
DA
330
17
100
AcDbEntity
  8
点
 62
5
100
AcDbText
 10
470098.5
 20
4349748.5
 30
0.0
 40
0.3
  1
1.04
  7
CN_TTF
 11
470098.5
 21
4349748.5
 31
0.0
100
AcDbText
  0
TEXT
  5
DB
330
17
100
AcDbEntity
  8
点
 62
5
100
AcDbText
 10
470098.5
 20
4349751.5
 30
0.0
 40
0.3
  1
1.16
  7
CN_TTF
 11
470098.5
 21
4349751.5
 31
0.0
100
AcDbText
  0
TEXT
  5
DC
330
17
100
AcDbEntity
  8
点
 62
5
100
AcDbText
 10
470098.5
 20
4349752.5
 30
0.0
 40
0.3
  1
1.16
  7
CN_TTF
 11
470098.5
 21
4349752.5
 31
0.0
100
AcDbText
  0
TEXT
  5
DD
330
17
100
AcDbEntity
  8
点
 62
5
100
AcDbText
 10
470098.5
 20
4349753.5
 30
0.0
 40
0.3
  1
1.16
  7
CN_TTF
 11
470098.5
 21
4349753.5
 31
0.0
100
AcDbText
  0
TEXT
  5
DE
330
17
100
AcDbEntity
  8
点
 62
5
100
AcDbText
 10
470098.5
 20
4349754.5
 30
0.0
 40
0.3
  1
1.16
  7
CN_TTF
 11
470098.5
 21
4349754.5
 31
0.0
100
AcDbText
  0
TEXT
  5
DF
330
17
100
AcDbEntity
  8
点
 62
5
100
AcDbText
 10
470098.5
 20
4349755.5
 30
0.0
 40
0.3
  1
1.16
  7
CN_TTF
 11
470098.5
 21
4349755.5
 31
0.0
100
AcDbText
  0
TEXT
  5
E0
330
17
100
AcDbEntity
  8
点
 62
5
100
AcDbText
 10
470099.5
 20
4349737.5
 30
0.0
 40
0.3
  1
1.26
  7
CN_TTF
 11
470099.5
 21
4349737.5
 31
0.0
100
AcDbText
  0
TEXT
  5
E1
330
17
100
AcDbEntity
  8
点
 62
5
100
AcDbText
 10
470099.5
 20
4349738.5
 30
0.0
 40
0.3
  1
1.26
  7
CN_TTF
 11
470099.5
 21
4349738.5
 31
0.0
100
AcDbText
  0
TEXT
  5
E2
330
17
100
AcDbEntity
  8
点
 62
5
100
AcDbText
 10
470099.5
 20
4349739.5
 30
0.0
 40
0.3
  1
1.26
  7
CN_TTF
 11
470099.5
 21
4349739.5
 31
0.0
100
AcDbText
  0
TEXT
  5
E3
330
17
100
AcDbEntity
  8
点
 62
5
100
AcDbText
 10
470099.5
 20
4349740.5
 30
0.0
 40
0.3
  1
1.26
  7
CN_TTF
 11
470099.5
 21
4349740.5
 31
0.0
100
AcDbText
  0
TEXT
  5
E4
330
17
100
AcDbEntity
  8
点
 62
5
100
AcDbText
 10
470099.5
 20
4349741.5
 30
0.0
 40
0.3
  1
1.26
  7
CN_TTF
 11
470099.5
 21
4349741.5
 31
0.0
100
AcDbText
  0
TEXT
  5
E5
330
17
100
AcDbEntity
  8
点
 62
5
100
AcDbText
 10
470099.5
 20
4349742.5
 30
0.0
 40
0.3
  1
1.26
  7
CN_TTF
 11
470099.5
 21
4349742.5
 31
0.0
100
AcDbText
  0
TEXT
  5
E6
330
17
100
AcDbEntity
  8
点
 62
5
100
AcDbText
 10
470099.5
 20
4349743.5
 30
0.0
 40
0.3
  1
1.04
  7
CN_TTF
 11
470099.5
 21
4349743.5
 31
0.0
100
AcDbText
  0
TEXT
  5
E7
330
17
100
AcDbEntity
  8
点
 62
5
100
AcDbText
 10
470099.5
 20
4349744.5
 30
0.0
 40
0.3
  1
1.04
  7
CN_TTF
 11
470099.5
 21
4349744.5
 31
0.0
100
AcDbText
  0
TEXT
  5
E8
330
17
100
AcDbEntity
  8
点
 62
5
100
AcDbText
 10
470099.5
 20
4349745.5
 30
0.0
 40
0.3
  1
1.04
  7
CN_TTF
 11
470099.5
 21
4349745.5
 31
0.0
100
AcDbText
  0
TEXT
  5
E9
330
17
100
AcDbEntity
  8
点
 62
5
100
AcDbText
 10
470099.5
 20
4349746.5
 30
0.0
 40
0.3
  1
1.04
  7
CN_TTF
 11
470099.5
 21
4349746.5
 31
0.0
100
AcDbText
  0
TEXT
  5
EA
330
17
100
AcDbEntity
  8
点
 62
5
100
AcDbText
 10
470099.5
 20
4349747.5
 30
0.0
 40
0.3
  1
1.04
  7
CN_TTF
 11
470099.5
 21
4349747.5
 31
0.0
100
AcDbText
  0
TEXT
  5
EB
330
17
100
AcDbEntity
  8
点
 62
5
100
AcDbText
 10
470099.5
 20
4349748.5
 30
0.0
 40
0.3
  1
1.04
  7
CN_TTF
 11
470099.5
 21
4349748.5
 31
0.0
100
AcDbText
  0
TEXT
  5
EC
330
17
100
AcDbEntity
  8
点
 62
5
100
AcDbText
 10
470099.5
 20
4349751.5
 30
0.0
 40
0.3
  1
0.51
  7
CN_TTF
 11
470099.5
 21
4349751.5
 31
0.0
100
AcDbText
  0
TEXT
  5
ED
330
17
100
AcDbEntity
  8
点
 62
5
100
AcDbText
 10
470099.5
 20
4349752.5
 30
0.0
 40
0.3
  1
1.16
  7
CN_TTF
 11
470099.5
 21
4349752.5
 31
0.0
100
AcDbText
  0
TEXT
  5
EE
330
17
100
AcDbEntity
  8
点
 62
5
100
AcDbText
 10
470099.5
 20
4349753.5
 30
0.0
 40
0.3
  1
1.16
  7
CN_TTF
 11
470099.5
 21
4349753.5
 31
0.0
100
AcDbText
  0
TEXT
  5
EF
330
17
100
AcDbEntity
  8
点
 62
5
100
AcDbText
 10
470099.5
 20
4349754.5
 30
0.0
 40
0.3
  1
1.16
  7
CN_TTF
 11
470099.5
 21
4349754.5
 31
0.0
100
AcDbText
  0
TEXT
  5
F0
330
17
100
AcDbEntity
  8
点
 62
5
100
AcDbText
 10
470099.5
 20
4349755.5
 30
0.0
 40
0.3
  1
1.16
  7
CN_TTF
 11
470099.5
 21
4349755.5
 31
0.0
100
AcDbText
  0
TEXT
  5
F1
330
17
100
AcDbEntity
  8
点
 62
5
100
AcDbText
 10
470100.5
 20
4349736.5
 30
0.0
 40
0.3
  1
1.26
  7
CN_TTF
 11
470100.5
 21
4349736.5
 31
0.0
100
AcDbText
  0
TEXT
  5
F2
330
17
100
AcDbEntity
  8
点
 62
5
100
AcDbText
 10
470100.5
 20
4349737.5
 30
0.0
 40
0.3
  1
1.26
  7
CN_TTF
 11
470100.5
 21
4349737.5
 31
0.0
100
AcDbText
  0
TEXT
  5
F3
330
17
100
AcDbEntity
  8
点
 62
5
100
AcDbText
 10
470100.5
 20
4349738.5
 30
0.0
 40
0.3
  1
1.26
  7
CN_TTF
 11
470100.5
 21
4349738.5
 31
0.0
100
AcDbText
  0
TEXT
  5
F4
330
17
100
AcDbEntity
  8
点
 62
5
100
AcDbText
 10
470100.5
 20
4349739.5
 30
0.0
 40
0.3
  1
1.26
  7
CN_TTF
 11
470100.5
 21
4349739.5
 31
0.0
100
AcDbText
  0
TEXT
  5
F5
330
17
100
AcDbEntity
  8
点
 62
5
100
AcDbText
 10
470100.5
 20
4349740.5
 30
0.0
 40
0.3
  1
1.26
  7
CN_TTF
 11
470100.5
 21
4349740.5
 31
0.0
100
AcDbText
  0
TEXT
  5
F6
330
17
100
AcDbEntity
  8
点
 62
5
100
AcDbText
 10
470100.5
 20
4349741.5
 30
0.0
 40
0.3
  1
1.26
  7
CN_TTF
 11
470100.5
 21
4349741.5
 31
0.0
100
AcDbText
  0
TEXT
  5
F7
330
17
100
AcDbEntity
  8
点
 62
5
100
AcDbText
 10
470100.5
 20
4349742.5
 30
0.0
 40
0.3
  1
1.26
  7
CN_TTF
 11
470100.5
 21
4349742.5
 31
0.0
100
AcDbText
  0
TEXT
  5
F8
330
17
100
AcDbEntity
  8
点
 62
5
100
AcDbText
 10
470100.5
 20
4349743.5
 30
0.0
 40
0.3
  1
1.04
  7
CN_TTF
 11
470100.5
 21
4349743.5
 31
0.0
100
AcDbText
  0
TEXT
  5
F9
330
17
100
AcDbEntity
  8
点
 62
5
100
AcDbText
 10
470100.5
 20
4349744.5
 30
0.0
 40
0.3
  1
1.04
  7
CN_TTF
 11
470100.5
 21
4349744.5
 31
0.0
100
AcDbText
  0
TEXT
  5
FA
330
17
100
AcDbEntity
  8
点
 62
5
100
AcDbText
 10
470100.5
 20
4349745.5
 30
0.0
 40
0.3
  1
1.04
  7
CN_TTF
 11
470100.5
 21
4349745.5
 31
0.0
100
AcDbText
  0
TEXT
  5
FB
330
17
100
AcDbEntity
  8
点
 62
5
100
AcDbText
 10
470100.5
 20
4349746.5
 30
0.0
 40
0.3
  1
1.04
  7
CN_TTF
 11
470100.5
 21
4349746.5
 31
0.0
100
AcDbText
  0
TEXT
  5
FC
330
17
100
AcDbEntity
  8
点
 62
5
100
AcDbText
 10
470100.5
 20
4349747.5
 30
0.0
 40
0.3
  1
1.04
  7
CN_TTF
 11
470100.5
 21
4349747.5
 31
0.0
100
AcDbText
  0
TEXT
  5
FD
330
17
100
AcDbEntity
  8
点
 62
5
100
AcDbText
 10
470100.5
 20
4349748.5
 30
0.0
 40
0.3
  1
1.04
  7
CN_TTF
 11
470100.5
 21
4349748.5
 31
0.0
100
AcDbText
  0
TEXT
  5
FE
330
17
100
AcDbEntity
  8
点
 62
5
100
AcDbText
 10
470101.5
 20
4349728.5
 30
0.0
 40
0.3
  1
1.11
  7
CN_TTF
 11
470101.5
 21
4349728.5
 31
0.0
100
AcDbText
  0
TEXT
  5
FF
330
17
100
AcDbEntity
  8
点
 62
5
100
AcDbText
 10
470101.5
 20
4349729.5
 30
0.0
 40
0.3
  1
1.11
  7
CN_TTF
 11
470101.5
 21
4349729.5
 31
0.0
100
AcDbText
  0
TEXT
  5
100
330
17
100
AcDbEntity
  8
点
 62
5
100
AcDbText
 10
470101.5
 20
4349730.5
 30
0.0
 40
0.3
  1
1.11
  7
CN_TTF
 11
470101.5
 21
4349730.5
 31
0.0
100
AcDbText
  0
TEXT
  5
101
330
17
100
AcDbEntity
  8
点
 62
5
100
AcDbText
 10
470101.5
 20
4349731.5
 30
0.0
 40
0.3
  1
1.32
  7
CN_TTF
 11
470101.5
 21
4349731.5
 31
0.0
100
AcDbText
  0
TEXT
  5
102
330
17
100
AcDbEntity
  8
点
 62
5
100
AcDbText
 10
470101.5
 20
4349733.5
 30
0.0
 40
0.3
  1
1.32
  7
CN_TTF
 11
470101.5
 21
4349733.5
 31
0.0
100
AcDbText
  0
TEXT
  5
103
330
17
100
AcDbEntity
  8
点
 62
5
100
AcDbText
 10
470101.5
 20
4349734.5
 30
0.0
 40
0.3
  1
1.32
  7
CN_TTF
 11
470101.5
 21
4349734.5
 31
0.0
100
AcDbText
  0
TEXT
  5
104
330
17
100
AcDbEntity
  8
点
 62
5
100
AcDbText
 10
470101.5
 20
4349735.5
 30
0.0
 40
0.3
  1
1.32
  7
CN_TTF
 11
470101.5
 21
4349735.5
 31
0.0
100
AcDbText
  0
TEXT
  5
105
330
17
100
AcDbEntity
  8
点
 62
5
100
AcDbText
 10
470101.5
 20
4349736.5
 30
0.0
 40
0.3
  1
0.87
  7
CN_TTF
 11
470101.5
 21
4349736.5
 31
0.0
100
AcDbText
  0
TEXT
  5
106
330
17
100
AcDbEntity
  8
点
 62
5
100
AcDbText
 10
470101.5
 20
4349737.5
 30
0.0
 40
0.3
  1
1.26
  7
CN_TTF
 11
470101.5
 21
4349737.5
 31
0.0
100
AcDbText
  0
TEXT
  5
107
330
17
100
AcDbEntity
  8
点
 62
5
100
AcDbText
 10
470101.5
 20
4349738.5
 30
0.0
 40
0.3
  1
1.26
  7
CN_TTF
 11
470101.5
 21
4349738.5
 31
0.0
100
AcDbText
  0
TEXT
  5
108
330
17
100
AcDbEntity
  8
点
 62
5
100
AcDbText
 10
470101.5
 20
4349739.5
 30
0.0
 40
0.3
  1
1.26
  7
CN_TTF
 11
470101.5
 21
4349739.5
 31
0.0
100
AcDbText
  0
TEXT
  5
109
330
17
100
AcDbEntity
  8
点
 62
5
100
AcDbText
 10
470101.5
 20
4349740.5
 30
0.0
 40
0.3
  1
1.26
  7
CN_TTF
 11
470101.5
 21
4349740.5
 31
0.0
100
AcDbText
  0
TEXT
  5
10A
330
17
100
AcDbEntity
  8
点
 62
5
100
AcDbText
 10
470101.5
 20
4349741.5
 30
0.0
 40
0.3
  1
1.26
  7
CN_TTF
 11
470101.5
 21
4349741.5
 31
0.0
100
AcDbText
  0
TEXT
  5
10B
330
17
100
AcDbEntity
  8
点
 62
5
100
AcDbText
 10
470101.5
 20
4349744.5
 30
0.0
 40
0.3
  1
0.71
  7
CN_TTF
 11
470101.5
 21
4349744.5
 31
0.0
100
AcDbText
  0
TEXT
  5
10C
330
17
100
AcDbEntity
  8
点
 62
5
100
AcDbText
 10
470101.5
 20
4349745.5
 30
0.0
 40
0.3
  1
1.04
  7
CN_TTF
 11
470101.5
 21
4349745.5
 31
0.0
100
AcDbText
  0
TEXT
  5
10D
330
17
100
AcDbEntity
  8
点
 62
5
100
AcDbText
 10
470101.5
 20
4349746.5
 30
0.0
 40
0.3
  1
1.04
  7
CN_TTF
 11
470101.5
 21
4349746.5
 31
0.0
100
AcDbText
  0
TEXT
  5
10E
330
17
100
AcDbEntity
  8
点
 62
5
100
AcDbText
 10
470101.5
 20
4349747.5
 30
0.0
 40
0.3
  1
1.04
  7
CN_TTF
 11
470101.5
 21
4349747.5
 31
0.0
100
AcDbText
  0
TEXT
  5
10F
330
17
100
AcDbEntity
  8
点
 62
5
100
AcDbText
 10
470101.5
 20
4349748.5
 30
0.0
 40
0.3
  1
0.51
  7
CN_TTF
 11
470101.5
 21
4349748.5
 31
0.0
100
AcDbText
  0
TEXT
  5
110
330
17
100
AcDbEntity
  8
点
 62
5
100
AcDbText
 10
470102.5
 20
4349727.5
 30
0.0
 40
0.3
  1
1.11
  7
CN_TTF
 11
470102.5
 21
4349727.5
 31
0.0
100
AcDbText
  0
TEXT
  5
111
330
17
100
AcDbEntity
  8
点
 62
5
100
AcDbText
 10
470102.5
 20
4349728.5
 30
0.0
 40
0.3
  1
1.11
  7
CN_TTF
 11
470102.5
 21
4349728.5
 31
0.0
100
AcDbText
  0
TEXT
  5
112
330
17
100
AcDbEntity
  8
点
 62
5
100
AcDbText
 10
470102.5
 20
4349729.5
 30
0.0
 40
0.3
  1
1.11
  7
CN_TTF
 11
470102.5
 21
4349729.5
 31
0.0
100
AcDbText
  0
TEXT
  5
113
330
17
100
AcDbEntity
  8
点
 62
5
100
AcDbText
 10
470102.5
 20
4349730.5
 30
0.0
 40
0.3
  1
1.11
  7
CN_TTF
 11
470102.5
 21
4349730.5
 31
0.0
100
AcDbText
  0
TEXT
  5
114
330
17
100
AcDbEntity
  8
点
 62
5
100
AcDbText
 10
470102.5
 20
4349731.5
 30
0.0
 40
0.3
  1
1.32
  7
CN_TTF
 11
470102.5
 21
4349731.5
 31
0.0
100
AcDbText
  0
TEXT
  5
115
330
17
100
AcDbEntity
  8
点
 62
5
100
AcDbText
 10
470102.5
 20
4349732.5
 30
0.0
 40
0.3
  1
1.32
  7
CN_TTF
 11
470102.5
 21
4349732.5
 31
0.0
100
AcDbText
  0
TEXT
  5
116
330
17
100
AcDbEntity
  8
点
 62
5
100
AcDbText
 10
470102.5
 20
4349733.5
 30
0.0
 40
0.3
  1
1.32
  7
CN_TTF
 11
470102.5
 21
4349733.5
 31
0.0
100
AcDbText
  0
TEXT
  5
117
330
17
100
AcDbEntity
  8
点
 62
5
100
AcDbText
 10
470102.5
 20
4349734.5
 30
0.0
 40
0.3
  1
1.32
  7
CN_TTF
 11
470102.5
 21
4349734.5
 31
0.0
100
AcDbText
  0
TEXT
  5
118
330
17
100
AcDbEntity
  8
点
 62
5
100
AcDbText
 10
470102.5
 20
4349735.5
 30
0.0
 40
0.3
  1
1.32
  7
CN_TTF
 11
470102.5
 21
4349735.5
 31
0.0
100
AcDbText
  0
TEXT
  5
119
330
17
100
AcDbEntity
  8
点
 62
5
100
AcDbText
 10
470102.5
 20
4349736.5
 30
0.0
 40
0.3
  1
0.87
  7
CN_TTF
 11
470102.5
 21
4349736.5
 31
0.0
100
AcDbText
  0
TEXT
  5
11A
330
17
100
AcDbEntity
  8
点
 62
5
100
AcDbText
 10
470102.5
 20
4349737.5
 30
0.0
 40
0.3
  1
0.87
  7
CN_TTF
 11
470102.5
 21
4349737.5
 31
0.0
100
AcDbText
  0
TEXT
  5
11B
330
17
100
AcDbEntity
  8
点
 62
5
100
AcDbText
 10
470102.5
 20
4349738.5
 30
0.0
 40
0.3
  1
1.26
  7
CN_TTF
 11
470102.5
 21
4349738.5
 31
0.0
100
AcDbText
  0
TEXT
  5
11C
330
17
100
AcDbEntity
  8
点
 62
5
100
AcDbText
 10
470102.5
 20
4349739.5
 30
0.0
 40
0.3
  1
1.26
  7
CN_TTF
 11
470102.5
 21
4349739.5
 31
0.0
100
AcDbText
  0
TEXT
  5
11D
330
17
100
AcDbEntity
  8
点
 62
5
100
AcDbText
 10
470102.5
 20
4349740.5
 30
0.0
 40
0.3
  1
1.26
  7
CN_TTF
 11
470102.5
 21
4349740.5
 31
0.0
100
AcDbText
  0
TEXT
  5
11E
330
17
100
AcDbEntity
  8
点
 62
5
100
AcDbText
 10
470102.5
 20
4349741.5
 30
0.0
 40
0.3
  1
1.26
  7
CN_TTF
 11
470102.5
 21
4349741.5
 31
0.0
100
AcDbText
  0
TEXT
  5
11F
330
17
100
AcDbEntity
  8
点
 62
5
100
AcDbText
 10
470103.5
 20
4349727.5
 30
0.0
 40
0.3
  1
1.11
  7
CN_TTF
 11
470103.5
 21
4349727.5
 31
0.0
100
AcDbText
  0
TEXT
  5
120
330
17
100
AcDbEntity
  8
点
 62
5
100
AcDbText
 10
470103.5
 20
4349728.5
 30
0.0
 40
0.3
  1
1.11
  7
CN_TTF
 11
470103.5
 21
4349728.5
 31
0.0
100
AcDbText
  0
TEXT
  5
121
330
17
100
AcDbEntity
  8
点
 62
5
100
AcDbText
 10
470103.5
 20
4349729.5
 30
0.0
 40
0.3
  1
1.11
  7
CN_TTF
 11
470103.5
 21
4349729.5
 31
0.0
100
AcDbText
  0
TEXT
  5
122
330
17
100
AcDbEntity
  8
点
 62
5
100
AcDbText
 10
470103.5
 20
4349730.5
 30
0.0
 40
0.3
  1
1.11
  7
CN_TTF
 11
470103.5
 21
4349730.5
 31
0.0
100
AcDbText
  0
TEXT
  5
123
330
17
100
AcDbEntity
  8
点
 62
5
100
AcDbText
 10
470103.5
 20
4349731.5
 30
0.0
 40
0.3
  1
1.32
  7
CN_TTF
 11
470103.5
 21
4349731.5
 31
0.0
100
AcDbText
  0
TEXT
  5
124
330
17
100
AcDbEntity
  8
点
 62
5
100
AcDbText
 10
470103.5
 20
4349732.5
 30
0.0
 40
0.3
  1
1.32
  7
CN_TTF
 11
470103.5
 21
4349732.5
 31
0.0
100
AcDbText
  0
TEXT
  5
125
330
17
100
AcDbEntity
  8
点
 62
5
100
AcDbText
 10
470103.5
 20
4349733.5
 30
0.0
 40
0.3
  1
1.32
  7
CN_TTF
 11
470103.5
 21
4349733.5
 31
0.0
100
AcDbText
  0
TEXT
  5
126
330
17
100
AcDbEntity
  8
点
 62
5
100
AcDbText
 10
470103.5
 20
4349734.5
 30
0.0
 40
0.3
  1
1.32
  7
CN_TTF
 11
470103.5
 21
4349734.5
 31
0.0
100
AcDbText
  0
TEXT
  5
127
330
17
100
AcDbEntity
  8
点
 62
5
100
AcDbText
 10
470103.5
 20
4349735.5
 30
0.0
 40
0.3
  1
0.87
  7
CN_TTF
 11
470103.5
 21
4349735.5
 31
0.0
100
AcDbText
  0
TEXT
  5
128
330
17
100
AcDbEntity
  8
点
 62
5
100
AcDbText
 10
470103.5
 20
4349736.5
 30
0.0
 40
0.3
  1
0.87
  7
CN_TTF
 11
470103.5
 21
4349736.5
 31
0.0
100
AcDbText
  0
TEXT
  5
129
330
17
100
AcDbEntity
  8
点
 62
5
100
AcDbText
 10
470103.5
 20
4349737.5
 30
0.0
 40
0.3
  1
0.87
  7
CN_TTF
 11
470103.5
 21
4349737.5
 31
0.0
100
AcDbText
  0
TEXT
  5
12A
330
17
100
AcDbEntity
  8
点
 62
5
100
AcDbText
 10
470103.5
 20
4349738.5
 30
0.0
 40
0.3
  1
0.87
  7
CN_TTF
 11
470103.5
 21
4349738.5
 31
0.0
100
AcDbText
  0
TEXT
  5
12B
330
17
100
AcDbEntity
  8
点
 62
5
100
AcDbText
 10
470103.5
 20
4349739.5
 30
0.0
 40
0.3
  1
1.26
  7
CN_TTF
 11
470103.5
 21
4349739.5
 31
0.0
100
AcDbText
  0
TEXT
  5
12C
330
17
100
AcDbEntity
  8
点
 62
5
100
AcDbText
 10
470103.5
 20
4349740.5
 30
0.0
 40
0.3
  1
1.26
  7
CN_TTF
 11
470103.5
 21
4349740.5
 31
0.0
100
AcDbText
  0
TEXT
  5
12D
330
17
100
AcDbEntity
  8
点
 62
5
100
AcDbText
 10
470103.5
 20
4349741.5
 30
0.0
 40
0.3
  1
0.71
  7
CN_TTF
 11
470103.5
 21
4349741.5
 31
0.0
100
AcDbText
  0
TEXT
  5
12E
330
17
100
AcDbEntity
  8
点
 62
5
100
AcDbText
 10
470104.5
 20
4349727.5
 30
0.0
 40
0.3
  1
1.11
  7
CN_TTF
 11
470104.5
 21
4349727.5
 31
0.0
100
AcDbText
  0
TEXT
  5
12F
330
17
100
AcDbEntity
  8
点
 62
5
100
AcDbText
 10
470104.5
 20
4349728.5
 30
0.0
 40
0.3
  1
1.11
  7
CN_TTF
 11
470104.5
 21
4349728.5
 31
0.0
100
AcDbText
  0
TEXT
  5
130
330
17
100
AcDbEntity
  8
点
 62
5
100
AcDbText
 10
470104.5
 20
4349729.5
 30
0.0
 40
0.3
  1
1.11
  7
CN_TTF
 11
470104.5
 21
4349729.5
 31
0.0
100
AcDbText
  0
TEXT
  5
131
330
17
100
AcDbEntity
  8
点
 62
5
100
AcDbText
 10
470104.5
 20
4349730.5
 30
0.0
 40
0.3
  1
1.11
  7
CN_TTF
 11
470104.5
 21
4349730.5
 31
0.0
100
AcDbText
  0
TEXT
  5
132
330
17
100
AcDbEntity
  8
点
 62
5
100
AcDbText
 10
470104.5
 20
4349731.5
 30
0.0
 40
0.3
  1
1.35
  7
CN_TTF
 11
470104.5
 21
4349731.5
 31
0.0
100
AcDbText
  0
TEXT
  5
133
330
17
100
AcDbEntity
  8
点
 62
5
100
AcDbText
 10
470104.5
 20
4349732.5
 30
0.0
 40
0.3
  1
1.32
  7
CN_TTF
 11
470104.5
 21
4349732.5
 31
0.0
100
AcDbText
  0
TEXT
  5
134
330
17
100
AcDbEntity
  8
点
 62
5
100
AcDbText
 10
470104.5
 20
4349733.5
 30
0.0
 40
0.3
  1
1.32
  7
CN_TTF
 11
470104.5
 21
4349733.5
 31
0.0
100
AcDbText
  0
TEXT
  5
135
330
17
100
AcDbEntity
  8
点
 62
5
100
AcDbText
 10
470104.5
 20
4349734.5
 30
0.0
 40
0.3
  1
1.32
  7
CN_TTF
 11
470104.5
 21
4349734.5
 31
0.0
100
AcDbText
  0
TEXT
  5
136
330
17
100
AcDbEntity
  8
点
 62
5
100
AcDbText
 10
470104.5
 20
4349735.5
 30
0.0
 40
0.3
  1
0.87
  7
CN_TTF
 11
470104.5
 21
4349735.5
 31
0.0
100
AcDbText
  0
TEXT
  5
137
330
17
100
AcDbEntity
  8
点
 62
5
100
AcDbText
 10
470104.5
 20
4349736.5
 30
0.0
 40
0.3
  1
0.87
  7
CN_TTF
 11
470104.5
 21
4349736.5
 31
0.0
100
AcDbText
  0
TEXT
  5
138
330
17
100
AcDbEntity
  8
点
 62
5
100
AcDbText
 10
470105.5
 20
4349727.5
 30
0.0
 40
0.3
  1
1.11
  7
CN_TTF
 11
470105.5
 21
4349727.5
 31
0.0
100
AcDbText
  0
TEXT
  5
139
330
17
100
AcDbEntity
  8
点
 62
5
100
AcDbText
 10
470105.5
 20
4349728.5
 30
0.0
 40
0.3
  1
1.11
  7
CN_TTF
 11
470105.5
 21
4349728.5
 31
0.0
100
AcDbText
  0
TEXT
  5
13A
330
17
100
AcDbEntity
  8
点
 62
5
100
AcDbText
 10
470105.5
 20
4349729.5
 30
0.0
 40
0.3
  1
1.11
  7
CN_TTF
 11
470105.5
 21
4349729.5
 31
0.0
100
AcDbText
  0
TEXT
  5
13B
330
17
100
AcDbEntity
  8
点
 62
5
100
AcDbText
 10
470105.5
 20
4349730.5
 30
0.0
 40
0.3
  1
1.35
  7
CN_TTF
 11
470105.5
 21
4349730.5
 31
0.0
100
AcDbText
  0
TEXT
  5
13C
330
17
100
AcDbEntity
  8
点
 62
5
100
AcDbText
 10
470105.5
 20
4349731.5
 30
0.0
 40
0.3
  1
1.35
  7
CN_TTF
 11
470105.5
 21
4349731.5
 31
0.0
100
AcDbText
  0
TEXT
  5
13D
330
17
100
AcDbEntity
  8
点
 62
5
100
AcDbText
 10
470105.5
 20
4349732.5
 30
0.0
 40
0.3
  1
1.35
  7
CN_TTF
 11
470105.5
 21
4349732.5
 31
0.0
100
AcDbText
  0
TEXT
  5
13E
330
17
100
AcDbEntity
  8
点
 62
5
100
AcDbText
 10
470105.5
 20
4349733.5
 30
0.0
 40
0.3
  1
1.32
  7
CN_TTF
 11
470105.5
 21
4349733.5
 31
0.0
100
AcDbText
  0
TEXT
  5
13F
330
17
100
AcDbEntity
  8
点
 62
5
100
AcDbText
 10
470105.5
 20
4349734.5
 30
0.0
 40
0.3
  1
1.32
  7
CN_TTF
 11
470105.5
 21
4349734.5
 31
0.0
100
AcDbText
  0
TEXT
  5
140
330
17
100
AcDbEntity
  8
点
 62
5
100
AcDbText
 10
470106.5
 20
4349729.5
 30
0.0
 40
0.3
  1
1.35
  7
CN_TTF
 11
470106.5
 21
4349729.5
 31
0.0
100
AcDbText
  0
TEXT
  5
141
330
17
100
AcDbEntity
  8
点
 62
5
100
AcDbText
 10
470106.5
 20
4349730.5
 30
0.0
 40
0.3
  1
1.35
  7
CN_TTF
 11
470106.5
 21
4349730.5
 31
0.0
100
AcDbText
  0
TEXT
  5
142
330
17
100
AcDbEntity
  8
点
 62
5
100
AcDbText
 10
470106.5
 20
4349731.5
 30
0.0
 40
0.3
  1
1.35
  7
CN_TTF
 11
470106.5
 21
4349731.5
 31
0.0
100
AcDbText
  0
TEXT
  5
143
330
17
100
AcDbEntity
  8
点
 62
5
100
AcDbText
 10
470106.5
 20
4349732.5
 30
0.0
 40
0.3
  1
1.35
  7
CN_TTF
 11
470106.5
 21
4349732.5
 31
0.0
100
AcDbText
  0
TEXT
  5
144
330
17
100
AcDbEntity
  8
点
 62
5
100
AcDbText
 10
470106.5
 20
4349733.5
 30
0.0
 40
0.3
  1
1.35
  7
CN_TTF
 11
470106.5
 21
4349733.5
 31
0.0
100
AcDbText
  0
TEXT
  5
145
330
17
100
AcDbEntity
  8
点
 62
5
100
AcDbText
 10
470107.5
 20
4349729.5
 30
0.0
 40
0.3
  1
1.35
  7
CN_TTF
 11
470107.5
 21
4349729.5
 31
0.0
100
AcDbText
  0
TEXT
  5
146
330
17
100
AcDbEntity
  8
点
 62
5
100
AcDbText
 10
470107.5
 20
4349730.5
 30
0.0
 40
0.3
  1
1.35
  7
CN_TTF
 11
470107.5
 21
4349730.5
 31
0.0
100
AcDbText
  0
TEXT
  5
147
330
17
100
AcDbEntity
  8
点
 62
5
100
AcDbText
 10
470107.5
 20
4349731.5
 30
0.0
 40
0.3
  1
1.35
  7
CN_TTF
 11
470107.5
 21
4349731.5
 31
0.0
100
AcDbText
  0
TEXT
  5
148
330
17
100
AcDbEntity
  8
点
 62
5
100
AcDbText
 10
470107.5
 20
4349732.5
 30
0.0
 40
0.3
  1
1.35
  7
CN_TTF
 11
470107.5
 21
4349732.5
 31
0.0
100
AcDbText
  0
TEXT
  5
149
330
17
100
AcDbEntity
  8
点
 62
5
100
AcDbText
 10
470107.5
 20
4349733.5
 30
0.0
 40
0.3
  1
1.35
  7
CN_TTF
 11
470107.5
 21
4349733.5
 31
0.0
100
AcDbText
  0
TEXT
  5
14A
330
17
100
AcDbEntity
  8
点
 62
5
100
AcDbText
 10
470108.5
 20
4349729.5
 30
0.0
 40
0.3
  1
1.35
  7
CN_TTF
 11
470108.5
 21
4349729.5
 31
0.0
100
AcDbText
  0
TEXT
  5
14B
330
17
100
AcDbEntity
  8
点
 62
5
100
AcDbText
 10
470108.5
 20
4349730.5
 30
0.0
 40
0.3
  1
1.35
  7
CN_TTF
 11
470108.5
 21
4349730.5
 31
0.0
100
AcDbText
  0
TEXT
  5
14C
330
17
100
AcDbEntity
  8
点
 62
5
100
AcDbText
 10
470108.5
 20
4349731.5
 30
0.0
 40
0.3
  1
1.35
  7
CN_TTF
 11
470108.5
 21
4349731.5
 31
0.0
100
AcDbText
  0
TEXT
  5
14D
330
17
100
AcDbEntity
  8
点
 62
5
100
AcDbText
 10
470108.5
 20
4349732.5
 30
0.0
 40
0.3
  1
1.35
  7
CN_TTF
 11
470108.5
 21
4349732.5
 31
0.0
100
AcDbText
  0
TEXT
  5
14E
330
17
100
AcDbEntity
  8
点
 62
5
100
AcDbText
 10
470108.5
 20
4349733.5
 30
0.0
 40
0.3
  1
1.35
  7
CN_TTF
 11
470108.5
 21
4349733.5
 31
0.0
100
AcDbText
  0
TEXT
  5
14F
330
17
100
AcDbEntity
  8
点
 62
4
100
AcDbText
 10
470084.5
 20
4349799.5
 30
0.0
 40
0.3
  1
0.52
  7
CN_TTF
 11
470084.5
 21
4349799.5
 31
0.0
100
AcDbText
  0
TEXT
  5
150
330
17
100
AcDbEntity
  8
点
 62
4
100
AcDbText
 10
470084.5
 20
4349800.5
 30
0.0
 40
0.3
  1
0.52
  7
CN_TTF
 11
470084.5
 21
4349800.5
 31
0.0
100
AcDbText
  0
TEXT
  5
151
330
17
100
AcDbEntity
  8
点
 62
4
100
AcDbText
 10
470084.5
 20
4349801.5
 30
0.0
 40
0.3
  1
0.52
  7
CN_TTF
 11
470084.5
 21
4349801.5
 31
0.0
100
AcDbText
  0
TEXT
  5
152
330
17
100
AcDbEntity
  8
点
 62
4
100
AcDbText
 10
470084.5
 20
4349802.5
 30
0.0
 40
0.3
  1
0.52
  7
CN_TTF
 11
470084.5
 21
4349802.5
 31
0.0
100
AcDbText
  0
TEXT
  5
153
330
17
100
AcDbEntity
  8
点
 62
4
100
AcDbText
 10
470084.5
 20
4349803.5
 30
0.0
 40
0.3
  1
0.52
  7
CN_TTF
 11
470084.5
 21
4349803.5
 31
0.0
100
AcDbText
  0
TEXT
  5
154
330
17
100
AcDbEntity
  8
点
 62
4
100
AcDbText
 10
470084.5
 20
4349804.5
 30
0.0
 40
0.3
  1
0.24
  7
CN_TTF
 11
470084.5
 21
4349804.5
 31
0.0
100
AcDbText
  0
TEXT
  5
155
330
17
100
AcDbEntity
  8
点
 62
4
100
AcDbText
 10
470084.5
 20
4349805.5
 30
0.0
 40
0.3
  1
0.24
  7
CN_TTF
 11
470084.5
 21
4349805.5
 31
0.0
100
AcDbText
  0
TEXT
  5
156
330
17
100
AcDbEntity
  8
点
 62
4
100
AcDbText
 10
470085.5
 20
4349797.5
 30
0.0
 40
0.3
  1
0.41
  7
CN_TTF
 11
470085.5
 21
4349797.5
 31
0.0
100
AcDbText
  0
TEXT
  5
157
330
17
100
AcDbEntity
  8
点
 62
4
100
AcDbText
 10
470085.5
 20
4349798.5
 30
0.0
 40
0.3
  1
0.52
  7
CN_TTF
 11
470085.5
 21
4349798.5
 31
0.0
100
AcDbText
  0
TEXT
  5
158
330
17
100
AcDbEntity
  8
点
 62
4
100
AcDbText
 10
470085.5
 20
4349799.5
 30
0.0
 40
0.3
  1
0.52
  7
CN_TTF
 11
470085.5
 21
4349799.5
 31
0.0
100
AcDbText
  0
TEXT
  5
159
330
17
100
AcDbEntity
  8
点
 62
4
100
AcDbText
 10
470085.5
 20
4349800.5
 30
0.0
 40
0.3
  1
0.52
  7
CN_TTF
 11
470085.5
 21
4349800.5
 31
0.0
100
AcDbText
  0
TEXT
  5
15A
330
17
100
AcDbEntity
  8
点
 62
4
100
AcDbText
 10
470085.5
 20
4349801.5
 30
0.0
 40
0.3
  1
0.52
  7
CN_TTF
 11
470085.5
 21
4349801.5
 31
0.0
100
AcDbText
  0
TEXT
  5
15B
330
17
100
AcDbEntity
  8
点
 62
4
100
AcDbText
 10
470085.5
 20
4349802.5
 30
0.0
 40
0.3
  1
0.52
  7
CN_TTF
 11
470085.5
 21
4349802.5
 31
0.0
100
AcDbText
  0
TEXT
  5
15C
330
17
100
AcDbEntity
  8
点
 62
4
100
AcDbText
 10
470085.5
 20
4349803.5
 30
0.0
 40
0.3
  1
0.52
  7
CN_TTF
 11
470085.5
 21
4349803.5
 31
0.0
100
AcDbText
  0
TEXT
  5
15D
330
17
100
AcDbEntity
  8
点
 62
4
100
AcDbText
 10
470085.5
 20
4349804.5
 30
0.0
 40
0.3
  1
0.27
  7
CN_TTF
 11
470085.5
 21
4349804.5
 31
0.0
100
AcDbText
  0
TEXT
  5
15E
330
17
100
AcDbEntity
  8
点
 62
4
100
AcDbText
 10
470085.5
 20
4349805.5
 30
0.0
 40
0.3
  1
0.24
  7
CN_TTF
 11
470085.5
 21
4349805.5
 31
0.0
100
AcDbText
  0
TEXT
  5
15F
330
17
100
AcDbEntity
  8
点
 62
4
100
AcDbText
 10
470086.5
 20
4349785.5
 30
0.0
 40
0.3
  1
0.73
  7
CN_TTF
 11
470086.5
 21
4349785.5
 31
0.0
100
AcDbText
  0
TEXT
  5
160
330
17
100
AcDbEntity
  8
点
 62
4
100
AcDbText
 10
470086.5
 20
4349786.5
 30
0.0
 40
0.3
  1
0.73
  7
CN_TTF
 11
470086.5
 21
4349786.5
 31
0.0
100
AcDbText
  0
TEXT
  5
161
330
17
100
AcDbEntity
  8
点
 62
4
100
AcDbText
 10
470086.5
 20
4349787.5
 30
0.0
 40
0.3
  1
0.73
  7
CN_TTF
 11
470086.5
 21
4349787.5
 31
0.0
100
AcDbText
  0
TEXT
  5
162
330
17
100
AcDbEntity
  8
点
 62
4
100
AcDbText
 10
470086.5
 20
4349788.5
 30
0.0
 40
0.3
  1
0.73
  7
CN_TTF
 11
470086.5
 21
4349788.5
 31
0.0
100
AcDbText
  0
TEXT
  5
163
330
17
100
AcDbEntity
  8
点
 62
4
100
AcDbText
 10
470086.5
 20
4349789.5
 30
0.0
 40
0.3
  1
0.73
  7
CN_TTF
 11
470086.5
 21
4349789.5
 31
0.0
100
AcDbText
  0
TEXT
  5
164
330
17
100
AcDbEntity
  8
点
 62
4
100
AcDbText
 10
470086.5
 20
4349792.5
 30
0.0
 40
0.3
  1
0.41
  7
CN_TTF
 11
470086.5
 21
4349792.5
 31
0.0
100
AcDbText
  0
TEXT
  5
165
330
17
100
AcDbEntity
  8
点
 62
4
100
AcDbText
 10
470086.5
 20
4349793.5
 30
0.0
 40
0.3
  1
0.41
  7
CN_TTF
 11
470086.5
 21
4349793.5
 31
0.0
100
AcDbText
  0
TEXT
  5
166
330
17
100
AcDbEntity
  8
点
 62
4
100
AcDbText
 10
470086.5
 20
4349794.5
 30
0.0
 40
0.3
  1
0.41
  7
CN_TTF
 11
470086.5
 21
4349794.5
 31
0.0
100
AcDbText
  0
TEXT
  5
167
330
17
100
AcDbEntity
  8
点
 62
4
100
AcDbText
 10
470086.5
 20
4349795.5
 30
0.0
 40
0.3
  1
0.41
  7
CN_TTF
 11
470086.5
 21
4349795.5
 31
0.0
100
AcDbText
  0
TEXT
  5
168
330
17
100
AcDbEntity
  8
点
 62
4
100
AcDbText
 10
470086.5
 20
4349796.5
 30
0.0
 40
0.3
  1
0.41
  7
CN_TTF
 11
470086.5
 21
4349796.5
 31
0.0
100
AcDbText
  0
TEXT
  5
169
330
17
100
AcDbEntity
  8
点
 62
4
100
AcDbText
 10
470086.5
 20
4349797.5
 30
0.0
 40
0.3
  1
0.41
  7
CN_TTF
 11
470086.5
 21
4349797.5
 31
0.0
100
AcDbText
  0
TEXT
  5
16A
330
17
100
AcDbEntity
  8
点
 62
4
100
AcDbText
 10
470086.5
 20
4349798.5
 30
0.0
 40
0.3
  1
0.52
  7
CN_TTF
 11
470086.5
 21
4349798.5
 31
0.0
100
AcDbText
  0
TEXT
  5
16B
330
17
100
AcDbEntity
  8
点
 62
4
100
AcDbText
 10
470086.5
 20
4349799.5
 30
0.0
 40
0.3
  1
0.52
  7
CN_TTF
 11
470086.5
 21
4349799.5
 31
0.0
100
AcDbText
  0
TEXT
  5
16C
330
17
100
AcDbEntity
  8
点
 62
4
100
AcDbText
 10
470086.5
 20
4349800.5
 30
0.0
 40
0.3
  1
0.52
  7
CN_TTF
 11
470086.5
 21
4349800.5
 31
0.0
100
AcDbText
  0
TEXT
  5
16D
330
17
100
AcDbEntity
  8
点
 62
4
100
AcDbText
 10
470086.5
 20
4349801.5
 30
0.0
 40
0.3
  1
0.52
  7
CN_TTF
 11
470086.5
 21
4349801.5
 31
0.0
100
AcDbText
  0
TEXT
  5
16E
330
17
100
AcDbEntity
  8
点
 62
4
100
AcDbText
 10
470086.5
 20
4349802.5
 30
0.0
 40
0.3
  1
0.52
  7
CN_TTF
 11
470086.5
 21
4349802.5
 31
0.0
100
AcDbText
  0
TEXT
  5
16F
330
17
100
AcDbEntity
  8
点
 62
4
100
AcDbText
 10
470086.5
 20
4349803.5
 30
0.0
 40
0.3
  1
0.27
  7
CN_TTF
 11
470086.5
 21
4349803.5
 31
0.0
100
AcDbText
  0
TEXT
  5
170
330
17
100
AcDbEntity
  8
点
 62
4
100
AcDbText
 10
470086.5
 20
4349804.5
 30
0.0
 40
0.3
  1
0.27
  7
CN_TTF
 11
470086.5
 21
4349804.5
 31
0.0
100
AcDbText
  0
TEXT
  5
171
330
17
100
AcDbEntity
  8
点
 62
4
100
AcDbText
 10
470086.5
 20
4349805.5
 30
0.0
 40
0.3
  1
0.27
  7
CN_TTF
 11
470086.5
 21
4349805.5
 31
0.0
100
AcDbText
  0
TEXT
  5
172
330
17
100
AcDbEntity
  8
点
 62
4
100
AcDbText
 10
470087.5
 20
4349785.5
 30
0.0
 40
0.3
  1
0.73
  7
CN_TTF
 11
470087.5
 21
4349785.5
 31
0.0
100
AcDbText
  0
TEXT
  5
173
330
17
100
AcDbEntity
  8
点
 62
4
100
AcDbText
 10
470087.5
 20
4349786.5
 30
0.0
 40
0.3
  1
0.73
  7
CN_TTF
 11
470087.5
 21
4349786.5
 31
0.0
100
AcDbText
  0
TEXT
  5
174
330
17
100
AcDbEntity
  8
点
 62
4
100
AcDbText
 10
470087.5
 20
4349787.5
 30
0.0
 40
0.3
  1
0.73
  7
CN_TTF
 11
470087.5
 21
4349787.5
 31
0.0
100
AcDbText
  0
TEXT
  5
175
330
17
100
AcDbEntity
  8
点
 62
4
100
AcDbText
 10
470087.5
 20
4349788.5
 30
0.0
 40
0.3
  1
0.73
  7
CN_TTF
 11
470087.5
 21
4349788.5
 31
0.0
100
AcDbText
  0
TEXT
  5
176
330
17
100
AcDbEntity
  8
点
 62
4
100
AcDbText
 10
470087.5
 20
4349789.5
 30
0.0
 40
0.3
  1
0.73
  7
CN_TTF
 11
470087.5
 21
4349789.5
 31
0.0
100
AcDbText
  0
TEXT
  5
177
330
17
100
AcDbEntity
  8
点
 62
4
100
AcDbText
 10
470087.5
 20
4349790.5
 30
0.0
 40
0.3
  1
0.73
  7
CN_TTF
 11
470087.5
 21
4349790.5
 31
0.0
100
AcDbText
  0
TEXT
  5
178
330
17
100
AcDbEntity
  8
点
 62
4
100
AcDbText
 10
470087.5
 20
4349791.5
 30
0.0
 40
0.3
  1
0.41
  7
CN_TTF
 11
470087.5
 21
4349791.5
 31
0.0
100
AcDbText
  0
TEXT
  5
179
330
17
100
AcDbEntity
  8
点
 62
4
100
AcDbText
 10
470087.5
 20
4349792.5
 30
0.0
 40
0.3
  1
0.41
  7
CN_TTF
 11
470087.5
 21
4349792.5
 31
0.0
100
AcDbText
  0
TEXT
  5
17A
330
17
100
AcDbEntity
  8
点
 62
4
100
AcDbText
 10
470087.5
 20
4349793.5
 30
0.0
 40
0.3
  1
0.41
  7
CN_TTF
 11
470087.5
 21
4349793.5
 31
0.0
100
AcDbText
  0
TEXT
  5
17B
330
17
100
AcDbEntity
  8
点
 62
4
100
AcDbText
 10
470087.5
 20
4349794.5
 30
0.0
 40
0.3
  1
0.41
  7
CN_TTF
 11
470087.5
 21
4349794.5
 31
0.0
100
AcDbText
  0
TEXT
  5
17C
330
17
100
AcDbEntity
  8
点
 62
4
100
AcDbText
 10
470087.5
 20
4349795.5
 30
0.0
 40
0.3
  1
0.41
  7
CN_TTF
 11
470087.5
 21
4349795.5
 31
0.0
100
AcDbText
  0
TEXT
  5
17D
330
17
100
AcDbEntity
  8
点
 62
4
100
AcDbText
 10
470087.5
 20
4349796.5
 30
0.0
 40
0.3
  1
0.41
  7
CN_TTF
 11
470087.5
 21
4349796.5
 31
0.0
100
AcDbText
  0
TEXT
  5
17E
330
17
100
AcDbEntity
  8
点
 62
4
100
AcDbText
 10
470087.5
 20
4349797.5
 30
0.0
 40
0.3
  1
0.41
  7
CN_TTF
 11
470087.5
 21
4349797.5
 31
0.0
100
AcDbText
  0
TEXT
  5
17F
330
17
100
AcDbEntity
  8
点
 62
4
100
AcDbText
 10
470087.5
 20
4349798.5
 30
0.0
 40
0.3
  1
0.25
  7
CN_TTF
 11
470087.5
 21
4349798.5
 31
0.0
100
AcDbText
  0
TEXT
  5
180
330
17
100
AcDbEntity
  8
点
 62
4
100
AcDbText
 10
470087.5
 20
4349799.5
 30
0.0
 40
0.3
  1
0.52
  7
CN_TTF
 11
470087.5
 21
4349799.5
 31
0.0
100
AcDbText
  0
TEXT
  5
181
330
17
100
AcDbEntity
  8
点
 62
4
100
AcDbText
 10
470087.5
 20
4349800.5
 30
0.0
 40
0.3
  1
0.52
  7
CN_TTF
 11
470087.5
 21
4349800.5
 31
0.0
100
AcDbText
  0
TEXT
  5
182
330
17
100
AcDbEntity
  8
点
 62
4
100
AcDbText
 10
470087.5
 20
4349801.5
 30
0.0
 40
0.3
  1
0.52
  7
CN_TTF
 11
470087.5
 21
4349801.5
 31
0.0
100
AcDbText
  0
TEXT
  5
183
330
17
100
AcDbEntity
  8
点
 62
4
100
AcDbText
 10
470087.5
 20
4349802.5
 30
0.0
 40
0.3
  1
0.52
  7
CN_TTF
 11
470087.5
 21
4349802.5
 31
0.0
100
AcDbText
  0
TEXT
  5
184
330
17
100
AcDbEntity
  8
点
 62
4
100
AcDbText
 10
470087.5
 20
4349803.5
 30
0.0
 40
0.3
  1
0.27
  7
CN_TTF
 11
470087.5
 21
4349803.5
 31
0.0
100
AcDbText
  0
TEXT
  5
185
330
17
100
AcDbEntity
  8
点
 62
4
100
AcDbText
 10
470088.5
 20
4349785.5
 30
0.0
 40
0.3
  1
0.73
  7
CN_TTF
 11
470088.5
 21
4349785.5
 31
0.0
100
AcDbText
  0
TEXT
  5
186
330
17
100
AcDbEntity
  8
点
 62
4
100
AcDbText
 10
470088.5
 20
4349786.5
 30
0.0
 40
0.3
  1
0.73
  7
CN_TTF
 11
470088.5
 21
4349786.5
 31
0.0
100
AcDbText
  0
TEXT
  5
187
330
17
100
AcDbEntity
  8
点
 62
4
100
AcDbText
 10
470088.5
 20
4349787.5
 30
0.0
 40
0.3
  1
0.73
  7
CN_TTF
 11
470088.5
 21
4349787.5
 31
0.0
100
AcDbText
  0
TEXT
  5
188
330
17
100
AcDbEntity
  8
点
 62
4
100
AcDbText
 10
470088.5
 20
4349788.5
 30
0.0
 40
0.3
  1
0.73
  7
CN_TTF
 11
470088.5
 21
4349788.5
 31
0.0
100
AcDbText
  0
TEXT
  5
189
330
17
100
AcDbEntity
  8
点
 62
4
100
AcDbText
 10
470088.5
 20
4349789.5
 30
0.0
 40
0.3
  1
0.73
  7
CN_TTF
 11
470088.5
 21
4349789.5
 31
0.0
100
AcDbText
  0
TEXT
  5
18A
330
17
100
AcDbEntity
  8
点
 62
4
100
AcDbText
 10
470088.5
 20
4349790.5
 30
0.0
 40
0.3
  1
0.73
  7
CN_TTF
 11
470088.5
 21
4349790.5
 31
0.0
100
AcDbText
  0
TEXT
  5
18B
330
17
100
AcDbEntity
  8
点
 62
4
100
AcDbText
 10
470088.5
 20
4349791.5
 30
0.0
 40
0.3
  1
0.41
  7
CN_TTF
 11
470088.5
 21
4349791.5
 31
0.0
100
AcDbText
  0
TEXT
  5
18C
330
17
100
AcDbEntity
  8
点
 62
4
100
AcDbText
 10
470088.5
 20
4349792.5
 30
0.0
 40
0.3
  1
0.41
  7
CN_TTF
 11
470088.5
 21
4349792.5
 31
0.0
100
AcDbText
  0
TEXT
  5
18D
330
17
100
AcDbEntity
  8
点
 62
4
100
AcDbText
 10
470088.5
 20
4349793.5
 30
0.0
 40
0.3
  1
0.41
  7
CN_TTF
 11
470088.5
 21
4349793.5
 31
0.0
100
AcDbText
  0
TEXT
  5
18E
330
17
100
AcDbEntity
  8
点
 62
4
100
AcDbText
 10
470088.5
 20
4349794.5
 30
0.0
 40
0.3
  1
0.41
  7
CN_TTF
 11
470088.5
 21
4349794.5
 31
0.0
100
AcDbText
  0
TEXT
  5
18F
330
17
100
AcDbEntity
  8
点
 62
4
100
AcDbText
 10
470088.5
 20
4349795.5
 30
0.0
 40
0.3
  1
0.41
  7
CN_TTF
 11
470088.5
 21
4349795.5
 31
0.0
100
AcDbText
  0
TEXT
  5
190
330
17
100
AcDbEntity
  8
点
 62
4
100
AcDbText
 10
470088.5
 20
4349796.5
 30
0.0
 40
0.3
  1
0.41
  7
CN_TTF
 11
470088.5
 21
4349796.5
 31
0.0
100
AcDbText
  0
TEXT
  5
191
330
17
100
AcDbEntity
  8
点
 62
4
100
AcDbText
 10
470088.5
 20
4349799.5
 30
0.0
 40
0.3
  1
0.25
  7
CN_TTF
 11
470088.5
 21
4349799.5
 31
0.0
100
AcDbText
  0
TEXT
  5
192
330
17
100
AcDbEntity
  8
点
 62
4
100
AcDbText
 10
470088.5
 20
4349800.5
 30
0.0
 40
0.3
  1
0.52
  7
CN_TTF
 11
470088.5
 21
4349800.5
 31
0.0
100
AcDbText
  0
TEXT
  5
193
330
17
100
AcDbEntity
  8
点
 62
4
100
AcDbText
 10
470088.5
 20
4349801.5
 30
0.0
 40
0.3
  1
0.52
  7
CN_TTF
 11
470088.5
 21
4349801.5
 31
0.0
100
AcDbText
  0
TEXT
  5
194
330
17
100
AcDbEntity
  8
点
 62
4
100
AcDbText
 10
470088.5
 20
4349802.5
 30
0.0
 40
0.3
  1
0.27
  7
CN_TTF
 11
470088.5
 21
4349802.5
 31
0.0
100
AcDbText
  0
TEXT
  5
195
330
17
100
AcDbEntity
  8
点
 62
4
100
AcDbText
 10
470088.5
 20
4349803.5
 30
0.0
 40
0.3
  1
0.27
  7
CN_TTF
 11
470088.5
 21
4349803.5
 31
0.0
100
AcDbText
  0
TEXT
  5
196
330
17
100
AcDbEntity
  8
点
 62
4
100
AcDbText
 10
470089.5
 20
4349785.5
 30
0.0
 40
0.3
  1
0.73
  7
CN_TTF
 11
470089.5
 21
4349785.5
 31
0.0
100
AcDbText
  0
TEXT
  5
197
330
17
100
AcDbEntity
  8
点
 62
4
100
AcDbText
 10
470089.5
 20
4349786.5
 30
0.0
 40
0.3
  1
0.73
  7
CN_TTF
 11
470089.5
 21
4349786.5
 31
0.0
100
AcDbText
  0
TEXT
  5
198
330
17
100
AcDbEntity
  8
点
 62
4
100
AcDbText
 10
470089.5
 20
4349787.5
 30
0.0
 40
0.3
  1
0.73
  7
CN_TTF
 11
470089.5
 21
4349787.5
 31
0.0
100
AcDbText
  0
TEXT
  5
199
330
17
100
AcDbEntity
  8
点
 62
4
100
AcDbText
 10
470089.5
 20
4349788.5
 30
0.0
 40
0.3
  1
0.81
  7
CN_TTF
 11
470089.5
 21
4349788.5
 31
0.0
100
AcDbText
  0
TEXT
  5
19A
330
17
100
AcDbEntity
  8
点
 62
4
100
AcDbText
 10
470089.5
 20
4349789.5
 30
0.0
 40
0.3
  1
0.81
  7
CN_TTF
 11
470089.5
 21
4349789.5
 31
0.0
100
AcDbText
  0
TEXT
  5
19B
330
17
100
AcDbEntity
  8
点
 62
4
100
AcDbText
 10
470089.5
 20
4349790.5
 30
0.0
 40
0.3
  1
0.81
  7
CN_TTF
 11
470089.5
 21
4349790.5
 31
0.0
100
AcDbText
  0
TEXT
  5
19C
330
17
100
AcDbEntity
  8
点
 62
4
100
AcDbText
 10
470089.5
 20
4349791.5
 30
0.0
 40
0.3
  1
0.31
  7
CN_TTF
 11
470089.5
 21
4349791.5
 31
0.0
100
AcDbText
  0
TEXT
  5
19D
330
17
100
AcDbEntity
  8
点
 62
4
100
AcDbText
 10
470090.5
 20
4349785.5
 30
0.0
 40
0.3
  1
0.81
  7
CN_TTF
 11
470090.5
 21
4349785.5
 31
0.0
100
AcDbText
  0
TEXT
  5
19E
330
17
100
AcDbEntity
  8
点
 62
4
100
AcDbText
 10
470090.5
 20
4349786.5
 30
0.0
 40
0.3
  1
0.81
  7
CN_TTF
 11
470090.5
 21
4349786.5
 31
0.0
100
AcDbText
  0
TEXT
  5
19F
330
17
100
AcDbEntity
  8
点
 62
4
100
AcDbText
 10
470090.5
 20
4349787.5
 30
0.0
 40
0.3
  1
0.81
  7
CN_TTF
 11
470090.5
 21
4349787.5
 31
0.0
100
AcDbText
  0
TEXT
  5
1A0
330
17
100
AcDbEntity
  8
点
 62
4
100
AcDbText
 10
470090.5
 20
4349788.5
 30
0.0
 40
0.3
  1
0.81
  7
CN_TTF
 11
470090.5
 21
4349788.5
 31
0.0
100
AcDbText
  0
TEXT
  5
1A1
330
17
100
AcDbEntity
  8
点
 62
4
100
AcDbText
 10
470090.5
 20
4349789.5
 30
0.0
 40
0.3
  1
0.81
  7
CN_TTF
 11
470090.5
 21
4349789.5
 31
0.0
100
AcDbText
  0
TEXT
  5
1A2
330
17
100
AcDbEntity
  8
点
 62
4
100
AcDbText
 10
470092.5
 20
4349765.5
 30
0.0
 40
0.3
  1
0.69
  7
CN_TTF
 11
470092.5
 21
4349765.5
 31
0.0
100
AcDbText
  0
TEXT
  5
1A3
330
17
100
AcDbEntity
  8
点
 62
4
100
AcDbText
 10
470092.5
 20
4349766.5
 30
0.0
 40
0.3
  1
0.69
  7
CN_TTF
 11
470092.5
 21
4349766.5
 31
0.0
100
AcDbText
  0
TEXT
  5
1A4
330
17
100
AcDbEntity
  8
点
 62
4
100
AcDbText
 10
470092.5
 20
4349767.5
 30
0.0
 40
0.3
  1
0.69
  7
CN_TTF
 11
470092.5
 21
4349767.5
 31
0.0
100
AcDbText
  0
TEXT
  5
1A5
330
17
100
AcDbEntity
  8
点
 62
4
100
AcDbText
 10
470092.5
 20
4349768.5
 30
0.0
 40
0.3
  1
0.69
  7
CN_TTF
 11
470092.5
 21
4349768.5
 31
0.0
100
AcDbText
  0
TEXT
  5
1A6
330
17
100
AcDbEntity
  8
点
 62
4
100
AcDbText
 10
470092.5
 20
4349769.5
 30
0.0
 40
0.3
  1
0.69
  7
CN_TTF
 11
470092.5
 21
4349769.5
 31
0.0
100
AcDbText
  0
TEXT
  5
1A7
330
17
100
AcDbEntity
  8
点
 62
4
100
AcDbText
 10
470092.5
 20
4349770.5
 30
0.0
 40
0.3
  1
0.37
  7
CN_TTF
 11
470092.5
 21
4349770.5
 31
0.0
100
AcDbText
  0
TEXT
  5
1A8
330
17
100
AcDbEntity
  8
点
 62
4
100
AcDbText
 10
470093.5
 20
4349758.5
 30
0.0
 40
0.3
  1
0.67
  7
CN_TTF
 11
470093.5
 21
4349758.5
 31
0.0
100
AcDbText
  0
TEXT
  5
1A9
330
17
100
AcDbEntity
  8
点
 62
4
100
AcDbText
 10
470093.5
 20
4349759.5
 30
0.0
 40
0.3
  1
0.67
  7
CN_TTF
 11
470093.5
 21
4349759.5
 31
0.0
100
AcDbText
  0
TEXT
  5
1AA
330
17
100
AcDbEntity
  8
点
 62
4
100
AcDbText
 10
470093.5
 20
4349760.5
 30
0.0
 40
0.3
  1
0.67
  7
CN_TTF
 11
470093.5
 21
4349760.5
 31
0.0
100
AcDbText
  0
TEXT
  5
1AB
330
17
100
AcDbEntity
  8
点
 62
4
100
AcDbText
 10
470093.5
 20
4349761.5
 30
0.0
 40
0.3
  1
0.67
  7
CN_TTF
 11
470093.5
 21
4349761.5
 31
0.0
100
AcDbText
  0
TEXT
  5
1AC
330
17
100
AcDbEntity
  8
点
 62
4
100
AcDbText
 10
470093.5
 20
4349762.5
 30
0.0
 40
0.3
  1
0.67
  7
CN_TTF
 11
470093.5
 21
4349762.5
 31
0.0
100
AcDbText
  0
TEXT
  5
1AD
330
17
100
AcDbEntity
  8
点
 62
4
100
AcDbText
 10
470093.5
 20
4349763.5
 30
0.0
 40
0.3
  1
0.69
  7
CN_TTF
 11
470093.5
 21
4349763.5
 31
0.0
100
AcDbText
  0
TEXT
  5
1AE
330
17
100
AcDbEntity
  8
点
 62
4
100
AcDbText
 10
470093.5
 20
4349764.5
 30
0.0
 40
0.3
  1
0.69
  7
CN_TTF
 11
470093.5
 21
4349764.5
 31
0.0
100
AcDbText
  0
TEXT
  5
1AF
330
17
100
AcDbEntity
  8
点
 62
4
100
AcDbText
 10
470093.5
 20
4349765.5
 30
0.0
 40
0.3
  1
0.69
  7
CN_TTF
 11
470093.5
 21
4349765.5
 31
0.0
100
AcDbText
  0
TEXT
  5
1B0
330
17
100
AcDbEntity
  8
点
 62
4
100
AcDbText
 10
470093.5
 20
4349766.5
 30
0.0
 40
0.3
  1
0.69
  7
CN_TTF
 11
470093.5
 21
4349766.5
 31
0.0
100
AcDbText
  0
TEXT
  5
1B1
330
17
100
AcDbEntity
  8
点
 62
4
100
AcDbText
 10
470093.5
 20
4349767.5
 30
0.0
 40
0.3
  1
0.69
  7
CN_TTF
 11
470093.5
 21
4349767.5
 31
0.0
100
AcDbText
  0
TEXT
  5
1B2
330
17
100
AcDbEntity
  8
点
 62
4
100
AcDbText
 10
470093.5
 20
4349768.5
 30
0.0
 40
0.3
  1
0.69
  7
CN_TTF
 11
470093.5
 21
4349768.5
 31
0.0
100
AcDbText
  0
TEXT
  5
1B3
330
17
100
AcDbEntity
  8
点
 62
4
100
AcDbText
 10
470093.5
 20
4349769.5
 30
0.0
 40
0.3
  1
0.69
  7
CN_TTF
 11
470093.5
 21
4349769.5
 31
0.0
100
AcDbText
  0
TEXT
  5
1B4
330
17
100
AcDbEntity
  8
点
 62
4
100
AcDbText
 10
470093.5
 20
4349770.5
 30
0.0
 40
0.3
  1
0.69
  7
CN_TTF
 11
470093.5
 21
4349770.5
 31
0.0
100
AcDbText
  0
TEXT
  5
1B5
330
17
100
AcDbEntity
  8
点
 62
4
100
AcDbText
 10
470094.5
 20
4349758.5
 30
0.0
 40
0.3
  1
0.67
  7
CN_TTF
 11
470094.5
 21
4349758.5
 31
0.0
100
AcDbText
  0
TEXT
  5
1B6
330
17
100
AcDbEntity
  8
点
 62
4
100
AcDbText
 10
470094.5
 20
4349759.5
 30
0.0
 40
0.3
  1
0.67
  7
CN_TTF
 11
470094.5
 21
4349759.5
 31
0.0
100
AcDbText
  0
TEXT
  5
1B7
330
17
100
AcDbEntity
  8
点
 62
4
100
AcDbText
 10
470094.5
 20
4349760.5
 30
0.0
 40
0.3
  1
0.67
  7
CN_TTF
 11
470094.5
 21
4349760.5
 31
0.0
100
AcDbText
  0
TEXT
  5
1B8
330
17
100
AcDbEntity
  8
点
 62
4
100
AcDbText
 10
470094.5
 20
4349761.5
 30
0.0
 40
0.3
  1
0.67
  7
CN_TTF
 11
470094.5
 21
4349761.5
 31
0.0
100
AcDbText
  0
TEXT
  5
1B9
330
17
100
AcDbEntity
  8
点
 62
4
100
AcDbText
 10
470094.5
 20
4349762.5
 30
0.0
 40
0.3
  1
0.67
  7
CN_TTF
 11
470094.5
 21
4349762.5
 31
0.0
100
AcDbText
  0
TEXT
  5
1BA
330
17
100
AcDbEntity
  8
点
 62
4
100
AcDbText
 10
470094.5
 20
4349763.5
 30
0.0
 40
0.3
  1
0.67
  7
CN_TTF
 11
470094.5
 21
4349763.5
 31
0.0
100
AcDbText
  0
TEXT
  5
1BB
330
17
100
AcDbEntity
  8
点
 62
4
100
AcDbText
 10
470094.5
 20
4349764.5
 30
0.0
 40
0.3
  1
0.69
  7
CN_TTF
 11
470094.5
 21
4349764.5
 31
0.0
100
AcDbText
  0
TEXT
  5
1BC
330
17
100
AcDbEntity
  8
点
 62
4
100
AcDbText
 10
470094.5
 20
4349765.5
 30
0.0
 40
0.3
  1
0.69
  7
CN_TTF
 11
470094.5
 21
4349765.5
 31
0.0
100
AcDbText
  0
TEXT
  5
1BD
330
17
100
AcDbEntity
  8
点
 62
4
100
AcDbText
 10
470094.5
 20
4349766.5
 30
0.0
 40
0.3
  1
0.69
  7
CN_TTF
 11
470094.5
 21
4349766.5
 31
0.0
100
AcDbText
  0
TEXT
  5
1BE
330
17
100
AcDbEntity
  8
点
 62
4
100
AcDbText
 10
470094.5
 20
4349767.5
 30
0.0
 40
0.3
  1
0.69
  7
CN_TTF
 11
470094.5
 21
4349767.5
 31
0.0
100
AcDbText
  0
TEXT
  5
1BF
330
17
100
AcDbEntity
  8
点
 62
4
100
AcDbText
 10
470094.5
 20
4349768.5
 30
0.0
 40
0.3
  1
0.69
  7
CN_TTF
 11
470094.5
 21
4349768.5
 31
0.0
100
AcDbText
  0
TEXT
  5
1C0
330
17
100
AcDbEntity
  8
点
 62
4
100
AcDbText
 10
470094.5
 20
4349769.5
 30
0.0
 40
0.3
  1
0.69
  7
CN_TTF
 11
470094.5
 21
4349769.5
 31
0.0
100
AcDbText
  0
TEXT
  5
1C1
330
17
100
AcDbEntity
  8
点
 62
4
100
AcDbText
 10
470095.5
 20
4349758.5
 30
0.0
 40
0.3
  1
0.67
  7
CN_TTF
 11
470095.5
 21
4349758.5
 31
0.0
100
AcDbText
  0
TEXT
  5
1C2
330
17
100
AcDbEntity
  8
点
 62
4
100
AcDbText
 10
470095.5
 20
4349759.5
 30
0.0
 40
0.3
  1
0.67
  7
CN_TTF
 11
470095.5
 21
4349759.5
 31
0.0
100
AcDbText
  0
TEXT
  5
1C3
330
17
100
AcDbEntity
  8
点
 62
4
100
AcDbText
 10
470095.5
 20
4349760.5
 30
0.0
 40
0.3
  1
0.67
  7
CN_TTF
 11
470095.5
 21
4349760.5
 31
0.0
100
AcDbText
  0
TEXT
  5
1C4
330
17
100
AcDbEntity
  8
点
 62
4
100
AcDbText
 10
470095.5
 20
4349761.5
 30
0.0
 40
0.3
  1
0.67
  7
CN_TTF
 11
470095.5
 21
4349761.5
 31
0.0
100
AcDbText
  0
TEXT
  5
1C5
330
17
100
AcDbEntity
  8
点
 62
4
100
AcDbText
 10
470095.5
 20
4349762.5
 30
0.0
 40
0.3
  1
0.67
  7
CN_TTF
 11
470095.5
 21
4349762.5
 31
0.0
100
AcDbText
  0
TEXT
  5
1C6
330
17
100
AcDbEntity
  8
点
 62
4
100
AcDbText
 10
470095.5
 20
4349763.5
 30
0.0
 40
0.3
  1
0.67
  7
CN_TTF
 11
470095.5
 21
4349763.5
 31
0.0
100
AcDbText
  0
TEXT
  5
1C7
330
17
100
AcDbEntity
  8
点
 62
4
100
AcDbText
 10
470095.5
 20
4349764.5
 30
0.0
 40
0.3
  1
0.69
  7
CN_TTF
 11
470095.5
 21
4349764.5
 31
0.0
100
AcDbText
  0
TEXT
  5
1C8
330
17
100
AcDbEntity
  8
点
 62
4
100
AcDbText
 10
470095.5
 20
4349765.5
 30
0.0
 40
0.3
  1
0.69
  7
CN_TTF
 11
470095.5
 21
4349765.5
 31
0.0
100
AcDbText
  0
TEXT
  5
1C9
330
17
100
AcDbEntity
  8
点
 62
4
100
AcDbText
 10
470095.5
 20
4349766.5
 30
0.0
 40
0.3
  1
0.69
  7
CN_TTF
 11
470095.5
 21
4349766.5
 31
0.0
100
AcDbText
  0
TEXT
  5
1CA
330
17
100
AcDbEntity
  8
点
 62
4
100
AcDbText
 10
470095.5
 20
4349767.5
 30
0.0
 40
0.3
  1
0.69
  7
CN_TTF
 11
470095.5
 21
4349767.5
 31
0.0
100
AcDbText
  0
TEXT
  5
1CB
330
17
100
AcDbEntity
  8
点
 62
4
100
AcDbText
 10
470095.5
 20
4349768.5
 30
0.0
 40
0.3
  1
0.69
  7
CN_TTF
 11
470095.5
 21
4349768.5
 31
0.0
100
AcDbText
  0
TEXT
  5
1CC
330
17
100
AcDbEntity
  8
点
 62
4
100
AcDbText
 10
470095.5
 20
4349769.5
 30
0.0
 40
0.3
  1
0.17
  7
CN_TTF
 11
470095.5
 21
4349769.5
 31
0.0
100
AcDbText
  0
TEXT
  5
1CD
330
17
100
AcDbEntity
  8
点
 62
4
100
AcDbText
 10
470096.5
 20
4349756.5
 30
0.0
 40
0.3
  1
1.16
  7
CN_TTF
 11
470096.5
 21
4349756.5
 31
0.0
100
AcDbText
  0
TEXT
  5
1CE
330
17
100
AcDbEntity
  8
点
 62
4
100
AcDbText
 10
470096.5
 20
4349757.5
 30
0.0
 40
0.3
  1
0.67
  7
CN_TTF
 11
470096.5
 21
4349757.5
 31
0.0
100
AcDbText
  0
TEXT
  5
1CF
330
17
100
AcDbEntity
  8
点
 62
4
100
AcDbText
 10
470096.5
 20
4349758.5
 30
0.0
 40
0.3
  1
0.67
  7
CN_TTF
 11
470096.5
 21
4349758.5
 31
0.0
100
AcDbText
  0
TEXT
  5
1D0
330
17
100
AcDbEntity
  8
点
 62
4
100
AcDbText
 10
470096.5
 20
4349759.5
 30
0.0
 40
0.3
  1
0.67
  7
CN_TTF
 11
470096.5
 21
4349759.5
 31
0.0
100
AcDbText
  0
TEXT
  5
1D1
330
17
100
AcDbEntity
  8
点
 62
4
100
AcDbText
 10
470096.5
 20
4349760.5
 30
0.0
 40
0.3
  1
0.67
  7
CN_TTF
 11
470096.5
 21
4349760.5
 31
0.0
100
AcDbText
  0
TEXT
  5
1D2
330
17
100
AcDbEntity
  8
点
 62
4
100
AcDbText
 10
470096.5
 20
4349761.5
 30
0.0
 40
0.3
  1
0.67
  7
CN_TTF
 11
470096.5
 21
4349761.5
 31
0.0
100
AcDbText
  0
TEXT
  5
1D3
330
17
100
AcDbEntity
  8
点
 62
4
100
AcDbText
 10
470096.5
 20
4349762.5
 30
0.0
 40
0.3
  1
0.67
  7
CN_TTF
 11
470096.5
 21
4349762.5
 31
0.0
100
AcDbText
  0
TEXT
  5
1D4
330
17
100
AcDbEntity
  8
点
 62
4
100
AcDbText
 10
470096.5
 20
4349763.5
 30
0.0
 40
0.3
  1
0.15
  7
CN_TTF
 11
470096.5
 21
4349763.5
 31
0.0
100
AcDbText
  0
TEXT
  5
1D5
330
17
100
AcDbEntity
  8
点
 62
4
100
AcDbText
 10
470096.5
 20
4349764.5
 30
0.0
 40
0.3
  1
0.15
  7
CN_TTF
 11
470096.5
 21
4349764.5
 31
0.0
100
AcDbText
  0
TEXT
  5
1D6
330
17
100
AcDbEntity
  8
点
 62
4
100
AcDbText
 10
470096.5
 20
4349765.5
 30
0.0
 40
0.3
  1
0.15
  7
CN_TTF
 11
470096.5
 21
4349765.5
 31
0.0
100
AcDbText
  0
TEXT
  5
1D7
330
17
100
AcDbEntity
  8
点
 62
4
100
AcDbText
 10
470096.5
 20
4349766.5
 30
0.0
 40
0.3
  1
0.69
  7
CN_TTF
 11
470096.5
 21
4349766.5
 31
0.0
100
AcDbText
  0
TEXT
  5
1D8
330
17
100
AcDbEntity
  8
点
 62
4
100
AcDbText
 10
470096.5
 20
4349767.5
 30
0.0
 40
0.3
  1
0.69
  7
CN_TTF
 11
470096.5
 21
4349767.5
 31
0.0
100
AcDbText
  0
TEXT
  5
1D9
330
17
100
AcDbEntity
  8
点
 62
4
100
AcDbText
 10
470096.5
 20
4349768.5
 30
0.0
 40
0.3
  1
0.69
  7
CN_TTF
 11
470096.5
 21
4349768.5
 31
0.0
100
AcDbText
  0
TEXT
  5
1DA
330
17
100
AcDbEntity
  8
点
 62
4
100
AcDbText
 10
470096.5
 20
4349769.5
 30
0.0
 40
0.3
  1
0.17
  7
CN_TTF
 11
470096.5
 21
4349769.5
 31
0.0
100
AcDbText
  0
TEXT
  5
1DB
330
17
100
AcDbEntity
  8
点
 62
4
100
AcDbText
 10
470097.5
 20
4349756.5
 30
0.0
 40
0.3
  1
1.16
  7
CN_TTF
 11
470097.5
 21
4349756.5
 31
0.0
100
AcDbText
  0
TEXT
  5
1DC
330
17
100
AcDbEntity
  8
点
 62
4
100
AcDbText
 10
470097.5
 20
4349757.5
 30
0.0
 40
0.3
  1
0.38
  7
CN_TTF
 11
470097.5
 21
4349757.5
 31
0.0
100
AcDbText
  0
TEXT
  5
1DD
330
17
100
AcDbEntity
  8
点
 62
4
100
AcDbText
 10
470097.5
 20
4349758.5
 30
0.0
 40
0.3
  1
0.67
  7
CN_TTF
 11
470097.5
 21
4349758.5
 31
0.0
100
AcDbText
  0
TEXT
  5
1DE
330
17
100
AcDbEntity
  8
点
 62
4
100
AcDbText
 10
470097.5
 20
4349759.5
 30
0.0
 40
0.3
  1
0.67
  7
CN_TTF
 11
470097.5
 21
4349759.5
 31
0.0
100
AcDbText
  0
TEXT
  5
1DF
330
17
100
AcDbEntity
  8
点
 62
4
100
AcDbText
 10
470097.5
 20
4349760.5
 30
0.0
 40
0.3
  1
0.67
  7
CN_TTF
 11
470097.5
 21
4349760.5
 31
0.0
100
AcDbText
  0
TEXT
  5
1E0
330
17
100
AcDbEntity
  8
点
 62
4
100
AcDbText
 10
470097.5
 20
4349761.5
 30
0.0
 40
0.3
  1
0.67
  7
CN_TTF
 11
470097.5
 21
4349761.5
 31
0.0
100
AcDbText
  0
TEXT
  5
1E1
330
17
100
AcDbEntity
  8
点
 62
4
100
AcDbText
 10
470097.5
 20
4349762.5
 30
0.0
 40
0.3
  1
0.67
  7
CN_TTF
 11
470097.5
 21
4349762.5
 31
0.0
100
AcDbText
  0
TEXT
  5
1E2
330
17
100
AcDbEntity
  8
点
 62
4
100
AcDbText
 10
470097.5
 20
4349763.5
 30
0.0
 40
0.3
  1
0.15
  7
CN_TTF
 11
470097.5
 21
4349763.5
 31
0.0
100
AcDbText
  0
TEXT
  5
1E3
330
17
100
AcDbEntity
  8
点
 62
4
100
AcDbText
 10
470097.5
 20
4349764.5
 30
0.0
 40
0.3
  1
0.15
  7
CN_TTF
 11
470097.5
 21
4349764.5
 31
0.0
100
AcDbText
  0
TEXT
  5
1E4
330
17
100
AcDbEntity
  8
点
 62
4
100
AcDbText
 10
470098.5
 20
4349756.5
 30
0.0
 40
0.3
  1
0.38
  7
CN_TTF
 11
470098.5
 21
4349756.5
 31
0.0
100
AcDbText
  0
TEXT
  5
1E5
330
17
100
AcDbEntity
  8
点
 62
4
100
AcDbText
 10
470098.5
 20
4349757.5
 30
0.0
 40
0.3
  1
0.38
  7
CN_TTF
 11
470098.5
 21
4349757.5
 31
0.0
100
AcDbText
  0
TEXT
  5
1E6
330
17
100
AcDbEntity
  8
点
 62
4
100
AcDbText
 10
470098.5
 20
4349758.5
 30
0.0
 40
0.3
  1
0.38
  7
CN_TTF
 11
470098.5
 21
4349758.5
 31
0.0
100
AcDbText
  0
TEXT
  5
1E7
330
17
100
AcDbEntity
  8
点
 62
4
100
AcDbText
 10
470098.5
 20
4349759.5
 30
0.0
 40
0.3
  1
0.38
  7
CN_TTF
 11
470098.5
 21
4349759.5
 31
0.0
100
AcDbText
  0
TEXT
  5
1E8
330
17
100
AcDbEntity
  8
点
 62
4
100
AcDbText
 10
470098.5
 20
4349760.5
 30
0.0
 40
0.3
  1
0.67
  7
CN_TTF
 11
470098.5
 21
4349760.5
 31
0.0
100
AcDbText
  0
TEXT
  5
1E9
330
17
100
AcDbEntity
  8
点
 62
4
100
AcDbText
 10
470098.5
 20
4349761.5
 30
0.0
 40
0.3
  1
0.67
  7
CN_TTF
 11
470098.5
 21
4349761.5
 31
0.0
100
AcDbText
  0
TEXT
  5
1EA
330
17
100
AcDbEntity
  8
点
 62
4
100
AcDbText
 10
470098.5
 20
4349762.5
 30
0.0
 40
0.3
  1
0.15
  7
CN_TTF
 11
470098.5
 21
4349762.5
 31
0.0
100
AcDbText
  0
TEXT
  5
1EB
330
17
100
AcDbEntity
  8
点
 62
4
100
AcDbText
 10
470098.5
 20
4349763.5
 30
0.0
 40
0.3
  1
0.15
  7
CN_TTF
 11
470098.5
 21
4349763.5
 31
0.0
100
AcDbText
  0
TEXT
  5
1EC
330
17
100
AcDbEntity
  8
点
 62
4
100
AcDbText
 10
470099.5
 20
4349750.5
 30
0.0
 40
0.3
  1
0.51
  7
CN_TTF
 11
470099.5
 21
4349750.5
 31
0.0
100
AcDbText
  0
TEXT
  5
1ED
330
17
100
AcDbEntity
  8
点
 62
4
100
AcDbText
 10
470099.5
 20
4349756.5
 30
0.0
 40
0.3
  1
0.38
  7
CN_TTF
 11
470099.5
 21
4349756.5
 31
0.0
100
AcDbText
  0
TEXT
  5
1EE
330
17
100
AcDbEntity
  8
点
 62
4
100
AcDbText
 10
470099.5
 20
4349757.5
 30
0.0
 40
0.3
  1
0.38
  7
CN_TTF
 11
470099.5
 21
4349757.5
 31
0.0
100
AcDbText
  0
TEXT
  5
1EF
330
17
100
AcDbEntity
  8
点
 62
4
100
AcDbText
 10
470099.5
 20
4349758.5
 30
0.0
 40
0.3
  1
0.38
  7
CN_TTF
 11
470099.5
 21
4349758.5
 31
0.0
100
AcDbText
  0
TEXT
  5
1F0
330
17
100
AcDbEntity
  8
点
 62
4
100
AcDbText
 10
470099.5
 20
4349759.5
 30
0.0
 40
0.3
  1
0.38
  7
CN_TTF
 11
470099.5
 21
4349759.5
 31
0.0
100
AcDbText
  0
TEXT
  5
1F1
330
17
100
AcDbEntity
  8
点
 62
4
100
AcDbText
 10
470099.5
 20
4349760.5
 30
0.0
 40
0.3
  1
0.38
  7
CN_TTF
 11
470099.5
 21
4349760.5
 31
0.0
100
AcDbText
  0
TEXT
  5
1F2
330
17
100
AcDbEntity
  8
点
 62
4
100
AcDbText
 10
470099.5
 20
4349761.5
 30
0.0
 40
0.3
  1
0.38
  7
CN_TTF
 11
470099.5
 21
4349761.5
 31
0.0
100
AcDbText
  0
TEXT
  5
1F3
330
17
100
AcDbEntity
  8
点
 62
4
100
AcDbText
 10
470100.5
 20
4349749.5
 30
0.0
 40
0.3
  1
0.51
  7
CN_TTF
 11
470100.5
 21
4349749.5
 31
0.0
100
AcDbText
  0
TEXT
  5
1F4
330
17
100
AcDbEntity
  8
点
 62
4
100
AcDbText
 10
470100.5
 20
4349750.5
 30
0.0
 40
0.3
  1
0.51
  7
CN_TTF
 11
470100.5
 21
4349750.5
 31
0.0
100
AcDbText
  0
TEXT
  5
1F5
330
17
100
AcDbEntity
  8
点
 62
4
100
AcDbText
 10
470100.5
 20
4349751.5
 30
0.0
 40
0.3
  1
0.51
  7
CN_TTF
 11
470100.5
 21
4349751.5
 31
0.0
100
AcDbText
  0
TEXT
  5
1F6
330
17
100
AcDbEntity
  8
点
 62
4
100
AcDbText
 10
470100.5
 20
4349752.5
 30
0.0
 40
0.3
  1
0.51
  7
CN_TTF
 11
470100.5
 21
4349752.5
 31
0.0
100
AcDbText
  0
TEXT
  5
1F7
330
17
100
AcDbEntity
  8
点
 62
4
100
AcDbText
 10
470100.5
 20
4349753.5
 30
0.0
 40
0.3
  1
0.51
  7
CN_TTF
 11
470100.5
 21
4349753.5
 31
0.0
100
AcDbText
  0
TEXT
  5
1F8
330
17
100
AcDbEntity
  8
点
 62
4
100
AcDbText
 10
470100.5
 20
4349754.5
 30
0.0
 40
0.3
  1
1.16
  7
CN_TTF
 11
470100.5
 21
4349754.5
 31
0.0
100
AcDbText
  0
TEXT
  5
1F9
330
17
100
AcDbEntity
  8
点
 62
4
100
AcDbText
 10
470100.5
 20
4349755.5
 30
0.0
 40
0.3
  1
0.38
  7
CN_TTF
 11
470100.5
 21
4349755.5
 31
0.0
100
AcDbText
  0
TEXT
  5
1FA
330
17
100
AcDbEntity
  8
点
 62
4
100
AcDbText
 10
470100.5
 20
4349756.5
 30
0.0
 40
0.3
  1
0.38
  7
CN_TTF
 11
470100.5
 21
4349756.5
 31
0.0
100
AcDbText
  0
TEXT
  5
1FB
330
17
100
AcDbEntity
  8
点
 62
4
100
AcDbText
 10
470100.5
 20
4349757.5
 30
0.0
 40
0.3
  1
0.38
  7
CN_TTF
 11
470100.5
 21
4349757.5
 31
0.0
100
AcDbText
  0
TEXT
  5
1FC
330
17
100
AcDbEntity
  8
点
 62
4
100
AcDbText
 10
470100.5
 20
4349758.5
 30
0.0
 40
0.3
  1
0.38
  7
CN_TTF
 11
470100.5
 21
4349758.5
 31
0.0
100
AcDbText
  0
TEXT
  5
1FD
330
17
100
AcDbEntity
  8
点
 62
4
100
AcDbText
 10
470100.5
 20
4349759.5
 30
0.0
 40
0.3
  1
0.38
  7
CN_TTF
 11
470100.5
 21
4349759.5
 31
0.0
100
AcDbText
  0
TEXT
  5
1FE
330
17
100
AcDbEntity
  8
点
 62
4
100
AcDbText
 10
470100.5
 20
4349760.5
 30
0.0
 40
0.3
  1
0.38
  7
CN_TTF
 11
470100.5
 21
4349760.5
 31
0.0
100
AcDbText
  0
TEXT
  5
1FF
330
17
100
AcDbEntity
  8
点
 62
4
100
AcDbText
 10
470101.5
 20
4349742.5
 30
0.0
 40
0.3
  1
1.26
  7
CN_TTF
 11
470101.5
 21
4349742.5
 31
0.0
100
AcDbText
  0
TEXT
  5
200
330
17
100
AcDbEntity
  8
点
 62
4
100
AcDbText
 10
470101.5
 20
4349743.5
 30
0.0
 40
0.3
  1
0.71
  7
CN_TTF
 11
470101.5
 21
4349743.5
 31
0.0
100
AcDbText
  0
TEXT
  5
201
330
17
100
AcDbEntity
  8
点
 62
4
100
AcDbText
 10
470101.5
 20
4349749.5
 30
0.0
 40
0.3
  1
0.51
  7
CN_TTF
 11
470101.5
 21
4349749.5
 31
0.0
100
AcDbText
  0
TEXT
  5
202
330
17
100
AcDbEntity
  8
点
 62
4
100
AcDbText
 10
470101.5
 20
4349750.5
 30
0.0
 40
0.3
  1
0.51
  7
CN_TTF
 11
470101.5
 21
4349750.5
 31
0.0
100
AcDbText
  0
TEXT
  5
203
330
17
100
AcDbEntity
  8
点
 62
4
100
AcDbText
 10
470101.5
 20
4349751.5
 30
0.0
 40
0.3
  1
0.51
  7
CN_TTF
 11
470101.5
 21
4349751.5
 31
0.0
100
AcDbText
  0
TEXT
  5
204
330
17
100
AcDbEntity
  8
点
 62
4
100
AcDbText
 10
470101.5
 20
4349752.5
 30
0.0
 40
0.3
  1
0.51
  7
CN_TTF
 11
470101.5
 21
4349752.5
 31
0.0
100
AcDbText
  0
TEXT
  5
205
330
17
100
AcDbEntity
  8
点
 62
4
100
AcDbText
 10
470101.5
 20
4349753.5
 30
0.0
 40
0.3
  1
0.51
  7
CN_TTF
 11
470101.5
 21
4349753.5
 31
0.0
100
AcDbText
  0
TEXT
  5
206
330
17
100
AcDbEntity
  8
点
 62
4
100
AcDbText
 10
470101.5
 20
4349754.5
 30
0.0
 40
0.3
  1
0.51
  7
CN_TTF
 11
470101.5
 21
4349754.5
 31
0.0
100
AcDbText
  0
TEXT
  5
207
330
17
100
AcDbEntity
  8
点
 62
4
100
AcDbText
 10
470101.5
 20
4349755.5
 30
0.0
 40
0.3
  1
0.38
  7
CN_TTF
 11
470101.5
 21
4349755.5
 31
0.0
100
AcDbText
  0
TEXT
  5
208
330
17
100
AcDbEntity
  8
点
 62
4
100
AcDbText
 10
470101.5
 20
4349756.5
 30
0.0
 40
0.3
  1
0.38
  7
CN_TTF
 11
470101.5
 21
4349756.5
 31
0.0
100
AcDbText
  0
TEXT
  5
209
330
17
100
AcDbEntity
  8
点
 62
4
100
AcDbText
 10
470101.5
 20
4349757.5
 30
0.0
 40
0.3
  1
0.38
  7
CN_TTF
 11
470101.5
 21
4349757.5
 31
0.0
100
AcDbText
  0
TEXT
  5
20A
330
17
100
AcDbEntity
  8
点
 62
4
100
AcDbText
 10
470101.5
 20
4349758.5
 30
0.0
 40
0.3
  1
0.38
  7
CN_TTF
 11
470101.5
 21
4349758.5
 31
0.0
100
AcDbText
  0
TEXT
  5
20B
330
17
100
AcDbEntity
  8
点
 62
4
100
AcDbText
 10
470101.5
 20
4349759.5
 30
0.0
 40
0.3
  1
0.38
  7
CN_TTF
 11
470101.5
 21
4349759.5
 31
0.0
100
AcDbText
  0
TEXT
  5
20C
330
17
100
AcDbEntity
  8
点
 62
4
100
AcDbText
 10
470102.5
 20
4349742.5
 30
0.0
 40
0.3
  1
0.71
  7
CN_TTF
 11
470102.5
 21
4349742.5
 31
0.0
100
AcDbText
  0
TEXT
  5
20D
330
17
100
AcDbEntity
  8
点
 62
4
100
AcDbText
 10
470102.5
 20
4349743.5
 30
0.0
 40
0.3
  1
0.71
  7
CN_TTF
 11
470102.5
 21
4349743.5
 31
0.0
100
AcDbText
  0
TEXT
  5
20E
330
17
100
AcDbEntity
  8
点
 62
4
100
AcDbText
 10
470102.5
 20
4349744.5
 30
0.0
 40
0.3
  1
0.71
  7
CN_TTF
 11
470102.5
 21
4349744.5
 31
0.0
100
AcDbText
  0
TEXT
  5
20F
330
17
100
AcDbEntity
  8
点
 62
4
100
AcDbText
 10
470102.5
 20
4349745.5
 30
0.0
 40
0.3
  1
0.71
  7
CN_TTF
 11
470102.5
 21
4349745.5
 31
0.0
100
AcDbText
  0
TEXT
  5
210
330
17
100
AcDbEntity
  8
点
 62
4
100
AcDbText
 10
470102.5
 20
4349746.5
 30
0.0
 40
0.3
  1
0.71
  7
CN_TTF
 11
470102.5
 21
4349746.5
 31
0.0
100
AcDbText
  0
TEXT
  5
211
330
17
100
AcDbEntity
  8
点
 62
4
100
AcDbText
 10
470102.5
 20
4349747.5
 30
0.0
 40
0.3
  1
1.04
  7
CN_TTF
 11
470102.5
 21
4349747.5
 31
0.0
100
AcDbText
  0
TEXT
  5
212
330
17
100
AcDbEntity
  8
点
 62
4
100
AcDbText
 10
470102.5
 20
4349748.5
 30
0.0
 40
0.3
  1
0.51
  7
CN_TTF
 11
470102.5
 21
4349748.5
 31
0.0
100
AcDbText
  0
TEXT
  5
213
330
17
100
AcDbEntity
  8
点
 62
4
100
AcDbText
 10
470102.5
 20
4349749.5
 30
0.0
 40
0.3
  1
0.51
  7
CN_TTF
 11
470102.5
 21
4349749.5
 31
0.0
100
AcDbText
  0
TEXT
  5
214
330
17
100
AcDbEntity
  8
点
 62
4
100
AcDbText
 10
470102.5
 20
4349750.5
 30
0.0
 40
0.3
  1
0.51
  7
CN_TTF
 11
470102.5
 21
4349750.5
 31
0.0
100
AcDbText
  0
TEXT
  5
215
330
17
100
AcDbEntity
  8
点
 62
4
100
AcDbText
 10
470102.5
 20
4349751.5
 30
0.0
 40
0.3
  1
0.51
  7
CN_TTF
 11
470102.5
 21
4349751.5
 31
0.0
100
AcDbText
  0
TEXT
  5
216
330
17
100
AcDbEntity
  8
点
 62
4
100
AcDbText
 10
470102.5
 20
4349752.5
 30
0.0
 40
0.3
  1
0.51
  7
CN_TTF
 11
470102.5
 21
4349752.5
 31
0.0
100
AcDbText
  0
TEXT
  5
217
330
17
100
AcDbEntity
  8
点
 62
4
100
AcDbText
 10
470102.5
 20
4349753.5
 30
0.0
 40
0.3
  1
0.51
  7
CN_TTF
 11
470102.5
 21
4349753.5
 31
0.0
100
AcDbText
  0
TEXT
  5
218
330
17
100
AcDbEntity
  8
点
 62
4
100
AcDbText
 10
470102.5
 20
4349754.5
 30
0.0
 40
0.3
  1
0.18
  7
CN_TTF
 11
470102.5
 21
4349754.5
 31
0.0
100
AcDbText
  0
TEXT
  5
219
330
17
100
AcDbEntity
  8
点
 62
4
100
AcDbText
 10
470102.5
 20
4349755.5
 30
0.0
 40
0.3
  1
0.18
  7
CN_TTF
 11
470102.5
 21
4349755.5
 31
0.0
100
AcDbText
  0
TEXT
  5
21A
330
17
100
AcDbEntity
  8
点
 62
4
100
AcDbText
 10
470102.5
 20
4349756.5
 30
0.0
 40
0.3
  1
0.18
  7
CN_TTF
 11
470102.5
 21
4349756.5
 31
0.0
100
AcDbText
  0
TEXT
  5
21B
330
17
100
AcDbEntity
  8
点
 62
4
100
AcDbText
 10
470102.5
 20
4349757.5
 30
0.0
 40
0.3
  1
0.38
  7
CN_TTF
 11
470102.5
 21
4349757.5
 31
0.0
100
AcDbText
  0
TEXT
  5
21C
330
17
100
AcDbEntity
  8
点
 62
4
100
AcDbText
 10
470103.5
 20
4349742.5
 30
0.0
 40
0.3
  1
0.71
  7
CN_TTF
 11
470103.5
 21
4349742.5
 31
0.0
100
AcDbText
  0
TEXT
  5
21D
330
17
100
AcDbEntity
  8
点
 62
4
100
AcDbText
 10
470103.5
 20
4349743.5
 30
0.0
 40
0.3
  1
0.71
  7
CN_TTF
 11
470103.5
 21
4349743.5
 31
0.0
100
AcDbText
  0
TEXT
  5
21E
330
17
100
AcDbEntity
  8
点
 62
4
100
AcDbText
 10
470103.5
 20
4349744.5
 30
0.0
 40
0.3
  1
0.71
  7
CN_TTF
 11
470103.5
 21
4349744.5
 31
0.0
100
AcDbText
  0
TEXT
  5
21F
330
17
100
AcDbEntity
  8
点
 62
4
100
AcDbText
 10
470103.5
 20
4349745.5
 30
0.0
 40
0.3
  1
0.71
  7
CN_TTF
 11
470103.5
 21
4349745.5
 31
0.0
100
AcDbText
  0
TEXT
  5
220
330
17
100
AcDbEntity
  8
点
 62
4
100
AcDbText
 10
470103.5
 20
4349746.5
 30
0.0
 40
0.3
  1
0.71
  7
CN_TTF
 11
470103.5
 21
4349746.5
 31
0.0
100
AcDbText
  0
TEXT
  5
221
330
17
100
AcDbEntity
  8
点
 62
4
100
AcDbText
 10
470103.5
 20
4349747.5
 30
0.0
 40
0.3
  1
0.71
  7
CN_TTF
 11
470103.5
 21
4349747.5
 31
0.0
100
AcDbText
  0
TEXT
  5
222
330
17
100
AcDbEntity
  8
点
 62
4
100
AcDbText
 10
470103.5
 20
4349748.5
 30
0.0
 40
0.3
  1
0.51
  7
CN_TTF
 11
470103.5
 21
4349748.5
 31
0.0
100
AcDbText
  0
TEXT
  5
223
330
17
100
AcDbEntity
  8
点
 62
4
100
AcDbText
 10
470103.5
 20
4349749.5
 30
0.0
 40
0.3
  1
0.51
  7
CN_TTF
 11
470103.5
 21
4349749.5
 31
0.0
100
AcDbText
  0
TEXT
  5
224
330
17
100
AcDbEntity
  8
点
 62
4
100
AcDbText
 10
470103.5
 20
4349750.5
 30
0.0
 40
0.3
  1
0.51
  7
CN_TTF
 11
470103.5
 21
4349750.5
 31
0.0
100
AcDbText
  0
TEXT
  5
225
330
17
100
AcDbEntity
  8
点
 62
4
100
AcDbText
 10
470103.5
 20
4349751.5
 30
0.0
 40
0.3
  1
0.51
  7
CN_TTF
 11
470103.5
 21
4349751.5
 31
0.0
100
AcDbText
  0
TEXT
  5
226
330
17
100
AcDbEntity
  8
点
 62
4
100
AcDbText
 10
470103.5
 20
4349752.5
 30
0.0
 40
0.3
  1
0.51
  7
CN_TTF
 11
470103.5
 21
4349752.5
 31
0.0
100
AcDbText
  0
TEXT
  5
227
330
17
100
AcDbEntity
  8
点
 62
4
100
AcDbText
 10
470103.5
 20
4349753.5
 30
0.0
 40
0.3
  1
0.18
  7
CN_TTF
 11
470103.5
 21
4349753.5
 31
0.0
100
AcDbText
  0
TEXT
  5
228
330
17
100
AcDbEntity
  8
点
 62
4
100
AcDbText
 10
470103.5
 20
4349754.5
 30
0.0
 40
0.3
  1
0.18
  7
CN_TTF
 11
470103.5
 21
4349754.5
 31
0.0
100
AcDbText
  0
TEXT
  5
229
330
17
100
AcDbEntity
  8
点
 62
4
100
AcDbText
 10
470103.5
 20
4349755.5
 30
0.0
 40
0.3
  1
0.18
  7
CN_TTF
 11
470103.5
 21
4349755.5
 31
0.0
100
AcDbText
  0
TEXT
  5
22A
330
17
100
AcDbEntity
  8
点
 62
4
100
AcDbText
 10
470103.5
 20
4349756.5
 30
0.0
 40
0.3
  1
0.18
  7
CN_TTF
 11
470103.5
 21
4349756.5
 31
0.0
100
AcDbText
  0
TEXT
  5
22B
330
17
100
AcDbEntity
  8
点
 62
4
100
AcDbText
 10
470104.5
 20
4349737.5
 30
0.0
 40
0.3
  1
0.87
  7
CN_TTF
 11
470104.5
 21
4349737.5
 31
0.0
100
AcDbText
  0
TEXT
  5
22C
330
17
100
AcDbEntity
  8
点
 62
4
100
AcDbText
 10
470104.5
 20
4349738.5
 30
0.0
 40
0.3
  1
0.87
  7
CN_TTF
 11
470104.5
 21
4349738.5
 31
0.0
100
AcDbText
  0
TEXT
  5
22D
330
17
100
AcDbEntity
  8
点
 62
4
100
AcDbText
 10
470104.5
 20
4349739.5
 30
0.0
 40
0.3
  1
0.87
  7
CN_TTF
 11
470104.5
 21
4349739.5
 31
0.0
100
AcDbText
  0
TEXT
  5
22E
330
17
100
AcDbEntity
  8
点
 62
4
100
AcDbText
 10
470104.5
 20
4349740.5
 30
0.0
 40
0.3
  1
1.26
  7
CN_TTF
 11
470104.5
 21
4349740.5
 31
0.0
100
AcDbText
  0
TEXT
  5
22F
330
17
100
AcDbEntity
  8
点
 62
4
100
AcDbText
 10
470104.5
 20
4349741.5
 30
0.0
 40
0.3
  1
0.71
  7
CN_TTF
 11
470104.5
 21
4349741.5
 31
0.0
100
AcDbText
  0
TEXT
  5
230
330
17
100
AcDbEntity
  8
点
 62
4
100
AcDbText
 10
470104.5
 20
4349742.5
 30
0.0
 40
0.3
  1
0.71
  7
CN_TTF
 11
470104.5
 21
4349742.5
 31
0.0
100
AcDbText
  0
TEXT
  5
231
330
17
100
AcDbEntity
  8
点
 62
4
100
AcDbText
 10
470104.5
 20
4349743.5
 30
0.0
 40
0.3
  1
0.71
  7
CN_TTF
 11
470104.5
 21
4349743.5
 31
0.0
100
AcDbText
  0
TEXT
  5
232
330
17
100
AcDbEntity
  8
点
 62
4
100
AcDbText
 10
470104.5
 20
4349744.5
 30
0.0
 40
0.3
  1
0.71
  7
CN_TTF
 11
470104.5
 21
4349744.5
 31
0.0
100
AcDbText
  0
TEXT
  5
233
330
17
100
AcDbEntity
  8
点
 62
4
100
AcDbText
 10
470104.5
 20
4349745.5
 30
0.0
 40
0.3
  1
0.71
  7
CN_TTF
 11
470104.5
 21
4349745.5
 31
0.0
100
AcDbText
  0
TEXT
  5
234
330
17
100
AcDbEntity
  8
点
 62
4
100
AcDbText
 10
470104.5
 20
4349746.5
 30
0.0
 40
0.3
  1
0.71
  7
CN_TTF
 11
470104.5
 21
4349746.5
 31
0.0
100
AcDbText
  0
TEXT
  5
235
330
17
100
AcDbEntity
  8
点
 62
4
100
AcDbText
 10
470104.5
 20
4349747.5
 30
0.0
 40
0.3
  1
0.82
  7
CN_TTF
 11
470104.5
 21
4349747.5
 31
0.0
100
AcDbText
  0
TEXT
  5
236
330
17
100
AcDbEntity
  8
点
 62
4
100
AcDbText
 10
470104.5
 20
4349748.5
 30
0.0
 40
0.3
  1
0.82
  7
CN_TTF
 11
470104.5
 21
4349748.5
 31
0.0
100
AcDbText
  0
TEXT
  5
237
330
17
100
AcDbEntity
  8
点
 62
4
100
AcDbText
 10
470104.5
 20
4349749.5
 30
0.0
 40
0.3
  1
0.82
  7
CN_TTF
 11
470104.5
 21
4349749.5
 31
0.0
100
AcDbText
  0
TEXT
  5
238
330
17
100
AcDbEntity
  8
点
 62
4
100
AcDbText
 10
470104.5
 20
4349750.5
 30
0.0
 40
0.3
  1
0.82
  7
CN_TTF
 11
470104.5
 21
4349750.5
 31
0.0
100
AcDbText
  0
TEXT
  5
239
330
17
100
AcDbEntity
  8
点
 62
4
100
AcDbText
 10
470104.5
 20
4349751.5
 30
0.0
 40
0.3
  1
0.82
  7
CN_TTF
 11
470104.5
 21
4349751.5
 31
0.0
100
AcDbText
  0
TEXT
  5
23A
330
17
100
AcDbEntity
  8
点
 62
4
100
AcDbText
 10
470104.5
 20
4349752.5
 30
0.0
 40
0.3
  1
0.51
  7
CN_TTF
 11
470104.5
 21
4349752.5
 31
0.0
100
AcDbText
  0
TEXT
  5
23B
330
17
100
AcDbEntity
  8
点
 62
4
100
AcDbText
 10
470104.5
 20
4349753.5
 30
0.0
 40
0.3
  1
0.18
  7
CN_TTF
 11
470104.5
 21
4349753.5
 31
0.0
100
AcDbText
  0
TEXT
  5
23C
330
17
100
AcDbEntity
  8
点
 62
4
100
AcDbText
 10
470104.5
 20
4349754.5
 30
0.0
 40
0.3
  1
0.18
  7
CN_TTF
 11
470104.5
 21
4349754.5
 31
0.0
100
AcDbText
  0
TEXT
  5
23D
330
17
100
AcDbEntity
  8
点
 62
4
100
AcDbText
 10
470105.5
 20
4349735.5
 30
0.0
 40
0.3
  1
0.87
  7
CN_TTF
 11
470105.5
 21
4349735.5
 31
0.0
100
AcDbText
  0
TEXT
  5
23E
330
17
100
AcDbEntity
  8
点
 62
4
100
AcDbText
 10
470105.5
 20
4349736.5
 30
0.0
 40
0.3
  1
0.87
  7
CN_TTF
 11
470105.5
 21
4349736.5
 31
0.0
100
AcDbText
  0
TEXT
  5
23F
330
17
100
AcDbEntity
  8
点
 62
4
100
AcDbText
 10
470105.5
 20
4349737.5
 30
0.0
 40
0.3
  1
0.87
  7
CN_TTF
 11
470105.5
 21
4349737.5
 31
0.0
100
AcDbText
  0
TEXT
  5
240
330
17
100
AcDbEntity
  8
点
 62
4
100
AcDbText
 10
470105.5
 20
4349738.5
 30
0.0
 40
0.3
  1
0.87
  7
CN_TTF
 11
470105.5
 21
4349738.5
 31
0.0
100
AcDbText
  0
TEXT
  5
241
330
17
100
AcDbEntity
  8
点
 62
4
100
AcDbText
 10
470105.5
 20
4349739.5
 30
0.0
 40
0.3
  1
0.87
  7
CN_TTF
 11
470105.5
 21
4349739.5
 31
0.0
100
AcDbText
  0
TEXT
  5
242
330
17
100
AcDbEntity
  8
点
 62
4
100
AcDbText
 10
470105.5
 20
4349740.5
 30
0.0
 40
0.3
  1
0.71
  7
CN_TTF
 11
470105.5
 21
4349740.5
 31
0.0
100
AcDbText
  0
TEXT
  5
243
330
17
100
AcDbEntity
  8
点
 62
4
100
AcDbText
 10
470105.5
 20
4349741.5
 30
0.0
 40
0.3
  1
0.71
  7
CN_TTF
 11
470105.5
 21
4349741.5
 31
0.0
100
AcDbText
  0
TEXT
  5
244
330
17
100
AcDbEntity
  8
点
 62
4
100
AcDbText
 10
470105.5
 20
4349742.5
 30
0.0
 40
0.3
  1
0.71
  7
CN_TTF
 11
470105.5
 21
4349742.5
 31
0.0
100
AcDbText
  0
TEXT
  5
245
330
17
100
AcDbEntity
  8
点
 62
4
100
AcDbText
 10
470105.5
 20
4349743.5
 30
0.0
 40
0.3
  1
0.71
  7
CN_TTF
 11
470105.5
 21
4349743.5
 31
0.0
100
AcDbText
  0
TEXT
  5
246
330
17
100
AcDbEntity
  8
点
 62
4
100
AcDbText
 10
470105.5
 20
4349744.5
 30
0.0
 40
0.3
  1
0.71
  7
CN_TTF
 11
470105.5
 21
4349744.5
 31
0.0
100
AcDbText
  0
TEXT
  5
247
330
17
100
AcDbEntity
  8
点
 62
4
100
AcDbText
 10
470105.5
 20
4349745.5
 30
0.0
 40
0.3
  1
0.71
  7
CN_TTF
 11
470105.5
 21
4349745.5
 31
0.0
100
AcDbText
  0
TEXT
  5
248
330
17
100
AcDbEntity
  8
点
 62
4
100
AcDbText
 10
470105.5
 20
4349746.5
 30
0.0
 40
0.3
  1
0.71
  7
CN_TTF
 11
470105.5
 21
4349746.5
 31
0.0
100
AcDbText
  0
TEXT
  5
249
330
17
100
AcDbEntity
  8
点
 62
4
100
AcDbText
 10
470105.5
 20
4349747.5
 30
0.0
 40
0.3
  1
0.82
  7
CN_TTF
 11
470105.5
 21
4349747.5
 31
0.0
100
AcDbText
  0
TEXT
  5
24A
330
17
100
AcDbEntity
  8
点
 62
4
100
AcDbText
 10
470105.5
 20
4349748.5
 30
0.0
 40
0.3
  1
0.82
  7
CN_TTF
 11
470105.5
 21
4349748.5
 31
0.0
100
AcDbText
  0
TEXT
  5
24B
330
17
100
AcDbEntity
  8
点
 62
4
100
AcDbText
 10
470105.5
 20
4349749.5
 30
0.0
 40
0.3
  1
0.82
  7
CN_TTF
 11
470105.5
 21
4349749.5
 31
0.0
100
AcDbText
  0
TEXT
  5
24C
330
17
100
AcDbEntity
  8
点
 62
4
100
AcDbText
 10
470105.5
 20
4349750.5
 30
0.0
 40
0.3
  1
0.82
  7
CN_TTF
 11
470105.5
 21
4349750.5
 31
0.0
100
AcDbText
  0
TEXT
  5
24D
330
17
100
AcDbEntity
  8
点
 62
4
100
AcDbText
 10
470105.5
 20
4349751.5
 30
0.0
 40
0.3
  1
0.82
  7
CN_TTF
 11
470105.5
 21
4349751.5
 31
0.0
100
AcDbText
  0
TEXT
  5
24E
330
17
100
AcDbEntity
  8
点
 62
4
100
AcDbText
 10
470105.5
 20
4349752.5
 30
0.0
 40
0.3
  1
0.82
  7
CN_TTF
 11
470105.5
 21
4349752.5
 31
0.0
100
AcDbText
  0
TEXT
  5
24F
330
17
100
AcDbEntity
  8
点
 62
4
100
AcDbText
 10
470105.5
 20
4349753.5
 30
0.0
 40
0.3
  1
0.18
  7
CN_TTF
 11
470105.5
 21
4349753.5
 31
0.0
100
AcDbText
  0
TEXT
  5
250
330
17
100
AcDbEntity
  8
点
 62
4
100
AcDbText
 10
470106.5
 20
4349734.5
 30
0.0
 40
0.3
  1
0.87
  7
CN_TTF
 11
470106.5
 21
4349734.5
 31
0.0
100
AcDbText
  0
TEXT
  5
251
330
17
100
AcDbEntity
  8
点
 62
4
100
AcDbText
 10
470106.5
 20
4349735.5
 30
0.0
 40
0.3
  1
0.87
  7
CN_TTF
 11
470106.5
 21
4349735.5
 31
0.0
100
AcDbText
  0
TEXT
  5
252
330
17
100
AcDbEntity
  8
点
 62
4
100
AcDbText
 10
470106.5
 20
4349736.5
 30
0.0
 40
0.3
  1
0.87
  7
CN_TTF
 11
470106.5
 21
4349736.5
 31
0.0
100
AcDbText
  0
TEXT
  5
253
330
17
100
AcDbEntity
  8
点
 62
4
100
AcDbText
 10
470106.5
 20
4349737.5
 30
0.0
 40
0.3
  1
0.87
  7
CN_TTF
 11
470106.5
 21
4349737.5
 31
0.0
100
AcDbText
  0
TEXT
  5
254
330
17
100
AcDbEntity
  8
点
 62
4
100
AcDbText
 10
470106.5
 20
4349738.5
 30
0.0
 40
0.3
  1
0.87
  7
CN_TTF
 11
470106.5
 21
4349738.5
 31
0.0
100
AcDbText
  0
TEXT
  5
255
330
17
100
AcDbEntity
  8
点
 62
4
100
AcDbText
 10
470106.5
 20
4349741.5
 30
0.0
 40
0.3
  1
0.71
  7
CN_TTF
 11
470106.5
 21
4349741.5
 31
0.0
100
AcDbText
  0
TEXT
  5
256
330
17
100
AcDbEntity
  8
点
 62
4
100
AcDbText
 10
470106.5
 20
4349742.5
 30
0.0
 40
0.3
  1
0.71
  7
CN_TTF
 11
470106.5
 21
4349742.5
 31
0.0
100
AcDbText
  0
TEXT
  5
257
330
17
100
AcDbEntity
  8
点
 62
4
100
AcDbText
 10
470106.5
 20
4349743.5
 30
0.0
 40
0.3
  1
0.71
  7
CN_TTF
 11
470106.5
 21
4349743.5
 31
0.0
100
AcDbText
  0
TEXT
  5
258
330
17
100
AcDbEntity
  8
点
 62
4
100
AcDbText
 10
470106.5
 20
4349744.5
 30
0.0
 40
0.3
  1
0.71
  7
CN_TTF
 11
470106.5
 21
4349744.5
 31
0.0
100
AcDbText
  0
TEXT
  5
259
330
17
100
AcDbEntity
  8
点
 62
4
100
AcDbText
 10
470106.5
 20
4349745.5
 30
0.0
 40
0.3
  1
0.71
  7
CN_TTF
 11
470106.5
 21
4349745.5
 31
0.0
100
AcDbText
  0
TEXT
  5
25A
330
17
100
AcDbEntity
  8
点
 62
4
100
AcDbText
 10
470106.5
 20
4349746.5
 30
0.0
 40
0.3
  1
0.71
  7
CN_TTF
 11
470106.5
 21
4349746.5
 31
0.0
100
AcDbText
  0
TEXT
  5
25B
330
17
100
AcDbEntity
  8
点
 62
4
100
AcDbText
 10
470106.5
 20
4349747.5
 30
0.0
 40
0.3
  1
0.82
  7
CN_TTF
 11
470106.5
 21
4349747.5
 31
0.0
100
AcDbText
  0
TEXT
  5
25C
330
17
100
AcDbEntity
  8
点
 62
4
100
AcDbText
 10
470106.5
 20
4349748.5
 30
0.0
 40
0.3
  1
0.82
  7
CN_TTF
 11
470106.5
 21
4349748.5
 31
0.0
100
AcDbText
  0
TEXT
  5
25D
330
17
100
AcDbEntity
  8
点
 62
4
100
AcDbText
 10
470106.5
 20
4349749.5
 30
0.0
 40
0.3
  1
0.82
  7
CN_TTF
 11
470106.5
 21
4349749.5
 31
0.0
100
AcDbText
  0
TEXT
  5
25E
330
17
100
AcDbEntity
  8
点
 62
4
100
AcDbText
 10
470106.5
 20
4349750.5
 30
0.0
 40
0.3
  1
0.82
  7
CN_TTF
 11
470106.5
 21
4349750.5
 31
0.0
100
AcDbText
  0
TEXT
  5
25F
330
17
100
AcDbEntity
  8
点
 62
4
100
AcDbText
 10
470106.5
 20
4349751.5
 30
0.0
 40
0.3
  1
0.82
  7
CN_TTF
 11
470106.5
 21
4349751.5
 31
0.0
100
AcDbText
  0
TEXT
  5
260
330
17
100
AcDbEntity
  8
点
 62
4
100
AcDbText
 10
470106.5
 20
4349752.5
 30
0.0
 40
0.3
  1
0.82
  7
CN_TTF
 11
470106.5
 21
4349752.5
 31
0.0
100
AcDbText
  0
TEXT
  5
261
330
17
100
AcDbEntity
  8
点
 62
4
100
AcDbText
 10
470107.5
 20
4349747.5
 30
0.0
 40
0.3
  1
0.82
  7
CN_TTF
 11
470107.5
 21
4349747.5
 31
0.0
100
AcDbText
  0
TEXT
  5
262
330
17
100
AcDbEntity
  8
点
 62
4
100
AcDbText
 10
470107.5
 20
4349748.5
 30
0.0
 40
0.3
  1
0.82
  7
CN_TTF
 11
470107.5
 21
4349748.5
 31
0.0
100
AcDbText
  0
TEXT
  5
263
330
17
100
AcDbEntity
  8
点
 62
4
100
AcDbText
 10
470107.5
 20
4349749.5
 30
0.0
 40
0.3
  1
0.82
  7
CN_TTF
 11
470107.5
 21
4349749.5
 31
0.0
100
AcDbText
  0
TEXT
  5
264
330
17
100
AcDbEntity
  8
点
 62
4
100
AcDbText
 10
470107.5
 20
4349750.5
 30
0.0
 40
0.3
  1
0.82
  7
CN_TTF
 11
470107.5
 21
4349750.5
 31
0.0
100
AcDbText
  0
TEXT
  5
265
330
17
100
AcDbEntity
  8
点
 62
4
100
AcDbText
 10
470107.5
 20
4349751.5
 30
0.0
 40
0.3
  1
0.82
  7
CN_TTF
 11
470107.5
 21
4349751.5
 31
0.0
100
AcDbText
  0
TEXT
  5
266
330
17
100
AcDbEntity
  8
点
 62
4
100
AcDbText
 10
470107.5
 20
4349752.5
 30
0.0
 40
0.3
  1
0.15
  7
CN_TTF
 11
470107.5
 21
4349752.5
 31
0.0
100
AcDbText
  0
TEXT
  5
267
330
17
100
AcDbEntity
  8
点
 62
4
100
AcDbText
 10
470108.5
 20
4349748.5
 30
0.0
 40
0.3
  1
0.82
  7
CN_TTF
 11
470108.5
 21
4349748.5
 31
0.0
100
AcDbText
  0
TEXT
  5
268
330
17
100
AcDbEntity
  8
点
 62
4
100
AcDbText
 10
470108.5
 20
4349749.5
 30
0.0
 40
0.3
  1
0.82
  7
CN_TTF
 11
470108.5
 21
4349749.5
 31
0.0
100
AcDbText
  0
TEXT
  5
269
330
17
100
AcDbEntity
  8
点
 62
4
100
AcDbText
 10
470108.5
 20
4349750.5
 30
0.0
 40
0.3
  1
0.82
  7
CN_TTF
 11
470108.5
 21
4349750.5
 31
0.0
100
AcDbText
  0
TEXT
  5
26A
330
17
100
AcDbEntity
  8
点
 62
4
100
AcDbText
 10
470108.5
 20
4349751.5
 30
0.0
 40
0.3
  1
0.15
  7
CN_TTF
 11
470108.5
 21
4349751.5
 31
0.0
100
AcDbText
  0
TEXT
  5
26B
330
17
100
AcDbEntity
  8
点
 62
4
100
AcDbText
 10
470108.5
 20
4349752.5
 30
0.0
 40
0.3
  1
0.15
  7
CN_TTF
 11
470108.5
 21
4349752.5
 31
0.0
100
AcDbText
  0
LINE
  5
26C
330
17
100
AcDbEntity
  8
钻孔
 62
5
100
AcDbLine
 10
470103.185
 20
4349729.2
 30
0.0
 11
470104.785
 21
4349729.2
 31
0.0
  0
LINE
  5
26D
330
17
100
AcDbEntity
  8
钻孔
 62
5
100
AcDbLine
 10
470103.985
 20
4349728.4
 30
0.0
 11
470103.985
 21
4349730.0
 31
0.0
  0
LINE
  5
26E
330
17
100
AcDbEntity
  8
钻孔
 62
5
100
AcDbLine
 10
470103.985
 20
4349729.2
 30
0.0
 11
470108.985
 21
4349729.2
 31
0.0
  0
TEXT
  5
26F
330
17
100
AcDbEntity
  8
钻孔
 62
138
100
AcDbText
 10
470109.385
 20
4349729.2
 30
0.0
 40
0.4
  1
BS-3940-1008-P1
  7
CN_TTF
 11
470109.385
 21
4349729.2
 31
0.0
100
AcDbText
  0
TEXT
  5
270
330
17
100
AcDbEntity
  8
钻孔
 62
5
100
AcDbText
 10
470109.385
 20
4349730.2
 30
0.0
 40
0.7
  1
1.11
  7
CN_TTF
 11
470109.385
 21
4349730.2
 31
0.0
100
AcDbText
  0
LINE
  5
271
330
17
100
AcDbEntity
  8
钻孔
 62
5
100
AcDbLine
 10
470105.411
 20
4349731.335
 30
0.0
 11
470107.011
 21
4349731.335
 31
0.0
  0
LINE
  5
272
330
17
100
AcDbEntity
  8
钻孔
 62
5
100
AcDbLine
 10
470106.211
 20
4349730.535
 30
0.0
 11
470106.211
 21
4349732.135
 31
0.0
  0
LINE
  5
273
330
17
100
AcDbEntity
  8
钻孔
 62
5
100
AcDbLine
 10
470106.211
 20
4349731.335
 30
0.0
 11
470111.211
 21
4349731.335
 31
0.0
  0
TEXT
  5
274
330
17
100
AcDbEntity
  8
钻孔
 62
138
100
AcDbText
 10
470111.61100000003
 20
4349731.335
 30
0.0
 40
0.4
  1
BS-3940-1008-P2
  7
CN_TTF
 11
470111.61100000003
 21
4349731.335
 31
0.0
100
AcDbText
  0
TEXT
  5
275
330
17
100
AcDbEntity
  8
钻孔
 62
5
100
AcDbText
 10
470111.61100000003
 20
4349732.335
 30
0.0
 40
0.7
  1
1.35
  7
CN_TTF
 11
470111.61100000003
 21
4349732.335
 31
0.0
100
AcDbText
  0
LINE
  5
276
330
17
100
AcDbEntity
  8
钻孔
 62
5
100
AcDbLine
 10
470102.581
 20
4349733.749
 30
0.0
 11
470104.181
 21
4349733.749
 31
0.0
  0
LINE
  5
277
330
17
100
AcDbEntity
  8
钻孔
 62
5
100
AcDbLine
 10
470103.381
 20
4349732.949
 30
0.0
 11
470103.381
 21
4349734.549
 31
0.0
  0
LINE
  5
278
330
17
100
AcDbEntity
  8
钻孔
 62
5
100
AcDbLine
 10
470103.381
 20
4349733.749
 30
0.0
 11
470108.381
 21
4349733.749
 31
0.0
  0
TEXT
  5
279
330
17
100
AcDbEntity
  8
钻孔
 62
138
100
AcDbText
 10
470108.781
 20
4349733.749
 30
0.0
 40
0.4
  1
BS-3940-1008-P3
  7
CN_TTF
 11
470108.781
 21
4349733.749
 31
0.0
100
AcDbText
  0
TEXT
  5
27A
330
17
100
AcDbEntity
  8
钻孔
 62
5
100
AcDbText
 10
470108.781
 20
4349734.749
 30
0.0
 40
0.7
  1
1.32
  7
CN_TTF
 11
470108.781
 21
4349734.749
 31
0.0
100
AcDbText
  0
LINE
  5
27B
330
17
100
AcDbEntity
  8
钻孔
 62
4
100
AcDbLine
 10
470103.456
 20
4349736.512
 30
0.0
 11
470105.056
 21
4349736.512
 31
0.0
  0
LINE
  5
27C
330
17
100
AcDbEntity
  8
钻孔
 62
4
100
AcDbLine
 10
470104.256
 20
4349735.712
 30
0.0
 11
470104.256
 21
4349737.312
 31
0.0
  0
LINE
  5
27D
330
17
100
AcDbEntity
  8
钻孔
 62
4
100
AcDbLine
 10
470104.256
 20
4349736.512
 30
0.0
 11
470109.256
 21
4349736.512
 31
0.0
  0
TEXT
  5
27E
330
17
100
AcDbEntity
  8
钻孔
 62
138
100
AcDbText
 10
470109.656
 20
4349736.512
 30
0.0
 40
0.4
  1
BS-3940-1008-P4
  7
CN_TTF
 11
470109.656
 21
4349736.512
 31
0.0
100
AcDbText
  0
TEXT
  5
27F
330
17
100
AcDbEntity
  8
钻孔
 62
4
100
AcDbText
 10
470109.656
 20
4349737.512
 30
0.0
 40
0.7
  1
0.87
  7
CN_TTF
 11
470109.656
 21
4349737.512
 31
0.0
100
AcDbText
  0
LINE
  5
280
330
17
100
AcDbEntity
  8
钻孔
 62
5
100
AcDbLine
 10
470100.41000000003
 20
4349739.658
 30
0.0
 11
470102.01
 21
4349739.658
 31
0.0
  0
LINE
  5
281
330
17
100
AcDbEntity
  8
钻孔
 62
5
100
AcDbLine
 10
470101.21
 20
4349738.858
 30
0.0
 11
470101.21
 21
4349740.458
 31
0.0
  0
LINE
  5
282
330
17
100
AcDbEntity
  8
钻孔
 62
5
100
AcDbLine
 10
470101.21
 20
4349739.658
 30
0.0
 11
470106.21
 21
4349739.658
 31
0.0
  0
TEXT
  5
283
330
17
100
AcDbEntity
  8
钻孔
 62
138
100
AcDbText
 10
470106.61000000004
 20
4349739.658
 30
0.0
 40
0.4
  1
BS-3940-1008-P5
  7
CN_TTF
 11
470106.61000000004
 21
4349739.658
 31
0.0
100
AcDbText
  0
TEXT
  5
284
330
17
100
AcDbEntity
  8
钻孔
 62
5
100
AcDbText
 10
470106.61000000004
 20
4349740.658
 30
0.0
 40
0.7
  1
1.26
  7
CN_TTF
 11
470106.61000000004
 21
4349740.658
 31
0.0
100
AcDbText
  0
LINE
  5
285
330
17
100
AcDbEntity
  8
钻孔
 62
4
100
AcDbLine
 10
470103.023
 20
4349744.23
 30
0.0
 11
470104.62299999996
 21
4349744.23
 31
0.0
  0
LINE
  5
286
330
17
100
AcDbEntity
  8
钻孔
 62
4
100
AcDbLine
 10
470103.823
 20
4349743.430000001
 30
0.0
 11
470103.823
 21
4349745.03
 31
0.0
  0
LINE
  5
287
330
17
100
AcDbEntity
  8
钻孔
 62
4
100
AcDbLine
 10
470103.823
 20
4349744.23
 30
0.0
 11
470108.823
 21
4349744.23
 31
0.0
  0
TEXT
  5
288
330
17
100
AcDbEntity
  8
钻孔
 62
138
100
AcDbText
 10
470109.223
 20
4349744.23
 30
0.0
 40
0.4
  1
BS-3940-1008-P6
  7
CN_TTF
 11
470109.223
 21
4349744.23
 31
0.0
100
AcDbText
  0
TEXT
  5
289
330
17
100
AcDbEntity
  8
钻孔
 62
4
100
AcDbText
 10
470109.223
 20
4349745.23
 30
0.0
 40
0.7
  1
0.71
  7
CN_TTF
 11
470109.223
 21
4349745.23
 31
0.0
100
AcDbText
  0
LINE
  5
28A
330
17
100
AcDbEntity
  8
钻孔
 62
5
100
AcDbLine
 10
470098.641
 20
4349746.238
 30
0.0
 11
470100.241
 21
4349746.238
 31
0.0
  0
LINE
  5
28B
330
17
100
AcDbEntity
  8
钻孔
 62
5
100
AcDbLine
 10
470099.441
 20
4349745.438
 30
0.0
 11
470099.441
 21
4349747.038
 31
0.0
  0
LINE
  5
28C
330
17
100
AcDbEntity
  8
钻孔
 62
5
100
AcDbLine
 10
470099.441
 20
4349746.238
 30
0.0
 11
470104.441
 21
4349746.238
 31
0.0
  0
TEXT
  5
28D
330
17
100
AcDbEntity
  8
钻孔
 62
138
100
AcDbText
 10
470104.841
 20
4349746.238
 30
0.0
 40
0.4
  1
BS-3940-1008-P7
  7
CN_TTF
 11
470104.841
 21
4349746.238
 31
0.0
100
AcDbText
  0
TEXT
  5
28E
330
17
100
AcDbEntity
  8
钻孔
 62
5
100
AcDbText
 10
470104.841
 20
4349747.238
 30
0.0
 40
0.7
  1
1.04
  7
CN_TTF
 11
470104.841
 21
4349747.238
 31
0.0
100
AcDbText
  0
LINE
  5
28F
330
17
100
AcDbEntity
  8
钻孔
 62
4
100
AcDbLine
 10
470101.188
 20
4349750.804
 30
0.0
 11
470102.788
 21
4349750.804
 31
0.0
  0
LINE
  5
290
330
17
100
AcDbEntity
  8
钻孔
 62
4
100
AcDbLine
 10
470101.988
 20
4349750.004
 30
0.0
 11
470101.988
 21
4349751.603999999
 31
0.0
  0
LINE
  5
291
330
17
100
AcDbEntity
  8
钻孔
 62
4
100
AcDbLine
 10
470101.988
 20
4349750.804
 30
0.0
 11
470106.988
 21
4349750.804
 31
0.0
  0
TEXT
  5
292
330
17
100
AcDbEntity
  8
钻孔
 62
138
100
AcDbText
 10
470107.38800000004
 20
4349750.804
 30
0.0
 40
0.4
  1
BS-3940-1008-P8
  7
CN_TTF
 11
470107.38800000004
 21
4349750.804
 31
0.0
100
AcDbText
  0
TEXT
  5
293
330
17
100
AcDbEntity
  8
钻孔
 62
4
100
AcDbText
 10
470107.38800000004
 20
4349751.804
 30
0.0
 40
0.7
  1
0.51
  7
CN_TTF
 11
470107.38800000004
 21
4349751.804
 31
0.0
100
AcDbText
  0
LINE
  5
294
330
17
100
AcDbEntity
  8
钻孔
 62
4
100
AcDbLine
 10
470105.734
 20
4349750.135
 30
0.0
 11
470107.334
 21
4349750.135
 31
0.0
  0
LINE
  5
295
330
17
100
AcDbEntity
  8
钻孔
 62
4
100
AcDbLine
 10
470106.534
 20
4349749.335
 30
0.0
 11
470106.534
 21
4349750.935
 31
0.0
  0
LINE
  5
296
330
17
100
AcDbEntity
  8
钻孔
 62
4
100
AcDbLine
 10
470106.534
 20
4349750.135
 30
0.0
 11
470111.534
 21
4349750.135
 31
0.0
  0
TEXT
  5
297
330
17
100
AcDbEntity
  8
钻孔
 62
138
100
AcDbText
 10
470111.934
 20
4349750.135
 30
0.0
 40
0.4
  1
BS-3940-1008-P9
  7
CN_TTF
 11
470111.934
 21
4349750.135
 31
0.0
100
AcDbText
  0
TEXT
  5
298
330
17
100
AcDbEntity
  8
钻孔
 62
4
100
AcDbText
 10
470111.934
 20
4349751.135
 30
0.0
 40
0.7
  1
0.82
  7
CN_TTF
 11
470111.934
 21
4349751.135
 31
0.0
100
AcDbText
  0
LINE
  5
299
330
17
100
AcDbEntity
  8
钻孔
 62
8
100
AcDbLine
 10
470109.001
 20
4349753.499
 30
0.0
 11
470110.60099999997
 21
4349753.499
 31
0.0
  0
LINE
  5
29A
330
17
100
AcDbEntity
  8
钻孔
 62
8
100
AcDbLine
 10
470109.801
 20
4349752.699
 30
0.0
 11
470109.801
 21
4349754.299
 31
0.0
  0
LINE
  5
29B
330
17
100
AcDbEntity
  8
钻孔
 62
8
100
AcDbLine
 10
470109.801
 20
4349753.499
 30
0.0
 11
470114.801
 21
4349753.499
 31
0.0
  0
TEXT
  5
29C
330
17
100
AcDbEntity
  8
钻孔
 62
138
100
AcDbText
 10
470115.201
 20
4349753.499
 30
0.0
 40
0.4
  1
BS-3940-1008-P10
  7
CN_TTF
 11
470115.201
 21
4349753.499
 31
0.0
100
AcDbText
  0
TEXT
  5
29D
330
17
100
AcDbEntity
  8
钻孔
 62
8
100
AcDbText
 10
470115.201
 20
4349754.499
 30
0.0
 40
0.7
  1
0.15
  7
CN_TTF
 11
470115.201
 21
4349754.499
 31
0.0
100
AcDbText
  0
LINE
  5
29E
330
17
100
AcDbEntity
  8
钻孔
 62
8
100
AcDbLine
 10
470104.33
 20
4349755.804
 30
0.0
 11
470105.93
 21
4349755.804
 31
0.0
  0
LINE
  5
29F
330
17
100
AcDbEntity
  8
钻孔
 62
8
100
AcDbLine
 10
470105.13
 20
4349755.004
 30
0.0
 11
470105.13
 21
4349756.603999999
 31
0.0
  0
LINE
  5
2A0
330
17
100
AcDbEntity
  8
钻孔
 62
8
100
AcDbLine
 10
470105.13
 20
4349755.804
 30
0.0
 11
470110.13
 21
4349755.804
 31
0.0
  0
TEXT
  5
2A1
330
17
100
AcDbEntity
  8
钻孔
 62
138
100
AcDbText
 10
470110.53
 20
4349755.804
 30
0.0
 40
0.4
  1
BS-3940-1008-P11
  7
CN_TTF
 11
470110.53
 21
4349755.804
 31
0.0
100
AcDbText
  0
TEXT
  5
2A2
330
17
100
AcDbEntity
  8
钻孔
 62
8
100
AcDbText
 10
470110.53
 20
4349756.804
 30
0.0
 40
0.7
  1
0.18
  7
CN_TTF
 11
470110.53
 21
4349756.804
 31
0.0
100
AcDbText
  0
LINE
  5
2A3
330
17
100
AcDbEntity
  8
钻孔
 62
5
100
AcDbLine
 10
470096.62
 20
4349753.81
 30
0.0
 11
470098.22
 21
4349753.81
 31
0.0
  0
LINE
  5
2A4
330
17
100
AcDbEntity
  8
钻孔
 62
5
100
AcDbLine
 10
470097.42
 20
4349753.01
 30
0.0
 11
470097.42
 21
4349754.609999999
 31
0.0
  0
LINE
  5
2A5
330
17
100
AcDbEntity
  8
钻孔
 62
5
100
AcDbLine
 10
470097.42
 20
4349753.81
 30
0.0
 11
470102.42
 21
4349753.81
 31
0.0
  0
TEXT
  5
2A6
330
17
100
AcDbEntity
  8
钻孔
 62
138
100
AcDbText
 10
470102.82
 20
4349753.81
 30
0.0
 40
0.4
  1
BS-3940-1008-P12
  7
CN_TTF
 11
470102.82
 21
4349753.81
 31
0.0
100
AcDbText
  0
TEXT
  5
2A7
330
17
100
AcDbEntity
  8
钻孔
 62
5
100
AcDbText
 10
470102.82
 20
4349754.81
 30
0.0
 40
0.7
  1
1.16
  7
CN_TTF
 11
470102.82
 21
4349754.81
 31
0.0
100
AcDbText
  0
LINE
  5
2A8
330
17
100
AcDbEntity
  8
钻孔
 62
8
100
AcDbLine
 10
470099.405
 20
4349758.128
 30
0.0
 11
470101.005
 21
4349758.128
 31
0.0
  0
LINE
  5
2A9
330
17
100
AcDbEntity
  8
钻孔
 62
8
100
AcDbLine
 10
470100.205
 20
4349757.328
 30
0.0
 11
470100.205
 21
4349758.927999999
 31
0.0
  0
LINE
  5
2AA
330
17
100
AcDbEntity
  8
钻孔
 62
8
100
AcDbLine
 10
470100.205
 20
4349758.128
 30
0.0
 11
470105.205
 21
4349758.128
 31
0.0
  0
TEXT
  5
2AB
330
17
100
AcDbEntity
  8
钻孔
 62
138
100
AcDbText
 10
470105.60500000004
 20
4349758.128
 30
0.0
 40
0.4
  1
BS-3940-1008-P13
  7
CN_TTF
 11
470105.60500000004
 21
4349758.128
 31
0.0
100
AcDbText
  0
TEXT
  5
2AC
330
17
100
AcDbEntity
  8
钻孔
 62
8
100
AcDbText
 10
470105.60500000004
 20
4349759.128
 30
0.0
 40
0.7
  1
0.38
  7
CN_TTF
 11
470105.60500000004
 21
4349759.128
 31
0.0
100
AcDbText
  0
LINE
  5
2AD
330
17
100
AcDbEntity
  8
钻孔
 62
4
100
AcDbLine
 10
470094.912
 20
4349760.476
 30
0.0
 11
470096.512
 21
4349760.476
 31
0.0
  0
LINE
  5
2AE
330
17
100
AcDbEntity
  8
钻孔
 62
4
100
AcDbLine
 10
470095.712
 20
4349759.676
 30
0.0
 11
470095.712
 21
4349761.276
 31
0.0
  0
LINE
  5
2AF
330
17
100
AcDbEntity
  8
钻孔
 62
4
100
AcDbLine
 10
470095.712
 20
4349760.476
 30
0.0
 11
470100.712
 21
4349760.476
 31
0.0
  0
TEXT
  5
2B0
330
17
100
AcDbEntity
  8
钻孔
 62
138
100
AcDbText
 10
470101.112
 20
4349760.476
 30
0.0
 40
0.4
  1
BS-3940-1008-P14
  7
CN_TTF
 11
470101.112
 21
4349760.476
 31
0.0
100
AcDbText
  0
TEXT
  5
2B1
330
17
100
AcDbEntity
  8
钻孔
 62
4
100
AcDbText
 10
470101.112
 20
4349761.476
 30
0.0
 40
0.7
  1
0.67
  7
CN_TTF
 11
470101.112
 21
4349761.476
 31
0.0
100
AcDbText
  0
LINE
  5
2B2
330
17
100
AcDbEntity
  8
钻孔
 62
8
100
AcDbLine
 10
470102.408
 20
4349762.47
 30
0.0
 11
470104.008
 21
4349762.47
 31
0.0
  0
LINE
  5
2B3
330
17
100
AcDbEntity
  8
钻孔
 62
8
100
AcDbLine
 10
470103.208
 20
4349761.67
 30
0.0
 11
470103.208
 21
4349763.27
 31
0.0
  0
LINE
  5
2B4
330
17
100
AcDbEntity
  8
钻孔
 62
8
100
AcDbLine
 10
470103.208
 20
4349762.47
 30
0.0
 11
470108.208
 21
4349762.47
 31
0.0
  0
TEXT
  5
2B5
330
17
100
AcDbEntity
  8
钻孔
 62
138
100
AcDbText
 10
470108.608
 20
4349762.47
 30
0.0
 40
0.4
  1
BS-3940-1008-P15
  7
CN_TTF
 11
470108.608
 21
4349762.47
 31
0.0
100
AcDbText
  0
TEXT
  5
2B6
330
17
100
AcDbEntity
  8
钻孔
 62
8
100
AcDbText
 10
470108.608
 20
4349763.47
 30
0.0
 40
0.7
  1
0.11
  7
CN_TTF
 11
470108.608
 21
4349763.47
 31
0.0
100
AcDbText
  0
LINE
  5
2B7
330
17
100
AcDbEntity
  8
钻孔
 62
8
100
AcDbLine
 10
470107.25
 20
4349760.481
 30
0.0
 11
470108.85
 21
4349760.481
 31
0.0
  0
LINE
  5
2B8
330
17
100
AcDbEntity
  8
钻孔
 62
8
100
AcDbLine
 10
470108.05
 20
4349759.681
 30
0.0
 11
470108.05
 21
4349761.2809999995
 31
0.0
  0
LINE
  5
2B9
330
17
100
AcDbEntity
  8
钻孔
 62
8
100
AcDbLine
 10
470108.05
 20
4349760.481
 30
0.0
 11
470113.05
 21
4349760.481
 31
0.0
  0
TEXT
  5
2BA
330
17
100
AcDbEntity
  8
钻孔
 62
138
100
AcDbText
 10
470113.45
 20
4349760.481
 30
0.0
 40
0.4
  1
BS-3940-1008-P16
  7
CN_TTF
 11
470113.45
 21
4349760.481
 31
0.0
100
AcDbText
  0
TEXT
  5
2BB
330
17
100
AcDbEntity
  8
钻孔
 62
8
100
AcDbText
 10
470113.45
 20
4349761.481
 30
0.0
 40
0.7
  1
0.17
  7
CN_TTF
 11
470113.45
 21
4349761.481
 31
0.0
100
AcDbText
  0
LINE
  5
2BC
330
17
100
AcDbEntity
  8
钻孔
 62
8
100
AcDbLine
 10
470111.16500000004
 20
4349758.65
 30
0.0
 11
470112.765
 21
4349758.65
 31
0.0
  0
LINE
  5
2BD
330
17
100
AcDbEntity
  8
钻孔
 62
8
100
AcDbLine
 10
470111.965
 20
4349757.850000001
 30
0.0
 11
470111.965
 21
4349759.45
 31
0.0
  0
LINE
  5
2BE
330
17
100
AcDbEntity
  8
钻孔
 62
8
100
AcDbLine
 10
470111.965
 20
4349758.65
 30
0.0
 11
470116.965
 21
4349758.65
 31
0.0
  0
TEXT
  5
2BF
330
17
100
AcDbEntity
  8
钻孔
 62
138
100
AcDbText
 10
470117.36500000005
 20
4349758.65
 30
0.0
 40
0.4
  1
BS-3940-1008-P17
  7
CN_TTF
 11
470117.36500000005
 21
4349758.65
 31
0.0
100
AcDbText
  0
TEXT
  5
2C0
330
17
100
AcDbEntity
  8
钻孔
 62
8
100
AcDbText
 10
470117.36500000005
 20
4349759.65
 30
0.0
 40
0.7
  1
0.12
  7
CN_TTF
 11
470117.36500000005
 21
4349759.65
 31
0.0
100
AcDbText
  0
LINE
  5
2C1
330
17
100
AcDbEntity
  8
钻孔
 62
8
100
AcDbLine
 10
470111.74100000004
 20
4349754.645
 30
0.0
 11
470113.341
 21
4349754.645
 31
0.0
  0
LINE
  5
2C2
330
17
100
AcDbEntity
  8
钻孔
 62
8
100
AcDbLine
 10
470112.541
 20
4349753.845
 30
0.0
 11
470112.541
 21
4349755.444999999
 31
0.0
  0
LINE
  5
2C3
330
17
100
AcDbEntity
  8
钻孔
 62
8
100
AcDbLine
 10
470112.541
 20
4349754.645
 30
0.0
 11
470117.541
 21
4349754.645
 31
0.0
  0
TEXT
  5
2C4
330
17
100
AcDbEntity
  8
钻孔
 62
138
100
AcDbText
 10
470117.94100000005
 20
4349754.645
 30
0.0
 40
0.4
  1
BS-3940-1008-P18
  7
CN_TTF
 11
470117.94100000005
 21
4349754.645
 31
0.0
100
AcDbText
  0
TEXT
  5
2C5
330
17
100
AcDbEntity
  8
钻孔
 62
8
100
AcDbText
 10
470117.94100000005
 20
4349755.645
 30
0.0
 40
0.7
  1
0.17
  7
CN_TTF
 11
470117.94100000005
 21
4349755.645
 31
0.0
100
AcDbText
  0
LINE
  5
2C6
330
17
100
AcDbEntity
  8
钻孔
 62
8
100
AcDbLine
 10
470110.36
 20
4349764.446
 30
0.0
 11
470111.95999999996
 21
4349764.446
 31
0.0
  0
LINE
  5
2C7
330
17
100
AcDbEntity
  8
钻孔
 62
8
100
AcDbLine
 10
470111.16
 20
4349763.646000001
 30
0.0
 11
470111.16
 21
4349765.246
 31
0.0
  0
LINE
  5
2C8
330
17
100
AcDbEntity
  8
钻孔
 62
8
100
AcDbLine
 10
470111.16
 20
4349764.446
 30
0.0
 11
470116.16
 21
4349764.446
 31
0.0
  0
TEXT
  5
2C9
330
17
100
AcDbEntity
  8
钻孔
 62
138
100
AcDbText
 10
470116.56
 20
4349764.446
 30
0.0
 40
0.4
  1
BS-3940-1008-P19
  7
CN_TTF
 11
470116.56
 21
4349764.446
 31
0.0
100
AcDbText
  0
TEXT
  5
2CA
330
17
100
AcDbEntity
  8
钻孔
 62
8
100
AcDbText
 10
470116.56
 20
4349765.446
 30
0.0
 40
0.7
  1
0.11
  7
CN_TTF
 11
470116.56
 21
4349765.446
 31
0.0
100
AcDbText
  0
LINE
  5
2CB
330
17
100
AcDbEntity
  8
钻孔
 62
8
100
AcDbLine
 10
470111.37
 20
4349768.548
 30
0.0
 11
470112.97
 21
4349768.548
 31
0.0
  0
LINE
  5
2CC
330
17
100
AcDbEntity
  8
钻孔
 62
8
100
AcDbLine
 10
470112.17
 20
4349767.748000001
 30
0.0
 11
470112.17
 21
4349769.348
 31
0.0
  0
LINE
  5
2CD
330
17
100
AcDbEntity
  8
钻孔
 62
8
100
AcDbLine
 10
470112.17
 20
4349768.548
 30
0.0
 11
470117.17
 21
4349768.548
 31
0.0
  0
TEXT
  5
2CE
330
17
100
AcDbEntity
  8
钻孔
 62
138
100
AcDbText
 10
470117.57
 20
4349768.548
 30
0.0
 40
0.4
  1
BS-3940-1008-P20
  7
CN_TTF
 11
470117.57
 21
4349768.548
 31
0.0
100
AcDbText
  0
TEXT
  5
2CF
330
17
100
AcDbEntity
  8
钻孔
 62
8
100
AcDbText
 10
470117.57
 20
4349769.548
 30
0.0
 40
0.7
  1
0.15
  7
CN_TTF
 11
470117.57
 21
4349769.548
 31
0.0
100
AcDbText
  0
LINE
  5
2D0
330
17
100
AcDbEntity
  8
钻孔
 62
8
100
AcDbLine
 10
470105.485
 20
4349766.593
 30
0.0
 11
470107.08499999996
 21
4349766.593
 31
0.0
  0
LINE
  5
2D1
330
17
100
AcDbEntity
  8
钻孔
 62
8
100
AcDbLine
 10
470106.285
 20
4349765.7930000005
 30
0.0
 11
470106.285
 21
4349767.393
 31
0.0
  0
LINE
  5
2D2
330
17
100
AcDbEntity
  8
钻孔
 62
8
100
AcDbLine
 10
470106.285
 20
4349766.593
 30
0.0
 11
470111.285
 21
4349766.593
 31
0.0
  0
TEXT
  5
2D3
330
17
100
AcDbEntity
  8
钻孔
 62
138
100
AcDbText
 10
470111.685
 20
4349766.593
 30
0.0
 40
0.4
  1
BS-3940-1008-P21
  7
CN_TTF
 11
470111.685
 21
4349766.593
 31
0.0
100
AcDbText
  0
TEXT
  5
2D4
330
17
100
AcDbEntity
  8
钻孔
 62
8
100
AcDbText
 10
470111.685
 20
4349767.593
 30
0.0
 40
0.7
  1
0.09
  7
CN_TTF
 11
470111.685
 21
4349767.593
 31
0.0
100
AcDbText
  0
LINE
  5
2D5
330
17
100
AcDbEntity
  8
钻孔
 62
8
100
AcDbLine
 10
470097.697
 20
4349765.264
 30
0.0
 11
470099.29699999996
 21
4349765.264
 31
0.0
  0
LINE
  5
2D6
330
17
100
AcDbEntity
  8
钻孔
 62
8
100
AcDbLine
 10
470098.497
 20
4349764.464000001
 30
0.0
 11
470098.497
 21
4349766.064
 31
0.0
  0
LINE
  5
2D7
330
17
100
AcDbEntity
  8
钻孔
 62
8
100
AcDbLine
 10
470098.497
 20
4349765.264
 30
0.0
 11
470103.497
 21
4349765.264
 31
0.0
  0
TEXT
  5
2D8
330
17
100
AcDbEntity
  8
钻孔
 62
138
100
AcDbText
 10
470103.897
 20
4349765.264
 30
0.0
 40
0.4
  1
BS-3940-1008-P22
  7
CN_TTF
 11
470103.897
 21
4349765.264
 31
0.0
100
AcDbText
  0
TEXT
  5
2D9
330
17
100
AcDbEntity
  8
钻孔
 62
8
100
AcDbText
 10
470103.897
 20
4349766.264
 30
0.0
 40
0.7
  1
0.15
  7
CN_TTF
 11
470103.897
 21
4349766.264
 31
0.0
100
AcDbText
  0
LINE
  5
2DA
330
17
100
AcDbEntity
  8
钻孔
 62
4
100
AcDbLine
 10
470093.43
 20
4349767.036
 30
0.0
 11
470095.02999999997
 21
4349767.036
 31
0.0
  0
LINE
  5
2DB
330
17
100
AcDbEntity
  8
钻孔
 62
4
100
AcDbLine
 10
470094.23
 20
4349766.2360000005
 30
0.0
 11
470094.23
 21
4349767.836
 31
0.0
  0
LINE
  5
2DC
330
17
100
AcDbEntity
  8
钻孔
 62
4
100
AcDbLine
 10
470094.23
 20
4349767.036
 30
0.0
 11
470099.23
 21
4349767.036
 31
0.0
  0
TEXT
  5
2DD
330
17
100
AcDbEntity
  8
钻孔
 62
138
100
AcDbText
 10
470099.63
 20
4349767.036
 30
0.0
 40
0.4
  1
BS-3940-1008-P23
  7
CN_TTF
 11
470099.63
 21
4349767.036
 31
0.0
100
AcDbText
  0
TEXT
  5
2DE
330
17
100
AcDbEntity
  8
钻孔
 62
4
100
AcDbText
 10
470099.63
 20
4349768.036
 30
0.0
 40
0.7
  1
0.69
  7
CN_TTF
 11
470099.63
 21
4349768.036
 31
0.0
100
AcDbText
  0
LINE
  5
2DF
330
17
100
AcDbEntity
  8
钻孔
 62
8
100
AcDbLine
 10
470096.09500000003
 20
4349771.532
 30
0.0
 11
470097.695
 21
4349771.532
 31
0.0
  0
LINE
  5
2E0
330
17
100
AcDbEntity
  8
钻孔
 62
8
100
AcDbLine
 10
470096.895
 20
4349770.732
 30
0.0
 11
470096.895
 21
4349772.3319999995
 31
0.0
  0
LINE
  5
2E1
330
17
100
AcDbEntity
  8
钻孔
 62
8
100
AcDbLine
 10
470096.895
 20
4349771.532
 30
0.0
 11
470101.895
 21
4349771.532
 31
0.0
  0
TEXT
  5
2E2
330
17
100
AcDbEntity
  8
钻孔
 62
138
100
AcDbText
 10
470102.29500000004
 20
4349771.532
 30
0.0
 40
0.4
  1
BS-3940-1008-P24
  7
CN_TTF
 11
470102.29500000004
 21
4349771.532
 31
0.0
100
AcDbText
  0
TEXT
  5
2E3
330
17
100
AcDbEntity
  8
钻孔
 62
8
100
AcDbText
 10
470102.29500000004
 20
4349772.532
 30
0.0
 40
0.7
  1
0.17
  7
CN_TTF
 11
470102.29500000004
 21
4349772.532
 31
0.0
100
AcDbText
  0
LINE
  5
2E4
330
17
100
AcDbEntity
  8
钻孔
 62
8
100
AcDbLine
 10
470096.16500000004
 20
4349771.688
 30
0.0
 11
470097.765
 21
4349771.688
 31
0.0
  0
LINE
  5
2E5
330
17
100
AcDbEntity
  8
钻孔
 62
8
100
AcDbLine
 10
470096.965
 20
4349770.888
 30
0.0
 11
470096.965
 21
4349772.488
 31
0.0
  0
LINE
  5
2E6
330
17
100
AcDbEntity
  8
钻孔
 62
8
100
AcDbLine
 10
470096.965
 20
4349771.688
 30
0.0
 11
470101.965
 21
4349771.688
 31
0.0
  0
TEXT
  5
2E7
330
17
100
AcDbEntity
  8
钻孔
 62
138
100
AcDbText
 10
470102.36500000005
 20
4349771.688
 30
0.0
 40
0.4
  1
BS-3940-1008-P25
  7
CN_TTF
 11
470102.36500000005
 21
4349771.688
 31
0.0
100
AcDbText
  0
TEXT
  5
2E8
330
17
100
AcDbEntity
  8
钻孔
 62
8
100
AcDbText
 10
470102.36500000005
 20
4349772.688
 30
0.0
 40
0.7
  1
0.16
  7
CN_TTF
 11
470102.36500000005
 21
4349772.688
 31
0.0
100
AcDbText
  0
LINE
  5
2E9
330
17
100
AcDbEntity
  8
钻孔
 62
8
100
AcDbLine
 10
470100.164
 20
4349770.613
 30
0.0
 11
470101.76399999997
 21
4349770.613
 31
0.0
  0
LINE
  5
2EA
330
17
100
AcDbEntity
  8
钻孔
 62
8
100
AcDbLine
 10
470100.964
 20
4349769.813
 30
0.0
 11
470100.964
 21
4349771.413
 31
0.0
  0
LINE
  5
2EB
330
17
100
AcDbEntity
  8
钻孔
 62
8
100
AcDbLine
 10
470100.964
 20
4349770.613
 30
0.0
 11
470105.964
 21
4349770.613
 31
0.0
  0
TEXT
  5
2EC
330
17
100
AcDbEntity
  8
钻孔
 62
138
100
AcDbText
 10
470106.364
 20
4349770.613
 30
0.0
 40
0.4
  1
BS-3940-1008-P26
  7
CN_TTF
 11
470106.364
 21
4349770.613
 31
0.0
100
AcDbText
  0
TEXT
  5
2ED
330
17
100
AcDbEntity
  8
钻孔
 62
8
100
AcDbText
 10
470106.364
 20
4349771.613
 30
0.0
 40
0.7
  1
0.12
  7
CN_TTF
 11
470106.364
 21
4349771.613
 31
0.0
100
AcDbText
  0
LINE
  5
2EE
330
17
100
AcDbEntity
  8
钻孔
 62
8
100
AcDbLine
 10
470103.949
 20
4349773.513
 30
0.0
 11
470105.549
 21
4349773.513
 31
0.0
  0
LINE
  5
2EF
330
17
100
AcDbEntity
  8
钻孔
 62
8
100
AcDbLine
 10
470104.749
 20
4349772.713
 30
0.0
 11
470104.749
 21
4349774.313
 31
0.0
  0
LINE
  5
2F0
330
17
100
AcDbEntity
  8
钻孔
 62
8
100
AcDbLine
 10
470104.749
 20
4349773.513
 30
0.0
 11
470109.749
 21
4349773.513
 31
0.0
  0
TEXT
  5
2F1
330
17
100
AcDbEntity
  8
钻孔
 62
138
100
AcDbText
 10
470110.14900000003
 20
4349773.513
 30
0.0
 40
0.4
  1
BS-3940-1008-P27
  7
CN_TTF
 11
470110.14900000003
 21
4349773.513
 31
0.0
100
AcDbText
  0
TEXT
  5
2F2
330
17
100
AcDbEntity
  8
钻孔
 62
8
100
AcDbText
 10
470110.14900000003
 20
4349774.513
 30
0.0
 40
0.7
  1
0.12
  7
CN_TTF
 11
470110.14900000003
 21
4349774.513
 31
0.0
100
AcDbText
  0
LINE
  5
2F3
330
17
100
AcDbEntity
  8
钻孔
 62
8
100
AcDbLine
 10
470108.537
 20
4349771.284
 30
0.0
 11
470110.137
 21
4349771.284
 31
0.0
  0
LINE
  5
2F4
330
17
100
AcDbEntity
  8
钻孔
 62
8
100
AcDbLine
 10
470109.337
 20
4349770.484
 30
0.0
 11
470109.337
 21
4349772.084
 31
0.0
  0
LINE
  5
2F5
330
17
100
AcDbEntity
  8
钻孔
 62
8
100
AcDbLine
 10
470109.337
 20
4349771.284
 30
0.0
 11
470114.337
 21
4349771.284
 31
0.0
  0
TEXT
  5
2F6
330
17
100
AcDbEntity
  8
钻孔
 62
138
100
AcDbText
 10
470114.737
 20
4349771.284
 30
0.0
 40
0.4
  1
BS-3940-1008-P28
  7
CN_TTF
 11
470114.737
 21
4349771.284
 31
0.0
100
AcDbText
  0
TEXT
  5
2F7
330
17
100
AcDbEntity
  8
钻孔
 62
8
100
AcDbText
 10
470114.737
 20
4349772.284
 30
0.0
 40
0.7
  1
0.13
  7
CN_TTF
 11
470114.737
 21
4349772.284
 31
0.0
100
AcDbText
  0
LINE
  5
2F8
330
17
100
AcDbEntity
  8
钻孔
 62
8
100
AcDbLine
 10
470110.526
 20
4349775.374
 30
0.0
 11
470112.126
 21
4349775.374
 31
0.0
  0
LINE
  5
2F9
330
17
100
AcDbEntity
  8
钻孔
 62
8
100
AcDbLine
 10
470111.326
 20
4349774.574
 30
0.0
 11
470111.326
 21
4349776.174
 31
0.0
  0
LINE
  5
2FA
330
17
100
AcDbEntity
  8
钻孔
 62
8
100
AcDbLine
 10
470111.326
 20
4349775.374
 30
0.0
 11
470116.326
 21
4349775.374
 31
0.0
  0
TEXT
  5
2FB
330
17
100
AcDbEntity
  8
钻孔
 62
138
100
AcDbText
 10
470116.726
 20
4349775.374
 30
0.0
 40
0.4
  1
BS-3940-1008-P29
  7
CN_TTF
 11
470116.726
 21
4349775.374
 31
0.0
100
AcDbText
  0
TEXT
  5
2FC
330
17
100
AcDbEntity
  8
钻孔
 62
8
100
AcDbText
 10
470116.726
 20
4349776.374
 30
0.0
 40
0.7
  1
0.14
  7
CN_TTF
 11
470116.726
 21
4349776.374
 31
0.0
100
AcDbText
  0
LINE
  5
2FD
330
17
100
AcDbEntity
  8
钻孔
 62
8
100
AcDbLine
 10
470107.395
 20
4349777.919
 30
0.0
 11
470108.995
 21
4349777.919
 31
0.0
  0
LINE
  5
2FE
330
17
100
AcDbEntity
  8
钻孔
 62
8
100
AcDbLine
 10
470108.195
 20
4349777.119
 30
0.0
 11
470108.195
 21
4349778.719
 31
0.0
  0
LINE
  5
2FF
330
17
100
AcDbEntity
  8
钻孔
 62
8
100
AcDbLine
 10
470108.195
 20
4349777.919
 30
0.0
 11
470113.195
 21
4349777.919
 31
0.0
  0
TEXT
  5
300
330
17
100
AcDbEntity
  8
钻孔
 62
138
100
AcDbText
 10
470113.59500000003
 20
4349777.919
 30
0.0
 40
0.4
  1
BS-3940-1008-P30
  7
CN_TTF
 11
470113.59500000003
 21
4349777.919
 31
0.0
100
AcDbText
  0
TEXT
  5
301
330
17
100
AcDbEntity
  8
钻孔
 62
8
100
AcDbText
 10
470113.59500000003
 20
4349778.919
 30
0.0
 40
0.7
  1
0.10
  7
CN_TTF
 11
470113.59500000003
 21
4349778.919
 31
0.0
100
AcDbText
  0
LINE
  5
302
330
17
100
AcDbEntity
  8
钻孔
 62
8
100
AcDbLine
 10
470109.21400000004
 20
4349782.067
 30
0.0
 11
470110.814
 21
4349782.067
 31
0.0
  0
LINE
  5
303
330
17
100
AcDbEntity
  8
钻孔
 62
8
100
AcDbLine
 10
470110.014
 20
4349781.267
 30
0.0
 11
470110.014
 21
4349782.867
 31
0.0
  0
LINE
  5
304
330
17
100
AcDbEntity
  8
钻孔
 62
8
100
AcDbLine
 10
470110.014
 20
4349782.067
 30
0.0
 11
470115.014
 21
4349782.067
 31
0.0
  0
TEXT
  5
305
330
17
100
AcDbEntity
  8
钻孔
 62
138
100
AcDbText
 10
470115.41400000005
 20
4349782.067
 30
0.0
 40
0.4
  1
BS-3940-1008-P31
  7
CN_TTF
 11
470115.41400000005
 21
4349782.067
 31
0.0
100
AcDbText
  0
TEXT
  5
306
330
17
100
AcDbEntity
  8
钻孔
 62
8
100
AcDbText
 10
470115.41400000005
 20
4349783.067
 30
0.0
 40
0.7
  1
0.16
  7
CN_TTF
 11
470115.41400000005
 21
4349783.067
 31
0.0
100
AcDbText
  0
LINE
  5
307
330
17
100
AcDbEntity
  8
钻孔
 62
8
100
AcDbLine
 10
470105.67600000004
 20
4349784.833
 30
0.0
 11
470107.276
 21
4349784.833
 31
0.0
  0
LINE
  5
308
330
17
100
AcDbEntity
  8
钻孔
 62
8
100
AcDbLine
 10
470106.476
 20
4349784.033
 30
0.0
 11
470106.476
 21
4349785.632999999
 31
0.0
  0
LINE
  5
309
330
17
100
AcDbEntity
  8
钻孔
 62
8
100
AcDbLine
 10
470106.476
 20
4349784.833
 30
0.0
 11
470111.476
 21
4349784.833
 31
0.0
  0
TEXT
  5
30A
330
17
100
AcDbEntity
  8
钻孔
 62
138
100
AcDbText
 10
470111.87600000005
 20
4349784.833
 30
0.0
 40
0.4
  1
BS-3940-1008-P32
  7
CN_TTF
 11
470111.87600000005
 21
4349784.833
 31
0.0
100
AcDbText
  0
TEXT
  5
30B
330
17
100
AcDbEntity
  8
钻孔
 62
8
100
AcDbText
 10
470111.87600000005
 20
4349785.833
 30
0.0
 40
0.7
  1
0.14
  7
CN_TTF
 11
470111.87600000005
 21
4349785.833
 31
0.0
100
AcDbText
  0
LINE
  5
30C
330
17
100
AcDbEntity
  8
钻孔
 62
8
100
AcDbLine
 10
470102.167
 20
4349780.452
 30
0.0
 11
470103.767
 21
4349780.452
 31
0.0
  0
LINE
  5
30D
330
17
100
AcDbEntity
  8
钻孔
 62
8
100
AcDbLine
 10
470102.967
 20
4349779.652
 30
0.0
 11
470102.967
 21
4349781.251999999
 31
0.0
  0
LINE
  5
30E
330
17
100
AcDbEntity
  8
钻孔
 62
8
100
AcDbLine
 10
470102.967
 20
4349780.452
 30
0.0
 11
470107.967
 21
4349780.452
 31
0.0
  0
TEXT
  5
30F
330
17
100
AcDbEntity
  8
钻孔
 62
138
100
AcDbText
 10
470108.367
 20
4349780.452
 30
0.0
 40
0.4
  1
BS-3940-1008-P33
  7
CN_TTF
 11
470108.367
 21
4349780.452
 31
0.0
100
AcDbText
  0
TEXT
  5
310
330
17
100
AcDbEntity
  8
钻孔
 62
8
100
AcDbText
 10
470108.367
 20
4349781.452
 30
0.0
 40
0.7
  1
0.15
  7
CN_TTF
 11
470108.367
 21
4349781.452
 31
0.0
100
AcDbText
  0
LINE
  5
311
330
17
100
AcDbEntity
  8
钻孔
 62
8
100
AcDbLine
 10
470098.726
 20
4349776.278
 30
0.0
 11
470100.326
 21
4349776.278
 31
0.0
  0
LINE
  5
312
330
17
100
AcDbEntity
  8
钻孔
 62
8
100
AcDbLine
 10
470099.526
 20
4349775.478
 30
0.0
 11
470099.526
 21
4349777.078
 31
0.0
  0
LINE
  5
313
330
17
100
AcDbEntity
  8
钻孔
 62
8
100
AcDbLine
 10
470099.526
 20
4349776.278
 30
0.0
 11
470104.526
 21
4349776.278
 31
0.0
  0
TEXT
  5
314
330
17
100
AcDbEntity
  8
钻孔
 62
138
100
AcDbText
 10
470104.92600000004
 20
4349776.278
 30
0.0
 40
0.4
  1
BS-3940-1008-P34
  7
CN_TTF
 11
470104.92600000004
 21
4349776.278
 31
0.0
100
AcDbText
  0
TEXT
  5
315
330
17
100
AcDbEntity
  8
钻孔
 62
8
100
AcDbText
 10
470104.92600000004
 20
4349777.278
 30
0.0
 40
0.7
  1
0.17
  7
CN_TTF
 11
470104.92600000004
 21
4349777.278
 31
0.0
100
AcDbText
  0
LINE
  5
316
330
17
100
AcDbEntity
  8
钻孔
 62
8
100
AcDbLine
 10
470091.256
 20
4349774.187
 30
0.0
 11
470092.85599999997
 21
4349774.187
 31
0.0
  0
LINE
  5
317
330
17
100
AcDbEntity
  8
钻孔
 62
8
100
AcDbLine
 10
470092.056
 20
4349773.387
 30
0.0
 11
470092.056
 21
4349774.987
 31
0.0
  0
LINE
  5
318
330
17
100
AcDbEntity
  8
钻孔
 62
8
100
AcDbLine
 10
470092.056
 20
4349774.187
 30
0.0
 11
470097.056
 21
4349774.187
 31
0.0
  0
TEXT
  5
319
330
17
100
AcDbEntity
  8
钻孔
 62
138
100
AcDbText
 10
470097.456
 20
4349774.187
 30
0.0
 40
0.4
  1
BS-3940-1008-P35
  7
CN_TTF
 11
470097.456
 21
4349774.187
 31
0.0
100
AcDbText
  0
TEXT
  5
31A
330
17
100
AcDbEntity
  8
钻孔
 62
8
100
AcDbText
 10
470097.456
 20
4349775.187
 30
0.0
 40
0.7
  1
0.37
  7
CN_TTF
 11
470097.456
 21
4349775.187
 31
0.0
100
AcDbText
  0
LINE
  5
31B
330
17
100
AcDbEntity
  8
钻孔
 62
8
100
AcDbLine
 10
470094.137
 20
4349778.668
 30
0.0
 11
470095.73699999996
 21
4349778.668
 31
0.0
  0
LINE
  5
31C
330
17
100
AcDbEntity
  8
钻孔
 62
8
100
AcDbLine
 10
470094.937
 20
4349777.868
 30
0.0
 11
470094.937
 21
4349779.467999999
 31
0.0
  0
LINE
  5
31D
330
17
100
AcDbEntity
  8
钻孔
 62
8
100
AcDbLine
 10
470094.937
 20
4349778.668
 30
0.0
 11
470099.937
 21
4349778.668
 31
0.0
  0
TEXT
  5
31E
330
17
100
AcDbEntity
  8
钻孔
 62
138
100
AcDbText
 10
470100.337
 20
4349778.668
 30
0.0
 40
0.4
  1
BS-3940-1008-P36
  7
CN_TTF
 11
470100.337
 21
4349778.668
 31
0.0
100
AcDbText
  0
TEXT
  5
31F
330
17
100
AcDbEntity
  8
钻孔
 62
8
100
AcDbText
 10
470100.337
 20
4349779.668
 30
0.0
 40
0.7
  1
0.29
  7
CN_TTF
 11
470100.337
 21
4349779.668
 31
0.0
100
AcDbText
  0
LINE
  5
320
330
17
100
AcDbEntity
  8
钻孔
 62
8
100
AcDbLine
 10
470089.705
 20
4349781.011
 30
0.0
 11
470091.305
 21
4349781.011
 31
0.0
  0
LINE
  5
321
330
17
100
AcDbEntity
  8
钻孔
 62
8
100
AcDbLine
 10
470090.505
 20
4349780.211
 30
0.0
 11
470090.505
 21
4349781.811
 31
0.0
  0
LINE
  5
322
330
17
100
AcDbEntity
  8
钻孔
 62
8
100
AcDbLine
 10
470090.505
 20
4349781.011
 30
0.0
 11
470095.505
 21
4349781.011
 31
0.0
  0
TEXT
  5
323
330
17
100
AcDbEntity
  8
钻孔
 62
138
100
AcDbText
 10
470095.905
 20
4349781.011
 30
0.0
 40
0.4
  1
BS-3940-1008-P37
  7
CN_TTF
 11
470095.905
 21
4349781.011
 31
0.0
100
AcDbText
  0
TEXT
  5
324
330
17
100
AcDbEntity
  8
钻孔
 62
8
100
AcDbText
 10
470095.905
 20
4349782.011
 30
0.0
 40
0.7
  1
0.36
  7
CN_TTF
 11
470095.905
 21
4349782.011
 31
0.0
100
AcDbText
  0
LINE
  5
325
330
17
100
AcDbEntity
  8
钻孔
 62
8
100
AcDbLine
 10
470092.886
 20
4349785.104
 30
0.0
 11
470094.486
 21
4349785.104
 31
0.0
  0
LINE
  5
326
330
17
100
AcDbEntity
  8
钻孔
 62
8
100
AcDbLine
 10
470093.686
 20
4349784.3040000005
 30
0.0
 11
470093.686
 21
4349785.904
 31
0.0
  0
LINE
  5
327
330
17
100
AcDbEntity
  8
钻孔
 62
8
100
AcDbLine
 10
470093.686
 20
4349785.104
 30
0.0
 11
470098.686
 21
4349785.104
 31
0.0
  0
TEXT
  5
328
330
17
100
AcDbEntity
  8
钻孔
 62
138
100
AcDbText
 10
470099.086
 20
4349785.104
 30
0.0
 40
0.4
  1
BS-3940-1008-P38
  7
CN_TTF
 11
470099.086
 21
4349785.104
 31
0.0
100
AcDbText
  0
TEXT
  5
329
330
17
100
AcDbEntity
  8
钻孔
 62
8
100
AcDbText
 10
470099.086
 20
4349786.104
 30
0.0
 40
0.7
  1
0.27
  7
CN_TTF
 11
470099.086
 21
4349786.104
 31
0.0
100
AcDbText
  0
LINE
  5
32A
330
17
100
AcDbEntity
  8
钻孔
 62
8
100
AcDbLine
 10
470097.42600000004
 20
4349783.014
 30
0.0
 11
470099.026
 21
4349783.014
 31
0.0
  0
LINE
  5
32B
330
17
100
AcDbEntity
  8
钻孔
 62
8
100
AcDbLine
 10
470098.226
 20
4349782.214000001
 30
0.0
 11
470098.226
 21
4349783.814
 31
0.0
  0
LINE
  5
32C
330
17
100
AcDbEntity
  8
钻孔
 62
8
100
AcDbLine
 10
470098.226
 20
4349783.014
 30
0.0
 11
470103.226
 21
4349783.014
 31
0.0
  0
TEXT
  5
32D
330
17
100
AcDbEntity
  8
钻孔
 62
138
100
AcDbText
 10
470103.62600000005
 20
4349783.014
 30
0.0
 40
0.4
  1
BS-3940-1008-P39
  7
CN_TTF
 11
470103.62600000005
 21
4349783.014
 31
0.0
100
AcDbText
  0
TEXT
  5
32E
330
17
100
AcDbEntity
  8
钻孔
 62
8
100
AcDbText
 10
470103.62600000005
 20
4349784.014
 30
0.0
 40
0.7
  1
0.28
  7
CN_TTF
 11
470103.62600000005
 21
4349784.014
 31
0.0
100
AcDbText
  0
LINE
  5
32F
330
17
100
AcDbEntity
  8
钻孔
 62
8
100
AcDbLine
 10
470100.248
 20
4349787.151
 30
0.0
 11
470101.848
 21
4349787.151
 31
0.0
  0
LINE
  5
330
330
17
100
AcDbEntity
  8
钻孔
 62
8
100
AcDbLine
 10
470101.048
 20
4349786.351
 30
0.0
 11
470101.048
 21
4349787.950999999
 31
0.0
  0
LINE
  5
331
330
17
100
AcDbEntity
  8
钻孔
 62
8
100
AcDbLine
 10
470101.048
 20
4349787.151
 30
0.0
 11
470106.048
 21
4349787.151
 31
0.0
  0
TEXT
  5
332
330
17
100
AcDbEntity
  8
钻孔
 62
138
100
AcDbText
 10
470106.44800000003
 20
4349787.151
 30
0.0
 40
0.4
  1
BS-3940-1008-P40
  7
CN_TTF
 11
470106.44800000003
 21
4349787.151
 31
0.0
100
AcDbText
  0
TEXT
  5
333
330
17
100
AcDbEntity
  8
钻孔
 62
8
100
AcDbText
 10
470106.44800000003
 20
4349788.151
 30
0.0
 40
0.7
  1
0.21
  7
CN_TTF
 11
470106.44800000003
 21
4349788.151
 31
0.0
100
AcDbText
  0
LINE
  5
334
330
17
100
AcDbEntity
  8
钻孔
 62
8
100
AcDbLine
 10
470095.647
 20
4349789.58
 30
0.0
 11
470097.247
 21
4349789.58
 31
0.0
  0
LINE
  5
335
330
17
100
AcDbEntity
  8
钻孔
 62
8
100
AcDbLine
 10
470096.447
 20
4349788.78
 30
0.0
 11
470096.447
 21
4349790.38
 31
0.0
  0
LINE
  5
336
330
17
100
AcDbEntity
  8
钻孔
 62
8
100
AcDbLine
 10
470096.447
 20
4349789.58
 30
0.0
 11
470101.447
 21
4349789.58
 31
0.0
  0
TEXT
  5
337
330
17
100
AcDbEntity
  8
钻孔
 62
138
100
AcDbText
 10
470101.847
 20
4349789.58
 30
0.0
 40
0.4
  1
BS-3940-1008-P41
  7
CN_TTF
 11
470101.847
 21
4349789.58
 31
0.0
100
AcDbText
  0
TEXT
  5
338
330
17
100
AcDbEntity
  8
钻孔
 62
8
100
AcDbText
 10
470101.847
 20
4349790.58
 30
0.0
 40
0.7
  1
0.23
  7
CN_TTF
 11
470101.847
 21
4349790.58
 31
0.0
100
AcDbText
  0
LINE
  5
339
330
17
100
AcDbEntity
  8
钻孔
 62
8
100
AcDbLine
 10
470091.427
 20
4349791.899
 30
0.0
 11
470093.027
 21
4349791.899
 31
0.0
  0
LINE
  5
33A
330
17
100
AcDbEntity
  8
钻孔
 62
8
100
AcDbLine
 10
470092.227
 20
4349791.099
 30
0.0
 11
470092.227
 21
4349792.699
 31
0.0
  0
LINE
  5
33B
330
17
100
AcDbEntity
  8
钻孔
 62
8
100
AcDbLine
 10
470092.227
 20
4349791.899
 30
0.0
 11
470097.227
 21
4349791.899
 31
0.0
  0
TEXT
  5
33C
330
17
100
AcDbEntity
  8
钻孔
 62
138
100
AcDbText
 10
470097.62700000004
 20
4349791.899
 30
0.0
 40
0.4
  1
BS-3940-1008-P42
  7
CN_TTF
 11
470097.62700000004
 21
4349791.899
 31
0.0
100
AcDbText
  0
TEXT
  5
33D
330
17
100
AcDbEntity
  8
钻孔
 62
8
100
AcDbText
 10
470097.62700000004
 20
4349792.899
 30
0.0
 40
0.7
  1
0.31
  7
CN_TTF
 11
470097.62700000004
 21
4349792.899
 31
0.0
100
AcDbText
  0
LINE
  5
33E
330
17
100
AcDbEntity
  8
钻孔
 62
4
100
AcDbLine
 10
470088.04000000004
 20
4349787.739
 30
0.0
 11
470089.64
 21
4349787.739
 31
0.0
  0
LINE
  5
33F
330
17
100
AcDbEntity
  8
钻孔
 62
4
100
AcDbLine
 10
470088.84
 20
4349786.939
 30
0.0
 11
470088.84
 21
4349788.539
 31
0.0
  0
LINE
  5
340
330
17
100
AcDbEntity
  8
钻孔
 62
4
100
AcDbLine
 10
470088.84
 20
4349787.739
 30
0.0
 11
470093.84
 21
4349787.739
 31
0.0
  0
TEXT
  5
341
330
17
100
AcDbEntity
  8
钻孔
 62
138
100
AcDbText
 10
470094.24000000005
 20
4349787.739
 30
0.0
 40
0.4
  1
BS-3940-1008-P43
  7
CN_TTF
 11
470094.24000000005
 21
4349787.739
 31
0.0
100
AcDbText
  0
TEXT
  5
342
330
17
100
AcDbEntity
  8
钻孔
 62
4
100
AcDbText
 10
470094.24000000005
 20
4349788.739
 30
0.0
 40
0.7
  1
0.81
  7
CN_TTF
 11
470094.24000000005
 21
4349788.739
 31
0.0
100
AcDbText
  0
LINE
  5
343
330
17
100
AcDbEntity
  8
钻孔
 62
4
100
AcDbLine
 10
470088.017
 20
4349787.742
 30
0.0
 11
470089.61699999997
 21
4349787.742
 31
0.0
  0
LINE
  5
344
330
17
100
AcDbEntity
  8
钻孔
 62
4
100
AcDbLine
 10
470088.817
 20
4349786.942
 30
0.0
 11
470088.817
 21
4349788.541999999
 31
0.0
  0
LINE
  5
345
330
17
100
AcDbEntity
  8
钻孔
 62
4
100
AcDbLine
 10
470088.817
 20
4349787.742
 30
0.0
 11
470093.817
 21
4349787.742
 31
0.0
  0
TEXT
  5
346
330
17
100
AcDbEntity
  8
钻孔
 62
138
100
AcDbText
 10
470094.217
 20
4349787.742
 30
0.0
 40
0.4
  1
BS-3940-1008-P44
  7
CN_TTF
 11
470094.217
 21
4349787.742
 31
0.0
100
AcDbText
  0
TEXT
  5
347
330
17
100
AcDbEntity
  8
钻孔
 62
4
100
AcDbText
 10
470094.217
 20
4349788.742
 30
0.0
 40
0.7
  1
0.73
  7
CN_TTF
 11
470094.217
 21
4349788.742
 31
0.0
100
AcDbText
  0
LINE
  5
348
330
17
100
AcDbEntity
  8
钻孔
 62
8
100
AcDbLine
 10
470087.715
 20
4349795.119
 30
0.0
 11
470089.315
 21
4349795.119
 31
0.0
  0
LINE
  5
349
330
17
100
AcDbEntity
  8
钻孔
 62
8
100
AcDbLine
 10
470088.515
 20
4349794.319
 30
0.0
 11
470088.515
 21
4349795.919
 31
0.0
  0
LINE
  5
34A
330
17
100
AcDbEntity
  8
钻孔
 62
8
100
AcDbLine
 10
470088.515
 20
4349795.119
 30
0.0
 11
470093.515
 21
4349795.119
 31
0.0
  0
TEXT
  5
34B
330
17
100
AcDbEntity
  8
钻孔
 62
138
100
AcDbText
 10
470093.91500000004
 20
4349795.119
 30
0.0
 40
0.4
  1
BS-3940-1008-P45
  7
CN_TTF
 11
470093.91500000004
 21
4349795.119
 31
0.0
100
AcDbText
  0
TEXT
  5
34C
330
17
100
AcDbEntity
  8
钻孔
 62
8
100
AcDbText
 10
470093.91500000004
 20
4349796.119
 30
0.0
 40
0.7
  1
0.41
  7
CN_TTF
 11
470093.91500000004
 21
4349796.119
 31
0.0
100
AcDbText
  0
LINE
  5
34D
330
17
100
AcDbEntity
  8
钻孔
 62
8
100
AcDbLine
 10
470089.764
 20
4349797.971
 30
0.0
 11
470091.364
 21
4349797.971
 31
0.0
  0
LINE
  5
34E
330
17
100
AcDbEntity
  8
钻孔
 62
8
100
AcDbLine
 10
470090.564
 20
4349797.171
 30
0.0
 11
470090.564
 21
4349798.771
 31
0.0
  0
LINE
  5
34F
330
17
100
AcDbEntity
  8
钻孔
 62
8
100
AcDbLine
 10
470090.564
 20
4349797.971
 30
0.0
 11
470095.564
 21
4349797.971
 31
0.0
  0
TEXT
  5
350
330
17
100
AcDbEntity
  8
钻孔
 62
138
100
AcDbText
 10
470095.96400000004
 20
4349797.971
 30
0.0
 40
0.4
  1
BS-3940-1008-P46
  7
CN_TTF
 11
470095.96400000004
 21
4349797.971
 31
0.0
100
AcDbText
  0
TEXT
  5
351
330
17
100
AcDbEntity
  8
钻孔
 62
8
100
AcDbText
 10
470095.96400000004
 20
4349798.971
 30
0.0
 40
0.7
  1
0.25
  7
CN_TTF
 11
470095.96400000004
 21
4349798.971
 31
0.0
100
AcDbText
  0
LINE
  5
352
330
17
100
AcDbEntity
  8
钻孔
 62
4
100
AcDbLine
 10
470085.235
 20
4349801.444
 30
0.0
 11
470086.83499999996
 21
4349801.444
 31
0.0
  0
LINE
  5
353
330
17
100
AcDbEntity
  8
钻孔
 62
4
100
AcDbLine
 10
470086.035
 20
4349800.644
 30
0.0
 11
470086.035
 21
4349802.244
 31
0.0
  0
LINE
  5
354
330
17
100
AcDbEntity
  8
钻孔
 62
4
100
AcDbLine
 10
470086.035
 20
4349801.444
 30
0.0
 11
470091.035
 21
4349801.444
 31
0.0
  0
TEXT
  5
355
330
17
100
AcDbEntity
  8
钻孔
 62
138
100
AcDbText
 10
470091.435
 20
4349801.444
 30
0.0
 40
0.4
  1
BS-3940-1008-P47
  7
CN_TTF
 11
470091.435
 21
4349801.444
 31
0.0
100
AcDbText
  0
TEXT
  5
356
330
17
100
AcDbEntity
  8
钻孔
 62
4
100
AcDbText
 10
470091.435
 20
4349802.444
 30
0.0
 40
0.7
  1
0.52
  7
CN_TTF
 11
470091.435
 21
4349802.444
 31
0.0
100
AcDbText
  0
LINE
  5
357
330
17
100
AcDbEntity
  8
钻孔
 62
8
100
AcDbLine
 10
470086.804
 20
4349804.346
 30
0.0
 11
470088.404
 21
4349804.346
 31
0.0
  0
LINE
  5
358
330
17
100
AcDbEntity
  8
钻孔
 62
8
100
AcDbLine
 10
470087.604
 20
4349803.546
 30
0.0
 11
470087.604
 21
4349805.146
 31
0.0
  0
LINE
  5
359
330
17
100
AcDbEntity
  8
钻孔
 62
8
100
AcDbLine
 10
470087.604
 20
4349804.346
 30
0.0
 11
470092.604
 21
4349804.346
 31
0.0
  0
TEXT
  5
35A
330
17
100
AcDbEntity
  8
钻孔
 62
138
100
AcDbText
 10
470093.004
 20
4349804.346
 30
0.0
 40
0.4
  1
BS-3940-1008-P48
  7
CN_TTF
 11
470093.004
 21
4349804.346
 31
0.0
100
AcDbText
  0
TEXT
  5
35B
330
17
100
AcDbEntity
  8
钻孔
 62
8
100
AcDbText
 10
470093.004
 20
4349805.346
 30
0.0
 40
0.7
  1
0.27
  7
CN_TTF
 11
470093.004
 21
4349805.346
 31
0.0
100
AcDbText
  0
LINE
  5
35C
330
17
100
AcDbEntity
  8
钻孔
 62
8
100
AcDbLine
 10
470084.462
 20
4349806.781
 30
0.0
 11
470086.062
 21
4349806.781
 31
0.0
  0
LINE
  5
35D
330
17
100
AcDbEntity
  8
钻孔
 62
8
100
AcDbLine
 10
470085.262
 20
4349805.981000001
 30
0.0
 11
470085.262
 21
4349807.581
 31
0.0
  0
LINE
  5
35E
330
17
100
AcDbEntity
  8
钻孔
 62
8
100
AcDbLine
 10
470085.262
 20
4349806.781
 30
0.0
 11
470090.262
 21
4349806.781
 31
0.0
  0
TEXT
  5
35F
330
17
100
AcDbEntity
  8
钻孔
 62
138
100
AcDbText
 10
470090.662
 20
4349806.781
 30
0.0
 40
0.4
  1
BS-3940-1008-P49
  7
CN_TTF
 11
470090.662
 21
4349806.781
 31
0.0
100
AcDbText
  0
TEXT
  5
360
330
17
100
AcDbEntity
  8
钻孔
 62
8
100
AcDbText
 10
470090.662
 20
4349807.781
 30
0.0
 40
0.7
  1
0.24
  7
CN_TTF
 11
470090.662
 21
4349807.781
 31
0.0
100
AcDbText
  0
LINE
  5
361
330
17
100
AcDbEntity
  8
钻孔
 62
8
100
AcDbLine
 10
470092.538
 20
4349796.206
 30
0.0
 11
470094.138
 21
4349796.206
 31
0.0
  0
LINE
  5
362
330
17
100
AcDbEntity
  8
钻孔
 62
8
100
AcDbLine
 10
470093.338
 20
4349795.406
 30
0.0
 11
470093.338
 21
4349797.006
 31
0.0
  0
LINE
  5
363
330
17
100
AcDbEntity
  8
钻孔
 62
8
100
AcDbLine
 10
470093.338
 20
4349796.206
 30
0.0
 11
470098.338
 21
4349796.206
 31
0.0
  0
TEXT
  5
364
330
17
100
AcDbEntity
  8
钻孔
 62
138
100
AcDbText
 10
470098.738
 20
4349796.206
 30
0.0
 40
0.4
  1
BS-3940-1008-P50
  7
CN_TTF
 11
470098.738
 21
4349796.206
 31
0.0
100
AcDbText
  0
TEXT
  5
365
330
17
100
AcDbEntity
  8
钻孔
 62
8
100
AcDbText
 10
470098.738
 20
4349797.206
 30
0.0
 40
0.7
  1
0.27
  7
CN_TTF
 11
470098.738
 21
4349797.206
 31
0.0
100
AcDbText
  0
MTEXT
  5
366
330
17
100
AcDbEntity
  8
线条
100
AcDbMText
 10
470109.8250581751
 20
4349695.0398127595
 30
0.0
 40
4.0
 71
1
  1
1号矿块
  7
CN_SHX
  0
LINE
  5
367
330
17
100
AcDbEntity
  8
线条
 62
7
100
AcDbLine
 10
470106.485
 20
4349726.7
 30
0.0
 11
470109.8250581751
 21
4349695.0398127595
 31
0.0
  0
MTEXT
  5
368
330
17
100
AcDbEntity
  8
线条
100
AcDbMText
 10
470149.88707896246
 20
4349730.23712606
 30
0.0
 40
4.0
 71
1
  1
2号矿块
  7
CN_SHX
  0
LINE
  5
369
330
17
100
AcDbEntity
  8
线条
 62
7
100
AcDbLine
 10
470106.756
 20
4349734.012
 30
0.0
 11
470149.88707896246
 21
4349730.23712606
 31
0.0
  0
ENDSEC
  0
SECTION
  2
OBJECTS
  0
DICTIONARY
  5
A
330
0
100
AcDbDictionary
281
1
  3
ACAD_COLOR
350
B
  3
ACAD_GROUP
350
C
  3
ACAD_LAYOUT
350
D
  3
ACAD_MATERIAL
350
E
  3
ACAD_MLEADERSTYLE
350
F
  3
ACAD_MLINESTYLE
350
10
  3
ACAD_PLOTSETTINGS
350
11
  3
ACAD_PLOTSTYLENAME
350
12
  3
ACAD_SCALELIST
350
14
  3
ACAD_TABLESTYLE
350
15
  3
ACAD_VISUALSTYLE
350
16
  3
EZDXF_META
350
2D
  0
DICTIONARY
  5
B
330
A
100
AcDbDictionary
281
1
  0
DICTIONARY
  5
C
330
A
100
AcDbDictionary
281
1
  0
DICTIONARY
  5
D
330
A
100
AcDbDictionary
281
1
  3
Model
350
1A
  3
Layout1
350
1E
  0
DICTIONARY
  5
E
330
A
100
AcDbDictionary
281
1
  3
ByBlock
350
1F
  3
ByLayer
350
20
  3
Global
350
21
  0
DICTIONARY
  5
F
330
A
100
AcDbDictionary
281
1
  3
Standard
350
2C
  0
DICTIONARY
  5
10
330
A
100
AcDbDictionary
281
1
  3
Standard
350
22
  0
DICTIONARY
  5
11
330
A
100
AcDbDictionary
281
1
  0
ACDBDICTIONARYWDFLT
  5
12
330
A
100
AcDbDictionary
281
1
  3
Normal
350
13
100
AcDbDictionaryWithDefault
340
13
  0
ACDBPLACEHOLDER
  5
13
330
12
  0
DICTIONARY
  5
14
330
A
100
AcDbDictionary
281
1
  0
DICTIONARY
  5
15
330
A
100
AcDbDictionary
281
1
  0
DICTIONARY
  5
16
330
A
100
AcDbDictionary
281
1
  0
LAYOUT
  5
1A
330
D
100
AcDbPlotSettings
  1

  4
A3
  6

 40
7.5
 41
20.0
 42
7.5
 43
20.0
 44
420.0
 45
297.0
 46
0.0
 47
0.0
 48
0.0
 49
0.0
140
0.0
141
0.0
142
1.0
143
1.0
 70
1024
 72
1
 73
0
 74
5
  7

 75
16
 76
0
 77
2
 78
300
147
1.0
148
0.0
149
0.0
100
AcDbLayout
  1
Model
 70
1
 71
0
 10
0.0
 20
0.0
 11
420.0
 21
297.0
 12
0.0
 22
0.0
 32
0.0
 14
1e+20
 24
1e+20
 34
1e+20
 15
-1e+20
 25
-1e+20
 35
-1e+20
146
0.0
 13
0.0
 23
0.0
 33
0.0
 16
1.0
 26
0.0
 36
0.0
 17
0.0
 27
1.0
 37
0.0
 76
1
330
17
  0
LAYOUT
  5
1E
330
D
100
AcDbPlotSettings
  1

  4
A3
  6

 40
7.5
 41
20.0
 42
7.5
 43
20.0
 44
420.0
 45
297.0
 46
0.0
 47
0.0
 48
0.0
 49
0.0
140
0.0
141
0.0
142
1.0
143
1.0
 70
0
 72
1
 73
0
 74
5
  7

 75
16
 76
0
 77
2
 78
300
147
1.0
148
0.0
149
0.0
100
AcDbLayout
  1
Layout1
 70
1
 71
1
 10
0.0
 20
0.0
 11
420.0
 21
297.0
 12
0.0
 22
0.0
 32
0.0
 14
1e+20
 24
1e+20
 34
1e+20
 15
-1e+20
 25
-1e+20
 35
-1e+20
146
0.0
 13
0.0
 23
0.0
 33
0.0
 16
1.0
 26
0.0
 36
0.0
 17
0.0
 27
1.0
 37
0.0
 76
1
330
1B
  0
MATERIAL
  5
1F
102
{ACAD_REACTORS
330
E
102
}
330
E
100
AcDbMaterial
  1
ByBlock
  2

 70
0
 40
1.0
 71
1
 41
1.0
 91
-1023410177
 42
1.0
 72
1
  3

 73
1
 74
1
 75
1
 44
0.5
 73
0
 45
1.0
 46
1.0
 77
1
  4

 78
1
 79
1
170
1
 48
1.0
171
1
  6

172
1
173
1
174
1
140
1.0
141
1.0
175
1
  7

176
1
177
1
178
1
143
1.0
179
1
  8

270
1
271
1
272
1
145
1.0
146
1.0
273
1
  9

274
1
275
1
276
1
 42
1.0
 72
1
  3

 73
1
 74
1
 75
1
 94
63
  0
MATERIAL
  5
20
102
{ACAD_REACTORS
330
E
102
}
330
E
100
AcDbMaterial
  1
ByLayer
  2

 70
0
 40
1.0
 71
1
 41
1.0
 91
-1023410177
 42
1.0
 72
1
  3

 73
1
 74
1
 75
1
 44
0.5
 73
0
 45
1.0
 46
1.0
 77
1
  4

 78
1
 79
1
170
1
 48
1.0
171
1
  6

172
1
173
1
174
1
140
1.0
141
1.0
175
1
  7

176
1
177
1
178
1
143
1.0
179
1
  8

270
1
271
1
272
1
145
1.0
146
1.0
273
1
  9

274
1
275
1
276
1
 42
1.0
 72
1
  3

 73
1
 74
1
 75
1
 94
63
  0
MATERIAL
  5
21
102
{ACAD_REACTORS
330
E
102
}
330
E
100
AcDbMaterial
  1
Global
  2

 70
0
 40
1.0
 71
1
 41
1.0
 91
-1023410177
 42
1.0
 72
1
  3

 73
1
 74
1
 75
1
 44
0.5
 73
0
 45
1.0
 46
1.0
 77
1
  4

 78
1
 79
1
170
1
 48
1.0
171
1
  6

172
1
173
1
174
1
140
1.0
141
1.0
175
1
  7

176
1
177
1
178
1
143
1.0
179
1
  8

270
1
271
1
272
1
145
1.0
146
1.0
273
1
  9

274
1
275
1
276
1
 42
1.0
 72
1
  3

 73
1
 74
1
 75
1
 94
63
  0
MLINESTYLE
  5
22
102
{ACAD_REACTORS
330
10
102
}
330
10
100
AcDbMlineStyle
  2
Standard
 70
0
  3

 62
256
 51
90.0
 52
90.0
 71
2
 49
0.5
 62
256
  6
BYLAYER
 49
-0.5
 62
256
  6
BYLAYER
  0
MLEADERSTYLE
  5
2C
102
{ACAD_REACTORS
330
F
102
}
330
F
100
AcDbMLeaderStyle
179
2
170
2
171
1
172
0
 90
2
 40
0.0
 41
0.0
173
1
 91
-1056964608
 92
-2
290
1
 42
2.0
291
1
 43
8.0
  3
Standard
 44
4.0
300

342
29
174
1
175
1
176
0
178
1
 93
-1056964608
 45
4.0
292
0
297
0
 46
4.0
 94
-1056964608
 47
1.0
 49
1.0
140
1.0
294
1
141
0.0
177
0
142
1.0
295
0
296
0
143
3.75
271
0
272
9
273
9
  0
DICTIONARY
  5
2D
330
A
100
AcDbDictionary
280
1
281
1
  3
CREATED_BY_EZDXF
350
2E
  3
WRITTEN_BY_EZDXF
350
36C
  0
DICTIONARYVAR
  5
2E
330
2D
100
DictionaryVariables
280
0
  1
1.4.4 @ 2026-10-09T11:02:06.287708+00:00
  0
DICTIONARYVAR
  5
36C
330
2D
100
DictionaryVariables
280
0
  1
1.4.4 @ 2026-10-09T11:02:06.713247+00:00
  0
ENDSEC
  0
EOF
