  0
SECTION
  2
HEADER
  9
$ACADVER
  1
AC1024
  9
$ACADMAINTVER
 70
6
  9
$DWGCODEPAGE
  3
ANSI_1252
  9
$LASTSAVEDBY
  1
ezdxf
  9
$INSBASE
 10
0.0
 20
0.0
 30
0.0
  9
$EXTMIN
 10
1e+20
 20
1e+20
 30
1e+20
  9
$EXTMAX
 10
-1e+20
 20
-1e+20
 30
-1e+20
  9
$LIMMIN
 10
0.0
 20
0.0
  9
$LIMMAX
 10
420.0
 20
297.0
  9
$ORTHOMODE
 70
0
  9
$REGENMODE
 70
1
  9
$FILLMODE
 70
1
  9
$QTEXTMODE
 70
0
  9
$MIRRTEXT
 70
1
  9
$LTSCALE
 40
1.0
  9
$ATTMODE
 70
1
  9
$TEXTSIZE
 40
2.5
  9
$TRACEWID
 40
1.0
  9
$TEXTSTYLE
  7
Standard
  9
$CLAYER
  8
0
  9
$CELTYPE
  6
ByLayer
  9
$CECOLOR
 62
256
  9
$CELTSCALE
 40
1.0
  9
$DISPSILH
 70
0
  9
$DIMSCALE
 40
1.0
  9
$DIMASZ
 40
2.5
  9
$DIMEXO
 40
0.625
  9
$DIMDLI
 40
3.75
  9
$DIMRND
 40
0.0
  9
$DIMDLE
 40
0.0
  9
$DIMEXE
 40
1.25
  9
$DIMTP
 40
0.0
  9
$DIMTM
 40
0.0
  9
$DIMTXT
 40
2.5
  9
$DIMCEN
 40
2.5
  9
$DIMTSZ
 40
0.0
  9
$DIMTOL
 70
0
  9
$DIMLIM
 70
0
  9
$DIMTIH
 70
0
  9
$DIMTOH
 70
0
  9
$DIMSE1
 70
0
  9
$DIMSE2
 70
0
  9
$DIMTAD
 70
1
  9
$DIMZIN
 70
8
  9
$DIMBLK
  1

  9
$DIMASO
 70
1
  9
$DIMSHO
 70
1
  9
$DIMPOST
  1

  9
$DIMAPOST
  1

  9
$DIMALT
 70
0
  9
$DIMALTD
 70
3
  9
$DIMALTF
 40
0.03937007874
  9
$DIMLFAC
 40
1.0
  9
$DIMTOFL
 70
1
  9
$DIMTVP
 40
0.0
  9
$DIMTIX
 70
0
  9
$DIMSOXD
 70
0
  9
$DIMSAH
 70
0
  9
$DIMBLK1
  1

  9
$DIMBLK2
  1

  9
$DIMSTYLE
  2
ISO-25
  9
$DIMCLRD
 70
0
  9
$DIMCLRE
 70
0
  9
$DIMCLRT
 70
0
  9
$DIMTFAC
 40
1.0
  9
$DIMGAP
 40
0.625
  9
$DIMJUST
 70
0
  9
$DIMSD1
 70
0
  9
$DIMSD2
 70
0
  9
$DIMTOLJ
 70
0
  9
$DIMTZIN
 70
8
  9
$DIMALTZ
 70
0
  9
$DIMALTTZ
 70
0
  9
$DIMUPT
 70
0
  9
$DIMDEC
 70
2
  9
$DIMTDEC
 70
2
  9
$DIMALTU
 70
2
  9
$DIMALTTD
 70
3
  9
$DIMTXSTY
  7
Standard
  9
$DIMAUNIT
 70
0
  9
$DIMADEC
 70
0
  9
$DIMALTRND
 40
0.0
  9
$DIMAZIN
 70
0
  9
$DIMDSEP
 70
44
  9
$DIMATFIT
 70
3
  9
$DIMFRAC
 70
0
  9
$DIMLDRBLK
  1

  9
$DIMLUNIT
 70
2
  9
$DIMLWD
 70
-2
  9
$DIMLWE
 70
-2
  9
$DIMTMOVE
 70
0
  9
$DIMFXL
 40
1.0
  9
$DIMFXLON
 70
0
  9
$DIMJOGANG
 40
0.785398163397
  9
$DIMTFILL
 70
0
  9
$DIMTFILLCLR
 70
0
  9
$DIMARCSYM
 70
0
  9
$DIMLTYPE
  6

  9
$DIMLTEX1
  6

  9
$DIMLTEX2
  6

  9
$DIMTXTDIRECTION
 70
0
  9
$LUNITS
 70
2
  9
$LUPREC
 70
4
  9
$SKETCHINC
 40
1.0
  9
$FILLETRAD
 40
10.0
  9
$AUNITS
 70
0
  9
$AUPREC
 70
2
  9
$MENU
  1
.
  9
$ELEVATION
 40
0.0
  9
$PELEVATION
 40
0.0
  9
$THICKNESS
 40
0.0
  9
$LIMCHECK
 70
0
  9
$CHAMFERA
 40
0.0
  9
$CHAMFERB
 40
0.0
  9
$CHAMFERC
 40
0.0
  9
$CHAMFERD
 40
0.0
  9
$SKPOLY
 70
0
  9
$TDCREATE
 40
2461322.5683449074
  9
$TDUCREATE
 40
2458532.153996898
  9
$TDUPDATE
 40
2461322.5683449074
  9
$TDUUPDATE
 40
2458532.1544311
  9
$TDINDWG
 40
0.0
  9
$TDUSRTIMER
 40
0.0
  9
$USRTIMER
 70
1
  9
$ANGBASE
 50
0.0
  9
$ANGDIR
 70
0
  9
$PDMODE
 70
0
  9
$PDSIZE
 40
0.0
  9
$PLINEWID
 40
0.0
  9
$SPLFRAME
 70
0
  9
$SPLINETYPE
 70
6
  9
$SPLINESEGS
 70
8
  9
$HANDSEED
  5
159
  9
$SURFTAB1
 70
6
  9
$SURFTAB2
 70
6
  9
$SURFTYPE
 70
6
  9
$SURFU
 70
6
  9
$SURFV
 70
6
  9
$UCSBASE
  2

  9
$UCSNAME
  2

  9
$UCSORG
 10
0.0
 20
0.0
 30
0.0
  9
$UCSXDIR
 10
1.0
 20
0.0
 30
0.0
  9
$UCSYDIR
 10
0.0
 20
1.0
 30
0.0
  9
$UCSORTHOREF
  2

  9
$UCSORTHOVIEW
 70
0
  9
$UCSORGTOP
 10
0.0
 20
0.0
 30
0.0
  9
$UCSORGBOTTOM
 10
0.0
 20
0.0
 30
0.0
  9
$UCSORGLEFT
 10
0.0
 20
0.0
 30
0.0
  9
$UCSORGRIGHT
 10
0.0
 20
0.0
 30
0.0
  9
$UCSORGFRONT
 10
0.0
 20
0.0
 30
0.0
  9
$UCSORGBACK
 10
0.0
 20
0.0
 30
0.0
  9
$PUCSBASE
  2

  9
$PUCSNAME
  2

  9
$PUCSORG
 10
0.0
 20
0.0
 30
0.0
  9
$PUCSXDIR
 10
1.0
 20
0.0
 30
0.0
  9
$PUCSYDIR
 10
0.0
 20
1.0
 30
0.0
  9
$PUCSORTHOREF
  2

  9
$PUCSORTHOVIEW
 70
0
  9
$PUCSORGTOP
 10
0.0
 20
0.0
 30
0.0
  9
$PUCSORGBOTTOM
 10
0.0
 20
0.0
 30
0.0
  9
$PUCSORGLEFT
 10
0.0
 20
0.0
 30
0.0
  9
$PUCSORGRIGHT
 10
0.0
 20
0.0
 30
0.0
  9
$PUCSORGFRONT
 10
0.0
 20
0.0
 30
0.0
  9
$PUCSORGBACK
 10
0.0
 20
0.0
 30
0.0
  9
$USERI1
 70
0
  9
$USERI2
 70
0
  9
$USERI3
 70
0
  9
$USERI4
 70
0
  9
$USERI5
 70
0
  9
$USERR1
 40
0.0
  9
$USERR2
 40
0.0
  9
$USERR3
 40
0.0
  9
$USERR4
 40
0.0
  9
$USERR5
 40
0.0
  9
$WORLDVIEW
 70
1
  9
$SHADEDGE
 70
3
  9
$SHADEDIF
 70
70
  9
$TILEMODE
 70
1
  9
$MAXACTVP
 70
64
  9
$PINSBASE
 10
0.0
 20
0.0
 30
0.0
  9
$PLIMCHECK
 70
0
  9
$PEXTMIN
 10
1e+20
 20
1e+20
 30
1e+20
  9
$PEXTMAX
 10
-1e+20
 20
-1e+20
 30
-1e+20
  9
$PLIMMIN
 10
0.0
 20
0.0
  9
$PLIMMAX
 10
420.0
 20
297.0
  9
$UNITMODE
 70
0
  9
$VISRETAIN
 70
1
  9
$PLINEGEN
 70
0
  9
$PSLTSCALE
 70
1
  9
$TREEDEPTH
 70
3020
  9
$CMLSTYLE
  2
Standard
  9
$CMLJUST
 70
0
  9
$CMLSCALE
 40
20.0
  9
$PROXYGRAPHICS
 70
1
  9
$MEASUREMENT
 70
1
  9
$CELWEIGHT
370
-1
  9
$ENDCAPS
280
0
  9
$JOINSTYLE
280
0
  9
$LWDISPLAY
290
0
  9
$INSUNITS
 70
6
  9
$HYPERLINKBASE
  1

  9
$STYLESHEET
  1

  9
$XEDIT
290
1
  9
$CEPSNTYPE
380
0
  9
$PSTYLEMODE
290
1
  9
$FINGERPRINTGUID
  2
{F9760193-3759-439E-BC52-D7EAB87F16BE}
  9
$VERSIONGUID
  2
{9CFE6E01-163E-4857-86D3-C240131B6B00}
  9
$EXTNAMES
290
1
  9
$PSVPSCALE
 40
0.0
  9
$OLESTARTUP
290
0
  9
$SORTENTS
280
127
  9
$INDEXCTL
280
0
  9
$HIDETEXT
280
1
  9
$XCLIPFRAME
280
1
  9
$HALOGAP
280
0
  9
$OBSCOLOR
 70
257
  9
$OBSLTYPE
280
0
  9
$INTERSECTIONDISPLAY
280
0
  9
$INTERSECTIONCOLOR
 70
257
  9
$DIMASSOC
280
2
  9
$PROJECTNAME
  1

  9
$CAMERADISPLAY
290
0
  9
$LENSLENGTH
 40
50.0
  9
$CAMERAHEIGHT
 40
0.0
  9
$STEPSPERSEC
 40
24.0
  9
$STEPSIZE
 40
100.0
  9
$3DDWFPREC
 40
2.0
  9
$PSOLWIDTH
 40
0.005
  9
$PSOLHEIGHT
 40
0.08
  9
$LOFTANG1
 40
1.570796326795
  9
$LOFTANG2
 40
1.570796326795
  9
$LOFTMAG1
 40
0.0
  9
$LOFTMAG2
 40
0.0
  9
$LOFTPARAM
 70
7
  9
$LOFTNORMALS
280
1
  9
$LATITUDE
 40
37.795
  9
$LONGITUDE
 40
-122.394
  9
$NORTHDIRECTION
 40
0.0
  9
$TIMEZONE
 70
-8000
  9
$LIGHTGLYPHDISPLAY
280
1
  9
$TILEMODELIGHTSYNCH
280
1
  9
$CMATERIAL
347
20
  9
$SOLIDHIST
280
0
  9
$SHOWHIST
280
1
  9
$DWFFRAME
280
2
  9
$DGNFRAME
280
2
  9
$REALWORLDSCALE
290
1
  9
$INTERFERECOLOR
 62
256
  9
$CSHADOW
280
0
  9
$SHADOWPLANELOCATION
 40
0.0
  0
ENDSEC
  0
SECTION
  2
CLASSES
  0
CLASS
  1
ACDBDICTIONARYWDFLT
  2
AcDbDictionaryWithDefault
  3
ObjectDBX Classes
 90
0
 91
0
280
0
281
0
  0
CLASS
  1
SUN
  2
AcDbSun
  3
SCENEOE
 90
1153
 91
0
280
0
281
0
  0
CLASS
  1
VISUALSTYLE
  2
AcDbVisualStyle
  3
ObjectDBX Classes
 90
4095
 91
0
280
0
281
0
  0
CLASS
  1
MATERIAL
  2
AcDbMaterial
  3
ObjectDBX Classes
 90
1153
 91
0
280
0
281
0
  0
CLASS
  1
SCALE
  2
AcDbScale
  3
ObjectDBX Classes
 90
1153
 91
0
280
0
281
0
  0
CLASS
  1
TABLESTYLE
  2
AcDbTableStyle
  3
ObjectDBX Classes
 90
4095
 91
0
280
0
281
0
  0
CLASS
  1
MLEADERSTYLE
  2
AcDbMLeaderStyle
  3
ACDB_MLEADERSTYLE_CLASS
 90
4095
 91
0
280
0
281
0
  0
CLASS
  1
DICTIONARYVAR
  2
AcDbDictionaryVar
  3
ObjectDBX Classes
 90
0
 91
0
280
0
281
0
  0
CLASS
  1
CELLSTYLEMAP
  2
AcDbCellStyleMap
  3
ObjectDBX Classes
 90
1152
 91
0
280
0
281
0
  0
CLASS
  1
MENTALRAYRENDERSETTINGS
  2
AcDbMentalRayRenderSettings
  3
SCENEOE
 90
1024
 91
0
280
0
281
0
  0
CLASS
  1
ACDBDETAILVIEWSTYLE
  2
AcDbDetailViewStyle
  3
ObjectDBX Classes
 90
1025
 91
0
280
0
281
0
  0
CLASS
  1
ACDBSECTIONVIEWSTYLE
  2
AcDbSectionViewStyle
  3
ObjectDBX Classes
 90
1025
 91
0
280
0
281
0
  0
CLASS
  1
RASTERVARIABLES
  2
AcDbRasterVariables
  3
ISM
 90
0
 91
0
280
0
281
0
  0
CLASS
  1
ACDBPLACEHOLDER
  2
AcDbPlaceHolder
  3
ObjectDBX Classes
 90
0
 91
0
280
0
281
0
  0
CLASS
  1
LAYOUT
  2
AcDbLayout
  3
ObjectDBX Classes
 90
0
 91
0
280
0
281
0
  0
ENDSEC
  0
SECTION
  2
TABLES
  0
TABLE
  2
VPORT
  5
8
330
0
100
AcDbSymbolTable
 70
1
  0
VPORT
  5
23
330
8
100
AcDbSymbolTableRecord
100
AcDbViewportTableRecord
  2
*Active
 70
0
 10
0.0
 20
0.0
 11
1.0
 21
1.0
 12
0.0
 22
0.0
 13
0.0
 23
0.0
 14
0.5
 24
0.5
 15
0.5
 25
0.5
 16
0.0
 26
0.0
 36
1.0
 17
0.0
 27
0.0
 37
0.0
 40
1000.0
 41
1.34
 42
50.0
 43
0.0
 44
0.0
 50
0.0
 51
0.0
 71
0
 72
1000
 73
1
 74
3
 75
0
 76
0
 77
0
 78
0
281
0
 65
0
146
0.0
  0
ENDTAB
  0
TABLE
  2
LTYPE
  5
2
330
0
100
AcDbSymbolTable
 70
3
  0
LTYPE
  5
24
330
2
100
AcDbSymbolTableRecord
100
AcDbLinetypeTableRecord
  2
ByBlock
 70
0
  3

 72
65
 73
0
 40
0.0
  0
LTYPE
  5
25
330
2
100
AcDbSymbolTableRecord
100
AcDbLinetypeTableRecord
  2
ByLayer
 70
0
  3

 72
65
 73
0
 40
0.0
  0
LTYPE
  5
26
330
2
100
AcDbSymbolTableRecord
100
AcDbLinetypeTableRecord
  2
Continuous
 70
0
  3

 72
65
 73
0
 40
0.0
  0
ENDTAB
  0
TABLE
  2
LAYER
  5
1
330
0
100
AcDbSymbolTable
 70
10
  0
LAYER
  5
27
330
1
100
AcDbSymbolTableRecord
100
AcDbLayerTableRecord
  2
0
 70
0
 62
7
  6
Continuous
370
-3
390
13
347
21
  0
LAYER
  5
28
330
1
100
AcDbSymbolTableRecord
100
AcDbLayerTableRecord
  2
Defpoints
 70
0
 62
7
  6
Continuous
290
0
370
-3
390
13
347
21
  0
LAYER
  5
2F
330
1
100
AcDbSymbolTableRecord
100
AcDbLayerTableRecord
  2
TITLE
 70
0
 62
7
  6
Continuous
370
-3
390
13
347
21
  0
LAYER
  5
30
330
1
100
AcDbSymbolTableRecord
100
AcDbLayerTableRecord
  2
BLOCK_NO
 70
0
 62
7
  6
Continuous
370
-3
390
13
347
21
  0
LAYER
  5
31
330
1
100
AcDbSymbolTableRecord
100
AcDbLayerTableRecord
  2
DG_CUTOFF
 70
0
 62
7
  6
Continuous
370
-3
390
13
347
21
  0
LAYER
  5
32
330
1
100
AcDbSymbolTableRecord
100
AcDbLayerTableRecord
  2
DG_GRADE_L4
 70
0
 62
2
  6
Continuous
370
-3
390
13
347
21
  0
LAYER
  5
33
330
1
100
AcDbSymbolTableRecord
100
AcDbLayerTableRecord
  2
DG_GRID
 70
0
 62
8
  6
Continuous
370
-3
390
13
347
21
  0
LAYER
  5
34
330
1
100
AcDbSymbolTableRecord
100
AcDbLayerTableRecord
  2
DG_GRADE_L3
 70
0
 62
1
  6
Continuous
370
-3
390
13
347
21
  0
LAYER
  5
35
330
1
100
AcDbSymbolTableRecord
100
AcDbLayerTableRecord
  2
DG_GRADE_L2
 70
0
 62
5
  6
Continuous
370
-3
390
13
347
21
  0
LAYER
  5
36
330
1
100
AcDbSymbolTableRecord
100
AcDbLayerTableRecord
  2
DG_GRADE_L1
 70
0
 62
4
  6
Continuous
370
-3
390
13
347
21
  0
ENDTAB
  0
TABLE
  2
STYLE
  5
5
330
0
100
AcDbSymbolTable
 70
1
  0
STYLE
  5
29
330
5
100
AcDbSymbolTableRecord
100
AcDbTextStyleTableRecord
  2
Standard
 70
0
 40
0.0
 41
1.0
 50
0.0
 71
0
 42
2.5
  3
txt
  4

  0
ENDTAB
  0
TABLE
  2
VIEW
  5
7
330
0
100
AcDbSymbolTable
 70
0
  0
ENDTAB
  0
TABLE
  2
UCS
  5
6
330
0
100
AcDbSymbolTable
 70
0
  0
ENDTAB
  0
TABLE
  2
APPID
  5
3
330
0
100
AcDbSymbolTable
 70
3
  0
APPID
  5
2A
330
3
100
AcDbSymbolTableRecord
100
AcDbRegAppTableRecord
  2
ACAD
 70
0
  0
APPID
  5
156
330
3
100
AcDbSymbolTableRecord
100
AcDbRegAppTableRecord
  2
HATCHBACKGROUNDCOLOR
 70
0
  0
APPID
  5
157
330
3
100
AcDbSymbolTableRecord
100
AcDbRegAppTableRecord
  2
EZDXF
 70
0
  0
ENDTAB
  0
TABLE
  2
DIMSTYLE
  5
4
330
0
100
AcDbSymbolTable
 70
1
100
AcDbDimStyleTable
  0
DIMSTYLE
105
2B
330
4
100
AcDbSymbolTableRecord
100
AcDbDimStyleTableRecord
  2
Standard
 70
0
 40
1.0
 41
2.5
 42
0.625
 43
3.75
 44
1.25
 45
0.0
 46
0.0
 47
0.0
 48
0.0
 49
2.5
140
2.5
141
2.5
142
0.0
143
0.03937007874
144
1.0
145
0.0
146
1.0
147
0.625
148
0.0
 69
0
 70
0
 71
0
 72
0
 73
0
 74
0
 75
0
 76
0
 77
1
 78
8
 79
3
170
0
171
3
172
1
173
0
174
0
175
0
176
0
177
0
178
0
179
2
271
2
272
2
273
2
274
3
275
0
276
0
277
2
278
44
279
0
280
0
281
0
282
0
283
0
284
8
285
0
286
0
288
0
289
3
290
0
371
-2
372
-2
  0
ENDTAB
  0
TABLE
  2
BLOCK_RECORD
  5
9
330
0
100
AcDbSymbolTable
 70
2
  0
BLOCK_RECORD
  5
17
330
9
100
AcDbSymbolTableRecord
100
AcDbBlockTableRecord
  2
*Model_Space
340
1A
 70
0
280
1
281
0
  0
BLOCK_RECORD
  5
1B
330
9
100
AcDbSymbolTableRecord
100
AcDbBlockTableRecord
  2
*Paper_Space
340
1E
 70
0
280
1
281
0
  0
ENDTAB
  0
ENDSEC
  0
SECTION
  2
BLOCKS
  0
BLOCK
  5
18
330
17
100
AcDbEntity
  8
0
100
AcDbBlockBegin
  2
*Model_Space
 70
0
 10
0.0
 20
0.0
 30
0.0
  3
*Model_Space
  1

  0
ENDBLK
  5
19
330
17
100
AcDbEntity
  8
0
100
AcDbBlockEnd
  0
BLOCK
  5
1C
330
1B
100
AcDbEntity
  8
0
100
AcDbBlockBegin
  2
*Paper_Space
 70
0
 10
0.0
 20
0.0
 30
0.0
  3
*Paper_Space
  1

  0
ENDBLK
  5
1D
330
1B
100
AcDbEntity
  8
0
100
AcDbBlockEnd
  0
ENDSEC
  0
SECTION
  2
ENTITIES
  0
TEXT
  5
37
330
17
100
AcDbEntity
  8
TITLE
100
AcDbText
 10
470084.36900428764
 20
4349749.1865619775
 30
0.0
 40
5.0
  1
3940平台 1004 二次圈矿矿块图（体号=品位归并后矿块号）
 11
470084.36900428764
 21
4349749.1865619775
 31
0.0
100
AcDbText
  0
LWPOLYLINE
  5
38
330
17
100
AcDbEntity
  8
DG_GRADE_L4
370
25
100
AcDbPolyline
 90
6
 70
1
 10
470090.8374754747
 20
4349662.952583649
 10
470093.8744165766
 20
4349658.467542825
 10
470085.9861435501
 20
4349656.860526752
 10
470085.70630333736
 20
4349656.974866325
 10
470087.7589213537
 20
4349663.828591411
 10
470090.8374754747
 20
4349662.952583649
  0
TEXT
  5
39
330
17
100
AcDbEntity
  8
BLOCK_NO
100
AcDbText
 10
470089.5904506232
 20
4349660.710063238
 30
0.0
 40
3.0
  1
1
 11
470089.5904506232
 21
4349660.710063238
 31
0.0
100
AcDbText
  0
LWPOLYLINE
  5
3A
330
17
100
AcDbEntity
  8
DG_GRADE_L3
370
25
100
AcDbPolyline
 90
8
 70
1
 10
470095.2458100701
 20
4349657.643898769
 10
470093.51281007024
 20
4349654.758398769
 10
470093.38109782635
 20
4349654.557742828
 10
470093.23376599513
 20
4349654.36825865
 10
470091.44776599505
 20
4349652.25175865
 10
470085.9861435501
 20
4349656.860526752
 10
470093.8744165766
 20
4349658.467542825
 10
470095.2458100701
 20
4349657.643898769
  0
TEXT
  5
3B
330
17
100
AcDbEntity
  8
BLOCK_NO
100
AcDbText
 10
470090.6878875233
 20
4349655.809462761
 30
0.0
 40
3.0
  1
2
 11
470090.6878875233
 21
4349655.809462761
 31
0.0
100
AcDbText
  0
LWPOLYLINE
  5
3C
330
17
100
AcDbEntity
  8
DG_GRADE_L3
370
25
100
AcDbPolyline
 90
8
 70
1
 10
470097.8001144993
 20
4349671.997371838
 10
470102.98641544173
 20
4349671.192212013
 10
470100.72052534955
 20
4349666.812484616
 10
470100.6324097494
 20
4349666.654083345
 10
470098.8079097494
 20
4349663.595583345
 10
470095.7972466163
 20
4349665.391547016
 10
470094.54084997403
 20
4349669.234445546
 10
470097.8001144993
 20
4349671.997371838
  0
TEXT
  5
3D
330
17
100
AcDbEntity
  8
BLOCK_NO
100
AcDbText
 10
470098.14190218557
 20
4349668.023465081
 30
0.0
 40
3.0
  1
3
 11
470098.14190218557
 21
4349668.023465081
 31
0.0
100
AcDbText
  0
LWPOLYLINE
  5
3E
330
17
100
AcDbEntity
  8
DG_GRADE_L3
370
25
100
AcDbPolyline
 90
18
 70
1
 10
470109.32440103154
 20
4349716.732567614
 10
470103.86387516087
 20
4349717.603295245
 10
470105.88254429406
 20
4349724.343664456
 10
470106.9011175873
 20
4349727.74469732
 10
470106.9979452364
 20
4349728.018886267
 10
470107.12086336815
 20
4349728.282412936
 10
470107.2687171643
 20
4349728.5328014875
 10
470107.44011753565
 20
4349728.767699518
 10
470107.6334541724
 20
4349728.984900156
 10
470107.84691067314
 20
4349729.182362797
 10
470108.07848161
 20
4349729.358232275
 10
470108.32599136955
 20
4349729.510856293
 10
470108.58711459296
 20
4349729.638800947
 10
470113.576614593
 20
4349731.790300948
 10
470115.39470834384
 20
4349727.573996616
 10
470109.46335040743
 20
4349723.278644713
 10
470111.3856567989
 20
4349719.01879421
 10
470109.32440103154
 20
4349716.732567614
  0
TEXT
  5
3F
330
17
100
AcDbEntity
  8
BLOCK_NO
100
AcDbText
 10
470107.96087246446
 20
4349723.811154584
 30
0.0
 40
3.0
  1
4
 11
470107.96087246446
 21
4349723.811154584
 31
0.0
100
AcDbText
  0
LWPOLYLINE
  5
40
330
17
100
AcDbEntity
  8
DG_GRADE_L2
370
25
100
AcDbPolyline
 90
33
 70
1
 10
470091.44776599505
 20
4349652.25175865
 10
470089.66176599514
 20
4349650.13525865
 10
470089.4624100733
 20
4349649.921131864
 10
470089.243145109
 20
4349649.7274415465
 10
470089.00605638657
 20
4349649.556029757
 10
470088.7533987006
 20
4349649.4085266795
 10
470088.48757491173
 20
4349649.28633512
 10
470088.2111130946
 20
4349649.190617161
 10
470087.92664249527
 20
4349649.122283113
 10
470087.63686852594
 20
4349649.081982857
 10
470087.34454703575
 20
4349649.07009966
 10
470087.05245810153
 20
4349649.086746537
 10
470086.7633795886
 20
4349649.13176517
 10
470086.48006073193
 20
4349649.204727417
 10
470086.20519599033
 20
4349649.304939381
 10
470085.9413994211
 20
4349649.4314480135
 10
470085.69117981935
 20
4349649.583050174
 10
470085.45691685873
 20
4349649.758304073
 10
470085.24083845975
 20
4349649.955542987
 10
470085.0449996015
 20
4349650.172891108
 10
470084.8712627783
 20
4349650.40828138
 10
470084.7212802864
 20
4349650.659475163
 10
470084.5964785103
 20
4349650.924083516
 10
470084.4980443575
 20
4349651.199589925
 10
470084.42691397027
 20
4349651.483374231
 10
470084.3837638228
 20
4349651.772737547
 10
470084.36900428764
 20
4349652.06492793
 10
470084.3827757331
 20
4349652.35716655
 10
470084.4249471879
 20
4349652.646674119
 10
470084.49511758727
 20
4349652.930697321
 10
470085.70630333736
 20
4349656.974866325
 10
470085.9861435501
 20
4349656.860526752
 10
470091.44776599505
 20
4349652.25175865
  0
TEXT
  5
41
330
17
100
AcDbEntity
  8
BLOCK_NO
100
AcDbText
 10
470086.69912761013
 20
4349654.895612037
 30
0.0
 40
3.0
  1
5
 11
470086.69912761013
 21
4349654.895612037
 31
0.0
100
AcDbText
  0
LWPOLYLINE
  5
42
330
17
100
AcDbEntity
  8
DG_GRADE_L2
370
25
100
AcDbPolyline
 90
8
 70
1
 10
470095.7972466163
 20
4349665.391547016
 10
470098.8079097494
 20
4349663.595583345
 10
470096.9834097494
 20
4349660.537083345
 10
470096.97881007026
 20
4349660.529398769
 10
470095.2458100701
 20
4349657.643898769
 10
470093.8744165766
 20
4349658.467542825
 10
470090.8374754747
 20
4349662.952583649
 10
470095.7972466163
 20
4349665.391547016
  0
TEXT
  5
43
330
17
100
AcDbEntity
  8
BLOCK_NO
100
AcDbText
 10
470094.6795747425
 20
4349661.744833497
 30
0.0
 40
3.0
  1
6
 11
470094.6795747425
 21
4349661.744833497
 31
0.0
100
AcDbText
  0
LWPOLYLINE
  5
44
330
17
100
AcDbEntity
  8
DG_GRADE_L2
370
25
100
AcDbPolyline
 90
6
 70
1
 10
470102.98641544173
 20
4349671.192212013
 10
470097.8001144993
 20
4349671.997371838
 10
470095.57632022083
 20
4349676.247862697
 10
470098.7915192861
 20
4349678.362692751
 10
470104.4617501068
 20
4349674.043878859
 10
470102.98641544173
 20
4349671.192212013
  0
TEXT
  5
45
330
17
100
AcDbEntity
  8
BLOCK_NO
100
AcDbText
 10
470099.58389788505
 20
4349675.145870778
 30
0.0
 40
3.0
  1
7
 11
470099.58389788505
 21
4349675.145870778
 31
0.0
100
AcDbText
  0
LWPOLYLINE
  5
46
330
17
100
AcDbEntity
  8
DG_GRADE_L1
370
25
100
AcDbPolyline
 90
19
 70
1
 10
470091.84362618753
 20
4349677.467487575
 10
470093.8251364292
 20
4349684.083782639
 10
470095.75380406436
 20
4349690.523635377
 10
470099.8240579849
 20
4349689.307106971
 10
470103.6185508203
 20
4349692.561162591
 10
470105.1094084859
 20
4349692.190394601
 10
470106.3550032591
 20
4349688.11289697
 10
470110.2385388775
 20
4349685.209804395
 10
470107.523614615
 20
4349679.962141142
 10
470104.4617501068
 20
4349674.043878859
 10
470098.7915192861
 20
4349678.362692751
 10
470095.57632022083
 20
4349676.247862697
 10
470097.8001144993
 20
4349671.997371838
 10
470094.54084997403
 20
4349669.234445546
 10
470095.7972466163
 20
4349665.391547016
 10
470090.8374754747
 20
4349662.952583649
 10
470087.7589213537
 20
4349663.828591411
 10
470089.76328363584
 20
4349670.521189812
 10
470091.84362618753
 20
4349677.467487575
  0
TEXT
  5
47
330
17
100
AcDbEntity
  8
BLOCK_NO
100
AcDbText
 10
470102.9218689607
 20
4349677.915090162
 30
0.0
 40
3.0
  1
8
 11
470102.9218689607
 21
4349677.915090162
 31
0.0
100
AcDbText
  0
LWPOLYLINE
  5
48
330
17
100
AcDbEntity
  8
DG_GRADE_L1
370
25
100
AcDbPolyline
 90
14
 70
1
 10
470104.26453363243
 20
4349703.69810922
 10
470107.5608980901
 20
4349705.742583352
 10
470108.2449396408
 20
4349705.549448104
 10
470112.3917260747
 20
4349708.058674147
 10
470118.5464945919
 20
4349706.011117707
 10
470118.45958838053
 20
4349705.496302178
 10
470111.05494441604
 20
4349701.071190994
 10
470110.57138238125
 20
4349701.168012804
 10
470107.0000777969
 20
4349698.72862235
 10
470105.9229076123
 20
4349699.120542686
 10
470100.46499144565
 20
4349697.054571449
 10
470097.99234634714
 20
4349697.998164626
 10
470099.93288003857
 20
4349704.47763832
 10
470104.26453363243
 20
4349703.69810922
  0
TEXT
  5
49
330
17
100
AcDbEntity
  8
BLOCK_NO
100
AcDbText
 10
470106.3271723838
 20
4349702.433061012
 30
0.0
 40
3.0
  1
9
 11
470106.3271723838
 21
4349702.433061012
 31
0.0
100
AcDbText
  0
LWPOLYLINE
  5
4A
330
17
100
AcDbEntity
  8
DG_GRADE_L1
370
25
100
AcDbPolyline
 90
37
 70
1
 10
470103.86387516087
 20
4349717.603295245
 10
470109.32440103154
 20
4349716.732567614
 10
470111.3856567989
 20
4349719.01879421
 10
470109.46335040743
 20
4349723.278644713
 10
470115.39470834384
 20
4349727.573996616
 10
470113.576614593
 20
4349731.790300948
 10
470118.56611459295
 20
4349733.941800947
 10
470118.83994287584
 20
4349734.044358846
 10
470119.12245470664
 20
4349734.119771819
 10
470119.4109662213
 20
4349734.167323443
 10
470119.7027365588
 20
4349734.1865619775
 10
470119.99499389925
 20
4349734.177304657
 10
470120.28496179637
 20
4349734.139639424
 10
470120.5698855533
 20
4349734.073924101
 10
470120.84705839294
 20
4349733.980782982
 10
470121.1138471716
 20
4349733.861100908
 10
470121.36771739443
 20
4349733.716014862
 10
470121.60625729285
 20
4349733.5469031595
 10
470121.8272007365
 20
4349733.355372364
 10
470122.0284487614
 20
4349733.143242017
 10
470122.2080895101
 20
4349732.912527362
 10
470122.3644163946
 20
4349732.665420186
 10
470122.4959443085
 20
4349732.4042680105
 10
470122.6014237359
 20
4349732.131551782
 10
470122.6798526217
 20
4349731.849862305
 10
470122.730485891
 20
4349731.561875634
 10
470122.7528425274
 20
4349731.270327642
 10
470122.7467101428
 20
4349730.977988035
 10
470122.7121469949
 20
4349730.687634045
 10
470121.4010969669
 20
4349722.921228137
 10
470120.7057891497
 20
4349718.802359577
 10
470120.06805719313
 20
4349715.024559242
 10
470110.33231440926
 20
4349712.6378347315
 10
470110.31589295244
 20
4349712.596172561
 10
470105.50199911377
 20
4349710.456557533
 10
470102.09775212186
 20
4349711.706181569
 10
470103.86387516087
 20
4349717.603295245
  0
TEXT
  5
4B
330
17
100
AcDbEntity
  8
BLOCK_NO
100
AcDbText
 10
470115.7884295167
 20
4349720.970011173
 30
0.0
 40
3.0
  1
10
 11
470115.7884295167
 21
4349720.970011173
 31
0.0
100
AcDbText
  0
LINE
  5
4C
330
17
100
AcDbEntity
  8
DG_GRID
100
AcDbLine
 10
470086.0
 20
4349656.863349617
 30
0.0
 11
470086.0
 21
4349657.955524279
 31
0.0
  0
LINE
  5
4D
330
17
100
AcDbEntity
  8
DG_GRID
100
AcDbLine
 10
470087.0
 20
4349657.067071784
 30
0.0
 11
470087.0
 21
4349661.294540614
 31
0.0
  0
LINE
  5
4E
330
17
100
AcDbEntity
  8
DG_GRID
100
AcDbLine
 10
470088.0
 20
4349657.270793951
 30
0.0
 11
470088.0
 21
4349663.759992076
 31
0.0
  0
LINE
  5
4F
330
17
100
AcDbEntity
  8
DG_GRID
100
AcDbLine
 10
470089.0
 20
4349657.474516118
 30
0.0
 11
470089.0
 21
4349663.475440391
 31
0.0
  0
LINE
  5
50
330
17
100
AcDbEntity
  8
DG_GRID
100
AcDbLine
 10
470090.0
 20
4349657.678238285
 30
0.0
 11
470090.0
 21
4349663.190888707
 31
0.0
  0
LINE
  5
51
330
17
100
AcDbEntity
  8
DG_GRID
100
AcDbLine
 10
470091.0
 20
4349657.881960452
 30
0.0
 11
470091.0
 21
4349662.712562817
 31
0.0
  0
LINE
  5
52
330
17
100
AcDbEntity
  8
DG_GRID
100
AcDbLine
 10
470092.0
 20
4349658.085682618
 30
0.0
 11
470092.0
 21
4349661.235734432
 31
0.0
  0
LINE
  5
53
330
17
100
AcDbEntity
  8
DG_GRID
100
AcDbLine
 10
470093.0
 20
4349658.289404785
 30
0.0
 11
470093.0
 21
4349659.758906046
 31
0.0
  0
LINE
  5
54
330
17
100
AcDbEntity
  8
DG_GRID
100
AcDbLine
 10
470085.7138306066
 20
4349657.0
 30
0.0
 11
470086.67076835275
 21
4349657.0
 31
0.0
  0
LINE
  5
55
330
17
100
AcDbEntity
  8
DG_GRID
100
AcDbLine
 10
470086.01332000695
 20
4349658.0
 30
0.0
 11
470091.579414356
 21
4349658.0
 31
0.0
  0
LINE
  5
56
330
17
100
AcDbEntity
  8
DG_GRID
100
AcDbLine
 10
470086.31280940736
 20
4349659.0
 30
0.0
 11
470093.5138755821
 21
4349659.0
 31
0.0
  0
LINE
  5
57
330
17
100
AcDbEntity
  8
DG_GRID
100
AcDbLine
 10
470086.61229880777
 20
4349660.0
 30
0.0
 11
470092.8367488354
 21
4349660.0
 31
0.0
  0
LINE
  5
58
330
17
100
AcDbEntity
  8
DG_GRID
100
AcDbLine
 10
470086.9117882081
 20
4349661.0
 30
0.0
 11
470092.1596220887
 21
4349661.0
 31
0.0
  0
LINE
  5
59
330
17
100
AcDbEntity
  8
DG_GRID
100
AcDbLine
 10
470087.2112776085
 20
4349662.0
 30
0.0
 11
470091.48249534203
 21
4349662.0
 31
0.0
  0
LINE
  5
5A
330
17
100
AcDbEntity
  8
DG_GRID
100
AcDbLine
 10
470087.5107670089
 20
4349663.0
 30
0.0
 11
470090.6708401907
 21
4349663.0
 31
0.0
  0
LINE
  5
5B
330
17
100
AcDbEntity
  8
DG_GRID
100
AcDbLine
 10
470086.0
 20
4349656.848834042
 30
0.0
 11
470086.0
 21
4349656.863349617
 31
0.0
  0
LINE
  5
5C
330
17
100
AcDbEntity
  8
DG_GRID
100
AcDbLine
 10
470087.0
 20
4349656.00498807
 30
0.0
 11
470087.0
 21
4349657.067071784
 31
0.0
  0
LINE
  5
5D
330
17
100
AcDbEntity
  8
DG_GRID
100
AcDbLine
 10
470088.0
 20
4349655.161142098
 30
0.0
 11
470088.0
 21
4349657.270793951
 31
0.0
  0
LINE
  5
5E
330
17
100
AcDbEntity
  8
DG_GRID
100
AcDbLine
 10
470089.0
 20
4349654.317296126
 30
0.0
 11
470089.0
 21
4349657.474516118
 31
0.0
  0
LINE
  5
5F
330
17
100
AcDbEntity
  8
DG_GRID
100
AcDbLine
 10
470090.0
 20
4349653.473450153
 30
0.0
 11
470090.0
 21
4349657.678238285
 31
0.0
  0
LINE
  5
60
330
17
100
AcDbEntity
  8
DG_GRID
100
AcDbLine
 10
470091.0
 20
4349652.629604181
 30
0.0
 11
470091.0
 21
4349657.881960452
 31
0.0
  0
LINE
  5
61
330
17
100
AcDbEntity
  8
DG_GRID
100
AcDbLine
 10
470092.0
 20
4349652.906183774
 30
0.0
 11
470092.0
 21
4349658.085682618
 31
0.0
  0
LINE
  5
62
330
17
100
AcDbEntity
  8
DG_GRID
100
AcDbLine
 10
470093.0
 20
4349654.091234166
 30
0.0
 11
470093.0
 21
4349658.289404785
 31
0.0
  0
LINE
  5
63
330
17
100
AcDbEntity
  8
DG_GRID
100
AcDbLine
 10
470094.0
 20
4349655.569585464
 30
0.0
 11
470094.0
 21
4349658.392118784
 31
0.0
  0
LINE
  5
64
330
17
100
AcDbEntity
  8
DG_GRID
100
AcDbLine
 10
470095.0
 20
4349657.234617202
 30
0.0
 11
470095.0
 21
4349657.791529631
 31
0.0
  0
LINE
  5
65
330
17
100
AcDbEntity
  8
DG_GRID
100
AcDbLine
 10
470090.56106229
 20
4349653.0
 30
0.0
 11
470092.07916644437
 21
4349653.0
 31
0.0
  0
LINE
  5
66
330
17
100
AcDbEntity
  8
DG_GRID
100
AcDbLine
 10
470089.3760118981
 20
4349654.0
 30
0.0
 11
470092.92301241634
 21
4349654.0
 31
0.0
  0
LINE
  5
67
330
17
100
AcDbEntity
  8
DG_GRID
100
AcDbLine
 10
470088.1909615063
 20
4349655.0
 30
0.0
 11
470093.6579131486
 21
4349655.0
 31
0.0
  0
LINE
  5
68
330
17
100
AcDbEntity
  8
DG_GRID
100
AcDbLine
 10
470087.0059111144
 20
4349656.0
 30
0.0
 11
470094.25850230124
 21
4349656.0
 31
0.0
  0
LINE
  5
69
330
17
100
AcDbEntity
  8
DG_GRID
100
AcDbLine
 10
470086.67076835275
 20
4349657.0
 30
0.0
 11
470094.85909145384
 21
4349657.0
 31
0.0
  0
LINE
  5
6A
330
17
100
AcDbEntity
  8
DG_GRID
100
AcDbLine
 10
470091.579414356
 20
4349658.0
 30
0.0
 11
470094.65289021924
 21
4349658.0
 31
0.0
  0
LINE
  5
6B
330
17
100
AcDbEntity
  8
DG_GRID
100
AcDbLine
 10
470095.0
 20
4349667.830058666
 30
0.0
 11
470095.0
 21
4349669.62367375
 31
0.0
  0
LINE
  5
6C
330
17
100
AcDbEntity
  8
DG_GRID
100
AcDbLine
 10
470096.0
 20
4349665.270597679
 30
0.0
 11
470096.0
 21
4349670.471388402
 31
0.0
  0
LINE
  5
6D
330
17
100
AcDbEntity
  8
DG_GRID
100
AcDbLine
 10
470097.0
 20
4349664.674063429
 30
0.0
 11
470097.0
 21
4349671.319103054
 31
0.0
  0
LINE
  5
6E
330
17
100
AcDbEntity
  8
DG_GRID
100
AcDbLine
 10
470098.0
 20
4349664.077529181
 30
0.0
 11
470098.0
 21
4349671.966340131
 31
0.0
  0
LINE
  5
6F
330
17
100
AcDbEntity
  8
DG_GRID
100
AcDbLine
 10
470099.0
 20
4349663.917593776
 30
0.0
 11
470099.0
 21
4349671.811092714
 31
0.0
  0
LINE
  5
70
330
17
100
AcDbEntity
  8
DG_GRID
100
AcDbLine
 10
470100.0
 20
4349665.593943461
 30
0.0
 11
470100.0
 21
4349671.655845297
 31
0.0
  0
LINE
  5
71
330
17
100
AcDbEntity
  8
DG_GRID
100
AcDbLine
 10
470101.0
 20
4349667.3526797425
 30
0.0
 11
470101.0
 21
4349671.500597879
 31
0.0
  0
LINE
  5
72
330
17
100
AcDbEntity
  8
DG_GRID
100
AcDbLine
 10
470102.0
 20
4349669.285574639
 30
0.0
 11
470102.0
 21
4349671.345350462
 31
0.0
  0
LINE
  5
73
330
17
100
AcDbEntity
  8
DG_GRID
100
AcDbLine
 10
470098.1299660171
 20
4349664.0
 30
0.0
 11
470099.04915813496
 21
4349664.0
 31
0.0
  0
LINE
  5
74
330
17
100
AcDbEntity
  8
DG_GRID
100
AcDbLine
 10
470096.4536163327
 20
4349665.0
 30
0.0
 11
470099.64569238375
 21
4349665.0
 31
0.0
  0
LINE
  5
75
330
17
100
AcDbEntity
  8
DG_GRID
100
AcDbLine
 10
470095.5983190931
 20
4349666.0
 30
0.0
 11
470100.2422266325
 21
4349666.0
 31
0.0
  0
LINE
  5
76
330
17
100
AcDbEntity
  8
DG_GRID
100
AcDbLine
 10
470095.2713792501
 20
4349667.0
 30
0.0
 11
470100.8175380655
 21
4349667.0
 31
0.0
  0
LINE
  5
77
330
17
100
AcDbEntity
  8
DG_GRID
100
AcDbLine
 10
470094.94443940703
 20
4349668.0
 30
0.0
 11
470101.3348967701
 21
4349668.0
 31
0.0
  0
LINE
  5
78
330
17
100
AcDbEntity
  8
DG_GRID
100
AcDbLine
 10
470094.61749956396
 20
4349669.0
 30
0.0
 11
470101.8522554747
 21
4349669.0
 31
0.0
  0
LINE
  5
79
330
17
100
AcDbEntity
  8
DG_GRID
100
AcDbLine
 10
470095.44393033534
 20
4349670.0
 30
0.0
 11
470102.3696141793
 21
4349670.0
 31
0.0
  0
LINE
  5
7A
330
17
100
AcDbEntity
  8
DG_GRID
100
AcDbLine
 10
470096.62357256253
 20
4349671.0
 30
0.0
 11
470102.8869728839
 21
4349671.0
 31
0.0
  0
LINE
  5
7B
330
17
100
AcDbEntity
  8
DG_GRID
100
AcDbLine
 10
470104.0
 20
4349717.581588973
 30
0.0
 11
470104.0
 21
4349718.057818307
 31
0.0
  0
LINE
  5
7C
330
17
100
AcDbEntity
  8
DG_GRID
100
AcDbLine
 10
470105.0
 20
4349717.422130406
 30
0.0
 11
470105.0
 21
4349721.396834642
 31
0.0
  0
LINE
  5
7D
330
17
100
AcDbEntity
  8
DG_GRID
100
AcDbLine
 10
470106.0
 20
4349717.262671839
 30
0.0
 11
470106.0
 21
4349724.735850977
 31
0.0
  0
LINE
  5
7E
330
17
100
AcDbEntity
  8
DG_GRID
100
AcDbLine
 10
470107.0
 20
4349717.103213272
 30
0.0
 11
470107.0
 21
4349728.023291516
 31
0.0
  0
LINE
  5
7F
330
17
100
AcDbEntity
  8
DG_GRID
100
AcDbLine
 10
470108.0
 20
4349716.943754705
 30
0.0
 11
470108.0
 21
4349729.298628423
 31
0.0
  0
LINE
  5
80
330
17
100
AcDbEntity
  8
DG_GRID
100
AcDbLine
 10
470109.0
 20
4349716.784296137
 30
0.0
 11
470109.0
 21
4349729.816839418
 31
0.0
  0
LINE
  5
81
330
17
100
AcDbEntity
  8
DG_GRID
100
AcDbLine
 10
470110.0
 20
4349717.481903215
 30
0.0
 11
470110.0
 21
4349722.089423761
 31
0.0
  0
LINE
  5
82
330
17
100
AcDbEntity
  8
DG_GRID
100
AcDbLine
 10
470110.0
 20
4349723.667273906
 30
0.0
 11
470110.0
 21
4349730.24804495
 31
0.0
  0
LINE
  5
83
330
17
100
AcDbEntity
  8
DG_GRID
100
AcDbLine
 10
470111.0
 20
4349718.591045822
 30
0.0
 11
470111.0
 21
4349719.873413596
 31
0.0
  0
LINE
  5
84
330
17
100
AcDbEntity
  8
DG_GRID
100
AcDbLine
 10
470111.0
 20
4349724.391450722
 30
0.0
 11
470111.0
 21
4349730.679250482
 31
0.0
  0
LINE
  5
85
330
17
100
AcDbEntity
  8
DG_GRID
100
AcDbLine
 10
470112.0
 20
4349725.1156275375
 30
0.0
 11
470112.0
 21
4349731.110456014
 31
0.0
  0
LINE
  5
86
330
17
100
AcDbEntity
  8
DG_GRID
100
AcDbLine
 10
470113.0
 20
4349725.839804352
 30
0.0
 11
470113.0
 21
4349731.541661546
 31
0.0
  0
LINE
  5
87
330
17
100
AcDbEntity
  8
DG_GRID
100
AcDbLine
 10
470114.0
 20
4349726.563981168
 30
0.0
 11
470114.0
 21
4349730.80843644
 31
0.0
  0
LINE
  5
88
330
17
100
AcDbEntity
  8
DG_GRID
100
AcDbLine
 10
470115.0
 20
4349727.288157984
 30
0.0
 11
470115.0
 21
4349728.489356728
 31
0.0
  0
LINE
  5
89
330
17
100
AcDbEntity
  8
DG_GRID
100
AcDbLine
 10
470107.64727329346
 20
4349717.0
 30
0.0
 11
470109.5655173536
 21
4349717.0
 31
0.0
  0
LINE
  5
8A
330
17
100
AcDbEntity
  8
DG_GRID
100
AcDbLine
 10
470103.98268403
 20
4349718.0
 30
0.0
 11
470110.4671146717
 21
4349718.0
 31
0.0
  0
LINE
  5
8B
330
17
100
AcDbEntity
  8
DG_GRID
100
AcDbLine
 10
470104.2821734304
 20
4349719.0
 30
0.0
 11
470111.36871198984
 21
4349719.0
 31
0.0
  0
LINE
  5
8C
330
17
100
AcDbEntity
  8
DG_GRID
100
AcDbLine
 10
470104.5816628307
 20
4349720.0
 30
0.0
 11
470110.94287643355
 21
4349720.0
 31
0.0
  0
LINE
  5
8D
330
17
100
AcDbEntity
  8
DG_GRID
100
AcDbLine
 10
470104.8811522311
 20
4349721.0
 30
0.0
 11
470110.49161496555
 21
4349721.0
 31
0.0
  0
LINE
  5
8E
330
17
100
AcDbEntity
  8
DG_GRID
100
AcDbLine
 10
470105.1806416314
 20
4349722.0
 30
0.0
 11
470110.04035349755
 21
4349722.0
 31
0.0
  0
LINE
  5
8F
330
17
100
AcDbEntity
  8
DG_GRID
100
AcDbLine
 10
470105.48013103177
 20
4349723.0
 30
0.0
 11
470109.5890920295
 21
4349723.0
 31
0.0
  0
LINE
  5
90
330
17
100
AcDbEntity
  8
DG_GRID
100
AcDbLine
 10
470105.7796204322
 20
4349724.0
 30
0.0
 11
470110.4594542204
 21
4349724.0
 31
0.0
  0
LINE
  5
91
330
17
100
AcDbEntity
  8
DG_GRID
100
AcDbLine
 10
470106.0791098325
 20
4349725.0
 30
0.0
 11
470111.8403324512
 21
4349725.0
 31
0.0
  0
LINE
  5
92
330
17
100
AcDbEntity
  8
DG_GRID
100
AcDbLine
 10
470106.37859923294
 20
4349726.0
 30
0.0
 11
470113.221210682
 21
4349726.0
 31
0.0
  0
LINE
  5
93
330
17
100
AcDbEntity
  8
DG_GRID
100
AcDbLine
 10
470106.67808863334
 20
4349727.0
 30
0.0
 11
470114.6020889128
 21
4349727.0
 31
0.0
  0
LINE
  5
94
330
17
100
AcDbEntity
  8
DG_GRID
100
AcDbLine
 10
470106.9912757011
 20
4349728.0
 30
0.0
 11
470115.211013328
 21
4349728.0
 31
0.0
  0
LINE
  5
95
330
17
100
AcDbEntity
  8
DG_GRID
100
AcDbLine
 10
470107.64977705677
 20
4349729.0
 30
0.0
 11
470114.7798077964
 21
4349729.0
 31
0.0
  0
LINE
  5
96
330
17
100
AcDbEntity
  8
DG_GRID
100
AcDbLine
 10
470109.42476398847
 20
4349730.0
 30
0.0
 11
470114.3486022648
 21
4349730.0
 31
0.0
  0
LINE
  5
97
330
17
100
AcDbEntity
  8
DG_GRID
100
AcDbLine
 10
470111.74384369963
 20
4349731.0
 30
0.0
 11
470113.91739673325
 21
4349731.0
 31
0.0
  0
LINE
  5
98
330
17
100
AcDbEntity
  8
DG_GRID
100
AcDbLine
 10
470085.0
 20
4349650.233859579
 30
0.0
 11
470085.0
 21
4349654.616507945
 31
0.0
  0
LINE
  5
99
330
17
100
AcDbEntity
  8
DG_GRID
100
AcDbLine
 10
470086.0
 20
4349649.403344998
 30
0.0
 11
470086.0
 21
4349656.848834042
 31
0.0
  0
LINE
  5
9A
330
17
100
AcDbEntity
  8
DG_GRID
100
AcDbLine
 10
470087.0
 20
4349649.094915916
 30
0.0
 11
470087.0
 21
4349656.00498807
 31
0.0
  0
LINE
  5
9B
330
17
100
AcDbEntity
  8
DG_GRID
100
AcDbLine
 10
470088.0
 20
4349649.139904671
 30
0.0
 11
470088.0
 21
4349655.161142098
 31
0.0
  0
LINE
  5
9C
330
17
100
AcDbEntity
  8
DG_GRID
100
AcDbLine
 10
470089.0
 20
4349649.552494002
 30
0.0
 11
470089.0
 21
4349654.317296126
 31
0.0
  0
LINE
  5
9D
330
17
100
AcDbEntity
  8
DG_GRID
100
AcDbLine
 10
470090.0
 20
4349650.5360829905
 30
0.0
 11
470090.0
 21
4349653.473450153
 31
0.0
  0
LINE
  5
9E
330
17
100
AcDbEntity
  8
DG_GRID
100
AcDbLine
 10
470091.0
 20
4349651.721133382
 30
0.0
 11
470091.0
 21
4349652.629604181
 31
0.0
  0
LINE
  5
9F
330
17
100
AcDbEntity
  8
DG_GRID
100
AcDbLine
 10
470085.20078101376
 20
4349650.0
 30
0.0
 11
470089.53583773825
 21
4349650.0
 31
0.0
  0
LINE
  5
A0
330
17
100
AcDbEntity
  8
DG_GRID
100
AcDbLine
 10
470084.5693547319
 20
4349651.0
 30
0.0
 11
470090.39147450007
 21
4349651.0
 31
0.0
  0
LINE
  5
A1
330
17
100
AcDbEntity
  8
DG_GRID
100
AcDbLine
 10
470084.37228401937
 20
4349652.0
 30
0.0
 11
470091.23532047233
 21
4349652.0
 31
0.0
  0
LINE
  5
A2
330
17
100
AcDbEntity
  8
DG_GRID
100
AcDbLine
 10
470084.5158730051
 20
4349653.0
 30
0.0
 11
470090.56106229
 21
4349653.0
 31
0.0
  0
LINE
  5
A3
330
17
100
AcDbEntity
  8
DG_GRID
100
AcDbLine
 10
470084.81536240544
 20
4349654.0
 30
0.0
 11
470089.3760118981
 21
4349654.0
 31
0.0
  0
LINE
  5
A4
330
17
100
AcDbEntity
  8
DG_GRID
100
AcDbLine
 10
470085.11485180585
 20
4349655.0
 30
0.0
 11
470088.1909615063
 21
4349655.0
 31
0.0
  0
LINE
  5
A5
330
17
100
AcDbEntity
  8
DG_GRID
100
AcDbLine
 10
470085.4143412062
 20
4349656.0
 30
0.0
 11
470087.0059111144
 21
4349656.0
 31
0.0
  0
LINE
  5
A6
330
17
100
AcDbEntity
  8
DG_GRID
100
AcDbLine
 10
470091.0
 20
4349662.712562817
 30
0.0
 11
470091.0
 21
4349663.032504951
 31
0.0
  0
LINE
  5
A7
330
17
100
AcDbEntity
  8
DG_GRID
100
AcDbLine
 10
470092.0
 20
4349661.235734432
 30
0.0
 11
470092.0
 21
4349663.524254126
 31
0.0
  0
LINE
  5
A8
330
17
100
AcDbEntity
  8
DG_GRID
100
AcDbLine
 10
470093.0
 20
4349659.758906046
 30
0.0
 11
470093.0
 21
4349664.0160033
 31
0.0
  0
LINE
  5
A9
330
17
100
AcDbEntity
  8
DG_GRID
100
AcDbLine
 10
470094.0
 20
4349658.392118784
 30
0.0
 11
470094.0
 21
4349664.507752475
 31
0.0
  0
LINE
  5
AA
330
17
100
AcDbEntity
  8
DG_GRID
100
AcDbLine
 10
470095.0
 20
4349657.791529631
 30
0.0
 11
470095.0
 21
4349664.99950165
 31
0.0
  0
LINE
  5
AB
330
17
100
AcDbEntity
  8
DG_GRID
100
AcDbLine
 10
470096.0
 20
4349658.899648938
 30
0.0
 11
470096.0
 21
4349665.270597679
 31
0.0
  0
LINE
  5
AC
330
17
100
AcDbEntity
  8
DG_GRID
100
AcDbLine
 10
470097.0
 20
4349660.564894407
 30
0.0
 11
470097.0
 21
4349664.674063429
 31
0.0
  0
LINE
  5
AD
330
17
100
AcDbEntity
  8
DG_GRID
100
AcDbLine
 10
470098.0
 20
4349662.241244092
 30
0.0
 11
470098.0
 21
4349664.077529181
 31
0.0
  0
LINE
  5
AE
330
17
100
AcDbEntity
  8
DG_GRID
100
AcDbLine
 10
470094.65289021924
 20
4349658.0
 30
0.0
 11
470095.45968060655
 21
4349658.0
 31
0.0
  0
LINE
  5
AF
330
17
100
AcDbEntity
  8
DG_GRID
100
AcDbLine
 10
470093.5138755821
 20
4349659.0
 30
0.0
 11
470096.06026975927
 21
4349659.0
 31
0.0
  0
LINE
  5
B0
330
17
100
AcDbEntity
  8
DG_GRID
100
AcDbLine
 10
470092.8367488354
 20
4349660.0
 30
0.0
 11
470096.66085891204
 21
4349660.0
 31
0.0
  0
LINE
  5
B1
330
17
100
AcDbEntity
  8
DG_GRID
100
AcDbLine
 10
470092.1596220887
 20
4349661.0
 30
0.0
 11
470097.25955538824
 21
4349661.0
 31
0.0
  0
LINE
  5
B2
330
17
100
AcDbEntity
  8
DG_GRID
100
AcDbLine
 10
470091.48249534203
 20
4349662.0
 30
0.0
 11
470097.85608963715
 21
4349662.0
 31
0.0
  0
LINE
  5
B3
330
17
100
AcDbEntity
  8
DG_GRID
100
AcDbLine
 10
470090.933899329
 20
4349663.0
 30
0.0
 11
470098.4526238861
 21
4349663.0
 31
0.0
  0
LINE
  5
B4
330
17
100
AcDbEntity
  8
DG_GRID
100
AcDbLine
 10
470092.96745637595
 20
4349664.0
 30
0.0
 11
470098.1299660171
 21
4349664.0
 31
0.0
  0
LINE
  5
B5
330
17
100
AcDbEntity
  8
DG_GRID
100
AcDbLine
 10
470095.00101342297
 20
4349665.0
 30
0.0
 11
470096.4536163327
 21
4349665.0
 31
0.0
  0
LINE
  5
B6
330
17
100
AcDbEntity
  8
DG_GRID
100
AcDbLine
 10
470096.0
 20
4349675.438054413
 30
0.0
 11
470096.0
 21
4349676.526542403
 31
0.0
  0
LINE
  5
B7
330
17
100
AcDbEntity
  8
DG_GRID
100
AcDbLine
 10
470097.0
 20
4349673.5266856775
 30
0.0
 11
470097.0
 21
4349677.184302626
 31
0.0
  0
LINE
  5
B8
330
17
100
AcDbEntity
  8
DG_GRID
100
AcDbLine
 10
470098.0
 20
4349671.966340131
 30
0.0
 11
470098.0
 21
4349677.842062849
 31
0.0
  0
LINE
  5
B9
330
17
100
AcDbEntity
  8
DG_GRID
100
AcDbLine
 10
470099.0
 20
4349671.811092714
 30
0.0
 11
470099.0
 21
4349678.203900379
 31
0.0
  0
LINE
  5
BA
330
17
100
AcDbEntity
  8
DG_GRID
100
AcDbLine
 10
470100.0
 20
4349671.655845297
 30
0.0
 11
470100.0
 21
4349677.4422358135
 31
0.0
  0
LINE
  5
BB
330
17
100
AcDbEntity
  8
DG_GRID
100
AcDbLine
 10
470101.0
 20
4349671.500597879
 30
0.0
 11
470101.0
 21
4349676.680571249
 31
0.0
  0
LINE
  5
BC
330
17
100
AcDbEntity
  8
DG_GRID
100
AcDbLine
 10
470102.0
 20
4349671.345350462
 30
0.0
 11
470102.0
 21
4349675.918906683
 31
0.0
  0
LINE
  5
BD
330
17
100
AcDbEntity
  8
DG_GRID
100
AcDbLine
 10
470103.0
 20
4349671.218469536
 30
0.0
 11
470103.0
 21
4349675.157242118
 31
0.0
  0
LINE
  5
BE
330
17
100
AcDbEntity
  8
DG_GRID
100
AcDbLine
 10
470104.0
 20
4349673.151364434
 30
0.0
 11
470104.0
 21
4349674.395577554
 31
0.0
  0
LINE
  5
BF
330
17
100
AcDbEntity
  8
DG_GRID
100
AcDbLine
 10
470097.7987394838
 20
4349672.0
 30
0.0
 11
470103.40433158836
 21
4349672.0
 31
0.0
  0
LINE
  5
C0
330
17
100
AcDbEntity
  8
DG_GRID
100
AcDbLine
 10
470097.2755541971
 20
4349673.0
 30
0.0
 11
470103.9216902928
 21
4349673.0
 31
0.0
  0
LINE
  5
C1
330
17
100
AcDbEntity
  8
DG_GRID
100
AcDbLine
 10
470096.75236891035
 20
4349674.0
 30
0.0
 11
470104.43904899724
 21
4349674.0
 31
0.0
  0
LINE
  5
C2
330
17
100
AcDbEntity
  8
DG_GRID
100
AcDbLine
 10
470096.22918362357
 20
4349675.0
 30
0.0
 11
470103.2064453639
 21
4349675.0
 31
0.0
  0
LINE
  5
C3
330
17
100
AcDbEntity
  8
DG_GRID
100
AcDbLine
 10
470095.70599833684
 20
4349676.0
 30
0.0
 11
470101.8935314569
 21
4349676.0
 31
0.0
  0
LINE
  5
C4
330
17
100
AcDbEntity
  8
DG_GRID
100
AcDbLine
 10
470096.7198027195
 20
4349677.0
 30
0.0
 11
470100.5806175499
 21
4349677.0
 31
0.0
  0
LINE
  5
C5
330
17
100
AcDbEntity
  8
DG_GRID
100
AcDbLine
 10
470098.24011356366
 20
4349678.0
 30
0.0
 11
470099.26770364284
 21
4349678.0
 31
0.0
  0
LINE
  5
C6
330
17
100
AcDbEntity
  8
DG_GRID
100
AcDbLine
 10
470088.0
 20
4349663.759992076
 30
0.0
 11
470088.0
 21
4349664.633556949
 31
0.0
  0
LINE
  5
C7
330
17
100
AcDbEntity
  8
DG_GRID
100
AcDbLine
 10
470089.0
 20
4349663.475440391
 30
0.0
 11
470089.0
 21
4349667.972573283
 31
0.0
  0
LINE
  5
C8
330
17
100
AcDbEntity
  8
DG_GRID
100
AcDbLine
 10
470090.0
 20
4349663.190888707
 30
0.0
 11
470090.0
 21
4349671.311589618
 31
0.0
  0
LINE
  5
C9
330
17
100
AcDbEntity
  8
DG_GRID
100
AcDbLine
 10
470091.0
 20
4349663.032504951
 30
0.0
 11
470091.0
 21
4349674.650605953
 31
0.0
  0
LINE
  5
CA
330
17
100
AcDbEntity
  8
DG_GRID
100
AcDbLine
 10
470092.0
 20
4349663.524254126
 30
0.0
 11
470092.0
 21
4349677.989622288
 31
0.0
  0
LINE
  5
CB
330
17
100
AcDbEntity
  8
DG_GRID
100
AcDbLine
 10
470093.0
 20
4349664.0160033
 30
0.0
 11
470093.0
 21
4349681.3286386235
 31
0.0
  0
LINE
  5
CC
330
17
100
AcDbEntity
  8
DG_GRID
100
AcDbLine
 10
470094.0
 20
4349664.507752475
 30
0.0
 11
470094.0
 21
4349684.667654959
 31
0.0
  0
LINE
  5
CD
330
17
100
AcDbEntity
  8
DG_GRID
100
AcDbLine
 10
470095.0
 20
4349664.99950165
 30
0.0
 11
470095.0
 21
4349667.830058666
 31
0.0
  0
LINE
  5
CE
330
17
100
AcDbEntity
  8
DG_GRID
100
AcDbLine
 10
470095.0
 20
4349669.62367375
 30
0.0
 11
470095.0
 21
4349688.006671293
 31
0.0
  0
LINE
  5
CF
330
17
100
AcDbEntity
  8
DG_GRID
100
AcDbLine
 10
470096.0
 20
4349670.471388402
 30
0.0
 11
470096.0
 21
4349675.438054413
 31
0.0
  0
LINE
  5
D0
330
17
100
AcDbEntity
  8
DG_GRID
100
AcDbLine
 10
470096.0
 20
4349676.526542403
 30
0.0
 11
470096.0
 21
4349690.450051676
 31
0.0
  0
LINE
  5
D1
330
17
100
AcDbEntity
  8
DG_GRID
100
AcDbLine
 10
470097.0
 20
4349671.319103054
 30
0.0
 11
470097.0
 21
4349673.5266856775
 31
0.0
  0
LINE
  5
D2
330
17
100
AcDbEntity
  8
DG_GRID
100
AcDbLine
 10
470097.0
 20
4349677.184302626
 30
0.0
 11
470097.0
 21
4349690.151168995
 31
0.0
  0
LINE
  5
D3
330
17
100
AcDbEntity
  8
DG_GRID
100
AcDbLine
 10
470098.0
 20
4349677.842062849
 30
0.0
 11
470098.0
 21
4349689.852286313
 31
0.0
  0
LINE
  5
D4
330
17
100
AcDbEntity
  8
DG_GRID
100
AcDbLine
 10
470099.0
 20
4349678.203900379
 30
0.0
 11
470099.0
 21
4349689.553403631
 31
0.0
  0
LINE
  5
D5
330
17
100
AcDbEntity
  8
DG_GRID
100
AcDbLine
 10
470100.0
 20
4349677.4422358135
 30
0.0
 11
470100.0
 21
4349689.45799014
 31
0.0
  0
LINE
  5
D6
330
17
100
AcDbEntity
  8
DG_GRID
100
AcDbLine
 10
470101.0
 20
4349676.680571249
 30
0.0
 11
470101.0
 21
4349690.315563408
 31
0.0
  0
LINE
  5
D7
330
17
100
AcDbEntity
  8
DG_GRID
100
AcDbLine
 10
470102.0
 20
4349675.918906683
 30
0.0
 11
470102.0
 21
4349691.173136675
 31
0.0
  0
LINE
  5
D8
330
17
100
AcDbEntity
  8
DG_GRID
100
AcDbLine
 10
470103.0
 20
4349675.157242118
 30
0.0
 11
470103.0
 21
4349692.030709943
 31
0.0
  0
LINE
  5
D9
330
17
100
AcDbEntity
  8
DG_GRID
100
AcDbLine
 10
470104.0
 20
4349674.395577554
 30
0.0
 11
470104.0
 21
4349692.466298306
 31
0.0
  0
LINE
  5
DA
330
17
100
AcDbEntity
  8
DG_GRID
100
AcDbLine
 10
470105.0
 20
4349675.08425933
 30
0.0
 11
470105.0
 21
4349692.217603881
 31
0.0
  0
LINE
  5
DB
330
17
100
AcDbEntity
  8
DG_GRID
100
AcDbLine
 10
470106.0
 20
4349677.017154228
 30
0.0
 11
470106.0
 21
4349689.2750124335
 31
0.0
  0
LINE
  5
DC
330
17
100
AcDbEntity
  8
DG_GRID
100
AcDbLine
 10
470107.0
 20
4349678.950049125
 30
0.0
 11
470107.0
 21
4349687.630737043
 31
0.0
  0
LINE
  5
DD
330
17
100
AcDbEntity
  8
DG_GRID
100
AcDbLine
 10
470108.0
 20
4349680.882944022
 30
0.0
 11
470108.0
 21
4349686.883198496
 31
0.0
  0
LINE
  5
DE
330
17
100
AcDbEntity
  8
DG_GRID
100
AcDbLine
 10
470109.0
 20
4349682.815838919
 30
0.0
 11
470109.0
 21
4349686.135659948
 31
0.0
  0
LINE
  5
DF
330
17
100
AcDbEntity
  8
DG_GRID
100
AcDbLine
 10
470110.0
 20
4349684.748733816
 30
0.0
 11
470110.0
 21
4349685.388121401
 31
0.0
  0
LINE
  5
E0
330
17
100
AcDbEntity
  8
DG_GRID
100
AcDbLine
 10
470090.6708401907
 20
4349663.0
 30
0.0
 11
470090.933899329
 21
4349663.0
 31
0.0
  0
LINE
  5
E1
330
17
100
AcDbEntity
  8
DG_GRID
100
AcDbLine
 10
470087.8102564093
 20
4349664.0
 30
0.0
 11
470092.96745637595
 21
4349664.0
 31
0.0
  0
LINE
  5
E2
330
17
100
AcDbEntity
  8
DG_GRID
100
AcDbLine
 10
470088.1097458097
 20
4349665.0
 30
0.0
 11
470095.00101342297
 21
4349665.0
 31
0.0
  0
LINE
  5
E3
330
17
100
AcDbEntity
  8
DG_GRID
100
AcDbLine
 10
470088.40923521004
 20
4349666.0
 30
0.0
 11
470095.5983190931
 21
4349666.0
 31
0.0
  0
LINE
  5
E4
330
17
100
AcDbEntity
  8
DG_GRID
100
AcDbLine
 10
470088.70872461045
 20
4349667.0
 30
0.0
 11
470095.2713792501
 21
4349667.0
 31
0.0
  0
LINE
  5
E5
330
17
100
AcDbEntity
  8
DG_GRID
100
AcDbLine
 10
470089.00821401086
 20
4349668.0
 30
0.0
 11
470094.94443940703
 21
4349668.0
 31
0.0
  0
LINE
  5
E6
330
17
100
AcDbEntity
  8
DG_GRID
100
AcDbLine
 10
470089.30770341126
 20
4349669.0
 30
0.0
 11
470094.61749956396
 21
4349669.0
 31
0.0
  0
LINE
  5
E7
330
17
100
AcDbEntity
  8
DG_GRID
100
AcDbLine
 10
470089.6071928117
 20
4349670.0
 30
0.0
 11
470095.44393033534
 21
4349670.0
 31
0.0
  0
LINE
  5
E8
330
17
100
AcDbEntity
  8
DG_GRID
100
AcDbLine
 10
470089.906682212
 20
4349671.0
 30
0.0
 11
470096.62357256253
 21
4349671.0
 31
0.0
  0
LINE
  5
E9
330
17
100
AcDbEntity
  8
DG_GRID
100
AcDbLine
 10
470090.2061716124
 20
4349672.0
 30
0.0
 11
470097.7987394838
 21
4349672.0
 31
0.0
  0
LINE
  5
EA
330
17
100
AcDbEntity
  8
DG_GRID
100
AcDbLine
 10
470090.5056610127
 20
4349673.0
 30
0.0
 11
470097.2755541971
 21
4349673.0
 31
0.0
  0
LINE
  5
EB
330
17
100
AcDbEntity
  8
DG_GRID
100
AcDbLine
 10
470090.80515041307
 20
4349674.0
 30
0.0
 11
470096.75236891035
 21
4349674.0
 31
0.0
  0
LINE
  5
EC
330
17
100
AcDbEntity
  8
DG_GRID
100
AcDbLine
 10
470091.1046398134
 20
4349675.0
 30
0.0
 11
470096.22918362357
 21
4349675.0
 31
0.0
  0
LINE
  5
ED
330
17
100
AcDbEntity
  8
DG_GRID
100
AcDbLine
 10
470103.2064453639
 20
4349675.0
 30
0.0
 11
470104.9564077018
 21
4349675.0
 31
0.0
  0
LINE
  5
EE
330
17
100
AcDbEntity
  8
DG_GRID
100
AcDbLine
 10
470091.4041292138
 20
4349676.0
 30
0.0
 11
470095.70599833684
 21
4349676.0
 31
0.0
  0
LINE
  5
EF
330
17
100
AcDbEntity
  8
DG_GRID
100
AcDbLine
 10
470101.8935314569
 20
4349676.0
 30
0.0
 11
470105.47376640636
 21
4349676.0
 31
0.0
  0
LINE
  5
F0
330
17
100
AcDbEntity
  8
DG_GRID
100
AcDbLine
 10
470091.7036186142
 20
4349677.0
 30
0.0
 11
470096.7198027195
 21
4349677.0
 31
0.0
  0
LINE
  5
F1
330
17
100
AcDbEntity
  8
DG_GRID
100
AcDbLine
 10
470100.5806175499
 20
4349677.0
 30
0.0
 11
470105.99112511094
 21
4349677.0
 31
0.0
  0
LINE
  5
F2
330
17
100
AcDbEntity
  8
DG_GRID
100
AcDbLine
 10
470092.0031080145
 20
4349678.0
 30
0.0
 11
470098.24011356366
 21
4349678.0
 31
0.0
  0
LINE
  5
F3
330
17
100
AcDbEntity
  8
DG_GRID
100
AcDbLine
 10
470099.26770364284
 20
4349678.0
 30
0.0
 11
470106.50848381553
 21
4349678.0
 31
0.0
  0
LINE
  5
F4
330
17
100
AcDbEntity
  8
DG_GRID
100
AcDbLine
 10
470092.3025974149
 20
4349679.0
 30
0.0
 11
470107.02584252006
 21
4349679.0
 31
0.0
  0
LINE
  5
F5
330
17
100
AcDbEntity
  8
DG_GRID
100
AcDbLine
 10
470092.6020868153
 20
4349680.0
 30
0.0
 11
470107.54320122465
 21
4349680.0
 31
0.0
  0
LINE
  5
F6
330
17
100
AcDbEntity
  8
DG_GRID
100
AcDbLine
 10
470092.90157621563
 20
4349681.0
 30
0.0
 11
470108.0605599292
 21
4349681.0
 31
0.0
  0
LINE
  5
F7
330
17
100
AcDbEntity
  8
DG_GRID
100
AcDbLine
 10
470093.20106561604
 20
4349682.0
 30
0.0
 11
470108.57791863376
 21
4349682.0
 31
0.0
  0
LINE
  5
F8
330
17
100
AcDbEntity
  8
DG_GRID
100
AcDbLine
 10
470093.50055501645
 20
4349683.0
 30
0.0
 11
470109.0952773383
 21
4349683.0
 31
0.0
  0
LINE
  5
F9
330
17
100
AcDbEntity
  8
DG_GRID
100
AcDbLine
 10
470093.8000444168
 20
4349684.0
 30
0.0
 11
470109.6126360429
 21
4349684.0
 31
0.0
  0
LINE
  5
FA
330
17
100
AcDbEntity
  8
DG_GRID
100
AcDbLine
 10
470094.0995338172
 20
4349685.0
 30
0.0
 11
470110.1299947474
 21
4349685.0
 31
0.0
  0
LINE
  5
FB
330
17
100
AcDbEntity
  8
DG_GRID
100
AcDbLine
 10
470094.3990232176
 20
4349686.0
 30
0.0
 11
470109.18147552246
 21
4349686.0
 31
0.0
  0
LINE
  5
FC
330
17
100
AcDbEntity
  8
DG_GRID
100
AcDbLine
 10
470094.698512618
 20
4349687.0
 30
0.0
 11
470107.84375186433
 21
4349687.0
 31
0.0
  0
LINE
  5
FD
330
17
100
AcDbEntity
  8
DG_GRID
100
AcDbLine
 10
470094.99800201843
 20
4349688.0
 30
0.0
 11
470106.50602820615
 21
4349688.0
 31
0.0
  0
LINE
  5
FE
330
17
100
AcDbEntity
  8
DG_GRID
100
AcDbLine
 10
470095.29749141884
 20
4349689.0
 30
0.0
 11
470106.084010852
 21
4349689.0
 31
0.0
  0
LINE
  5
FF
330
17
100
AcDbEntity
  8
DG_GRID
100
AcDbLine
 10
470095.5969808192
 20
4349690.0
 30
0.0
 11
470097.5057803731
 21
4349690.0
 31
0.0
  0
LINE
  5
100
330
17
100
AcDbEntity
  8
DG_GRID
100
AcDbLine
 10
470100.63202746725
 20
4349690.0
 30
0.0
 11
470105.7785306566
 21
4349690.0
 31
0.0
  0
LINE
  5
101
330
17
100
AcDbEntity
  8
DG_GRID
100
AcDbLine
 10
470101.79810859135
 20
4349691.0
 30
0.0
 11
470105.47305046115
 21
4349691.0
 31
0.0
  0
LINE
  5
102
330
17
100
AcDbEntity
  8
DG_GRID
100
AcDbLine
 10
470102.9641897154
 20
4349692.0
 30
0.0
 11
470105.16757026577
 21
4349692.0
 31
0.0
  0
LINE
  5
103
330
17
100
AcDbEntity
  8
DG_GRID
100
AcDbLine
 10
470098.0
 20
4349697.995243893
 30
0.0
 11
470098.0
 21
4349698.023720298
 31
0.0
  0
LINE
  5
104
330
17
100
AcDbEntity
  8
DG_GRID
100
AcDbLine
 10
470099.0
 20
4349697.61363103
 30
0.0
 11
470099.0
 21
4349701.362736633
 31
0.0
  0
LINE
  5
105
330
17
100
AcDbEntity
  8
DG_GRID
100
AcDbLine
 10
470100.0
 20
4349697.232018166
 30
0.0
 11
470100.0
 21
4349704.465559338
 31
0.0
  0
LINE
  5
106
330
17
100
AcDbEntity
  8
DG_GRID
100
AcDbLine
 10
470101.0
 20
4349697.257086887
 30
0.0
 11
470101.0
 21
4349704.285598249
 31
0.0
  0
LINE
  5
107
330
17
100
AcDbEntity
  8
DG_GRID
100
AcDbLine
 10
470102.0
 20
4349697.635614364
 30
0.0
 11
470102.0
 21
4349704.105637159
 31
0.0
  0
LINE
  5
108
330
17
100
AcDbEntity
  8
DG_GRID
100
AcDbLine
 10
470103.0
 20
4349698.014141842
 30
0.0
 11
470103.0
 21
4349703.92567607
 31
0.0
  0
LINE
  5
109
330
17
100
AcDbEntity
  8
DG_GRID
100
AcDbLine
 10
470104.0
 20
4349698.392669319
 30
0.0
 11
470104.0
 21
4349703.74571498
 31
0.0
  0
LINE
  5
10A
330
17
100
AcDbEntity
  8
DG_GRID
100
AcDbLine
 10
470105.0
 20
4349698.771196797
 30
0.0
 11
470105.0
 21
4349704.154260833
 31
0.0
  0
LINE
  5
10B
330
17
100
AcDbEntity
  8
DG_GRID
100
AcDbLine
 10
470106.0
 20
4349699.092493196
 30
0.0
 11
470106.0
 21
4349704.774481733
 31
0.0
  0
LINE
  5
10C
330
17
100
AcDbEntity
  8
DG_GRID
100
AcDbLine
 10
470107.0
 20
4349698.728650656
 30
0.0
 11
470107.0
 21
4349705.394702634
 31
0.0
  0
LINE
  5
10D
330
17
100
AcDbEntity
  8
DG_GRID
100
AcDbLine
 10
470108.0
 20
4349699.41162225
 30
0.0
 11
470108.0
 21
4349705.618605421
 31
0.0
  0
LINE
  5
10E
330
17
100
AcDbEntity
  8
DG_GRID
100
AcDbLine
 10
470109.0
 20
4349700.094675291
 30
0.0
 11
470109.0
 21
4349706.006336141
 31
0.0
  0
LINE
  5
10F
330
17
100
AcDbEntity
  8
DG_GRID
100
AcDbLine
 10
470110.0
 20
4349700.777728331
 30
0.0
 11
470110.0
 21
4349706.611437486
 31
0.0
  0
LINE
  5
110
330
17
100
AcDbEntity
  8
DG_GRID
100
AcDbLine
 10
470111.0
 20
4349701.082192308
 30
0.0
 11
470111.0
 21
4349707.21653883
 31
0.0
  0
LINE
  5
111
330
17
100
AcDbEntity
  8
DG_GRID
100
AcDbLine
 10
470112.0
 20
4349701.635968457
 30
0.0
 11
470112.0
 21
4349707.821640173
 31
0.0
  0
LINE
  5
112
330
17
100
AcDbEntity
  8
DG_GRID
100
AcDbLine
 10
470113.0
 20
4349702.233581415
 30
0.0
 11
470113.0
 21
4349707.856314759
 31
0.0
  0
LINE
  5
113
330
17
100
AcDbEntity
  8
DG_GRID
100
AcDbLine
 10
470114.0
 20
4349702.831194374
 30
0.0
 11
470114.0
 21
4349707.523636701
 31
0.0
  0
LINE
  5
114
330
17
100
AcDbEntity
  8
DG_GRID
100
AcDbLine
 10
470115.0
 20
4349703.428807332
 30
0.0
 11
470115.0
 21
4349707.190958642
 31
0.0
  0
LINE
  5
115
330
17
100
AcDbEntity
  8
DG_GRID
100
AcDbLine
 10
470116.0
 20
4349704.026420291
 30
0.0
 11
470116.0
 21
4349706.858280583
 31
0.0
  0
LINE
  5
116
330
17
100
AcDbEntity
  8
DG_GRID
100
AcDbLine
 10
470117.0
 20
4349704.624033248
 30
0.0
 11
470117.0
 21
4349706.525602525
 31
0.0
  0
LINE
  5
117
330
17
100
AcDbEntity
  8
DG_GRID
100
AcDbLine
 10
470118.0
 20
4349705.221646206
 30
0.0
 11
470118.0
 21
4349706.192924467
 31
0.0
  0
LINE
  5
118
330
17
100
AcDbEntity
  8
DG_GRID
100
AcDbLine
 10
470097.9928960222
 20
4349698.0
 30
0.0
 11
470102.9626398543
 21
4349698.0
 31
0.0
  0
LINE
  5
119
330
17
100
AcDbEntity
  8
DG_GRID
100
AcDbLine
 10
470098.2923854226
 20
4349699.0
 30
0.0
 11
470105.60445599735
 21
4349699.0
 31
0.0
  0
LINE
  5
11A
330
17
100
AcDbEntity
  8
DG_GRID
100
AcDbLine
 10
470106.25421215483
 20
4349699.0
 30
0.0
 11
470107.3973787883
 21
4349699.0
 31
0.0
  0
LINE
  5
11B
330
17
100
AcDbEntity
  8
DG_GRID
100
AcDbLine
 10
470098.591874823
 20
4349700.0
 30
0.0
 11
470108.8613939392
 21
4349700.0
 31
0.0
  0
LINE
  5
11C
330
17
100
AcDbEntity
  8
DG_GRID
100
AcDbLine
 10
470098.8913642234
 20
4349701.0
 30
0.0
 11
470110.32540909015
 21
4349701.0
 31
0.0
  0
LINE
  5
11D
330
17
100
AcDbEntity
  8
DG_GRID
100
AcDbLine
 10
470099.19085362373
 20
4349702.0
 30
0.0
 11
470112.60914265265
 21
4349702.0
 31
0.0
  0
LINE
  5
11E
330
17
100
AcDbEntity
  8
DG_GRID
100
AcDbLine
 10
470099.49034302414
 20
4349703.0
 30
0.0
 11
470114.28246647585
 21
4349703.0
 31
0.0
  0
LINE
  5
11F
330
17
100
AcDbEntity
  8
DG_GRID
100
AcDbLine
 10
470099.7898324245
 20
4349704.0
 30
0.0
 11
470102.5870000001
 21
4349704.0
 31
0.0
  0
LINE
  5
120
330
17
100
AcDbEntity
  8
DG_GRID
100
AcDbLine
 10
470104.751280822
 20
4349704.0
 30
0.0
 11
470115.9557902991
 21
4349704.0
 31
0.0
  0
LINE
  5
121
330
17
100
AcDbEntity
  8
DG_GRID
100
AcDbLine
 10
470106.3636095893
 20
4349705.0
 30
0.0
 11
470117.62911412236
 21
4349705.0
 31
0.0
  0
LINE
  5
122
330
17
100
AcDbEntity
  8
DG_GRID
100
AcDbLine
 10
470108.9895287926
 20
4349706.0
 30
0.0
 11
470118.54461780743
 21
4349706.0
 31
0.0
  0
LINE
  5
123
330
17
100
AcDbEntity
  8
DG_GRID
100
AcDbLine
 10
470110.64214452414
 20
4349707.0
 30
0.0
 11
470115.57400431804
 21
4349707.0
 31
0.0
  0
LINE
  5
124
330
17
100
AcDbEntity
  8
DG_GRID
100
AcDbLine
 10
470112.2947602557
 20
4349708.0
 30
0.0
 11
470112.5680952276
 21
4349708.0
 31
0.0
  0
LINE
  5
125
330
17
100
AcDbEntity
  8
DG_GRID
100
AcDbLine
 10
470103.0
 20
4349711.37498626
 30
0.0
 11
470103.0
 21
4349714.718801972
 31
0.0
  0
LINE
  5
126
330
17
100
AcDbEntity
  8
DG_GRID
100
AcDbLine
 10
470104.0
 20
4349711.007908301
 30
0.0
 11
470104.0
 21
4349717.581588973
 31
0.0
  0
LINE
  5
127
330
17
100
AcDbEntity
  8
DG_GRID
100
AcDbLine
 10
470105.0
 20
4349710.640830343
 30
0.0
 11
470105.0
 21
4349717.422130406
 31
0.0
  0
LINE
  5
128
330
17
100
AcDbEntity
  8
DG_GRID
100
AcDbLine
 10
470106.0
 20
4349710.677902293
 30
0.0
 11
470106.0
 21
4349717.262671839
 31
0.0
  0
LINE
  5
129
330
17
100
AcDbEntity
  8
DG_GRID
100
AcDbLine
 10
470107.0
 20
4349711.122368894
 30
0.0
 11
470107.0
 21
4349717.103213272
 31
0.0
  0
LINE
  5
12A
330
17
100
AcDbEntity
  8
DG_GRID
100
AcDbLine
 10
470108.0
 20
4349711.566835494
 30
0.0
 11
470108.0
 21
4349716.943754705
 31
0.0
  0
LINE
  5
12B
330
17
100
AcDbEntity
  8
DG_GRID
100
AcDbLine
 10
470109.0
 20
4349712.011302094
 30
0.0
 11
470109.0
 21
4349716.784296137
 31
0.0
  0
LINE
  5
12C
330
17
100
AcDbEntity
  8
DG_GRID
100
AcDbLine
 10
470110.0
 20
4349712.455768694
 30
0.0
 11
470110.0
 21
4349717.481903215
 31
0.0
  0
LINE
  5
12D
330
17
100
AcDbEntity
  8
DG_GRID
100
AcDbLine
 10
470110.0
 20
4349722.089423761
 30
0.0
 11
470110.0
 21
4349723.667273906
 31
0.0
  0
LINE
  5
12E
330
17
100
AcDbEntity
  8
DG_GRID
100
AcDbLine
 10
470111.0
 20
4349712.801518345
 30
0.0
 11
470111.0
 21
4349718.591045822
 31
0.0
  0
LINE
  5
12F
330
17
100
AcDbEntity
  8
DG_GRID
100
AcDbLine
 10
470111.0
 20
4349719.873413596
 30
0.0
 11
470111.0
 21
4349724.391450722
 31
0.0
  0
LINE
  5
130
330
17
100
AcDbEntity
  8
DG_GRID
100
AcDbLine
 10
470112.0
 20
4349713.046669082
 30
0.0
 11
470112.0
 21
4349725.1156275375
 31
0.0
  0
LINE
  5
131
330
17
100
AcDbEntity
  8
DG_GRID
100
AcDbLine
 10
470113.0
 20
4349713.291819817
 30
0.0
 11
470113.0
 21
4349725.839804352
 31
0.0
  0
LINE
  5
132
330
17
100
AcDbEntity
  8
DG_GRID
100
AcDbLine
 10
470114.0
 20
4349713.536970554
 30
0.0
 11
470114.0
 21
4349726.563981168
 31
0.0
  0
LINE
  5
133
330
17
100
AcDbEntity
  8
DG_GRID
100
AcDbLine
 10
470114.0
 20
4349730.80843644
 30
0.0
 11
470114.0
 21
4349731.972867077
 31
0.0
  0
LINE
  5
134
330
17
100
AcDbEntity
  8
DG_GRID
100
AcDbLine
 10
470115.0
 20
4349713.78212129
 30
0.0
 11
470115.0
 21
4349727.288157984
 31
0.0
  0
LINE
  5
135
330
17
100
AcDbEntity
  8
DG_GRID
100
AcDbLine
 10
470115.0
 20
4349728.489356728
 30
0.0
 11
470115.0
 21
4349732.404072609
 31
0.0
  0
LINE
  5
136
330
17
100
AcDbEntity
  8
DG_GRID
100
AcDbLine
 10
470116.0
 20
4349714.027272026
 30
0.0
 11
470116.0
 21
4349732.83527814
 31
0.0
  0
LINE
  5
137
330
17
100
AcDbEntity
  8
DG_GRID
100
AcDbLine
 10
470117.0
 20
4349714.272422763
 30
0.0
 11
470117.0
 21
4349733.266483672
 31
0.0
  0
LINE
  5
138
330
17
100
AcDbEntity
  8
DG_GRID
100
AcDbLine
 10
470118.0
 20
4349714.517573498
 30
0.0
 11
470118.0
 21
4349733.697689204
 31
0.0
  0
LINE
  5
139
330
17
100
AcDbEntity
  8
DG_GRID
100
AcDbLine
 10
470119.0
 20
4349714.762724235
 30
0.0
 11
470119.0
 21
4349734.087084078
 31
0.0
  0
LINE
  5
13A
330
17
100
AcDbEntity
  8
DG_GRID
100
AcDbLine
 10
470120.0
 20
4349715.00787497
 30
0.0
 11
470120.0
 21
4349734.176654392
 31
0.0
  0
LINE
  5
13B
330
17
100
AcDbEntity
  8
DG_GRID
100
AcDbLine
 10
470121.0
 20
4349720.545207553
 30
0.0
 11
470121.0
 21
4349733.912173017
 31
0.0
  0
LINE
  5
13C
330
17
100
AcDbEntity
  8
DG_GRID
100
AcDbLine
 10
470122.0
 20
4349726.469013466
 30
0.0
 11
470122.0
 21
4349733.173229123
 31
0.0
  0
LINE
  5
13D
330
17
100
AcDbEntity
  8
DG_GRID
100
AcDbLine
 10
470104.0215439283
 20
4349711.0
 30
0.0
 11
470106.7246837137
 21
4349711.0
 31
0.0
  0
LINE
  5
13E
330
17
100
AcDbEntity
  8
DG_GRID
100
AcDbLine
 10
470102.1857476276
 20
4349712.0
 30
0.0
 11
470108.9745715558
 21
4349712.0
 31
0.0
  0
LINE
  5
13F
330
17
100
AcDbEntity
  8
DG_GRID
100
AcDbLine
 10
470102.485237028
 20
4349713.0
 30
0.0
 11
470111.80963107664
 21
4349713.0
 31
0.0
  0
LINE
  5
140
330
17
100
AcDbEntity
  8
DG_GRID
100
AcDbLine
 10
470102.7847264284
 20
4349714.0
 30
0.0
 11
470115.88875405135
 21
4349714.0
 31
0.0
  0
LINE
  5
141
330
17
100
AcDbEntity
  8
DG_GRID
100
AcDbLine
 10
470103.0842158288
 20
4349715.0
 30
0.0
 11
470119.967877026
 21
4349715.0
 31
0.0
  0
LINE
  5
142
330
17
100
AcDbEntity
  8
DG_GRID
100
AcDbLine
 10
470103.3837052292
 20
4349716.0
 30
0.0
 11
470120.2327217302
 21
4349716.0
 31
0.0
  0
LINE
  5
143
330
17
100
AcDbEntity
  8
DG_GRID
100
AcDbLine
 10
470103.6831946296
 20
4349717.0
 30
0.0
 11
470107.64727329346
 21
4349717.0
 31
0.0
  0
LINE
  5
144
330
17
100
AcDbEntity
  8
DG_GRID
100
AcDbLine
 10
470109.5655173536
 20
4349717.0
 30
0.0
 11
470120.40153212246
 21
4349717.0
 31
0.0
  0
LINE
  5
145
330
17
100
AcDbEntity
  8
DG_GRID
100
AcDbLine
 10
470110.4671146717
 20
4349718.0
 30
0.0
 11
470120.5703425147
 21
4349718.0
 31
0.0
  0
LINE
  5
146
330
17
100
AcDbEntity
  8
DG_GRID
100
AcDbLine
 10
470111.36871198984
 20
4349719.0
 30
0.0
 11
470120.739152907
 21
4349719.0
 31
0.0
  0
LINE
  5
147
330
17
100
AcDbEntity
  8
DG_GRID
100
AcDbLine
 10
470110.94287643355
 20
4349720.0
 30
0.0
 11
470120.90796329925
 21
4349720.0
 31
0.0
  0
LINE
  5
148
330
17
100
AcDbEntity
  8
DG_GRID
100
AcDbLine
 10
470110.49161496555
 20
4349721.0
 30
0.0
 11
470121.07677369146
 21
4349721.0
 31
0.0
  0
LINE
  5
149
330
17
100
AcDbEntity
  8
DG_GRID
100
AcDbLine
 10
470110.04035349755
 20
4349722.0
 30
0.0
 11
470121.2455840837
 21
4349722.0
 31
0.0
  0
LINE
  5
14A
330
17
100
AcDbEntity
  8
DG_GRID
100
AcDbLine
 10
470109.5890920295
 20
4349723.0
 30
0.0
 11
470121.414394476
 21
4349723.0
 31
0.0
  0
LINE
  5
14B
330
17
100
AcDbEntity
  8
DG_GRID
100
AcDbLine
 10
470110.4594542204
 20
4349724.0
 30
0.0
 11
470121.58320486825
 21
4349724.0
 31
0.0
  0
LINE
  5
14C
330
17
100
AcDbEntity
  8
DG_GRID
100
AcDbLine
 10
470111.8403324512
 20
4349725.0
 30
0.0
 11
470121.7520152606
 21
4349725.0
 31
0.0
  0
LINE
  5
14D
330
17
100
AcDbEntity
  8
DG_GRID
100
AcDbLine
 10
470113.221210682
 20
4349726.0
 30
0.0
 11
470121.92082565284
 21
4349726.0
 31
0.0
  0
LINE
  5
14E
330
17
100
AcDbEntity
  8
DG_GRID
100
AcDbLine
 10
470114.6020889128
 20
4349727.0
 30
0.0
 11
470122.0896360451
 21
4349727.0
 31
0.0
  0
LINE
  5
14F
330
17
100
AcDbEntity
  8
DG_GRID
100
AcDbLine
 10
470115.211013328
 20
4349728.0
 30
0.0
 11
470122.2584464374
 21
4349728.0
 31
0.0
  0
LINE
  5
150
330
17
100
AcDbEntity
  8
DG_GRID
100
AcDbLine
 10
470114.7798077964
 20
4349729.0
 30
0.0
 11
470122.4272568297
 21
4349729.0
 31
0.0
  0
LINE
  5
151
330
17
100
AcDbEntity
  8
DG_GRID
100
AcDbLine
 10
470114.3486022648
 20
4349730.0
 30
0.0
 11
470122.59606722195
 21
4349730.0
 31
0.0
  0
LINE
  5
152
330
17
100
AcDbEntity
  8
DG_GRID
100
AcDbLine
 10
470113.91739673325
 20
4349731.0
 30
0.0
 11
470122.74717188603
 21
4349731.0
 31
0.0
  0
LINE
  5
153
330
17
100
AcDbEntity
  8
DG_GRID
100
AcDbLine
 10
470114.062923411
 20
4349732.0
 30
0.0
 11
470122.6380508041
 21
4349732.0
 31
0.0
  0
LINE
  5
154
330
17
100
AcDbEntity
  8
DG_GRID
100
AcDbLine
 10
470116.3820031232
 20
4349733.0
 30
0.0
 11
470122.13998091867
 21
4349733.0
 31
0.0
  0
LINE
  5
155
330
17
100
AcDbEntity
  8
DG_GRID
100
AcDbLine
 10
470118.7215053225
 20
4349734.0
 30
0.0
 11
470120.789871669
 21
4349734.0
 31
0.0
  0
ENDSEC
  0
SECTION
  2
OBJECTS
  0
DICTIONARY
  5
A
330
0
100
AcDbDictionary
281
1
  3
ACAD_COLOR
350
B
  3
ACAD_GROUP
350
C
  3
ACAD_LAYOUT
350
D
  3
ACAD_MATERIAL
350
E
  3
ACAD_MLEADERSTYLE
350
F
  3
ACAD_MLINESTYLE
350
10
  3
ACAD_PLOTSETTINGS
350
11
  3
ACAD_PLOTSTYLENAME
350
12
  3
ACAD_SCALELIST
350
14
  3
ACAD_TABLESTYLE
350
15
  3
ACAD_VISUALSTYLE
350
16
  3
EZDXF_META
350
2D
  0
DICTIONARY
  5
B
330
A
100
AcDbDictionary
281
1
  0
DICTIONARY
  5
C
330
A
100
AcDbDictionary
281
1
  0
DICTIONARY
  5
D
330
A
100
AcDbDictionary
281
1
  3
Model
350
1A
  3
Layout1
350
1E
  0
DICTIONARY
  5
E
330
A
100
AcDbDictionary
281
1
  3
ByBlock
350
1F
  3
ByLayer
350
20
  3
Global
350
21
  0
DICTIONARY
  5
F
330
A
100
AcDbDictionary
281
1
  3
Standard
350
2C
  0
DICTIONARY
  5
10
330
A
100
AcDbDictionary
281
1
  3
Standard
350
22
  0
DICTIONARY
  5
11
330
A
100
AcDbDictionary
281
1
  0
ACDBDICTIONARYWDFLT
  5
12
330
A
100
AcDbDictionary
281
1
  3
Normal
350
13
100
AcDbDictionaryWithDefault
340
13
  0
ACDBPLACEHOLDER
  5
13
330
12
  0
DICTIONARY
  5
14
330
A
100
AcDbDictionary
281
1
  0
DICTIONARY
  5
15
330
A
100
AcDbDictionary
281
1
  0
DICTIONARY
  5
16
330
A
100
AcDbDictionary
281
1
  0
LAYOUT
  5
1A
330
D
100
AcDbPlotSettings
  1

  4
A3
  6

 40
7.5
 41
20.0
 42
7.5
 43
20.0
 44
420.0
 45
297.0
 46
0.0
 47
0.0
 48
0.0
 49
0.0
140
0.0
141
0.0
142
1.0
143
1.0
 70
1024
 72
1
 73
0
 74
5
  7

 75
16
 76
0
 77
2
 78
300
147
1.0
148
0.0
149
0.0
100
AcDbLayout
  1
Model
 70
1
 71
0
 10
0.0
 20
0.0
 11
420.0
 21
297.0
 12
0.0
 22
0.0
 32
0.0
 14
1e+20
 24
1e+20
 34
1e+20
 15
-1e+20
 25
-1e+20
 35
-1e+20
146
0.0
 13
0.0
 23
0.0
 33
0.0
 16
1.0
 26
0.0
 36
0.0
 17
0.0
 27
1.0
 37
0.0
 76
1
330
17
  0
LAYOUT
  5
1E
330
D
100
AcDbPlotSettings
  1

  4
A3
  6

 40
7.5
 41
20.0
 42
7.5
 43
20.0
 44
420.0
 45
297.0
 46
0.0
 47
0.0
 48
0.0
 49
0.0
140
0.0
141
0.0
142
1.0
143
1.0
 70
0
 72
1
 73
0
 74
5
  7

 75
16
 76
0
 77
2
 78
300
147
1.0
148
0.0
149
0.0
100
AcDbLayout
  1
Layout1
 70
1
 71
1
 10
0.0
 20
0.0
 11
420.0
 21
297.0
 12
0.0
 22
0.0
 32
0.0
 14
1e+20
 24
1e+20
 34
1e+20
 15
-1e+20
 25
-1e+20
 35
-1e+20
146
0.0
 13
0.0
 23
0.0
 33
0.0
 16
1.0
 26
0.0
 36
0.0
 17
0.0
 27
1.0
 37
0.0
 76
1
330
1B
  0
MATERIAL
  5
1F
102
{ACAD_REACTORS
330
E
102
}
330
E
100
AcDbMaterial
  1
ByBlock
  2

 70
0
 40
1.0
 71
1
 41
1.0
 91
-1023410177
 42
1.0
 72
1
  3

 73
1
 74
1
 75
1
 44
0.5
 73
0
 45
1.0
 46
1.0
 77
1
  4

 78
1
 79
1
170
1
 48
1.0
171
1
  6

172
1
173
1
174
1
140
1.0
141
1.0
175
1
  7

176
1
177
1
178
1
143
1.0
179
1
  8

270
1
271
1
272
1
145
1.0
146
1.0
273
1
  9

274
1
275
1
276
1
 42
1.0
 72
1
  3

 73
1
 74
1
 75
1
 94
63
  0
MATERIAL
  5
20
102
{ACAD_REACTORS
330
E
102
}
330
E
100
AcDbMaterial
  1
ByLayer
  2

 70
0
 40
1.0
 71
1
 41
1.0
 91
-1023410177
 42
1.0
 72
1
  3

 73
1
 74
1
 75
1
 44
0.5
 73
0
 45
1.0
 46
1.0
 77
1
  4

 78
1
 79
1
170
1
 48
1.0
171
1
  6

172
1
173
1
174
1
140
1.0
141
1.0
175
1
  7

176
1
177
1
178
1
143
1.0
179
1
  8

270
1
271
1
272
1
145
1.0
146
1.0
273
1
  9

274
1
275
1
276
1
 42
1.0
 72
1
  3

 73
1
 74
1
 75
1
 94
63
  0
MATERIAL
  5
21
102
{ACAD_REACTORS
330
E
102
}
330
E
100
AcDbMaterial
  1
Global
  2

 70
0
 40
1.0
 71
1
 41
1.0
 91
-1023410177
 42
1.0
 72
1
  3

 73
1
 74
1
 75
1
 44
0.5
 73
0
 45
1.0
 46
1.0
 77
1
  4

 78
1
 79
1
170
1
 48
1.0
171
1
  6

172
1
173
1
174
1
140
1.0
141
1.0
175
1
  7

176
1
177
1
178
1
143
1.0
179
1
  8

270
1
271
1
272
1
145
1.0
146
1.0
273
1
  9

274
1
275
1
276
1
 42
1.0
 72
1
  3

 73
1
 74
1
 75
1
 94
63
  0
MLINESTYLE
  5
22
102
{ACAD_REACTORS
330
10
102
}
330
10
100
AcDbMlineStyle
  2
Standard
 70
0
  3

 62
256
 51
90.0
 52
90.0
 71
2
 49
0.5
 62
256
  6
BYLAYER
 49
-0.5
 62
256
  6
BYLAYER
  0
MLEADERSTYLE
  5
2C
102
{ACAD_REACTORS
330
F
102
}
330
F
100
AcDbMLeaderStyle
179
2
170
2
171
1
172
0
 90
2
 40
0.0
 41
0.0
173
1
 91
-1056964608
 92
-2
290
1
 42
2.0
291
1
 43
8.0
  3
Standard
 44
4.0
300

342
29
174
1
175
1
176
0
178
1
 93
-1056964608
 45
4.0
292
0
297
0
 46
4.0
 94
-1056964608
 47
1.0
 49
1.0
140
1.0
294
1
141
0.0
177
0
142
1.0
295
0
296
0
143
3.75
271
0
272
9
273
9
  0
DICTIONARY
  5
2D
330
A
100
AcDbDictionary
280
1
281
1
  3
CREATED_BY_EZDXF
350
2E
  3
WRITTEN_BY_EZDXF
350
158
  0
DICTIONARYVAR
  5
2E
330
2D
100
DictionaryVariables
280
0
  1
1.4.4 @ 2026-10-08T08:38:25.559601+00:00
  0
DICTIONARYVAR
  5
158
330
2D
100
DictionaryVariables
280
0
  1
1.4.4 @ 2026-10-08T08:38:25.570727+00:00
  0
ENDSEC
  0
EOF
