  0
SECTION
  2
HEADER
  9
$ACADVER
  1
AC1024
  9
$ACADMAINTVER
 70
6
  9
$DWGCODEPAGE
  3
ANSI_1252
  9
$LASTSAVEDBY
  1
ezdxf
  9
$INSBASE
 10
0.0
 20
0.0
 30
0.0
  9
$EXTMIN
 10
1e+20
 20
1e+20
 30
1e+20
  9
$EXTMAX
 10
-1e+20
 20
-1e+20
 30
-1e+20
  9
$LIMMIN
 10
0.0
 20
0.0
  9
$LIMMAX
 10
420.0
 20
297.0
  9
$ORTHOMODE
 70
0
  9
$REGENMODE
 70
1
  9
$FILLMODE
 70
1
  9
$QTEXTMODE
 70
0
  9
$MIRRTEXT
 70
1
  9
$LTSCALE
 40
1.0
  9
$ATTMODE
 70
1
  9
$TEXTSIZE
 40
2.5
  9
$TRACEWID
 40
1.0
  9
$TEXTSTYLE
  7
Standard
  9
$CLAYER
  8
0
  9
$CELTYPE
  6
ByLayer
  9
$CECOLOR
 62
256
  9
$CELTSCALE
 40
1.0
  9
$DISPSILH
 70
0
  9
$DIMSCALE
 40
1.0
  9
$DIMASZ
 40
2.5
  9
$DIMEXO
 40
0.625
  9
$DIMDLI
 40
3.75
  9
$DIMRND
 40
0.0
  9
$DIMDLE
 40
0.0
  9
$DIMEXE
 40
1.25
  9
$DIMTP
 40
0.0
  9
$DIMTM
 40
0.0
  9
$DIMTXT
 40
2.5
  9
$DIMCEN
 40
2.5
  9
$DIMTSZ
 40
0.0
  9
$DIMTOL
 70
0
  9
$DIMLIM
 70
0
  9
$DIMTIH
 70
0
  9
$DIMTOH
 70
0
  9
$DIMSE1
 70
0
  9
$DIMSE2
 70
0
  9
$DIMTAD
 70
1
  9
$DIMZIN
 70
8
  9
$DIMBLK
  1

  9
$DIMASO
 70
1
  9
$DIMSHO
 70
1
  9
$DIMPOST
  1

  9
$DIMAPOST
  1

  9
$DIMALT
 70
0
  9
$DIMALTD
 70
3
  9
$DIMALTF
 40
0.03937007874
  9
$DIMLFAC
 40
1.0
  9
$DIMTOFL
 70
1
  9
$DIMTVP
 40
0.0
  9
$DIMTIX
 70
0
  9
$DIMSOXD
 70
0
  9
$DIMSAH
 70
0
  9
$DIMBLK1
  1

  9
$DIMBLK2
  1

  9
$DIMSTYLE
  2
ISO-25
  9
$DIMCLRD
 70
0
  9
$DIMCLRE
 70
0
  9
$DIMCLRT
 70
0
  9
$DIMTFAC
 40
1.0
  9
$DIMGAP
 40
0.625
  9
$DIMJUST
 70
0
  9
$DIMSD1
 70
0
  9
$DIMSD2
 70
0
  9
$DIMTOLJ
 70
0
  9
$DIMTZIN
 70
8
  9
$DIMALTZ
 70
0
  9
$DIMALTTZ
 70
0
  9
$DIMUPT
 70
0
  9
$DIMDEC
 70
2
  9
$DIMTDEC
 70
2
  9
$DIMALTU
 70
2
  9
$DIMALTTD
 70
3
  9
$DIMTXSTY
  7
Standard
  9
$DIMAUNIT
 70
0
  9
$DIMADEC
 70
0
  9
$DIMALTRND
 40
0.0
  9
$DIMAZIN
 70
0
  9
$DIMDSEP
 70
44
  9
$DIMATFIT
 70
3
  9
$DIMFRAC
 70
0
  9
$DIMLDRBLK
  1

  9
$DIMLUNIT
 70
2
  9
$DIMLWD
 70
-2
  9
$DIMLWE
 70
-2
  9
$DIMTMOVE
 70
0
  9
$DIMFXL
 40
1.0
  9
$DIMFXLON
 70
0
  9
$DIMJOGANG
 40
0.785398163397
  9
$DIMTFILL
 70
0
  9
$DIMTFILLCLR
 70
0
  9
$DIMARCSYM
 70
0
  9
$DIMLTYPE
  6

  9
$DIMLTEX1
  6

  9
$DIMLTEX2
  6

  9
$DIMTXTDIRECTION
 70
0
  9
$LUNITS
 70
2
  9
$LUPREC
 70
4
  9
$SKETCHINC
 40
1.0
  9
$FILLETRAD
 40
10.0
  9
$AUNITS
 70
0
  9
$AUPREC
 70
2
  9
$MENU
  1
.
  9
$ELEVATION
 40
0.0
  9
$PELEVATION
 40
0.0
  9
$THICKNESS
 40
0.0
  9
$LIMCHECK
 70
0
  9
$CHAMFERA
 40
0.0
  9
$CHAMFERB
 40
0.0
  9
$CHAMFERC
 40
0.0
  9
$CHAMFERD
 40
0.0
  9
$SKPOLY
 70
0
  9
$TDCREATE
 40
2461322.5441203704
  9
$TDUCREATE
 40
2458532.153996898
  9
$TDUPDATE
 40
2461322.5441203704
  9
$TDUUPDATE
 40
2458532.1544311
  9
$TDINDWG
 40
0.0
  9
$TDUSRTIMER
 40
0.0
  9
$USRTIMER
 70
1
  9
$ANGBASE
 50
0.0
  9
$ANGDIR
 70
0
  9
$PDMODE
 70
0
  9
$PDSIZE
 40
0.0
  9
$PLINEWID
 40
0.0
  9
$SPLFRAME
 70
0
  9
$SPLINETYPE
 70
6
  9
$SPLINESEGS
 70
8
  9
$HANDSEED
  5
1BD
  9
$SURFTAB1
 70
6
  9
$SURFTAB2
 70
6
  9
$SURFTYPE
 70
6
  9
$SURFU
 70
6
  9
$SURFV
 70
6
  9
$UCSBASE
  2

  9
$UCSNAME
  2

  9
$UCSORG
 10
0.0
 20
0.0
 30
0.0
  9
$UCSXDIR
 10
1.0
 20
0.0
 30
0.0
  9
$UCSYDIR
 10
0.0
 20
1.0
 30
0.0
  9
$UCSORTHOREF
  2

  9
$UCSORTHOVIEW
 70
0
  9
$UCSORGTOP
 10
0.0
 20
0.0
 30
0.0
  9
$UCSORGBOTTOM
 10
0.0
 20
0.0
 30
0.0
  9
$UCSORGLEFT
 10
0.0
 20
0.0
 30
0.0
  9
$UCSORGRIGHT
 10
0.0
 20
0.0
 30
0.0
  9
$UCSORGFRONT
 10
0.0
 20
0.0
 30
0.0
  9
$UCSORGBACK
 10
0.0
 20
0.0
 30
0.0
  9
$PUCSBASE
  2

  9
$PUCSNAME
  2

  9
$PUCSORG
 10
0.0
 20
0.0
 30
0.0
  9
$PUCSXDIR
 10
1.0
 20
0.0
 30
0.0
  9
$PUCSYDIR
 10
0.0
 20
1.0
 30
0.0
  9
$PUCSORTHOREF
  2

  9
$PUCSORTHOVIEW
 70
0
  9
$PUCSORGTOP
 10
0.0
 20
0.0
 30
0.0
  9
$PUCSORGBOTTOM
 10
0.0
 20
0.0
 30
0.0
  9
$PUCSORGLEFT
 10
0.0
 20
0.0
 30
0.0
  9
$PUCSORGRIGHT
 10
0.0
 20
0.0
 30
0.0
  9
$PUCSORGFRONT
 10
0.0
 20
0.0
 30
0.0
  9
$PUCSORGBACK
 10
0.0
 20
0.0
 30
0.0
  9
$USERI1
 70
0
  9
$USERI2
 70
0
  9
$USERI3
 70
0
  9
$USERI4
 70
0
  9
$USERI5
 70
0
  9
$USERR1
 40
0.0
  9
$USERR2
 40
0.0
  9
$USERR3
 40
0.0
  9
$USERR4
 40
0.0
  9
$USERR5
 40
0.0
  9
$WORLDVIEW
 70
1
  9
$SHADEDGE
 70
3
  9
$SHADEDIF
 70
70
  9
$TILEMODE
 70
1
  9
$MAXACTVP
 70
64
  9
$PINSBASE
 10
0.0
 20
0.0
 30
0.0
  9
$PLIMCHECK
 70
0
  9
$PEXTMIN
 10
1e+20
 20
1e+20
 30
1e+20
  9
$PEXTMAX
 10
-1e+20
 20
-1e+20
 30
-1e+20
  9
$PLIMMIN
 10
0.0
 20
0.0
  9
$PLIMMAX
 10
420.0
 20
297.0
  9
$UNITMODE
 70
0
  9
$VISRETAIN
 70
1
  9
$PLINEGEN
 70
0
  9
$PSLTSCALE
 70
1
  9
$TREEDEPTH
 70
3020
  9
$CMLSTYLE
  2
Standard
  9
$CMLJUST
 70
0
  9
$CMLSCALE
 40
20.0
  9
$PROXYGRAPHICS
 70
1
  9
$MEASUREMENT
 70
1
  9
$CELWEIGHT
370
-1
  9
$ENDCAPS
280
0
  9
$JOINSTYLE
280
0
  9
$LWDISPLAY
290
0
  9
$INSUNITS
 70
6
  9
$HYPERLINKBASE
  1

  9
$STYLESHEET
  1

  9
$XEDIT
290
1
  9
$CEPSNTYPE
380
0
  9
$PSTYLEMODE
290
1
  9
$FINGERPRINTGUID
  2
{D7F022C5-85FF-4FBF-B647-85C45D0B675A}
  9
$VERSIONGUID
  2
{600EDE12-06F8-43F0-B7A5-AF51704C7A25}
  9
$EXTNAMES
290
1
  9
$PSVPSCALE
 40
0.0
  9
$OLESTARTUP
290
0
  9
$SORTENTS
280
127
  9
$INDEXCTL
280
0
  9
$HIDETEXT
280
1
  9
$XCLIPFRAME
280
1
  9
$HALOGAP
280
0
  9
$OBSCOLOR
 70
257
  9
$OBSLTYPE
280
0
  9
$INTERSECTIONDISPLAY
280
0
  9
$INTERSECTIONCOLOR
 70
257
  9
$DIMASSOC
280
2
  9
$PROJECTNAME
  1

  9
$CAMERADISPLAY
290
0
  9
$LENSLENGTH
 40
50.0
  9
$CAMERAHEIGHT
 40
0.0
  9
$STEPSPERSEC
 40
24.0
  9
$STEPSIZE
 40
100.0
  9
$3DDWFPREC
 40
2.0
  9
$PSOLWIDTH
 40
0.005
  9
$PSOLHEIGHT
 40
0.08
  9
$LOFTANG1
 40
1.570796326795
  9
$LOFTANG2
 40
1.570796326795
  9
$LOFTMAG1
 40
0.0
  9
$LOFTMAG2
 40
0.0
  9
$LOFTPARAM
 70
7
  9
$LOFTNORMALS
280
1
  9
$LATITUDE
 40
37.795
  9
$LONGITUDE
 40
-122.394
  9
$NORTHDIRECTION
 40
0.0
  9
$TIMEZONE
 70
-8000
  9
$LIGHTGLYPHDISPLAY
280
1
  9
$TILEMODELIGHTSYNCH
280
1
  9
$CMATERIAL
347
20
  9
$SOLIDHIST
280
0
  9
$SHOWHIST
280
1
  9
$DWFFRAME
280
2
  9
$DGNFRAME
280
2
  9
$REALWORLDSCALE
290
1
  9
$INTERFERECOLOR
 62
256
  9
$CSHADOW
280
0
  9
$SHADOWPLANELOCATION
 40
0.0
  0
ENDSEC
  0
SECTION
  2
CLASSES
  0
CLASS
  1
ACDBDICTIONARYWDFLT
  2
AcDbDictionaryWithDefault
  3
ObjectDBX Classes
 90
0
 91
0
280
0
281
0
  0
CLASS
  1
SUN
  2
AcDbSun
  3
SCENEOE
 90
1153
 91
0
280
0
281
0
  0
CLASS
  1
VISUALSTYLE
  2
AcDbVisualStyle
  3
ObjectDBX Classes
 90
4095
 91
0
280
0
281
0
  0
CLASS
  1
MATERIAL
  2
AcDbMaterial
  3
ObjectDBX Classes
 90
1153
 91
0
280
0
281
0
  0
CLASS
  1
SCALE
  2
AcDbScale
  3
ObjectDBX Classes
 90
1153
 91
0
280
0
281
0
  0
CLASS
  1
TABLESTYLE
  2
AcDbTableStyle
  3
ObjectDBX Classes
 90
4095
 91
0
280
0
281
0
  0
CLASS
  1
MLEADERSTYLE
  2
AcDbMLeaderStyle
  3
ACDB_MLEADERSTYLE_CLASS
 90
4095
 91
0
280
0
281
0
  0
CLASS
  1
DICTIONARYVAR
  2
AcDbDictionaryVar
  3
ObjectDBX Classes
 90
0
 91
0
280
0
281
0
  0
CLASS
  1
CELLSTYLEMAP
  2
AcDbCellStyleMap
  3
ObjectDBX Classes
 90
1152
 91
0
280
0
281
0
  0
CLASS
  1
MENTALRAYRENDERSETTINGS
  2
AcDbMentalRayRenderSettings
  3
SCENEOE
 90
1024
 91
0
280
0
281
0
  0
CLASS
  1
ACDBDETAILVIEWSTYLE
  2
AcDbDetailViewStyle
  3
ObjectDBX Classes
 90
1025
 91
0
280
0
281
0
  0
CLASS
  1
ACDBSECTIONVIEWSTYLE
  2
AcDbSectionViewStyle
  3
ObjectDBX Classes
 90
1025
 91
0
280
0
281
0
  0
CLASS
  1
RASTERVARIABLES
  2
AcDbRasterVariables
  3
ISM
 90
0
 91
0
280
0
281
0
  0
CLASS
  1
ACDBPLACEHOLDER
  2
AcDbPlaceHolder
  3
ObjectDBX Classes
 90
0
 91
0
280
0
281
0
  0
CLASS
  1
LAYOUT
  2
AcDbLayout
  3
ObjectDBX Classes
 90
0
 91
0
280
0
281
0
  0
ENDSEC
  0
SECTION
  2
TABLES
  0
TABLE
  2
VPORT
  5
8
330
0
100
AcDbSymbolTable
 70
1
  0
VPORT
  5
23
330
8
100
AcDbSymbolTableRecord
100
AcDbViewportTableRecord
  2
*Active
 70
0
 10
0.0
 20
0.0
 11
1.0
 21
1.0
 12
0.0
 22
0.0
 13
0.0
 23
0.0
 14
0.5
 24
0.5
 15
0.5
 25
0.5
 16
0.0
 26
0.0
 36
1.0
 17
0.0
 27
0.0
 37
0.0
 40
1000.0
 41
1.34
 42
50.0
 43
0.0
 44
0.0
 50
0.0
 51
0.0
 71
0
 72
1000
 73
1
 74
3
 75
0
 76
0
 77
0
 78
0
281
0
 65
0
146
0.0
  0
ENDTAB
  0
TABLE
  2
LTYPE
  5
2
330
0
100
AcDbSymbolTable
 70
3
  0
LTYPE
  5
24
330
2
100
AcDbSymbolTableRecord
100
AcDbLinetypeTableRecord
  2
ByBlock
 70
0
  3

 72
65
 73
0
 40
0.0
  0
LTYPE
  5
25
330
2
100
AcDbSymbolTableRecord
100
AcDbLinetypeTableRecord
  2
ByLayer
 70
0
  3

 72
65
 73
0
 40
0.0
  0
LTYPE
  5
26
330
2
100
AcDbSymbolTableRecord
100
AcDbLinetypeTableRecord
  2
Continuous
 70
0
  3

 72
65
 73
0
 40
0.0
  0
ENDTAB
  0
TABLE
  2
LAYER
  5
1
330
0
100
AcDbSymbolTable
 70
10
  0
LAYER
  5
27
330
1
100
AcDbSymbolTableRecord
100
AcDbLayerTableRecord
  2
0
 70
0
 62
7
  6
Continuous
370
-3
390
13
347
21
  0
LAYER
  5
28
330
1
100
AcDbSymbolTableRecord
100
AcDbLayerTableRecord
  2
Defpoints
 70
0
 62
7
  6
Continuous
290
0
370
-3
390
13
347
21
  0
LAYER
  5
2F
330
1
100
AcDbSymbolTableRecord
100
AcDbLayerTableRecord
  2
TITLE
 70
0
 62
7
  6
Continuous
370
-3
390
13
347
21
  0
LAYER
  5
30
330
1
100
AcDbSymbolTableRecord
100
AcDbLayerTableRecord
  2
BLOCK_NO
 70
0
 62
7
  6
Continuous
370
-3
390
13
347
21
  0
LAYER
  5
31
330
1
100
AcDbSymbolTableRecord
100
AcDbLayerTableRecord
  2
DG_GRADE_L1
 70
0
 62
4
  6
Continuous
370
-3
390
13
347
21
  0
LAYER
  5
32
330
1
100
AcDbSymbolTableRecord
100
AcDbLayerTableRecord
  2
DG_CUTOFF
 70
0
 62
7
  6
Continuous
370
-3
390
13
347
21
  0
LAYER
  5
33
330
1
100
AcDbSymbolTableRecord
100
AcDbLayerTableRecord
  2
DG_GRID
 70
0
 62
8
  6
Continuous
370
-3
390
13
347
21
  0
LAYER
  5
34
330
1
100
AcDbSymbolTableRecord
100
AcDbLayerTableRecord
  2
DG_GRADE_L2
 70
0
 62
5
  6
Continuous
370
-3
390
13
347
21
  0
LAYER
  5
35
330
1
100
AcDbSymbolTableRecord
100
AcDbLayerTableRecord
  2
DG_GRADE_L4
 70
0
 62
2
  6
Continuous
370
-3
390
13
347
21
  0
LAYER
  5
36
330
1
100
AcDbSymbolTableRecord
100
AcDbLayerTableRecord
  2
DG_GRADE_L3
 70
0
 62
1
  6
Continuous
370
-3
390
13
347
21
  0
ENDTAB
  0
TABLE
  2
STYLE
  5
5
330
0
100
AcDbSymbolTable
 70
1
  0
STYLE
  5
29
330
5
100
AcDbSymbolTableRecord
100
AcDbTextStyleTableRecord
  2
Standard
 70
0
 40
0.0
 41
1.0
 50
0.0
 71
0
 42
2.5
  3
txt
  4

  0
ENDTAB
  0
TABLE
  2
VIEW
  5
7
330
0
100
AcDbSymbolTable
 70
0
  0
ENDTAB
  0
TABLE
  2
UCS
  5
6
330
0
100
AcDbSymbolTable
 70
0
  0
ENDTAB
  0
TABLE
  2
APPID
  5
3
330
0
100
AcDbSymbolTable
 70
3
  0
APPID
  5
2A
330
3
100
AcDbSymbolTableRecord
100
AcDbRegAppTableRecord
  2
ACAD
 70
0
  0
APPID
  5
1BA
330
3
100
AcDbSymbolTableRecord
100
AcDbRegAppTableRecord
  2
HATCHBACKGROUNDCOLOR
 70
0
  0
APPID
  5
1BB
330
3
100
AcDbSymbolTableRecord
100
AcDbRegAppTableRecord
  2
EZDXF
 70
0
  0
ENDTAB
  0
TABLE
  2
DIMSTYLE
  5
4
330
0
100
AcDbSymbolTable
 70
1
100
AcDbDimStyleTable
  0
DIMSTYLE
105
2B
330
4
100
AcDbSymbolTableRecord
100
AcDbDimStyleTableRecord
  2
Standard
 70
0
 40
1.0
 41
2.5
 42
0.625
 43
3.75
 44
1.25
 45
0.0
 46
0.0
 47
0.0
 48
0.0
 49
2.5
140
2.5
141
2.5
142
0.0
143
0.03937007874
144
1.0
145
0.0
146
1.0
147
0.625
148
0.0
 69
0
 70
0
 71
0
 72
0
 73
0
 74
0
 75
0
 76
0
 77
1
 78
8
 79
3
170
0
171
3
172
1
173
0
174
0
175
0
176
0
177
0
178
0
179
2
271
2
272
2
273
2
274
3
275
0
276
0
277
2
278
44
279
0
280
0
281
0
282
0
283
0
284
8
285
0
286
0
288
0
289
3
290
0
371
-2
372
-2
  0
ENDTAB
  0
TABLE
  2
BLOCK_RECORD
  5
9
330
0
100
AcDbSymbolTable
 70
2
  0
BLOCK_RECORD
  5
17
330
9
100
AcDbSymbolTableRecord
100
AcDbBlockTableRecord
  2
*Model_Space
340
1A
 70
0
280
1
281
0
  0
BLOCK_RECORD
  5
1B
330
9
100
AcDbSymbolTableRecord
100
AcDbBlockTableRecord
  2
*Paper_Space
340
1E
 70
0
280
1
281
0
  0
ENDTAB
  0
ENDSEC
  0
SECTION
  2
BLOCKS
  0
BLOCK
  5
18
330
17
100
AcDbEntity
  8
0
100
AcDbBlockBegin
  2
*Model_Space
 70
0
 10
0.0
 20
0.0
 30
0.0
  3
*Model_Space
  1

  0
ENDBLK
  5
19
330
17
100
AcDbEntity
  8
0
100
AcDbBlockEnd
  0
BLOCK
  5
1C
330
1B
100
AcDbEntity
  8
0
100
AcDbBlockBegin
  2
*Paper_Space
 70
0
 10
0.0
 20
0.0
 30
0.0
  3
*Paper_Space
  1

  0
ENDBLK
  5
1D
330
1B
100
AcDbEntity
  8
0
100
AcDbBlockEnd
  0
ENDSEC
  0
SECTION
  2
ENTITIES
  0
TEXT
  5
37
330
17
100
AcDbEntity
  8
TITLE
100
AcDbText
 10
470000.5390425225
 20
4349677.787846053
 30
0.0
 40
5.0
  1
3940平台 0915 二次圈矿矿块图（体号=品位归并后矿块号）
 11
470000.5390425225
 21
4349677.787846053
 31
0.0
100
AcDbText
  0
LWPOLYLINE
  5
38
330
17
100
AcDbEntity
  8
DG_GRADE_L4
370
25
100
AcDbPolyline
 90
6
 70
1
 10
470068.18089702836
 20
4349659.15495829
 10
470073.52711586567
 20
4349655.9637524765
 10
470070.74491268926
 20
4349651.672622167
 10
470066.42154376867
 20
4349653.570664662
 10
470066.11054111266
 20
4349655.591738059
 10
470068.18089702836
 20
4349659.15495829
  0
TEXT
  5
39
330
17
100
AcDbEntity
  8
BLOCK_NO
100
AcDbText
 10
470069.44838277734
 20
4349654.581201361
 30
0.0
 40
3.0
  1
1
 11
470069.44838277734
 21
4349654.581201361
 31
0.0
100
AcDbText
  0
LWPOLYLINE
  5
3A
330
17
100
AcDbEntity
  8
DG_GRADE_L3
370
25
100
AcDbPolyline
 90
13
 70
1
 10
470023.7269110019
 20
4349637.261450094
 10
470021.5409668594
 20
4349637.348894105
 10
470022.18563888536
 20
4349643.746247587
 10
470023.104492604
 20
4349644.121200751
 10
470024.5943345348
 20
4349646.288099244
 10
470028.8064996029
 20
4349644.36756302
 10
470029.517289597
 20
4349644.57264186
 10
470031.68585453153
 20
4349642.537938958
 10
470031.1436924076
 20
4349637.278966349
 10
470029.01967020484
 20
4349637.23983881
 10
470025.8532549331
 20
4349637.181508894
 10
470025.67808733333
 20
4349637.183397465
 10
470023.7269110019
 20
4349637.261450094
  0
TEXT
  5
3B
330
17
100
AcDbEntity
  8
BLOCK_NO
100
AcDbText
 10
470026.61039961164
 20
4349639.943416532
 30
0.0
 40
3.0
  1
2
 11
470026.61039961164
 21
4349639.943416532
 31
0.0
100
AcDbText
  0
LWPOLYLINE
  5
3C
330
17
100
AcDbEntity
  8
DG_GRADE_L3
370
25
100
AcDbPolyline
 90
10
 70
1
 10
470011.6790873333
 20
4349637.743397466
 10
470011.34348955617
 20
4349637.775783273
 10
470011.0136451142
 20
4349637.8456213195
 10
470010.69372011523
 20
4349637.952029513
 10
470008.0152201152
 20
4349639.013529513
 10
470008.7617301264
 20
4349640.897210215
 10
470011.58219587104
 20
4349643.742416888
 10
470013.5099579849
 20
4349642.451539671
 10
470014.14615633944
 20
4349637.644707656
 10
470011.6790873333
 20
4349637.743397466
  0
TEXT
  5
3D
330
17
100
AcDbEntity
  8
BLOCK_NO
100
AcDbText
 10
470011.11440426053
 20
4349639.955369864
 30
0.0
 40
3.0
  1
3
 11
470011.11440426053
 21
4349639.955369864
 31
0.0
100
AcDbText
  0
LWPOLYLINE
  5
3E
330
17
100
AcDbEntity
  8
DG_GRADE_L3
370
25
100
AcDbPolyline
 90
61
 70
1
 10
470045.79451411904
 20
4349643.73702426
 10
470047.9499257274
 20
4349644.090123829
 10
470050.3474721558
 20
4349647.023776428
 10
470053.4751021126
 20
4349644.807265322
 10
470054.5070839933
 20
4349644.958676469
 10
470058.15398840234
 20
4349641.113392392
 10
470060.4220379732
 20
4349646.031464918
 10
470061.15986268554
 20
4349646.115484513
 10
470064.00777782773
 20
4349649.645126799
 10
470067.95821329637
 20
4349646.7210232215
 10
470070.96303734445
 20
4349650.905540819
 10
470070.74491268926
 20
4349651.672622167
 10
470073.52711586567
 20
4349655.9637524765
 10
470068.18089702836
 20
4349659.15495829
 10
470067.722349689
 20
4349662.066984012
 10
470072.088349689
 20
4349662.754484012
 10
470072.38959516777
 20
4349662.786436737
 10
470072.69252722105
 20
4349662.787846053
 10
470072.99405695795
 20
4349662.758697591
 10
470073.2911097864
 20
4349662.699288566
 10
470073.5806567639
 20
4349662.610224753
 10
470073.85974548233
 20
4349662.492414301
 10
470074.12553017284
 20
4349662.347058484
 10
470074.3753007229
 20
4349662.175639444
 10
470074.6065103106
 20
4349661.979905079
 10
470074.81680137373
 20
4349661.761851224
 10
470075.0040296486
 20
4349661.523701296
 10
470075.16628603486
 20
4349661.267883626
 10
470075.30191606143
 20
4349660.997006697
 10
470075.40953675704
 20
4349660.713832543
 10
470075.48805075145
 20
4349660.421248593
 10
470076.31705075136
 20
4349656.563248593
 10
470077.14605075144
 20
4349652.705248593
 10
470077.19292815274
 20
4349652.421450869
 10
470077.21241053176
 20
4349652.134468159
 10
470077.2043187835
 20
4349651.846938747
 10
470077.16872729687
 20
4349651.561505944
 10
470077.1059632709
 20
4349651.280793784
 10
470077.01660370664
 20
4349651.007382908
 10
470076.9014701029
 20
4349650.7437868295
 10
470076.761620904
 20
4349650.492428836
 10
470075.3331209043
 20
4349648.1919288365
 10
470073.90462090407
 20
4349645.891428837
 10
470073.8574843331
 20
4349645.817927498
 10
470072.47548433335
 20
4349643.730427498
 10
470071.0934843331
 20
4349641.642927498
 10
470070.9182397254
 20
4349641.404637642
 10
470070.720380778
 20
4349641.184763668
 10
470070.5018309595
 20
4349640.985443061
 10
470070.2647148833
 20
4349640.8086135
 10
470070.0113376529
 20
4349640.655994017
 10
470069.74416245334
 20
4349640.529068289
 10
470069.4657866054
 20
4349640.429070215
 10
470069.17891631596
 20
4349640.356971917
 10
470068.8863403699
 20
4349640.313474293
 10
470065.10836828966
 20
4349639.941007327
 10
470058.3665951459
 20
4349639.276341806
 10
470051.5329482235
 20
4349638.602618529
 10
470051.4713213648
 20
4349638.596542791
 10
470044.89404531143
 20
4349637.948094894
 10
470045.79451411904
 20
4349643.73702426
  0
TEXT
  5
3F
330
17
100
AcDbEntity
  8
BLOCK_NO
100
AcDbText
 10
470073.4303637048
 20
4349650.068777818
 30
0.0
 40
3.0
  1
4
 11
470073.4303637048
 21
4349650.068777818
 31
0.0
100
AcDbText
  0
LWPOLYLINE
  5
40
330
17
100
AcDbEntity
  8
DG_GRADE_L3
370
25
100
AcDbPolyline
 90
14
 70
1
 10
470036.0469414755
 20
4349644.7854278525
 10
470035.97562498803
 20
4349645.163773538
 10
470031.7839744007
 20
4349647.583725765
 10
470031.57104244875
 20
4349648.976809471
 10
470035.2377206599
 20
4349651.983941093
 10
470038.33595248807
 20
4349650.328806325
 10
470041.555011753
 20
4349653.369842442
 10
470045.33931188844
 20
4349651.315614293
 10
470045.60987486417
 20
4349650.151661024
 10
470042.98078035336
 20
4349646.3192246435
 10
470043.10694272845
 20
4349645.535449061
 10
470040.7818717972
 20
4349643.000050989
 10
470038.5489107738
 20
4349642.951211842
 10
470036.0469414755
 20
4349644.7854278525
  0
TEXT
  5
41
330
17
100
AcDbEntity
  8
BLOCK_NO
100
AcDbText
 10
470038.00179317023
 20
4349648.280267619
 30
0.0
 40
3.0
  1
5
 11
470038.00179317023
 21
4349648.280267619
 31
0.0
100
AcDbText
  0
LWPOLYLINE
  5
42
330
17
100
AcDbEntity
  8
DG_GRADE_L3
370
25
100
AcDbPolyline
 90
14
 70
1
 10
470066.11054111266
 20
4349655.591738059
 10
470066.42154376867
 20
4349653.570664662
 10
470063.92178668344
 20
4349650.436333409
 10
470059.52017977485
 20
4349652.828490014
 10
470056.9975541998
 20
4349649.4879819285
 10
470052.64072381007
 20
4349651.280491029
 10
470052.43379942415
 20
4349652.415493989
 10
470048.5127784005
 20
4349655.192666914
 10
470048.00730872416
 20
4349658.756851575
 10
470054.95277142606
 20
4349659.943713974
 10
470055.61976159393
 20
4349656.148828438
 10
470059.3694420331
 20
4349653.681553976
 10
470061.6800064884
 20
4349656.540571191
 10
470066.11054111266
 20
4349655.591738059
  0
TEXT
  5
43
330
17
100
AcDbEntity
  8
BLOCK_NO
100
AcDbText
 10
470053.9003512542
 20
4349654.4371104445
 30
0.0
 40
3.0
  1
6
 11
470053.9003512542
 21
4349654.4371104445
 31
0.0
100
AcDbText
  0
LWPOLYLINE
  5
44
330
17
100
AcDbEntity
  8
DG_GRADE_L2
370
25
100
AcDbPolyline
 90
38
 70
1
 10
470031.7839744007
 20
4349647.583725765
 10
470035.97562498803
 20
4349645.163773538
 10
470036.0469414755
 20
4349644.7854278525
 10
470038.5489107738
 20
4349642.951211842
 10
470040.7818717972
 20
4349643.000050989
 10
470043.10694272845
 20
4349645.535449061
 10
470042.98078035336
 20
4349646.3192246435
 10
470045.60987486417
 20
4349650.151661024
 10
470045.33931188844
 20
4349651.315614293
 10
470048.5127784005
 20
4349655.192666914
 10
470052.43379942415
 20
4349652.415493989
 10
470052.64072381007
 20
4349651.280491029
 10
470056.9975541998
 20
4349649.4879819285
 10
470059.52017977485
 20
4349652.828490014
 10
470063.92178668344
 20
4349650.436333409
 10
470066.42154376867
 20
4349653.570664662
 10
470070.74491268926
 20
4349651.672622167
 10
470070.96303734445
 20
4349650.905540819
 10
470067.95821329637
 20
4349646.7210232215
 10
470064.00777782773
 20
4349649.645126799
 10
470061.15986268554
 20
4349646.115484513
 10
470060.4220379732
 20
4349646.031464918
 10
470058.15398840234
 20
4349641.113392392
 10
470054.5070839933
 20
4349644.958676469
 10
470053.4751021126
 20
4349644.807265322
 10
470050.3474721558
 20
4349647.023776428
 10
470047.9499257274
 20
4349644.090123829
 10
470045.79451411904
 20
4349643.73702426
 10
470044.89404531143
 20
4349637.948094894
 10
470042.7250549874
 20
4349637.734256034
 10
470039.8263403699
 20
4349637.448474294
 10
470039.5872549331
 20
4349637.434508895
 10
470036.9356057367
 20
4349637.385661709
 10
470034.93428660725
 20
4349637.348794537
 10
470031.1436924076
 20
4349637.278966349
 10
470031.68585453153
 20
4349642.537938958
 10
470029.517289597
 20
4349644.57264186
 10
470031.7839744007
 20
4349647.583725765
  0
TEXT
  5
45
330
17
100
AcDbEntity
  8
BLOCK_NO
100
AcDbText
 10
470056.36371945747
 20
4349646.217354579
 30
0.0
 40
3.0
  1
7
 11
470056.36371945747
 21
4349646.217354579
 31
0.0
100
AcDbText
  0
LWPOLYLINE
  5
46
330
17
100
AcDbEntity
  8
DG_GRADE_L2
370
25
100
AcDbPolyline
 90
57
 70
1
 10
470013.5099579849
 20
4349642.451539671
 10
470011.58219587104
 20
4349643.742416888
 10
470008.7617301264
 20
4349640.897210215
 10
470008.0152201152
 20
4349639.013529513
 10
470005.3367201152
 20
4349640.075029513
 10
470005.31808807707
 20
4349640.0824856665
 10
470003.8665880772
 20
4349640.668985666
 10
470002.4150880771
 20
4349641.255485666
 10
470002.14475998684
 20
4349641.380668923
 10
470001.88818036177
 20
4349641.532046003
 10
470001.6478793086
 20
4349641.7081241915
 10
470001.4262264125
 20
4349641.907167196
 10
470001.22540737124
 20
4349642.127212276
 10
470001.0474024418
 20
4349642.366089586
 10
470000.89396691346
 20
4349642.621443582
 10
470000.76661379903
 20
4349642.890756242
 10
470000.6665989152
 20
4349643.1713719
 10
470000.5949084989
 20
4349643.460523431
 10
470000.5522494826
 20
4349643.7553595435
 10
470000.5390425225
 20
4349644.052972884
 10
470000.55541785114
 20
4349644.350428717
 10
470000.60121399316
 20
4349644.644793861
 10
470000.6759793571
 20
4349644.933165608
 10
470000.77897668903
 20
4349645.212700354
 10
470000.90919034235
 20
4349645.480641632
 10
470001.0653362928
 20
4349645.734347302
 10
470001.2458748004
 20
4349645.971315594
 10
470001.44902559253
 20
4349646.189209789
 10
470001.67278541886
 20
4349646.385881252
 10
470001.9149478057
 20
4349646.559390626
 10
470002.1731248131
 20
4349646.708026951
 10
470002.44477058295
 20
4349646.830324539
 10
470006.14764456224
 20
4349648.280851887
 10
470010.7676799088
 20
4349650.090658987
 10
470010.84201549285
 20
4349650.119778476
 10
470016.229770583
 20
4349652.230324539
 10
470016.45091912785
 20
4349652.307144559
 10
470016.67738454073
 20
4349652.366486038
 10
470020.9820811434
 20
4349653.316647034
 10
470028.12048021075
 20
4349654.892281507
 10
470034.2346946874
 20
4349656.241851211
 10
470037.4043845407
 20
4349656.941486038
 10
470037.5456755251
 20
4349656.96913496
 10
470040.98521327187
 20
4349657.556893933
 10
470041.555011753
 20
4349653.369842442
 10
470038.33595248807
 20
4349650.328806325
 10
470035.2377206599
 20
4349651.983941093
 10
470031.57104244875
 20
4349648.976809471
 10
470029.1080523091
 20
4349650.6745846225
 10
470024.4274676337
 20
4349647.519306378
 10
470024.5943345348
 20
4349646.288099244
 10
470023.104492604
 20
4349644.121200751
 10
470022.18563888536
 20
4349643.746247587
 10
470021.5409668594
 20
4349637.348894105
 10
470018.02133725164
 20
4349637.489689347
 10
470014.14615633944
 20
4349637.644707656
 10
470013.5099579849
 20
4349642.451539671
  0
TEXT
  5
47
330
17
100
AcDbEntity
  8
BLOCK_NO
100
AcDbText
 10
470013.89916811395
 20
4349647.174815459
 30
0.0
 40
3.0
  1
8
 11
470013.89916811395
 21
4349647.174815459
 31
0.0
100
AcDbText
  0
LWPOLYLINE
  5
48
330
17
100
AcDbEntity
  8
DG_GRADE_L2
370
25
100
AcDbPolyline
 90
11
 70
1
 10
470063.3176755251
 20
4349661.37313496
 10
470063.35634968895
 20
4349661.379484012
 10
470067.722349689
 20
4349662.066984012
 10
470068.18089702836
 20
4349659.15495829
 10
470066.11054111266
 20
4349655.591738059
 10
470061.6800064884
 20
4349656.540571191
 10
470059.3694420331
 20
4349653.681553976
 10
470055.61976159393
 20
4349656.148828438
 10
470054.95277142606
 20
4349659.943713974
 10
470060.5653030504
 20
4349660.90280094
 10
470063.3176755251
 20
4349661.37313496
  0
TEXT
  5
49
330
17
100
AcDbEntity
  8
BLOCK_NO
100
AcDbText
 10
470061.3712638981
 20
4349657.847764741
 30
0.0
 40
3.0
  1
9
 11
470061.3712638981
 21
4349657.847764741
 31
0.0
100
AcDbText
  0
LWPOLYLINE
  5
4A
330
17
100
AcDbEntity
  8
DG_GRADE_L1
370
25
100
AcDbPolyline
 90
6
 70
1
 10
470040.98521327187
 20
4349657.556893933
 10
470048.00730872416
 20
4349658.756851575
 10
470048.5127784005
 20
4349655.192666914
 10
470045.33931188844
 20
4349651.315614293
 10
470041.555011753
 20
4349653.369842442
 10
470040.98521327187
 20
4349657.556893933
  0
TEXT
  5
4B
330
17
100
AcDbEntity
  8
BLOCK_NO
100
AcDbText
 10
470044.5988728329
 20
4349654.281254678
 30
0.0
 40
3.0
  1
10
 11
470044.5988728329
 21
4349654.281254678
 31
0.0
100
AcDbText
  0
LINE
  5
4C
330
17
100
AcDbEntity
  8
DG_GRID
100
AcDbLine
 10
470067.0
 20
4349653.3167111995
 30
0.0
 11
470067.0
 21
4349657.122555963
 31
0.0
  0
LINE
  5
4D
330
17
100
AcDbEntity
  8
DG_GRID
100
AcDbLine
 10
470068.0
 20
4349652.877691876
 30
0.0
 11
470068.0
 21
4349658.843622473
 31
0.0
  0
LINE
  5
4E
330
17
100
AcDbEntity
  8
DG_GRID
100
AcDbLine
 10
470069.0
 20
4349652.438672554
 30
0.0
 11
470069.0
 21
4349658.666028405
 31
0.0
  0
LINE
  5
4F
330
17
100
AcDbEntity
  8
DG_GRID
100
AcDbLine
 10
470070.0
 20
4349651.999653231
 30
0.0
 11
470070.0
 21
4349658.069119466
 31
0.0
  0
LINE
  5
50
330
17
100
AcDbEntity
  8
DG_GRID
100
AcDbLine
 10
470071.0
 20
4349652.06605601
 30
0.0
 11
470071.0
 21
4349657.4722105265
 31
0.0
  0
LINE
  5
51
330
17
100
AcDbEntity
  8
DG_GRID
100
AcDbLine
 10
470072.0
 20
4349653.608405738
 30
0.0
 11
470072.0
 21
4349656.875301587
 31
0.0
  0
LINE
  5
52
330
17
100
AcDbEntity
  8
DG_GRID
100
AcDbLine
 10
470073.0
 20
4349655.150755465
 30
0.0
 11
470073.0
 21
4349656.278392648
 31
0.0
  0
LINE
  5
53
330
17
100
AcDbEntity
  8
DG_GRID
100
AcDbLine
 10
470069.9992101279
 20
4349652.0
 30
0.0
 11
470070.95717183367
 21
4349652.0
 31
0.0
  0
LINE
  5
54
330
17
100
AcDbEntity
  8
DG_GRID
100
AcDbLine
 10
470067.7214060581
 20
4349653.0
 30
0.0
 11
470071.6055332153
 21
4349653.0
 31
0.0
  0
LINE
  5
55
330
17
100
AcDbEntity
  8
DG_GRID
100
AcDbLine
 10
470066.355477672
 20
4349654.0
 30
0.0
 11
470072.2538945969
 21
4349654.0
 31
0.0
  0
LINE
  5
56
330
17
100
AcDbEntity
  8
DG_GRID
100
AcDbLine
 10
470066.2015977306
 20
4349655.0
 30
0.0
 11
470072.9022559785
 21
4349655.0
 31
0.0
  0
LINE
  5
57
330
17
100
AcDbEntity
  8
DG_GRID
100
AcDbLine
 10
470066.347755618
 20
4349656.0
 30
0.0
 11
470073.4663904834
 21
4349656.0
 31
0.0
  0
LINE
  5
58
330
17
100
AcDbEntity
  8
DG_GRID
100
AcDbLine
 10
470066.9287906878
 20
4349657.0
 30
0.0
 11
470071.79109307245
 21
4349657.0
 31
0.0
  0
LINE
  5
59
330
17
100
AcDbEntity
  8
DG_GRID
100
AcDbLine
 10
470067.50982575765
 20
4349658.0
 30
0.0
 11
470070.11579566146
 21
4349658.0
 31
0.0
  0
LINE
  5
5A
330
17
100
AcDbEntity
  8
DG_GRID
100
AcDbLine
 10
470068.0908608275
 20
4349659.0
 30
0.0
 11
470068.4404982505
 21
4349659.0
 31
0.0
  0
LINE
  5
5B
330
17
100
AcDbEntity
  8
DG_GRID
100
AcDbLine
 10
470022.0
 20
4349637.330531469
 30
0.0
 11
470022.0
 21
4349641.904074324
 31
0.0
  0
LINE
  5
5C
330
17
100
AcDbEntity
  8
DG_GRID
100
AcDbLine
 10
470023.0
 20
4349637.290528611
 30
0.0
 11
470023.0
 21
4349644.078560849
 31
0.0
  0
LINE
  5
5D
330
17
100
AcDbEntity
  8
DG_GRID
100
AcDbLine
 10
470024.0
 20
4349637.250525754
 30
0.0
 11
470024.0
 21
4349645.423670219
 31
0.0
  0
LINE
  5
5E
330
17
100
AcDbEntity
  8
DG_GRID
100
AcDbLine
 10
470025.0
 20
4349637.210522897
 30
0.0
 11
470025.0
 21
4349646.103136118
 31
0.0
  0
LINE
  5
5F
330
17
100
AcDbEntity
  8
DG_GRID
100
AcDbLine
 10
470026.0
 20
4349637.184212149
 30
0.0
 11
470026.0
 21
4349645.647186222
 31
0.0
  0
LINE
  5
60
330
17
100
AcDbEntity
  8
DG_GRID
100
AcDbLine
 10
470027.0
 20
4349637.202633585
 30
0.0
 11
470027.0
 21
4349645.1912363265
 31
0.0
  0
LINE
  5
61
330
17
100
AcDbEntity
  8
DG_GRID
100
AcDbLine
 10
470028.0
 20
4349637.221055021
 30
0.0
 11
470028.0
 21
4349644.73528643
 31
0.0
  0
LINE
  5
62
330
17
100
AcDbEntity
  8
DG_GRID
100
AcDbLine
 10
470029.0
 20
4349637.239476456
 30
0.0
 11
470029.0
 21
4349644.42339222
 31
0.0
  0
LINE
  5
63
330
17
100
AcDbEntity
  8
DG_GRID
100
AcDbLine
 10
470030.0
 20
4349637.257897892
 30
0.0
 11
470030.0
 21
4349644.119728395
 31
0.0
  0
LINE
  5
64
330
17
100
AcDbEntity
  8
DG_GRID
100
AcDbLine
 10
470031.0
 20
4349637.276319328
 30
0.0
 11
470031.0
 21
4349643.18145679
 31
0.0
  0
LINE
  5
65
330
17
100
AcDbEntity
  8
DG_GRID
100
AcDbLine
 10
470021.606579891
 20
4349638.0
 30
0.0
 11
470031.2180257736
 21
4349638.0
 31
0.0
  0
LINE
  5
66
330
17
100
AcDbEntity
  8
DG_GRID
100
AcDbLine
 10
470021.707351566
 20
4349639.0
 30
0.0
 11
470031.32111855695
 21
4349639.0
 31
0.0
  0
LINE
  5
67
330
17
100
AcDbEntity
  8
DG_GRID
100
AcDbLine
 10
470021.808123241
 20
4349640.0
 30
0.0
 11
470031.4242113403
 21
4349640.0
 31
0.0
  0
LINE
  5
68
330
17
100
AcDbEntity
  8
DG_GRID
100
AcDbLine
 10
470021.90889491607
 20
4349641.0
 30
0.0
 11
470031.5273041237
 21
4349641.0
 31
0.0
  0
LINE
  5
69
330
17
100
AcDbEntity
  8
DG_GRID
100
AcDbLine
 10
470022.00966659107
 20
4349642.0
 30
0.0
 11
470031.63039690704
 21
4349642.0
 31
0.0
  0
LINE
  5
6A
330
17
100
AcDbEntity
  8
DG_GRID
100
AcDbLine
 10
470022.11043826607
 20
4349643.0
 30
0.0
 11
470031.19339473685
 21
4349643.0
 31
0.0
  0
LINE
  5
6B
330
17
100
AcDbEntity
  8
DG_GRID
100
AcDbLine
 10
470022.80748014717
 20
4349644.0
 30
0.0
 11
470030.12760526326
 21
4349644.0
 31
0.0
  0
LINE
  5
6C
330
17
100
AcDbEntity
  8
DG_GRID
100
AcDbLine
 10
470023.7087073258
 20
4349645.0
 30
0.0
 11
470027.41942399344
 21
4349645.0
 31
0.0
  0
LINE
  5
6D
330
17
100
AcDbEntity
  8
DG_GRID
100
AcDbLine
 10
470024.39625311305
 20
4349646.0
 30
0.0
 11
470025.22620055097
 21
4349646.0
 31
0.0
  0
LINE
  5
6E
330
17
100
AcDbEntity
  8
DG_GRID
100
AcDbLine
 10
470009.0
 20
4349638.623257402
 30
0.0
 11
470009.0
 21
4349641.137570175
 31
0.0
  0
LINE
  5
6F
330
17
100
AcDbEntity
  8
DG_GRID
100
AcDbLine
 10
470010.0
 20
4349638.226953501
 30
0.0
 11
470010.0
 21
4349642.146342105
 31
0.0
  0
LINE
  5
70
330
17
100
AcDbEntity
  8
DG_GRID
100
AcDbLine
 10
470011.0
 20
4349637.850159733
 30
0.0
 11
470011.0
 21
4349643.155114035
 31
0.0
  0
LINE
  5
71
330
17
100
AcDbEntity
  8
DG_GRID
100
AcDbLine
 10
470012.0
 20
4349637.730560042
 30
0.0
 11
470012.0
 21
4349643.462644904
 31
0.0
  0
LINE
  5
72
330
17
100
AcDbEntity
  8
DG_GRID
100
AcDbLine
 10
470013.0
 20
4349637.690557185
 30
0.0
 11
470013.0
 21
4349642.793020157
 31
0.0
  0
LINE
  5
73
330
17
100
AcDbEntity
  8
DG_GRID
100
AcDbLine
 10
470014.0
 20
4349637.650554327
 30
0.0
 11
470014.0
 21
4349638.749
 31
0.0
  0
LINE
  5
74
330
17
100
AcDbEntity
  8
DG_GRID
100
AcDbLine
 10
470010.5726754154
 20
4349638.0
 30
0.0
 11
470014.0991323528
 21
4349638.0
 31
0.0
  0
LINE
  5
75
330
17
100
AcDbEntity
  8
DG_GRID
100
AcDbLine
 10
470008.04935935274
 20
4349639.0
 30
0.0
 11
470013.9667794117
 21
4349639.0
 31
0.0
  0
LINE
  5
76
330
17
100
AcDbEntity
  8
DG_GRID
100
AcDbLine
 10
470008.4061622178
 20
4349640.0
 30
0.0
 11
470013.8344264706
 21
4349640.0
 31
0.0
  0
LINE
  5
77
330
17
100
AcDbEntity
  8
DG_GRID
100
AcDbLine
 10
470008.86362608697
 20
4349641.0
 30
0.0
 11
470013.7020735295
 21
4349641.0
 31
0.0
  0
LINE
  5
78
330
17
100
AcDbEntity
  8
DG_GRID
100
AcDbLine
 10
470009.8549304347
 20
4349642.0
 30
0.0
 11
470013.5697205884
 21
4349642.0
 31
0.0
  0
LINE
  5
79
330
17
100
AcDbEntity
  8
DG_GRID
100
AcDbLine
 10
470010.84623478254
 20
4349643.0
 30
0.0
 11
470012.6909017419
 21
4349643.0
 31
0.0
  0
LINE
  5
7A
330
17
100
AcDbEntity
  8
DG_GRID
100
AcDbLine
 10
470045.0
 20
4349637.9585408745
 30
0.0
 11
470045.0
 21
4349638.629255866
 31
0.0
  0
LINE
  5
7B
330
17
100
AcDbEntity
  8
DG_GRID
100
AcDbLine
 10
470046.0
 20
4349638.057130001
 30
0.0
 11
470046.0
 21
4349643.770686961
 31
0.0
  0
LINE
  5
7C
330
17
100
AcDbEntity
  8
DG_GRID
100
AcDbLine
 10
470047.0
 20
4349638.155719127
 30
0.0
 11
470047.0
 21
4349643.934506979
 31
0.0
  0
LINE
  5
7D
330
17
100
AcDbEntity
  8
DG_GRID
100
AcDbLine
 10
470048.0
 20
4349638.254308253
 30
0.0
 11
470048.0
 21
4349644.151395018
 31
0.0
  0
LINE
  5
7E
330
17
100
AcDbEntity
  8
DG_GRID
100
AcDbLine
 10
470049.0
 20
4349638.352897378
 30
0.0
 11
470049.0
 21
4349645.3750011865
 31
0.0
  0
LINE
  5
7F
330
17
100
AcDbEntity
  8
DG_GRID
100
AcDbLine
 10
470050.0
 20
4349638.451486504
 30
0.0
 11
470050.0
 21
4349646.598607355
 31
0.0
  0
LINE
  5
80
330
17
100
AcDbEntity
  8
DG_GRID
100
AcDbLine
 10
470051.0
 20
4349638.55007563
 30
0.0
 11
470051.0
 21
4349646.561338341
 31
0.0
  0
LINE
  5
81
330
17
100
AcDbEntity
  8
DG_GRID
100
AcDbLine
 10
470052.0
 20
4349638.648664756
 30
0.0
 11
470052.0
 21
4349645.852651209
 31
0.0
  0
LINE
  5
82
330
17
100
AcDbEntity
  8
DG_GRID
100
AcDbLine
 10
470053.0
 20
4349638.747253882
 30
0.0
 11
470053.0
 21
4349645.1439640755
 31
0.0
  0
LINE
  5
83
330
17
100
AcDbEntity
  8
DG_GRID
100
AcDbLine
 10
470054.0
 20
4349638.845843008
 30
0.0
 11
470054.0
 21
4349644.884277712
 31
0.0
  0
LINE
  5
84
330
17
100
AcDbEntity
  8
DG_GRID
100
AcDbLine
 10
470055.0
 20
4349638.944432134
 30
0.0
 11
470055.0
 21
4349644.438947444
 31
0.0
  0
LINE
  5
85
330
17
100
AcDbEntity
  8
DG_GRID
100
AcDbLine
 10
470056.0
 20
4349639.04302126
 30
0.0
 11
470056.0
 21
4349643.384550716
 31
0.0
  0
LINE
  5
86
330
17
100
AcDbEntity
  8
DG_GRID
100
AcDbLine
 10
470057.0
 20
4349639.141610385
 30
0.0
 11
470057.0
 21
4349642.330153988
 31
0.0
  0
LINE
  5
87
330
17
100
AcDbEntity
  8
DG_GRID
100
AcDbLine
 10
470058.0
 20
4349639.240199511
 30
0.0
 11
470058.0
 21
4349641.27575726
 31
0.0
  0
LINE
  5
88
330
17
100
AcDbEntity
  8
DG_GRID
100
AcDbLine
 10
470059.0
 20
4349639.338788637
 30
0.0
 11
470059.0
 21
4349642.947896562
 31
0.0
  0
LINE
  5
89
330
17
100
AcDbEntity
  8
DG_GRID
100
AcDbLine
 10
470060.0
 20
4349639.437377763
 30
0.0
 11
470060.0
 21
4349645.11631148
 31
0.0
  0
LINE
  5
8A
330
17
100
AcDbEntity
  8
DG_GRID
100
AcDbLine
 10
470061.0
 20
4349639.535966889
 30
0.0
 11
470061.0
 21
4349646.097280192
 31
0.0
  0
LINE
  5
8B
330
17
100
AcDbEntity
  8
DG_GRID
100
AcDbLine
 10
470062.0
 20
4349639.634556015
 30
0.0
 11
470062.0
 21
4349647.156731897
 31
0.0
  0
LINE
  5
8C
330
17
100
AcDbEntity
  8
DG_GRID
100
AcDbLine
 10
470063.0
 20
4349639.733145141
 30
0.0
 11
470063.0
 21
4349648.396109515
 31
0.0
  0
LINE
  5
8D
330
17
100
AcDbEntity
  8
DG_GRID
100
AcDbLine
 10
470064.0
 20
4349639.831734266
 30
0.0
 11
470064.0
 21
4349649.635487134
 31
0.0
  0
LINE
  5
8E
330
17
100
AcDbEntity
  8
DG_GRID
100
AcDbLine
 10
470065.0
 20
4349639.930323392
 30
0.0
 11
470065.0
 21
4349648.9106861465
 31
0.0
  0
LINE
  5
8F
330
17
100
AcDbEntity
  8
DG_GRID
100
AcDbLine
 10
470066.0
 20
4349640.028912518
 30
0.0
 11
470066.0
 21
4349648.170488363
 31
0.0
  0
LINE
  5
90
330
17
100
AcDbEntity
  8
DG_GRID
100
AcDbLine
 10
470067.0
 20
4349640.127501644
 30
0.0
 11
470067.0
 21
4349647.43029058
 31
0.0
  0
LINE
  5
91
330
17
100
AcDbEntity
  8
DG_GRID
100
AcDbLine
 10
470068.0
 20
4349640.22609077
 30
0.0
 11
470068.0
 21
4349646.77921538
 31
0.0
  0
LINE
  5
92
330
17
100
AcDbEntity
  8
DG_GRID
100
AcDbLine
 10
470068.0
 20
4349660.303753091
 30
0.0
 11
470068.0
 21
4349662.110704714
 31
0.0
  0
LINE
  5
93
330
17
100
AcDbEntity
  8
DG_GRID
100
AcDbLine
 10
470069.0
 20
4349640.330372209
 30
0.0
 11
470069.0
 21
4349648.171815257
 31
0.0
  0
LINE
  5
94
330
17
100
AcDbEntity
  8
DG_GRID
100
AcDbLine
 10
470069.0
 20
4349658.666028405
 30
0.0
 11
470069.0
 21
4349662.268171503
 31
0.0
  0
LINE
  5
95
330
17
100
AcDbEntity
  8
DG_GRID
100
AcDbLine
 10
470070.0
 20
4349640.650607889
 30
0.0
 11
470070.0
 21
4349649.564415133
 31
0.0
  0
LINE
  5
96
330
17
100
AcDbEntity
  8
DG_GRID
100
AcDbLine
 10
470070.0
 20
4349658.069119466
 30
0.0
 11
470070.0
 21
4349662.425638292
 31
0.0
  0
LINE
  5
97
330
17
100
AcDbEntity
  8
DG_GRID
100
AcDbLine
 10
470071.0
 20
4349641.515811643
 30
0.0
 11
470071.0
 21
4349652.06605601
 31
0.0
  0
LINE
  5
98
330
17
100
AcDbEntity
  8
DG_GRID
100
AcDbLine
 10
470071.0
 20
4349657.4722105265
 30
0.0
 11
470071.0
 21
4349662.583105081
 31
0.0
  0
LINE
  5
99
330
17
100
AcDbEntity
  8
DG_GRID
100
AcDbLine
 10
470072.0
 20
4349643.012212197
 30
0.0
 11
470072.0
 21
4349653.608405738
 31
0.0
  0
LINE
  5
9A
330
17
100
AcDbEntity
  8
DG_GRID
100
AcDbLine
 10
470072.0
 20
4349656.875301587
 30
0.0
 11
470072.0
 21
4349662.74057187
 31
0.0
  0
LINE
  5
9B
330
17
100
AcDbEntity
  8
DG_GRID
100
AcDbLine
 10
470073.0
 20
4349644.522704238
 30
0.0
 11
470073.0
 21
4349655.150755465
 31
0.0
  0
LINE
  5
9C
330
17
100
AcDbEntity
  8
DG_GRID
100
AcDbLine
 10
470073.0
 20
4349656.278392648
 30
0.0
 11
470073.0
 21
4349662.757509014
 31
0.0
  0
LINE
  5
9D
330
17
100
AcDbEntity
  8
DG_GRID
100
AcDbLine
 10
470074.0
 20
4349646.045030244
 30
0.0
 11
470074.0
 21
4349662.415710071
 31
0.0
  0
LINE
  5
9E
330
17
100
AcDbEntity
  8
DG_GRID
100
AcDbLine
 10
470075.0
 20
4349647.655460765
 30
0.0
 11
470075.0
 21
4349661.528826914
 31
0.0
  0
LINE
  5
9F
330
17
100
AcDbEntity
  8
DG_GRID
100
AcDbLine
 10
470076.0
 20
4349649.265891287
 30
0.0
 11
470076.0
 21
4349658.038739304
 31
0.0
  0
LINE
  5
A0
330
17
100
AcDbEntity
  8
DG_GRID
100
AcDbLine
 10
470077.0
 20
4349650.969369055
 30
0.0
 11
470077.0
 21
4349653.384939545
 31
0.0
  0
LINE
  5
A1
330
17
100
AcDbEntity
  8
DG_GRID
100
AcDbLine
 10
470044.90211915824
 20
4349638.0
 30
0.0
 11
470045.4205243254
 21
4349638.0
 31
0.0
  0
LINE
  5
A2
330
17
100
AcDbEntity
  8
DG_GRID
100
AcDbLine
 10
470045.05766930414
 20
4349639.0
 30
0.0
 11
470055.56363078573
 21
4349639.0
 31
0.0
  0
LINE
  5
A3
330
17
100
AcDbEntity
  8
DG_GRID
100
AcDbLine
 10
470045.2132194501
 20
4349640.0
 30
0.0
 11
470065.70673724863
 21
4349640.0
 31
0.0
  0
LINE
  5
A4
330
17
100
AcDbEntity
  8
DG_GRID
100
AcDbLine
 10
470045.36876959604
 20
4349641.0
 30
0.0
 11
470070.51779226115
 21
4349641.0
 31
0.0
  0
LINE
  5
A5
330
17
100
AcDbEntity
  8
DG_GRID
100
AcDbLine
 10
470045.52431974193
 20
4349642.0
 30
0.0
 11
470057.31312121806
 21
4349642.0
 31
0.0
  0
LINE
  5
A6
330
17
100
AcDbEntity
  8
DG_GRID
100
AcDbLine
 10
470058.5628619995
 20
4349642.0
 30
0.0
 11
470071.3298791586
 21
4349642.0
 31
0.0
  0
LINE
  5
A7
330
17
100
AcDbEntity
  8
DG_GRID
100
AcDbLine
 10
470045.6798698879
 20
4349643.0
 30
0.0
 11
470056.3647115982
 21
4349643.0
 31
0.0
  0
LINE
  5
A8
330
17
100
AcDbEntity
  8
DG_GRID
100
AcDbLine
 10
470059.0240283526
 20
4349643.0
 30
0.0
 11
470071.99191508675
 21
4349643.0
 31
0.0
  0
LINE
  5
A9
330
17
100
AcDbEntity
  8
DG_GRID
100
AcDbLine
 10
470047.3997864329
 20
4349644.0
 30
0.0
 11
470055.4163019784
 21
4349644.0
 31
0.0
  0
LINE
  5
AA
330
17
100
AcDbEntity
  8
DG_GRID
100
AcDbLine
 10
470059.48519470566
 20
4349644.0
 30
0.0
 11
470072.65395101486
 21
4349644.0
 31
0.0
  0
LINE
  5
AB
330
17
100
AcDbEntity
  8
DG_GRID
100
AcDbLine
 10
470048.69352787174
 20
4349645.0
 30
0.0
 11
470053.2031419353
 21
4349645.0
 31
0.0
  0
LINE
  5
AC
330
17
100
AcDbEntity
  8
DG_GRID
100
AcDbLine
 10
470059.9463610588
 20
4349645.0
 30
0.0
 11
470073.31598694273
 21
4349645.0
 31
0.0
  0
LINE
  5
AD
330
17
100
AcDbEntity
  8
DG_GRID
100
AcDbLine
 10
470049.51078429463
 20
4349646.0
 30
0.0
 11
470051.7920820276
 21
4349646.0
 31
0.0
  0
LINE
  5
AE
330
17
100
AcDbEntity
  8
DG_GRID
100
AcDbLine
 10
470060.4075274119
 20
4349646.0
 30
0.0
 11
470073.97203838156
 21
4349646.0
 31
0.0
  0
LINE
  5
AF
330
17
100
AcDbEntity
  8
DG_GRID
100
AcDbLine
 10
470050.32804071746
 20
4349647.0
 30
0.0
 11
470050.3810221199
 21
4349647.0
 31
0.0
  0
LINE
  5
B0
330
17
100
AcDbEntity
  8
DG_GRID
100
AcDbLine
 10
470061.8735398358
 20
4349647.0
 30
0.0
 11
470067.5813183843
 21
4349647.0
 31
0.0
  0
LINE
  5
B1
330
17
100
AcDbEntity
  8
DG_GRID
100
AcDbLine
 10
470068.15854131826
 20
4349647.0
 30
0.0
 11
470074.59299034864
 21
4349647.0
 31
0.0
  0
LINE
  5
B2
330
17
100
AcDbEntity
  8
DG_GRID
100
AcDbLine
 10
470062.6803964268
 20
4349648.0
 30
0.0
 11
470066.23032811884
 21
4349648.0
 31
0.0
  0
LINE
  5
B3
330
17
100
AcDbEntity
  8
DG_GRID
100
AcDbLine
 10
470068.8766226688
 20
4349648.0
 30
0.0
 11
470075.2139423157
 21
4349648.0
 31
0.0
  0
LINE
  5
B4
330
17
100
AcDbEntity
  8
DG_GRID
100
AcDbLine
 10
470063.48725301784
 20
4349649.0
 30
0.0
 11
470064.87933785334
 21
4349649.0
 31
0.0
  0
LINE
  5
B5
330
17
100
AcDbEntity
  8
DG_GRID
100
AcDbLine
 10
470069.5947040194
 20
4349649.0
 30
0.0
 11
470075.8348942826
 21
4349649.0
 31
0.0
  0
LINE
  5
B6
330
17
100
AcDbEntity
  8
DG_GRID
100
AcDbLine
 10
470070.3127853699
 20
4349650.0
 30
0.0
 11
470076.45584624953
 21
4349650.0
 31
0.0
  0
LINE
  5
B7
330
17
100
AcDbEntity
  8
DG_GRID
100
AcDbLine
 10
470070.93617725157
 20
4349651.0
 30
0.0
 11
470077.0133789971
 21
4349651.0
 31
0.0
  0
LINE
  5
B8
330
17
100
AcDbEntity
  8
DG_GRID
100
AcDbLine
 10
470070.95717183367
 20
4349652.0
 30
0.0
 11
470077.20862628415
 21
4349652.0
 31
0.0
  0
LINE
  5
B9
330
17
100
AcDbEntity
  8
DG_GRID
100
AcDbLine
 10
470071.6055332153
 20
4349653.0
 30
0.0
 11
470077.082715107
 21
4349653.0
 31
0.0
  0
LINE
  5
BA
330
17
100
AcDbEntity
  8
DG_GRID
100
AcDbLine
 10
470072.2538945969
 20
4349654.0
 30
0.0
 11
470076.8678369318
 21
4349654.0
 31
0.0
  0
LINE
  5
BB
330
17
100
AcDbEntity
  8
DG_GRID
100
AcDbLine
 10
470072.9022559785
 20
4349655.0
 30
0.0
 11
470076.65295875655
 21
4349655.0
 31
0.0
  0
LINE
  5
BC
330
17
100
AcDbEntity
  8
DG_GRID
100
AcDbLine
 10
470073.4663904834
 20
4349656.0
 30
0.0
 11
470076.4380805813
 21
4349656.0
 31
0.0
  0
LINE
  5
BD
330
17
100
AcDbEntity
  8
DG_GRID
100
AcDbLine
 10
470071.79109307245
 20
4349657.0
 30
0.0
 11
470076.2232024061
 21
4349657.0
 31
0.0
  0
LINE
  5
BE
330
17
100
AcDbEntity
  8
DG_GRID
100
AcDbLine
 10
470070.11579566146
 20
4349658.0
 30
0.0
 11
470076.0083242309
 21
4349658.0
 31
0.0
  0
LINE
  5
BF
330
17
100
AcDbEntity
  8
DG_GRID
100
AcDbLine
 10
470068.4404982505
 20
4349659.0
 30
0.0
 11
470075.7934460557
 21
4349659.0
 31
0.0
  0
LINE
  5
C0
330
17
100
AcDbEntity
  8
DG_GRID
100
AcDbLine
 10
470068.04783102387
 20
4349660.0
 30
0.0
 11
470075.5785678805
 21
4349660.0
 31
0.0
  0
LINE
  5
C1
330
17
100
AcDbEntity
  8
DG_GRID
100
AcDbLine
 10
470067.89036423503
 20
4349661.0
 30
0.0
 11
470075.3004172929
 21
4349661.0
 31
0.0
  0
LINE
  5
C2
330
17
100
AcDbEntity
  8
DG_GRID
100
AcDbLine
 10
470067.73289744626
 20
4349662.0
 30
0.0
 11
470074.58277335274
 21
4349662.0
 31
0.0
  0
LINE
  5
C3
330
17
100
AcDbEntity
  8
DG_GRID
100
AcDbLine
 10
470032.0
 20
4349647.459008397
 30
0.0
 11
470032.0
 21
4349649.328607949
 31
0.0
  0
LINE
  5
C4
330
17
100
AcDbEntity
  8
DG_GRID
100
AcDbLine
 10
470033.0
 20
4349646.881681595
 30
0.0
 11
470033.0
 21
4349650.148732173
 31
0.0
  0
LINE
  5
C5
330
17
100
AcDbEntity
  8
DG_GRID
100
AcDbLine
 10
470034.0
 20
4349646.304354793
 30
0.0
 11
470034.0
 21
4349650.968856397
 31
0.0
  0
LINE
  5
C6
330
17
100
AcDbEntity
  8
DG_GRID
100
AcDbLine
 10
470035.0
 20
4349645.727027992
 30
0.0
 11
470035.0
 21
4349651.788980622
 31
0.0
  0
LINE
  5
C7
330
17
100
AcDbEntity
  8
DG_GRID
100
AcDbLine
 10
470036.0
 20
4349645.034460094
 30
0.0
 11
470036.0
 21
4349651.576716873
 31
0.0
  0
LINE
  5
C8
330
17
100
AcDbEntity
  8
DG_GRID
100
AcDbLine
 10
470037.0
 20
4349644.086732146
 30
0.0
 11
470037.0
 21
4349651.042497725
 31
0.0
  0
LINE
  5
C9
330
17
100
AcDbEntity
  8
DG_GRID
100
AcDbLine
 10
470038.0
 20
4349643.353623226
 30
0.0
 11
470038.0
 21
4349650.508278577
 31
0.0
  0
LINE
  5
CA
330
17
100
AcDbEntity
  8
DG_GRID
100
AcDbLine
 10
470039.0
 20
4349642.96107803
 30
0.0
 11
470039.0
 21
4349650.956130117
 31
0.0
  0
LINE
  5
CB
330
17
100
AcDbEntity
  8
DG_GRID
100
AcDbLine
 10
470040.0
 20
4349642.982949951
 30
0.0
 11
470040.0
 21
4349651.900827269
 31
0.0
  0
LINE
  5
CC
330
17
100
AcDbEntity
  8
DG_GRID
100
AcDbLine
 10
470041.0
 20
4349643.237911183
 30
0.0
 11
470041.0
 21
4349652.84552442
 31
0.0
  0
LINE
  5
CD
330
17
100
AcDbEntity
  8
DG_GRID
100
AcDbLine
 10
470042.0
 20
4349644.32837171
 30
0.0
 11
470042.0
 21
4349653.128289882
 31
0.0
  0
LINE
  5
CE
330
17
100
AcDbEntity
  8
DG_GRID
100
AcDbLine
 10
470043.0
 20
4349645.418832237
 30
0.0
 11
470043.0
 21
4349646.199823834
 31
0.0
  0
LINE
  5
CF
330
17
100
AcDbEntity
  8
DG_GRID
100
AcDbLine
 10
470043.0
 20
4349646.347241161
 30
0.0
 11
470043.0
 21
4349652.585460806
 31
0.0
  0
LINE
  5
D0
330
17
100
AcDbEntity
  8
DG_GRID
100
AcDbLine
 10
470044.0
 20
4349647.804943182
 30
0.0
 11
470044.0
 21
4349652.0426317295
 31
0.0
  0
LINE
  5
D1
330
17
100
AcDbEntity
  8
DG_GRID
100
AcDbLine
 10
470045.0
 20
4349649.262645203
 30
0.0
 11
470045.0
 21
4349651.499802653
 31
0.0
  0
LINE
  5
D2
330
17
100
AcDbEntity
  8
DG_GRID
100
AcDbLine
 10
470038.4823611018
 20
4349643.0
 30
0.0
 11
470040.7795405443
 21
4349643.0
 31
0.0
  0
LINE
  5
D3
330
17
100
AcDbEntity
  8
DG_GRID
100
AcDbLine
 10
470037.1183073133
 20
4349644.0
 30
0.0
 11
470041.6988687786
 21
4349644.0
 31
0.0
  0
LINE
  5
D4
330
17
100
AcDbEntity
  8
DG_GRID
100
AcDbLine
 10
470036.0064955752
 20
4349645.0
 30
0.0
 11
470042.61591251905
 21
4349645.0
 31
0.0
  0
LINE
  5
D5
330
17
100
AcDbEntity
  8
DG_GRID
100
AcDbLine
 10
470034.5271793939
 20
4349646.0
 30
0.0
 11
470043.0321651376
 21
4349646.0
 31
0.0
  0
LINE
  5
D6
330
17
100
AcDbEntity
  8
DG_GRID
100
AcDbLine
 10
470032.7950581813
 20
4349647.0
 30
0.0
 11
470043.44779991347
 21
4349647.0
 31
0.0
  0
LINE
  5
D7
330
17
100
AcDbEntity
  8
DG_GRID
100
AcDbLine
 10
470031.72034715064
 20
4349648.0
 30
0.0
 11
470044.13381117355
 21
4349648.0
 31
0.0
  0
LINE
  5
D8
330
17
100
AcDbEntity
  8
DG_GRID
100
AcDbLine
 10
470031.59931929805
 20
4349649.0
 30
0.0
 11
470044.81982243364
 21
4349649.0
 31
0.0
  0
LINE
  5
D9
330
17
100
AcDbEntity
  8
DG_GRID
100
AcDbLine
 10
470032.81864677416
 20
4349650.0
 30
0.0
 11
470045.5058336937
 21
4349650.0
 31
0.0
  0
LINE
  5
DA
330
17
100
AcDbEntity
  8
DG_GRID
100
AcDbLine
 10
470034.0379742502
 20
4349651.0
 30
0.0
 11
470037.0795511079
 21
4349651.0
 31
0.0
  0
LINE
  5
DB
330
17
100
AcDbEntity
  8
DG_GRID
100
AcDbLine
 10
470039.04643803823
 20
4349651.0
 30
0.0
 11
470045.41267698363
 21
4349651.0
 31
0.0
  0
LINE
  5
DC
330
17
100
AcDbEntity
  8
DG_GRID
100
AcDbLine
 10
470040.1049783321
 20
4349652.0
 30
0.0
 11
470044.078536193
 21
4349652.0
 31
0.0
  0
LINE
  5
DD
330
17
100
AcDbEntity
  8
DG_GRID
100
AcDbLine
 10
470041.163518626
 20
4349653.0
 30
0.0
 11
470042.2363356865
 21
4349653.0
 31
0.0
  0
LINE
  5
DE
330
17
100
AcDbEntity
  8
DG_GRID
100
AcDbLine
 10
470049.0
 20
4349654.847578575
 30
0.0
 11
470049.0
 21
4349658.926485767
 31
0.0
  0
LINE
  5
DF
330
17
100
AcDbEntity
  8
DG_GRID
100
AcDbLine
 10
470050.0
 20
4349654.1393005755
 30
0.0
 11
470050.0
 21
4349659.097368896
 31
0.0
  0
LINE
  5
E0
330
17
100
AcDbEntity
  8
DG_GRID
100
AcDbLine
 10
470051.0
 20
4349653.431022577
 30
0.0
 11
470051.0
 21
4349659.268252024
 31
0.0
  0
LINE
  5
E1
330
17
100
AcDbEntity
  8
DG_GRID
100
AcDbLine
 10
470052.0
 20
4349652.722744578
 30
0.0
 11
470052.0
 21
4349659.439135154
 31
0.0
  0
LINE
  5
E2
330
17
100
AcDbEntity
  8
DG_GRID
100
AcDbLine
 10
470053.0
 20
4349651.13267581
 30
0.0
 11
470053.0
 21
4349659.610018283
 31
0.0
  0
LINE
  5
E3
330
17
100
AcDbEntity
  8
DG_GRID
100
AcDbLine
 10
470054.0
 20
4349650.721250773
 30
0.0
 11
470054.0
 21
4349659.780901412
 31
0.0
  0
LINE
  5
E4
330
17
100
AcDbEntity
  8
DG_GRID
100
AcDbLine
 10
470055.0
 20
4349650.309825737
 30
0.0
 11
470055.0
 21
4349659.675003818
 31
0.0
  0
LINE
  5
E5
330
17
100
AcDbEntity
  8
DG_GRID
100
AcDbLine
 10
470056.0
 20
4349649.898400702
 30
0.0
 11
470056.0
 21
4349655.898633115
 31
0.0
  0
LINE
  5
E6
330
17
100
AcDbEntity
  8
DG_GRID
100
AcDbLine
 10
470057.0
 20
4349649.491220703
 30
0.0
 11
470057.0
 21
4349655.240637186
 31
0.0
  0
LINE
  5
E7
330
17
100
AcDbEntity
  8
DG_GRID
100
AcDbLine
 10
470058.0
 20
4349650.815439453
 30
0.0
 11
470058.0
 21
4349654.582641258
 31
0.0
  0
LINE
  5
E8
330
17
100
AcDbEntity
  8
DG_GRID
100
AcDbLine
 10
470059.0
 20
4349652.139658203
 30
0.0
 11
470059.0
 21
4349653.924645329
 31
0.0
  0
LINE
  5
E9
330
17
100
AcDbEntity
  8
DG_GRID
100
AcDbLine
 10
470060.0
 20
4349652.567720449
 30
0.0
 11
470060.0
 21
4349654.461785871
 31
0.0
  0
LINE
  5
EA
330
17
100
AcDbEntity
  8
DG_GRID
100
AcDbLine
 10
470061.0
 20
4349652.024246973
 30
0.0
 11
470061.0
 21
4349655.699153306
 31
0.0
  0
LINE
  5
EB
330
17
100
AcDbEntity
  8
DG_GRID
100
AcDbLine
 10
470062.0
 20
4349651.480773497
 30
0.0
 11
470062.0
 21
4349656.4720421145
 31
0.0
  0
LINE
  5
EC
330
17
100
AcDbEntity
  8
DG_GRID
100
AcDbLine
 10
470063.0
 20
4349650.937300022
 30
0.0
 11
470063.0
 21
4349656.257884408
 31
0.0
  0
LINE
  5
ED
330
17
100
AcDbEntity
  8
DG_GRID
100
AcDbLine
 10
470064.0
 20
4349650.534401515
 30
0.0
 11
470064.0
 21
4349656.043726702
 31
0.0
  0
LINE
  5
EE
330
17
100
AcDbEntity
  8
DG_GRID
100
AcDbLine
 10
470065.0
 20
4349651.788255848
 30
0.0
 11
470065.0
 21
4349655.829568996
 31
0.0
  0
LINE
  5
EF
330
17
100
AcDbEntity
  8
DG_GRID
100
AcDbLine
 10
470066.0
 20
4349653.0421101805
 30
0.0
 11
470066.0
 21
4349655.61541129
 31
0.0
  0
LINE
  5
F0
330
17
100
AcDbEntity
  8
DG_GRID
100
AcDbLine
 10
470055.7530551379
 20
4349650.0
 30
0.0
 11
470057.3842109146
 21
4349650.0
 31
0.0
  0
LINE
  5
F1
330
17
100
AcDbEntity
  8
DG_GRID
100
AcDbLine
 10
470053.3224786969
 20
4349651.0
 30
0.0
 11
470058.1393731565
 21
4349651.0
 31
0.0
  0
LINE
  5
F2
330
17
100
AcDbEntity
  8
DG_GRID
100
AcDbLine
 10
470062.8846310235
 20
4349651.0
 30
0.0
 11
470064.3713337931
 21
4349651.0
 31
0.0
  0
LINE
  5
F3
330
17
100
AcDbEntity
  8
DG_GRID
100
AcDbLine
 10
470052.5095488641
 20
4349652.0
 30
0.0
 11
470058.89453539834
 21
4349652.0
 31
0.0
  0
LINE
  5
F4
330
17
100
AcDbEntity
  8
DG_GRID
100
AcDbLine
 10
470061.04461482295
 20
4349652.0
 30
0.0
 11
470065.16887460265
 21
4349652.0
 31
0.0
  0
LINE
  5
F5
330
17
100
AcDbEntity
  8
DG_GRID
100
AcDbLine
 10
470051.60855000035
 20
4349653.0
 30
0.0
 11
470065.9664154122
 21
4349653.0
 31
0.0
  0
LINE
  5
F6
330
17
100
AcDbEntity
  8
DG_GRID
100
AcDbLine
 10
470050.19667500025
 20
4349654.0
 30
0.0
 11
470058.8854785152
 21
4349654.0
 31
0.0
  0
LINE
  5
F7
330
17
100
AcDbEntity
  8
DG_GRID
100
AcDbLine
 10
470059.62679972255
 20
4349654.0
 30
0.0
 11
470066.355477672
 21
4349654.0
 31
0.0
  0
LINE
  5
F8
330
17
100
AcDbEntity
  8
DG_GRID
100
AcDbLine
 10
470048.78480000014
 20
4349655.0
 30
0.0
 11
470057.36571227224
 21
4349655.0
 31
0.0
  0
LINE
  5
F9
330
17
100
AcDbEntity
  8
DG_GRID
100
AcDbLine
 10
470060.43496710353
 20
4349655.0
 30
0.0
 11
470066.2015977306
 21
4349655.0
 31
0.0
  0
LINE
  5
FA
330
17
100
AcDbEntity
  8
DG_GRID
100
AcDbLine
 10
470048.3982831001
 20
4349656.0
 30
0.0
 11
470055.8459460293
 21
4349656.0
 31
0.0
  0
LINE
  5
FB
330
17
100
AcDbEntity
  8
DG_GRID
100
AcDbLine
 10
470061.24313448445
 20
4349656.0
 30
0.0
 11
470064.20417991676
 21
4349656.0
 31
0.0
  0
LINE
  5
FC
330
17
100
AcDbEntity
  8
DG_GRID
100
AcDbLine
 10
470048.2564639396
 20
4349657.0
 30
0.0
 11
470055.4701594365
 21
4349657.0
 31
0.0
  0
LINE
  5
FD
330
17
100
AcDbEntity
  8
DG_GRID
100
AcDbLine
 10
470048.1146447792
 20
4349658.0
 30
0.0
 11
470055.29439915036
 21
4349658.0
 31
0.0
  0
LINE
  5
FE
330
17
100
AcDbEntity
  8
DG_GRID
100
AcDbLine
 10
470049.4302018212
 20
4349659.0
 30
0.0
 11
470055.1186388642
 21
4349659.0
 31
0.0
  0
LINE
  5
FF
330
17
100
AcDbEntity
  8
DG_GRID
100
AcDbLine
 10
470030.0
 20
4349644.119728395
 30
0.0
 11
470030.0
 21
4349645.2138785785
 31
0.0
  0
LINE
  5
100
330
17
100
AcDbEntity
  8
DG_GRID
100
AcDbLine
 10
470031.0
 20
4349643.18145679
 30
0.0
 11
470031.0
 21
4349646.542287319
 31
0.0
  0
LINE
  5
101
330
17
100
AcDbEntity
  8
DG_GRID
100
AcDbLine
 10
470032.0
 20
4349637.294740764
 30
0.0
 11
470032.0
 21
4349647.459008397
 31
0.0
  0
LINE
  5
102
330
17
100
AcDbEntity
  8
DG_GRID
100
AcDbLine
 10
470033.0
 20
4349637.3131622
 30
0.0
 11
470033.0
 21
4349646.881681595
 31
0.0
  0
LINE
  5
103
330
17
100
AcDbEntity
  8
DG_GRID
100
AcDbLine
 10
470034.0
 20
4349637.331583636
 30
0.0
 11
470034.0
 21
4349646.304354793
 31
0.0
  0
LINE
  5
104
330
17
100
AcDbEntity
  8
DG_GRID
100
AcDbLine
 10
470035.0
 20
4349637.350005072
 30
0.0
 11
470035.0
 21
4349645.727027992
 31
0.0
  0
LINE
  5
105
330
17
100
AcDbEntity
  8
DG_GRID
100
AcDbLine
 10
470036.0
 20
4349637.368426508
 30
0.0
 11
470036.0
 21
4349645.034460094
 31
0.0
  0
LINE
  5
106
330
17
100
AcDbEntity
  8
DG_GRID
100
AcDbLine
 10
470037.0
 20
4349637.386847944
 30
0.0
 11
470037.0
 21
4349644.086732146
 31
0.0
  0
LINE
  5
107
330
17
100
AcDbEntity
  8
DG_GRID
100
AcDbLine
 10
470038.0
 20
4349637.40526938
 30
0.0
 11
470038.0
 21
4349643.353623226
 31
0.0
  0
LINE
  5
108
330
17
100
AcDbEntity
  8
DG_GRID
100
AcDbLine
 10
470039.0
 20
4349637.423690815
 30
0.0
 11
470039.0
 21
4349642.96107803
 31
0.0
  0
LINE
  5
109
330
17
100
AcDbEntity
  8
DG_GRID
100
AcDbLine
 10
470040.0
 20
4349637.465595244
 30
0.0
 11
470040.0
 21
4349642.982949951
 31
0.0
  0
LINE
  5
10A
330
17
100
AcDbEntity
  8
DG_GRID
100
AcDbLine
 10
470041.0
 20
4349637.56418437
 30
0.0
 11
470041.0
 21
4349643.237911183
 31
0.0
  0
LINE
  5
10B
330
17
100
AcDbEntity
  8
DG_GRID
100
AcDbLine
 10
470042.0
 20
4349637.6627734965
 30
0.0
 11
470042.0
 21
4349644.32837171
 31
0.0
  0
LINE
  5
10C
330
17
100
AcDbEntity
  8
DG_GRID
100
AcDbLine
 10
470043.0
 20
4349637.7613626225
 30
0.0
 11
470043.0
 21
4349645.418832237
 31
0.0
  0
LINE
  5
10D
330
17
100
AcDbEntity
  8
DG_GRID
100
AcDbLine
 10
470043.0
 20
4349646.199823834
 30
0.0
 11
470043.0
 21
4349646.347241161
 31
0.0
  0
LINE
  5
10E
330
17
100
AcDbEntity
  8
DG_GRID
100
AcDbLine
 10
470044.0
 20
4349637.8599517485
 30
0.0
 11
470044.0
 21
4349647.804943182
 31
0.0
  0
LINE
  5
10F
330
17
100
AcDbEntity
  8
DG_GRID
100
AcDbLine
 10
470045.0
 20
4349638.629255866
 30
0.0
 11
470045.0
 21
4349649.262645203
 31
0.0
  0
LINE
  5
110
330
17
100
AcDbEntity
  8
DG_GRID
100
AcDbLine
 10
470046.0
 20
4349643.770686961
 30
0.0
 11
470046.0
 21
4349652.12278291
 31
0.0
  0
LINE
  5
111
330
17
100
AcDbEntity
  8
DG_GRID
100
AcDbLine
 10
470047.0
 20
4349643.934506979
 30
0.0
 11
470047.0
 21
4349653.344491917
 31
0.0
  0
LINE
  5
112
330
17
100
AcDbEntity
  8
DG_GRID
100
AcDbLine
 10
470048.0
 20
4349644.151395018
 30
0.0
 11
470048.0
 21
4349654.566200924
 31
0.0
  0
LINE
  5
113
330
17
100
AcDbEntity
  8
DG_GRID
100
AcDbLine
 10
470049.0
 20
4349645.3750011865
 30
0.0
 11
470049.0
 21
4349654.847578575
 31
0.0
  0
LINE
  5
114
330
17
100
AcDbEntity
  8
DG_GRID
100
AcDbLine
 10
470050.0
 20
4349646.598607355
 30
0.0
 11
470050.0
 21
4349654.1393005755
 31
0.0
  0
LINE
  5
115
330
17
100
AcDbEntity
  8
DG_GRID
100
AcDbLine
 10
470051.0
 20
4349646.561338341
 30
0.0
 11
470051.0
 21
4349653.431022577
 31
0.0
  0
LINE
  5
116
330
17
100
AcDbEntity
  8
DG_GRID
100
AcDbLine
 10
470052.0
 20
4349645.852651209
 30
0.0
 11
470052.0
 21
4349652.722744578
 31
0.0
  0
LINE
  5
117
330
17
100
AcDbEntity
  8
DG_GRID
100
AcDbLine
 10
470053.0
 20
4349645.1439640755
 30
0.0
 11
470053.0
 21
4349651.13267581
 31
0.0
  0
LINE
  5
118
330
17
100
AcDbEntity
  8
DG_GRID
100
AcDbLine
 10
470054.0
 20
4349644.884277712
 30
0.0
 11
470054.0
 21
4349650.721250773
 31
0.0
  0
LINE
  5
119
330
17
100
AcDbEntity
  8
DG_GRID
100
AcDbLine
 10
470055.0
 20
4349644.438947444
 30
0.0
 11
470055.0
 21
4349650.309825737
 31
0.0
  0
LINE
  5
11A
330
17
100
AcDbEntity
  8
DG_GRID
100
AcDbLine
 10
470056.0
 20
4349643.384550716
 30
0.0
 11
470056.0
 21
4349649.898400702
 31
0.0
  0
LINE
  5
11B
330
17
100
AcDbEntity
  8
DG_GRID
100
AcDbLine
 10
470057.0
 20
4349642.330153988
 30
0.0
 11
470057.0
 21
4349649.491220703
 31
0.0
  0
LINE
  5
11C
330
17
100
AcDbEntity
  8
DG_GRID
100
AcDbLine
 10
470058.0
 20
4349641.27575726
 30
0.0
 11
470058.0
 21
4349650.815439453
 31
0.0
  0
LINE
  5
11D
330
17
100
AcDbEntity
  8
DG_GRID
100
AcDbLine
 10
470059.0
 20
4349642.947896562
 30
0.0
 11
470059.0
 21
4349652.139658203
 31
0.0
  0
LINE
  5
11E
330
17
100
AcDbEntity
  8
DG_GRID
100
AcDbLine
 10
470060.0
 20
4349645.11631148
 30
0.0
 11
470060.0
 21
4349652.567720449
 31
0.0
  0
LINE
  5
11F
330
17
100
AcDbEntity
  8
DG_GRID
100
AcDbLine
 10
470061.0
 20
4349646.097280192
 30
0.0
 11
470061.0
 21
4349652.024246973
 31
0.0
  0
LINE
  5
120
330
17
100
AcDbEntity
  8
DG_GRID
100
AcDbLine
 10
470062.0
 20
4349647.156731897
 30
0.0
 11
470062.0
 21
4349651.480773497
 31
0.0
  0
LINE
  5
121
330
17
100
AcDbEntity
  8
DG_GRID
100
AcDbLine
 10
470063.0
 20
4349648.396109515
 30
0.0
 11
470063.0
 21
4349650.937300022
 31
0.0
  0
LINE
  5
122
330
17
100
AcDbEntity
  8
DG_GRID
100
AcDbLine
 10
470064.0
 20
4349649.635487134
 30
0.0
 11
470064.0
 21
4349650.534401515
 31
0.0
  0
LINE
  5
123
330
17
100
AcDbEntity
  8
DG_GRID
100
AcDbLine
 10
470065.0
 20
4349648.9106861465
 30
0.0
 11
470065.0
 21
4349651.788255848
 31
0.0
  0
LINE
  5
124
330
17
100
AcDbEntity
  8
DG_GRID
100
AcDbLine
 10
470066.0
 20
4349648.170488363
 30
0.0
 11
470066.0
 21
4349653.0421101805
 31
0.0
  0
LINE
  5
125
330
17
100
AcDbEntity
  8
DG_GRID
100
AcDbLine
 10
470067.0
 20
4349647.43029058
 30
0.0
 11
470067.0
 21
4349653.3167111995
 31
0.0
  0
LINE
  5
126
330
17
100
AcDbEntity
  8
DG_GRID
100
AcDbLine
 10
470068.0
 20
4349646.77921538
 30
0.0
 11
470068.0
 21
4349652.877691876
 31
0.0
  0
LINE
  5
127
330
17
100
AcDbEntity
  8
DG_GRID
100
AcDbLine
 10
470069.0
 20
4349648.171815257
 30
0.0
 11
470069.0
 21
4349652.438672554
 31
0.0
  0
LINE
  5
128
330
17
100
AcDbEntity
  8
DG_GRID
100
AcDbLine
 10
470070.0
 20
4349649.564415133
 30
0.0
 11
470070.0
 21
4349651.999653231
 31
0.0
  0
LINE
  5
129
330
17
100
AcDbEntity
  8
DG_GRID
100
AcDbLine
 10
470031.2180257736
 20
4349638.0
 30
0.0
 11
470044.90211915824
 21
4349638.0
 31
0.0
  0
LINE
  5
12A
330
17
100
AcDbEntity
  8
DG_GRID
100
AcDbLine
 10
470031.32111855695
 20
4349639.0
 30
0.0
 11
470045.05766930414
 21
4349639.0
 31
0.0
  0
LINE
  5
12B
330
17
100
AcDbEntity
  8
DG_GRID
100
AcDbLine
 10
470031.4242113403
 20
4349640.0
 30
0.0
 11
470045.2132194501
 21
4349640.0
 31
0.0
  0
LINE
  5
12C
330
17
100
AcDbEntity
  8
DG_GRID
100
AcDbLine
 10
470031.5273041237
 20
4349641.0
 30
0.0
 11
470045.36876959604
 21
4349641.0
 31
0.0
  0
LINE
  5
12D
330
17
100
AcDbEntity
  8
DG_GRID
100
AcDbLine
 10
470031.63039690704
 20
4349642.0
 30
0.0
 11
470045.52431974193
 21
4349642.0
 31
0.0
  0
LINE
  5
12E
330
17
100
AcDbEntity
  8
DG_GRID
100
AcDbLine
 10
470057.31312121806
 20
4349642.0
 30
0.0
 11
470058.5628619995
 21
4349642.0
 31
0.0
  0
LINE
  5
12F
330
17
100
AcDbEntity
  8
DG_GRID
100
AcDbLine
 10
470031.19339473685
 20
4349643.0
 30
0.0
 11
470038.4823611018
 21
4349643.0
 31
0.0
  0
LINE
  5
130
330
17
100
AcDbEntity
  8
DG_GRID
100
AcDbLine
 10
470040.7795405443
 20
4349643.0
 30
0.0
 11
470045.6798698879
 21
4349643.0
 31
0.0
  0
LINE
  5
131
330
17
100
AcDbEntity
  8
DG_GRID
100
AcDbLine
 10
470056.3647115982
 20
4349643.0
 30
0.0
 11
470059.0240283526
 21
4349643.0
 31
0.0
  0
LINE
  5
132
330
17
100
AcDbEntity
  8
DG_GRID
100
AcDbLine
 10
470030.12760526326
 20
4349644.0
 30
0.0
 11
470037.1183073133
 21
4349644.0
 31
0.0
  0
LINE
  5
133
330
17
100
AcDbEntity
  8
DG_GRID
100
AcDbLine
 10
470041.6988687786
 20
4349644.0
 30
0.0
 11
470047.3997864329
 21
4349644.0
 31
0.0
  0
LINE
  5
134
330
17
100
AcDbEntity
  8
DG_GRID
100
AcDbLine
 10
470055.4163019784
 20
4349644.0
 30
0.0
 11
470059.48519470566
 21
4349644.0
 31
0.0
  0
LINE
  5
135
330
17
100
AcDbEntity
  8
DG_GRID
100
AcDbLine
 10
470029.83899640845
 20
4349645.0
 30
0.0
 11
470036.0064955752
 21
4349645.0
 31
0.0
  0
LINE
  5
136
330
17
100
AcDbEntity
  8
DG_GRID
100
AcDbLine
 10
470042.61591251905
 20
4349645.0
 30
0.0
 11
470048.69352787174
 21
4349645.0
 31
0.0
  0
LINE
  5
137
330
17
100
AcDbEntity
  8
DG_GRID
100
AcDbLine
 10
470053.2031419353
 20
4349645.0
 30
0.0
 11
470059.9463610588
 21
4349645.0
 31
0.0
  0
LINE
  5
138
330
17
100
AcDbEntity
  8
DG_GRID
100
AcDbLine
 10
470030.5917767609
 20
4349646.0
 30
0.0
 11
470034.5271793939
 21
4349646.0
 31
0.0
  0
LINE
  5
139
330
17
100
AcDbEntity
  8
DG_GRID
100
AcDbLine
 10
470043.0321651376
 20
4349646.0
 30
0.0
 11
470049.51078429463
 21
4349646.0
 31
0.0
  0
LINE
  5
13A
330
17
100
AcDbEntity
  8
DG_GRID
100
AcDbLine
 10
470051.7920820276
 20
4349646.0
 30
0.0
 11
470060.4075274119
 21
4349646.0
 31
0.0
  0
LINE
  5
13B
330
17
100
AcDbEntity
  8
DG_GRID
100
AcDbLine
 10
470031.34455711336
 20
4349647.0
 30
0.0
 11
470032.7950581813
 21
4349647.0
 31
0.0
  0
LINE
  5
13C
330
17
100
AcDbEntity
  8
DG_GRID
100
AcDbLine
 10
470043.44779991347
 20
4349647.0
 30
0.0
 11
470050.32804071746
 21
4349647.0
 31
0.0
  0
LINE
  5
13D
330
17
100
AcDbEntity
  8
DG_GRID
100
AcDbLine
 10
470050.3810221199
 20
4349647.0
 30
0.0
 11
470061.8735398358
 21
4349647.0
 31
0.0
  0
LINE
  5
13E
330
17
100
AcDbEntity
  8
DG_GRID
100
AcDbLine
 10
470067.5813183843
 20
4349647.0
 30
0.0
 11
470068.15854131826
 21
4349647.0
 31
0.0
  0
LINE
  5
13F
330
17
100
AcDbEntity
  8
DG_GRID
100
AcDbLine
 10
470044.13381117355
 20
4349648.0
 30
0.0
 11
470062.6803964268
 21
4349648.0
 31
0.0
  0
LINE
  5
140
330
17
100
AcDbEntity
  8
DG_GRID
100
AcDbLine
 10
470066.23032811884
 20
4349648.0
 30
0.0
 11
470068.8766226688
 21
4349648.0
 31
0.0
  0
LINE
  5
141
330
17
100
AcDbEntity
  8
DG_GRID
100
AcDbLine
 10
470044.81982243364
 20
4349649.0
 30
0.0
 11
470063.48725301784
 21
4349649.0
 31
0.0
  0
LINE
  5
142
330
17
100
AcDbEntity
  8
DG_GRID
100
AcDbLine
 10
470064.87933785334
 20
4349649.0
 30
0.0
 11
470069.5947040194
 21
4349649.0
 31
0.0
  0
LINE
  5
143
330
17
100
AcDbEntity
  8
DG_GRID
100
AcDbLine
 10
470045.5058336937
 20
4349650.0
 30
0.0
 11
470055.7530551379
 21
4349650.0
 31
0.0
  0
LINE
  5
144
330
17
100
AcDbEntity
  8
DG_GRID
100
AcDbLine
 10
470057.3842109146
 20
4349650.0
 30
0.0
 11
470070.3127853699
 21
4349650.0
 31
0.0
  0
LINE
  5
145
330
17
100
AcDbEntity
  8
DG_GRID
100
AcDbLine
 10
470045.41267698363
 20
4349651.0
 30
0.0
 11
470053.3224786969
 21
4349651.0
 31
0.0
  0
LINE
  5
146
330
17
100
AcDbEntity
  8
DG_GRID
100
AcDbLine
 10
470058.1393731565
 20
4349651.0
 30
0.0
 11
470062.8846310235
 21
4349651.0
 31
0.0
  0
LINE
  5
147
330
17
100
AcDbEntity
  8
DG_GRID
100
AcDbLine
 10
470064.3713337931
 20
4349651.0
 30
0.0
 11
470070.93617725157
 21
4349651.0
 31
0.0
  0
LINE
  5
148
330
17
100
AcDbEntity
  8
DG_GRID
100
AcDbLine
 10
470045.89949905477
 20
4349652.0
 30
0.0
 11
470052.5095488641
 21
4349652.0
 31
0.0
  0
LINE
  5
149
330
17
100
AcDbEntity
  8
DG_GRID
100
AcDbLine
 10
470058.89453539834
 20
4349652.0
 30
0.0
 11
470061.04461482295
 21
4349652.0
 31
0.0
  0
LINE
  5
14A
330
17
100
AcDbEntity
  8
DG_GRID
100
AcDbLine
 10
470065.16887460265
 20
4349652.0
 30
0.0
 11
470069.9992101279
 21
4349652.0
 31
0.0
  0
LINE
  5
14B
330
17
100
AcDbEntity
  8
DG_GRID
100
AcDbLine
 10
470046.7180245746
 20
4349653.0
 30
0.0
 11
470051.60855000035
 21
4349653.0
 31
0.0
  0
LINE
  5
14C
330
17
100
AcDbEntity
  8
DG_GRID
100
AcDbLine
 10
470065.9664154122
 20
4349653.0
 30
0.0
 11
470067.7214060581
 21
4349653.0
 31
0.0
  0
LINE
  5
14D
330
17
100
AcDbEntity
  8
DG_GRID
100
AcDbLine
 10
470047.53655009443
 20
4349654.0
 30
0.0
 11
470050.19667500025
 21
4349654.0
 31
0.0
  0
LINE
  5
14E
330
17
100
AcDbEntity
  8
DG_GRID
100
AcDbLine
 10
470048.3550756143
 20
4349655.0
 30
0.0
 11
470048.78480000014
 21
4349655.0
 31
0.0
  0
LINE
  5
14F
330
17
100
AcDbEntity
  8
DG_GRID
100
AcDbLine
 10
470001.0
 20
4349642.444978765
 30
0.0
 11
470001.0
 21
4349645.628189007
 31
0.0
  0
LINE
  5
150
330
17
100
AcDbEntity
  8
DG_GRID
100
AcDbLine
 10
470002.0
 20
4349641.466074551
 30
0.0
 11
470002.0
 21
4349646.608356433
 31
0.0
  0
LINE
  5
151
330
17
100
AcDbEntity
  8
DG_GRID
100
AcDbLine
 10
470003.0
 20
4349641.01914337
 30
0.0
 11
470003.0
 21
4349647.047824637
 31
0.0
  0
LINE
  5
152
330
17
100
AcDbEntity
  8
DG_GRID
100
AcDbLine
 10
470004.0
 20
4349640.615078609
 30
0.0
 11
470004.0
 21
4349647.439554779
 31
0.0
  0
LINE
  5
153
330
17
100
AcDbEntity
  8
DG_GRID
100
AcDbLine
 10
470005.0
 20
4349640.211013849
 30
0.0
 11
470005.0
 21
4349647.83128492
 31
0.0
  0
LINE
  5
154
330
17
100
AcDbEntity
  8
DG_GRID
100
AcDbLine
 10
470006.0
 20
4349639.812169107
 30
0.0
 11
470006.0
 21
4349648.223015062
 31
0.0
  0
LINE
  5
155
330
17
100
AcDbEntity
  8
DG_GRID
100
AcDbLine
 10
470007.0
 20
4349639.415865205
 30
0.0
 11
470007.0
 21
4349648.6147452025
 31
0.0
  0
LINE
  5
156
330
17
100
AcDbEntity
  8
DG_GRID
100
AcDbLine
 10
470008.0
 20
4349639.019561304
 30
0.0
 11
470008.0
 21
4349649.006475344
 31
0.0
  0
LINE
  5
157
330
17
100
AcDbEntity
  8
DG_GRID
100
AcDbLine
 10
470009.0
 20
4349641.137570175
 30
0.0
 11
470009.0
 21
4349649.398205486
 31
0.0
  0
LINE
  5
158
330
17
100
AcDbEntity
  8
DG_GRID
100
AcDbLine
 10
470010.0
 20
4349642.146342105
 30
0.0
 11
470010.0
 21
4349649.789935628
 31
0.0
  0
LINE
  5
159
330
17
100
AcDbEntity
  8
DG_GRID
100
AcDbLine
 10
470011.0
 20
4349643.155114035
 30
0.0
 11
470011.0
 21
4349650.181665769
 31
0.0
  0
LINE
  5
15A
330
17
100
AcDbEntity
  8
DG_GRID
100
AcDbLine
 10
470012.0
 20
4349643.462644904
 30
0.0
 11
470012.0
 21
4349650.573395911
 31
0.0
  0
LINE
  5
15B
330
17
100
AcDbEntity
  8
DG_GRID
100
AcDbLine
 10
470013.0
 20
4349642.793020157
 30
0.0
 11
470013.0
 21
4349650.965126052
 31
0.0
  0
LINE
  5
15C
330
17
100
AcDbEntity
  8
DG_GRID
100
AcDbLine
 10
470014.0
 20
4349638.749
 30
0.0
 11
470014.0
 21
4349651.356856193
 31
0.0
  0
LINE
  5
15D
330
17
100
AcDbEntity
  8
DG_GRID
100
AcDbLine
 10
470015.0
 20
4349637.61055147
 30
0.0
 11
470015.0
 21
4349651.748586335
 31
0.0
  0
LINE
  5
15E
330
17
100
AcDbEntity
  8
DG_GRID
100
AcDbLine
 10
470016.0
 20
4349637.570548613
 30
0.0
 11
470016.0
 21
4349652.140316476
 31
0.0
  0
LINE
  5
15F
330
17
100
AcDbEntity
  8
DG_GRID
100
AcDbLine
 10
470017.0
 20
4349637.530545755
 30
0.0
 11
470017.0
 21
4349652.437695848
 31
0.0
  0
LINE
  5
160
330
17
100
AcDbEntity
  8
DG_GRID
100
AcDbLine
 10
470018.0
 20
4349637.490542898
 30
0.0
 11
470018.0
 21
4349652.658422437
 31
0.0
  0
LINE
  5
161
330
17
100
AcDbEntity
  8
DG_GRID
100
AcDbLine
 10
470019.0
 20
4349637.450540041
 30
0.0
 11
470019.0
 21
4349652.879149025
 31
0.0
  0
LINE
  5
162
330
17
100
AcDbEntity
  8
DG_GRID
100
AcDbLine
 10
470020.0
 20
4349637.410537183
 30
0.0
 11
470020.0
 21
4349653.099875614
 31
0.0
  0
LINE
  5
163
330
17
100
AcDbEntity
  8
DG_GRID
100
AcDbLine
 10
470021.0
 20
4349637.370534326
 30
0.0
 11
470021.0
 21
4349653.320602202
 31
0.0
  0
LINE
  5
164
330
17
100
AcDbEntity
  8
DG_GRID
100
AcDbLine
 10
470022.0
 20
4349641.904074324
 30
0.0
 11
470022.0
 21
4349653.541328791
 31
0.0
  0
LINE
  5
165
330
17
100
AcDbEntity
  8
DG_GRID
100
AcDbLine
 10
470023.0
 20
4349644.078560849
 30
0.0
 11
470023.0
 21
4349653.762055379
 31
0.0
  0
LINE
  5
166
330
17
100
AcDbEntity
  8
DG_GRID
100
AcDbLine
 10
470024.0
 20
4349645.423670219
 30
0.0
 11
470024.0
 21
4349653.982781967
 31
0.0
  0
LINE
  5
167
330
17
100
AcDbEntity
  8
DG_GRID
100
AcDbLine
 10
470025.0
 20
4349647.905262203
 30
0.0
 11
470025.0
 21
4349654.203508556
 31
0.0
  0
LINE
  5
168
330
17
100
AcDbEntity
  8
DG_GRID
100
AcDbLine
 10
470026.0
 20
4349648.579382738
 30
0.0
 11
470026.0
 21
4349654.424235145
 31
0.0
  0
LINE
  5
169
330
17
100
AcDbEntity
  8
DG_GRID
100
AcDbLine
 10
470027.0
 20
4349649.253503272
 30
0.0
 11
470027.0
 21
4349654.644961732
 31
0.0
  0
LINE
  5
16A
330
17
100
AcDbEntity
  8
DG_GRID
100
AcDbLine
 10
470028.0
 20
4349649.927623807
 30
0.0
 11
470028.0
 21
4349654.865688321
 31
0.0
  0
LINE
  5
16B
330
17
100
AcDbEntity
  8
DG_GRID
100
AcDbLine
 10
470029.0
 20
4349650.601744342
 30
0.0
 11
470029.0
 21
4349655.08641491
 31
0.0
  0
LINE
  5
16C
330
17
100
AcDbEntity
  8
DG_GRID
100
AcDbLine
 10
470030.0
 20
4349650.059752025
 30
0.0
 11
470030.0
 21
4349655.307141499
 31
0.0
  0
LINE
  5
16D
330
17
100
AcDbEntity
  8
DG_GRID
100
AcDbLine
 10
470031.0
 20
4349649.370437388
 30
0.0
 11
470031.0
 21
4349655.527868087
 31
0.0
  0
LINE
  5
16E
330
17
100
AcDbEntity
  8
DG_GRID
100
AcDbLine
 10
470032.0
 20
4349649.328607949
 30
0.0
 11
470032.0
 21
4349655.748594675
 31
0.0
  0
LINE
  5
16F
330
17
100
AcDbEntity
  8
DG_GRID
100
AcDbLine
 10
470033.0
 20
4349650.148732173
 30
0.0
 11
470033.0
 21
4349655.969321264
 31
0.0
  0
LINE
  5
170
330
17
100
AcDbEntity
  8
DG_GRID
100
AcDbLine
 10
470034.0
 20
4349650.968856397
 30
0.0
 11
470034.0
 21
4349656.190047853
 31
0.0
  0
LINE
  5
171
330
17
100
AcDbEntity
  8
DG_GRID
100
AcDbLine
 10
470035.0
 20
4349651.788980622
 30
0.0
 11
470035.0
 21
4349656.410774441
 31
0.0
  0
LINE
  5
172
330
17
100
AcDbEntity
  8
DG_GRID
100
AcDbLine
 10
470036.0
 20
4349651.576716873
 30
0.0
 11
470036.0
 21
4349656.63150103
 31
0.0
  0
LINE
  5
173
330
17
100
AcDbEntity
  8
DG_GRID
100
AcDbLine
 10
470037.0
 20
4349651.042497725
 30
0.0
 11
470037.0
 21
4349656.852227618
 31
0.0
  0
LINE
  5
174
330
17
100
AcDbEntity
  8
DG_GRID
100
AcDbLine
 10
470038.0
 20
4349650.508278577
 30
0.0
 11
470038.0
 21
4349657.046771348
 31
0.0
  0
LINE
  5
175
330
17
100
AcDbEntity
  8
DG_GRID
100
AcDbLine
 10
470039.0
 20
4349650.956130117
 30
0.0
 11
470039.0
 21
4349657.217654477
 31
0.0
  0
LINE
  5
176
330
17
100
AcDbEntity
  8
DG_GRID
100
AcDbLine
 10
470040.0
 20
4349651.900827269
 30
0.0
 11
470040.0
 21
4349657.388537606
 31
0.0
  0
LINE
  5
177
330
17
100
AcDbEntity
  8
DG_GRID
100
AcDbLine
 10
470041.0
 20
4349652.84552442
 30
0.0
 11
470041.0
 21
4349657.448236585
 31
0.0
  0
LINE
  5
178
330
17
100
AcDbEntity
  8
DG_GRID
100
AcDbLine
 10
470014.0991323528
 20
4349638.0
 30
0.0
 11
470021.606579891
 21
4349638.0
 31
0.0
  0
LINE
  5
179
330
17
100
AcDbEntity
  8
DG_GRID
100
AcDbLine
 10
470013.9667794117
 20
4349639.0
 30
0.0
 11
470021.707351566
 21
4349639.0
 31
0.0
  0
LINE
  5
17A
330
17
100
AcDbEntity
  8
DG_GRID
100
AcDbLine
 10
470005.5260432902
 20
4349640.0
 30
0.0
 11
470008.4061622178
 21
4349640.0
 31
0.0
  0
LINE
  5
17B
330
17
100
AcDbEntity
  8
DG_GRID
100
AcDbLine
 10
470013.8344264706
 20
4349640.0
 30
0.0
 11
470021.808123241
 21
4349640.0
 31
0.0
  0
LINE
  5
17C
330
17
100
AcDbEntity
  8
DG_GRID
100
AcDbLine
 10
470003.04737698426
 20
4349641.0
 30
0.0
 11
470008.86362608697
 21
4349641.0
 31
0.0
  0
LINE
  5
17D
330
17
100
AcDbEntity
  8
DG_GRID
100
AcDbLine
 10
470013.7020735295
 20
4349641.0
 30
0.0
 11
470021.90889491607
 21
4349641.0
 31
0.0
  0
LINE
  5
17E
330
17
100
AcDbEntity
  8
DG_GRID
100
AcDbLine
 10
470001.341504706
 20
4349642.0
 30
0.0
 11
470009.8549304347
 21
4349642.0
 31
0.0
  0
LINE
  5
17F
330
17
100
AcDbEntity
  8
DG_GRID
100
AcDbLine
 10
470013.5697205884
 20
4349642.0
 30
0.0
 11
470022.00966659107
 21
4349642.0
 31
0.0
  0
LINE
  5
180
330
17
100
AcDbEntity
  8
DG_GRID
100
AcDbLine
 10
470000.7276779753
 20
4349643.0
 30
0.0
 11
470010.84623478254
 21
4349643.0
 31
0.0
  0
LINE
  5
181
330
17
100
AcDbEntity
  8
DG_GRID
100
AcDbLine
 10
470012.6909017419
 20
4349643.0
 30
0.0
 11
470022.11043826607
 21
4349643.0
 31
0.0
  0
LINE
  5
182
330
17
100
AcDbEntity
  8
DG_GRID
100
AcDbLine
 10
470000.5413932597
 20
4349644.0
 30
0.0
 11
470022.80748014717
 21
4349644.0
 31
0.0
  0
LINE
  5
183
330
17
100
AcDbEntity
  8
DG_GRID
100
AcDbLine
 10
470000.70060514746
 20
4349645.0
 30
0.0
 11
470023.7087073258
 21
4349645.0
 31
0.0
  0
LINE
  5
184
330
17
100
AcDbEntity
  8
DG_GRID
100
AcDbLine
 10
470001.27261832944
 20
4349646.0
 30
0.0
 11
470024.39625311305
 21
4349646.0
 31
0.0
  0
LINE
  5
185
330
17
100
AcDbEntity
  8
DG_GRID
100
AcDbLine
 10
470002.8779143293
 20
4349647.0
 30
0.0
 11
470024.49784981686
 21
4349647.0
 31
0.0
  0
LINE
  5
186
330
17
100
AcDbEntity
  8
DG_GRID
100
AcDbLine
 10
470005.43069210724
 20
4349648.0
 30
0.0
 11
470025.1405353965
 21
4349648.0
 31
0.0
  0
LINE
  5
187
330
17
100
AcDbEntity
  8
DG_GRID
100
AcDbLine
 10
470007.98346988455
 20
4349649.0
 30
0.0
 11
470026.6239496356
 21
4349649.0
 31
0.0
  0
LINE
  5
188
330
17
100
AcDbEntity
  8
DG_GRID
100
AcDbLine
 10
470031.53739956947
 20
4349649.0
 30
0.0
 11
470031.59931929805
 21
4349649.0
 31
0.0
  0
LINE
  5
189
330
17
100
AcDbEntity
  8
DG_GRID
100
AcDbLine
 10
470010.5362476616
 20
4349650.0
 30
0.0
 11
470028.1073638746
 21
4349650.0
 31
0.0
  0
LINE
  5
18A
330
17
100
AcDbEntity
  8
DG_GRID
100
AcDbLine
 10
470030.0866832379
 20
4349650.0
 30
0.0
 11
470032.81864677416
 21
4349650.0
 31
0.0
  0
LINE
  5
18B
330
17
100
AcDbEntity
  8
DG_GRID
100
AcDbLine
 10
470013.0890254395
 20
4349651.0
 30
0.0
 11
470034.0379742502
 21
4349651.0
 31
0.0
  0
LINE
  5
18C
330
17
100
AcDbEntity
  8
DG_GRID
100
AcDbLine
 10
470037.0795511079
 20
4349651.0
 30
0.0
 11
470039.04643803823
 21
4349651.0
 31
0.0
  0
LINE
  5
18D
330
17
100
AcDbEntity
  8
DG_GRID
100
AcDbLine
 10
470015.64180321724
 20
4349652.0
 30
0.0
 11
470040.1049783321
 21
4349652.0
 31
0.0
  0
LINE
  5
18E
330
17
100
AcDbEntity
  8
DG_GRID
100
AcDbLine
 10
470019.5475143513
 20
4349653.0
 30
0.0
 11
470041.163518626
 21
4349653.0
 31
0.0
  0
LINE
  5
18F
330
17
100
AcDbEntity
  8
DG_GRID
100
AcDbLine
 10
470024.07800615503
 20
4349654.0
 30
0.0
 11
470041.46925622306
 21
4349654.0
 31
0.0
  0
LINE
  5
190
330
17
100
AcDbEntity
  8
DG_GRID
100
AcDbLine
 10
470028.6084979595
 20
4349655.0
 30
0.0
 11
470041.3331703683
 21
4349655.0
 31
0.0
  0
LINE
  5
191
330
17
100
AcDbEntity
  8
DG_GRID
100
AcDbLine
 10
470033.1389897607
 20
4349656.0
 30
0.0
 11
470041.1970845135
 21
4349656.0
 31
0.0
  0
LINE
  5
192
330
17
100
AcDbEntity
  8
DG_GRID
100
AcDbLine
 10
470037.7262962796
 20
4349657.0
 30
0.0
 11
470041.0609986587
 21
4349657.0
 31
0.0
  0
LINE
  5
193
330
17
100
AcDbEntity
  8
DG_GRID
100
AcDbLine
 10
470055.0
 20
4349659.675003818
 30
0.0
 11
470055.0
 21
4349659.951784541
 31
0.0
  0
LINE
  5
194
330
17
100
AcDbEntity
  8
DG_GRID
100
AcDbLine
 10
470056.0
 20
4349655.898633115
 30
0.0
 11
470056.0
 21
4349660.122667669
 31
0.0
  0
LINE
  5
195
330
17
100
AcDbEntity
  8
DG_GRID
100
AcDbLine
 10
470057.0
 20
4349655.240637186
 30
0.0
 11
470057.0
 21
4349660.293550799
 31
0.0
  0
LINE
  5
196
330
17
100
AcDbEntity
  8
DG_GRID
100
AcDbLine
 10
470058.0
 20
4349654.582641258
 30
0.0
 11
470058.0
 21
4349660.464433928
 31
0.0
  0
LINE
  5
197
330
17
100
AcDbEntity
  8
DG_GRID
100
AcDbLine
 10
470059.0
 20
4349653.924645329
 30
0.0
 11
470059.0
 21
4349660.635317056
 31
0.0
  0
LINE
  5
198
330
17
100
AcDbEntity
  8
DG_GRID
100
AcDbLine
 10
470060.0
 20
4349654.461785871
 30
0.0
 11
470060.0
 21
4349660.806200186
 31
0.0
  0
LINE
  5
199
330
17
100
AcDbEntity
  8
DG_GRID
100
AcDbLine
 10
470061.0
 20
4349655.699153306
 30
0.0
 11
470061.0
 21
4349660.977083315
 31
0.0
  0
LINE
  5
19A
330
17
100
AcDbEntity
  8
DG_GRID
100
AcDbLine
 10
470062.0
 20
4349656.4720421145
 30
0.0
 11
470062.0
 21
4349661.147966444
 31
0.0
  0
LINE
  5
19B
330
17
100
AcDbEntity
  8
DG_GRID
100
AcDbLine
 10
470063.0
 20
4349656.257884408
 30
0.0
 11
470063.0
 21
4349661.318849573
 31
0.0
  0
LINE
  5
19C
330
17
100
AcDbEntity
  8
DG_GRID
100
AcDbLine
 10
470064.0
 20
4349656.043726702
 30
0.0
 11
470064.0
 21
4349661.480837559
 31
0.0
  0
LINE
  5
19D
330
17
100
AcDbEntity
  8
DG_GRID
100
AcDbLine
 10
470065.0
 20
4349655.829568996
 30
0.0
 11
470065.0
 21
4349661.638304348
 31
0.0
  0
LINE
  5
19E
330
17
100
AcDbEntity
  8
DG_GRID
100
AcDbLine
 10
470066.0
 20
4349655.61541129
 30
0.0
 11
470066.0
 21
4349661.795771137
 31
0.0
  0
LINE
  5
19F
330
17
100
AcDbEntity
  8
DG_GRID
100
AcDbLine
 10
470067.0
 20
4349657.122555963
 30
0.0
 11
470067.0
 21
4349661.953237926
 31
0.0
  0
LINE
  5
1A0
330
17
100
AcDbEntity
  8
DG_GRID
100
AcDbLine
 10
470068.0
 20
4349658.843622473
 30
0.0
 11
470068.0
 21
4349660.303753091
 31
0.0
  0
LINE
  5
1A1
330
17
100
AcDbEntity
  8
DG_GRID
100
AcDbLine
 10
470058.8854785152
 20
4349654.0
 30
0.0
 11
470059.62679972255
 21
4349654.0
 31
0.0
  0
LINE
  5
1A2
330
17
100
AcDbEntity
  8
DG_GRID
100
AcDbLine
 10
470057.36571227224
 20
4349655.0
 30
0.0
 11
470060.43496710353
 21
4349655.0
 31
0.0
  0
LINE
  5
1A3
330
17
100
AcDbEntity
  8
DG_GRID
100
AcDbLine
 10
470055.8459460293
 20
4349656.0
 30
0.0
 11
470061.24313448445
 21
4349656.0
 31
0.0
  0
LINE
  5
1A4
330
17
100
AcDbEntity
  8
DG_GRID
100
AcDbLine
 10
470064.20417991676
 20
4349656.0
 30
0.0
 11
470066.347755618
 21
4349656.0
 31
0.0
  0
LINE
  5
1A5
330
17
100
AcDbEntity
  8
DG_GRID
100
AcDbLine
 10
470055.4701594365
 20
4349657.0
 30
0.0
 11
470066.9287906878
 21
4349657.0
 31
0.0
  0
LINE
  5
1A6
330
17
100
AcDbEntity
  8
DG_GRID
100
AcDbLine
 10
470055.29439915036
 20
4349658.0
 30
0.0
 11
470067.50982575765
 21
4349658.0
 31
0.0
  0
LINE
  5
1A7
330
17
100
AcDbEntity
  8
DG_GRID
100
AcDbLine
 10
470055.1186388642
 20
4349659.0
 30
0.0
 11
470068.0908608275
 21
4349659.0
 31
0.0
  0
LINE
  5
1A8
330
17
100
AcDbEntity
  8
DG_GRID
100
AcDbLine
 10
470055.28215459053
 20
4349660.0
 30
0.0
 11
470068.04783102387
 21
4349660.0
 31
0.0
  0
LINE
  5
1A9
330
17
100
AcDbEntity
  8
DG_GRID
100
AcDbLine
 10
470061.1341073591
 20
4349661.0
 30
0.0
 11
470067.89036423503
 21
4349661.0
 31
0.0
  0
LINE
  5
1AA
330
17
100
AcDbEntity
  8
DG_GRID
100
AcDbLine
 10
470067.2969646774
 20
4349662.0
 30
0.0
 11
470067.73289744626
 21
4349662.0
 31
0.0
  0
LINE
  5
1AB
330
17
100
AcDbEntity
  8
DG_GRID
100
AcDbLine
 10
470041.0
 20
4349657.448236585
 30
0.0
 11
470041.0
 21
4349657.559420735
 31
0.0
  0
LINE
  5
1AC
330
17
100
AcDbEntity
  8
DG_GRID
100
AcDbLine
 10
470042.0
 20
4349653.128289882
 30
0.0
 11
470042.0
 21
4349657.730303864
 31
0.0
  0
LINE
  5
1AD
330
17
100
AcDbEntity
  8
DG_GRID
100
AcDbLine
 10
470043.0
 20
4349652.585460806
 30
0.0
 11
470043.0
 21
4349657.901186993
 31
0.0
  0
LINE
  5
1AE
330
17
100
AcDbEntity
  8
DG_GRID
100
AcDbLine
 10
470044.0
 20
4349652.0426317295
 30
0.0
 11
470044.0
 21
4349658.072070122
 31
0.0
  0
LINE
  5
1AF
330
17
100
AcDbEntity
  8
DG_GRID
100
AcDbLine
 10
470045.0
 20
4349651.499802653
 30
0.0
 11
470045.0
 21
4349658.242953251
 31
0.0
  0
LINE
  5
1B0
330
17
100
AcDbEntity
  8
DG_GRID
100
AcDbLine
 10
470046.0
 20
4349652.12278291
 30
0.0
 11
470046.0
 21
4349658.41383638
 31
0.0
  0
LINE
  5
1B1
330
17
100
AcDbEntity
  8
DG_GRID
100
AcDbLine
 10
470047.0
 20
4349653.344491917
 30
0.0
 11
470047.0
 21
4349658.584719509
 31
0.0
  0
LINE
  5
1B2
330
17
100
AcDbEntity
  8
DG_GRID
100
AcDbLine
 10
470048.0
 20
4349654.566200924
 30
0.0
 11
470048.0
 21
4349658.755602637
 31
0.0
  0
LINE
  5
1B3
330
17
100
AcDbEntity
  8
DG_GRID
100
AcDbLine
 10
470044.078536193
 20
4349652.0
 30
0.0
 11
470045.89949905477
 21
4349652.0
 31
0.0
  0
LINE
  5
1B4
330
17
100
AcDbEntity
  8
DG_GRID
100
AcDbLine
 10
470042.2363356865
 20
4349653.0
 30
0.0
 11
470046.7180245746
 21
4349653.0
 31
0.0
  0
LINE
  5
1B5
330
17
100
AcDbEntity
  8
DG_GRID
100
AcDbLine
 10
470041.46925622306
 20
4349654.0
 30
0.0
 11
470047.53655009443
 21
4349654.0
 31
0.0
  0
LINE
  5
1B6
330
17
100
AcDbEntity
  8
DG_GRID
100
AcDbLine
 10
470041.3331703683
 20
4349655.0
 30
0.0
 11
470048.3550756143
 21
4349655.0
 31
0.0
  0
LINE
  5
1B7
330
17
100
AcDbEntity
  8
DG_GRID
100
AcDbLine
 10
470041.1970845135
 20
4349656.0
 30
0.0
 11
470048.3982831001
 21
4349656.0
 31
0.0
  0
LINE
  5
1B8
330
17
100
AcDbEntity
  8
DG_GRID
100
AcDbLine
 10
470041.0609986587
 20
4349657.0
 30
0.0
 11
470048.2564639396
 21
4349657.0
 31
0.0
  0
LINE
  5
1B9
330
17
100
AcDbEntity
  8
DG_GRID
100
AcDbLine
 10
470043.57824905065
 20
4349658.0
 30
0.0
 11
470048.1146447792
 21
4349658.0
 31
0.0
  0
ENDSEC
  0
SECTION
  2
OBJECTS
  0
DICTIONARY
  5
A
330
0
100
AcDbDictionary
281
1
  3
ACAD_COLOR
350
B
  3
ACAD_GROUP
350
C
  3
ACAD_LAYOUT
350
D
  3
ACAD_MATERIAL
350
E
  3
ACAD_MLEADERSTYLE
350
F
  3
ACAD_MLINESTYLE
350
10
  3
ACAD_PLOTSETTINGS
350
11
  3
ACAD_PLOTSTYLENAME
350
12
  3
ACAD_SCALELIST
350
14
  3
ACAD_TABLESTYLE
350
15
  3
ACAD_VISUALSTYLE
350
16
  3
EZDXF_META
350
2D
  0
DICTIONARY
  5
B
330
A
100
AcDbDictionary
281
1
  0
DICTIONARY
  5
C
330
A
100
AcDbDictionary
281
1
  0
DICTIONARY
  5
D
330
A
100
AcDbDictionary
281
1
  3
Model
350
1A
  3
Layout1
350
1E
  0
DICTIONARY
  5
E
330
A
100
AcDbDictionary
281
1
  3
ByBlock
350
1F
  3
ByLayer
350
20
  3
Global
350
21
  0
DICTIONARY
  5
F
330
A
100
AcDbDictionary
281
1
  3
Standard
350
2C
  0
DICTIONARY
  5
10
330
A
100
AcDbDictionary
281
1
  3
Standard
350
22
  0
DICTIONARY
  5
11
330
A
100
AcDbDictionary
281
1
  0
ACDBDICTIONARYWDFLT
  5
12
330
A
100
AcDbDictionary
281
1
  3
Normal
350
13
100
AcDbDictionaryWithDefault
340
13
  0
ACDBPLACEHOLDER
  5
13
330
12
  0
DICTIONARY
  5
14
330
A
100
AcDbDictionary
281
1
  0
DICTIONARY
  5
15
330
A
100
AcDbDictionary
281
1
  0
DICTIONARY
  5
16
330
A
100
AcDbDictionary
281
1
  0
LAYOUT
  5
1A
330
D
100
AcDbPlotSettings
  1

  4
A3
  6

 40
7.5
 41
20.0
 42
7.5
 43
20.0
 44
420.0
 45
297.0
 46
0.0
 47
0.0
 48
0.0
 49
0.0
140
0.0
141
0.0
142
1.0
143
1.0
 70
1024
 72
1
 73
0
 74
5
  7

 75
16
 76
0
 77
2
 78
300
147
1.0
148
0.0
149
0.0
100
AcDbLayout
  1
Model
 70
1
 71
0
 10
0.0
 20
0.0
 11
420.0
 21
297.0
 12
0.0
 22
0.0
 32
0.0
 14
1e+20
 24
1e+20
 34
1e+20
 15
-1e+20
 25
-1e+20
 35
-1e+20
146
0.0
 13
0.0
 23
0.0
 33
0.0
 16
1.0
 26
0.0
 36
0.0
 17
0.0
 27
1.0
 37
0.0
 76
1
330
17
  0
LAYOUT
  5
1E
330
D
100
AcDbPlotSettings
  1

  4
A3
  6

 40
7.5
 41
20.0
 42
7.5
 43
20.0
 44
420.0
 45
297.0
 46
0.0
 47
0.0
 48
0.0
 49
0.0
140
0.0
141
0.0
142
1.0
143
1.0
 70
0
 72
1
 73
0
 74
5
  7

 75
16
 76
0
 77
2
 78
300
147
1.0
148
0.0
149
0.0
100
AcDbLayout
  1
Layout1
 70
1
 71
1
 10
0.0
 20
0.0
 11
420.0
 21
297.0
 12
0.0
 22
0.0
 32
0.0
 14
1e+20
 24
1e+20
 34
1e+20
 15
-1e+20
 25
-1e+20
 35
-1e+20
146
0.0
 13
0.0
 23
0.0
 33
0.0
 16
1.0
 26
0.0
 36
0.0
 17
0.0
 27
1.0
 37
0.0
 76
1
330
1B
  0
MATERIAL
  5
1F
102
{ACAD_REACTORS
330
E
102
}
330
E
100
AcDbMaterial
  1
ByBlock
  2

 70
0
 40
1.0
 71
1
 41
1.0
 91
-1023410177
 42
1.0
 72
1
  3

 73
1
 74
1
 75
1
 44
0.5
 73
0
 45
1.0
 46
1.0
 77
1
  4

 78
1
 79
1
170
1
 48
1.0
171
1
  6

172
1
173
1
174
1
140
1.0
141
1.0
175
1
  7

176
1
177
1
178
1
143
1.0
179
1
  8

270
1
271
1
272
1
145
1.0
146
1.0
273
1
  9

274
1
275
1
276
1
 42
1.0
 72
1
  3

 73
1
 74
1
 75
1
 94
63
  0
MATERIAL
  5
20
102
{ACAD_REACTORS
330
E
102
}
330
E
100
AcDbMaterial
  1
ByLayer
  2

 70
0
 40
1.0
 71
1
 41
1.0
 91
-1023410177
 42
1.0
 72
1
  3

 73
1
 74
1
 75
1
 44
0.5
 73
0
 45
1.0
 46
1.0
 77
1
  4

 78
1
 79
1
170
1
 48
1.0
171
1
  6

172
1
173
1
174
1
140
1.0
141
1.0
175
1
  7

176
1
177
1
178
1
143
1.0
179
1
  8

270
1
271
1
272
1
145
1.0
146
1.0
273
1
  9

274
1
275
1
276
1
 42
1.0
 72
1
  3

 73
1
 74
1
 75
1
 94
63
  0
MATERIAL
  5
21
102
{ACAD_REACTORS
330
E
102
}
330
E
100
AcDbMaterial
  1
Global
  2

 70
0
 40
1.0
 71
1
 41
1.0
 91
-1023410177
 42
1.0
 72
1
  3

 73
1
 74
1
 75
1
 44
0.5
 73
0
 45
1.0
 46
1.0
 77
1
  4

 78
1
 79
1
170
1
 48
1.0
171
1
  6

172
1
173
1
174
1
140
1.0
141
1.0
175
1
  7

176
1
177
1
178
1
143
1.0
179
1
  8

270
1
271
1
272
1
145
1.0
146
1.0
273
1
  9

274
1
275
1
276
1
 42
1.0
 72
1
  3

 73
1
 74
1
 75
1
 94
63
  0
MLINESTYLE
  5
22
102
{ACAD_REACTORS
330
10
102
}
330
10
100
AcDbMlineStyle
  2
Standard
 70
0
  3

 62
256
 51
90.0
 52
90.0
 71
2
 49
0.5
 62
256
  6
BYLAYER
 49
-0.5
 62
256
  6
BYLAYER
  0
MLEADERSTYLE
  5
2C
102
{ACAD_REACTORS
330
F
102
}
330
F
100
AcDbMLeaderStyle
179
2
170
2
171
1
172
0
 90
2
 40
0.0
 41
0.0
173
1
 91
-1056964608
 92
-2
290
1
 42
2.0
291
1
 43
8.0
  3
Standard
 44
4.0
300

342
29
174
1
175
1
176
0
178
1
 93
-1056964608
 45
4.0
292
0
297
0
 46
4.0
 94
-1056964608
 47
1.0
 49
1.0
140
1.0
294
1
141
0.0
177
0
142
1.0
295
0
296
0
143
3.75
271
0
272
9
273
9
  0
DICTIONARY
  5
2D
330
A
100
AcDbDictionary
280
1
281
1
  3
CREATED_BY_EZDXF
350
2E
  3
WRITTEN_BY_EZDXF
350
1BC
  0
DICTIONARYVAR
  5
2E
330
2D
100
DictionaryVariables
280
0
  1
1.4.4 @ 2026-10-08T08:03:32.136909+00:00
  0
DICTIONARYVAR
  5
1BC
330
2D
100
DictionaryVariables
280
0
  1
1.4.4 @ 2026-10-08T08:03:32.153911+00:00
  0
ENDSEC
  0
EOF
